<?xml version="1.0" encoding="UTF-8"?>
<svg id="Layer_1" data-name="Layer 1" xmlns="http://www.w3.org/2000/svg" xmlns:xlink="http://www.w3.org/1999/xlink" version="1.1" viewBox="0 0 365.93 88.94">
  <defs>
    <style>
      .cls-1 {
        fill: url(#linear-gradient);
      }

      .cls-1, .cls-2, .cls-3, .cls-4 {
        stroke-width: 0px;
      }

      .cls-2 {
        fill: url(#linear-gradient-2);
      }

      .cls-3 {
        fill: #c20e1a;
      }

      .cls-4 {
        fill: #fff;
      }
    </style>
    <linearGradient id="linear-gradient" x1="72.3" y1="768.67" x2="14.51" y2="826.48" gradientTransform="translate(-1.05 -752)" gradientUnits="userSpaceOnUse">
      <stop offset="0" stop-color="#82272a"/>
      <stop offset="1" stop-color="#ed1b24"/>
    </linearGradient>
    <linearGradient id="linear-gradient-2" x1="54.72" y1="780.69" x2="23.08" y2="812.32" gradientTransform="translate(-1.05 -752)" gradientUnits="userSpaceOnUse">
      <stop offset="0" stop-color="#82272a"/>
      <stop offset="1" stop-color="#ed1b24"/>
    </linearGradient>
  </defs>
  <g>
    <g>
      <path class="cls-3" d="M96.88,35.47h16.88c5.9,0,7.32,2.96,7.32,6.92v1.73c0,3.01-1.31,6.47-5.69,6.47h-12.31v5.08h-6.2v-20.21M103.07,45.57h9.63c1.46,0,2.01-.95,2.01-2.15v-.78c0-1.37-.67-2.15-2.54-2.15h-9.1v5.08Z"/>
      <polygon class="cls-3" points="149.65 35.47 173.7 35.47 173.7 40.5 164.86 40.5 164.86 55.68 158.54 55.68 158.54 40.5 149.65 40.5 149.65 35.47"/>
      <path class="cls-3" d="M176.29,35.47h18.96c4.83,0,6.13,2.37,6.13,6v1.28c0,2.71-.62,4.3-3.5,4.97v.06c1.87.33,3.42,1.14,3.42,4.47v3.43h-6.28v-2.43c0-2.12-.63-2.81-2.57-2.81h-9.87v5.24h-6.28v-20.21M182.57,45.41h10.38c1.7,0,2.32-.67,2.32-2.12v-.67c0-1.79-.9-2.12-2.89-2.12h-9.81v4.91h0Z"/>
      <path class="cls-3" d="M204.01,42.57c0-5.93,3.32-7.32,8.9-7.32h9.93c5.59,0,8.91,1.39,8.91,7.32v6.02c0,5.92-3.32,7.31-8.91,7.31h-9.93c-5.58,0-8.9-1.39-8.9-7.31v-6.02M210.38,46.67c0,2.93.61,4.04,3.54,4.04h7.93c2.93,0,3.54-1.11,3.54-4.04v-2.18c0-2.51-.61-4.05-3.88-4.05h-7.25c-3.26,0-3.88,1.54-3.88,4.05v2.18h0Z"/>
      <path class="cls-3" d="M125.9,55.68c-1.24,0-2.25-1.01-2.25-2.25h0v-15.46h0v-.21h0c0-1.24,1.01-2.25,2.25-2.25h21.11v4.69h-17.17v3.23h16.19v4.2h-16.19v3.22h17.4v4.86h-21.34"/>
      <polygon class="cls-3" points="234.35 55.68 234.35 35.47 240.61 35.47 240.61 50.49 254.57 50.49 254.57 55.68 234.35 55.68"/>
    </g>
    <g>
      <path class="cls-3" d="M271.73,35.48h16.88c1.47,0,2.68.18,3.62.53.95.35,1.69.84,2.23,1.45s.92,1.34,1.13,2.19.32,1.76.32,2.75v1.73c0,.76-.09,1.53-.28,2.29-.18.76-.5,1.46-.93,2.08-.44.62-1.02,1.13-1.74,1.52-.73.39-1.64.59-2.74.59h-12.3v5.08h-6.19v-20.2h0ZM277.92,45.58h9.62c.73,0,1.24-.21,1.55-.63.3-.42.46-.92.46-1.52v-.78c0-.69-.19-1.22-.56-1.59s-1.03-.56-1.98-.56h-9.09v5.08h0Z"/>
      <path class="cls-3" d="M306.69,35.48h8.06l11.1,20.2h-6.89l-1.92-3.57h-12.55l-1.82,3.57h-6.92l10.93-20.2h.01ZM306.8,47.75h7.92l-4.02-7.59-3.91,7.59h0Z"/>
      <path class="cls-3" d="M333.74,48.64l-11.18-13.17h7.47l6.81,8.26,6.81-8.26h7.48l-11.18,13.17v7.03h-6.19v-7.03h-.02Z"/>
    </g>
  </g>
  <g>
    <rect class="cls-1" x="12.03" y="15.25" width="60.65" height="60.65" rx="4.87" ry="4.87"/>
    <g>
      <path class="cls-4" d="M49.71,31.26h-25.52v30.22h8.71v-7.8h19.31c7.73,0,8.34-7.29,8.34-9.53v-2.66c0-5.06-1.28-10.22-10.83-10.22h-.01ZM50.76,43.07c0,1.32-.46,2.89-2.68,2.89h-14.38v-6.99h13.57c2.44,0,3.49.86,3.49,2.9,0,0,0,1.2,0,1.2Z"/>
      <path class="cls-2" d="M33.4,61.98h-9.71v-31.22l26.52.02c9.59.19,10.84,5.81,10.84,10.71v2.66c0,2.35-.64,10.03-8.84,10.03h-18.81v7.8ZM24.69,60.98h7.71v-7.8h19.81c7.27,0,7.84-6.91,7.84-9.03v-2.66c0-5.05-1.25-9.72-10.33-9.72h-25.03s0,29.21,0,29.21ZM48.08,46.46h-14.88v-7.99h14.07c2.72,0,3.99,1.08,3.99,3.4v1.2c0,2.15-1.16,3.39-3.18,3.39ZM34.2,45.46h13.88c.94,0,2.18-.25,2.18-2.39v-1.2c0-1.48-.5-2.4-2.99-2.4h-13.07v5.99Z"/>
    </g>
  </g>
</svg>