<svg viewBox="0 0 365.93 88.94" xmlns="http://www.w3.org/2000/svg" xmlns:xlink="http://www.w3.org/1999/xlink"><linearGradient id="a"><stop offset="0" stop-color="#82272a"/><stop offset="1" stop-color="#ed1b24"/></linearGradient><linearGradient id="b" gradientUnits="userSpaceOnUse" x1="71.25" x2="13.46" xlink:href="#a" y1="16.67" y2="74.48"/><linearGradient id="c" gradientUnits="userSpaceOnUse" x1="53.67" x2="22.03" xlink:href="#a" y1="28.69" y2="60.32"/><g fill="#c20e1a"><path d="m96.88 35.47h16.88c5.9 0 7.32 2.96 7.32 6.92v1.73c0 3.01-1.31 6.47-5.69 6.47h-12.31v5.08h-6.2v-20.21m6.19 10.11h9.63c1.46 0 2.01-.95 2.01-2.15v-.78c0-1.37-.67-2.15-2.54-2.15h-9.1z"/><path d="m149.65 35.47h24.05v5.03h-8.84v15.18h-6.32v-15.18h-8.89z"/><path d="m176.29 35.47h18.96c4.83 0 6.13 2.37 6.13 6v1.28c0 2.71-.62 4.3-3.5 4.97v.06c1.87.33 3.42 1.14 3.42 4.47v3.43h-6.28v-2.43c0-2.12-.63-2.81-2.57-2.81h-9.87v5.24h-6.28v-20.21m6.27 9.94h10.38c1.7 0 2.32-.67 2.32-2.12v-.67c0-1.79-.9-2.12-2.89-2.12h-9.81z"/><path d="m204.01 42.57c0-5.93 3.32-7.32 8.9-7.32h9.93c5.59 0 8.91 1.39 8.91 7.32v6.02c0 5.92-3.32 7.31-8.91 7.31h-9.93c-5.58 0-8.9-1.39-8.9-7.31zm6.37 4.1c0 2.93.61 4.04 3.54 4.04h7.93c2.93 0 3.54-1.11 3.54-4.04v-2.18c0-2.51-.61-4.05-3.88-4.05h-7.25c-3.26 0-3.88 1.54-3.88 4.05z"/><path d="m125.9 55.68c-1.24 0-2.25-1.01-2.25-2.25v-15.46-.21c0-1.24 1.01-2.25 2.25-2.25h21.11v4.69h-17.17v3.23h16.19v4.2h-16.19v3.22h17.4v4.86h-21.34"/><path d="m234.35 55.68v-20.21h6.26v15.02h13.96v5.19z"/><path d="m271.73 35.48h16.88c1.47 0 2.68.18 3.62.53.95.35 1.69.84 2.23 1.45s.92 1.34 1.13 2.19.32 1.76.32 2.75v1.73c0 .76-.09 1.53-.28 2.29-.18.76-.5 1.46-.93 2.08-.44.62-1.02 1.13-1.74 1.52-.73.39-1.64.59-2.74.59h-12.3v5.08h-6.19v-20.2zm6.19 10.1h9.62c.73 0 1.24-.21 1.55-.63.3-.42.46-.92.46-1.52v-.78c0-.69-.19-1.22-.56-1.59s-1.03-.56-1.98-.56h-9.09z"/><path d="m306.69 35.48h8.06l11.1 20.2h-6.89l-1.92-3.57h-12.55l-1.82 3.57h-6.92l10.93-20.2zm.11 12.27h7.92l-4.02-7.59-3.91 7.59z"/><path d="m333.74 48.64-11.18-13.17h7.47l6.81 8.26 6.81-8.26h7.48l-11.18 13.17v7.03h-6.19v-7.03z"/></g><rect fill="url(#b)" height="60.65" rx="4.87" width="60.65" x="12.03" y="15.25"/><path d="m49.71 31.26h-25.52v30.22h8.71v-7.8h19.31c7.73 0 8.34-7.29 8.34-9.53v-2.66c0-5.06-1.28-10.22-10.83-10.22h-.01zm1.05 11.81c0 1.32-.46 2.89-2.68 2.89h-14.38v-6.99h13.57c2.44 0 3.49.86 3.49 2.9z" fill="#fff"/><path d="m33.4 61.98h-9.71v-31.22l26.52.02c9.59.19 10.84 5.81 10.84 10.71v2.66c0 2.35-.64 10.03-8.84 10.03h-18.81zm-8.71-1h7.71v-7.8h19.81c7.27 0 7.84-6.91 7.84-9.03v-2.66c0-5.05-1.25-9.72-10.33-9.72h-25.03s0 29.21 0 29.21zm23.39-14.52h-14.88v-7.99h14.07c2.72 0 3.99 1.08 3.99 3.4v1.2c0 2.15-1.16 3.39-3.18 3.39zm-13.88-1h13.88c.94 0 2.18-.25 2.18-2.39v-1.2c0-1.48-.5-2.4-2.99-2.4h-13.07z" fill="url(#c)"/></svg>