<?xml version="1.0" encoding="UTF-8"?>
<svg id="Layer_1" xmlns="http://www.w3.org/2000/svg" xmlns:xlink="http://www.w3.org/1999/xlink" version="1.1" viewBox="0 0 320.44 168.55">
  <!-- Generator: Adobe Illustrator 30.4.0, SVG Export Plug-In . SVG Version: 2.1.4 Build 226)  -->
  <defs>
    <linearGradient id="linear-gradient" x1="77.27" y1="82.98" x2="80.26" y2="168.09" gradientUnits="userSpaceOnUse">
      <stop offset="0" stop-color="#0aed68"/>
      <stop offset="1" stop-color="#284fe4"/>
    </linearGradient>
    <linearGradient id="linear-gradient1" x1="191.78" y1="78.96" x2="194.77" y2="164.07" xlink:href="#linear-gradient"/>
    <linearGradient id="linear-gradient2" x1="134.99" y1="80.96" x2="137.98" y2="166.06" xlink:href="#linear-gradient"/>
    <linearGradient id="linear-gradient3" x1="155.45" y1="17.61" x2="158.44" y2="102.72" gradientUnits="userSpaceOnUse">
      <stop offset="0" stop-color="#00fa5c"/>
      <stop offset="1" stop-color="#2d4bee"/>
    </linearGradient>
    <linearGradient id="linear-gradient4" x1="167.38" y1="17.19" x2="170.37" y2="102.3" xlink:href="#linear-gradient3"/>
    <linearGradient id="linear-gradient5" x1="123.54" y1="18.73" x2="126.53" y2="103.84" xlink:href="#linear-gradient3"/>
    <linearGradient id="linear-gradient6" x1="112.27" y1="19.13" x2="115.25" y2="104.24" xlink:href="#linear-gradient3"/>
  </defs>
  <path d="M64.05,108.35c4.31-5.43,9.96-7.3,16.34-7.61,3.51-.17,6.97.11,10.34,1.09,7.47,2.18,12.53,6.84,14.85,14.12,2.07,6.5,2.12,13.11.09,19.62-2.79,8.95-9.24,13.94-18.57,15.35-2.83.43-5.79.41-8.65.17-4.84-.42-9.08-2.27-12.31-6.49v25.81h-14.22v-68.91h11.47c.21,2.19.41,4.36.65,6.86ZM92.96,126.2c0-.86.07-1.72-.01-2.58-.4-4.01-1.57-7.76-4.74-10.54-4.18-3.67-9.08-4.14-14.08-2.03-4.97,2.09-7.36,6.16-7.71,11.33-.18,2.65-.13,5.32,0,7.98.07,1.4.33,2.86.88,4.14,3.85,8.91,16.18,10.83,22.12,3.47,2.78-3.44,3.6-7.49,3.54-11.76Z" fill="url(#linear-gradient)"/>
  <path d="M168.95,167.96c-.19-2.99-.37-5.8-.57-8.86,1.13,0,2.16.05,3.18,0,6.04-.32,10.23-3.54,11.81-9.15.2-.72.16-1.64-.12-2.34-6.05-14.96-12.15-29.91-18.24-44.86-.15-.37-.28-.75-.46-1.24.47-.04.83-.1,1.19-.1,4.24,0,8.48.02,12.72-.03.92-.01,1.29.31,1.59,1.13,3.84,10.7,7.73,21.38,11.6,32.07.14.38.3.75.53,1.34.24-.54.4-.88.54-1.23,4.09-10.57,8.2-21.13,12.23-31.72.47-1.24,1.08-1.64,2.42-1.61,3.9.1,7.81.03,11.71.03h1.52c-.14.42-.22.68-.32.92-6.79,15.82-13.53,31.66-20.38,47.45-3.02,6.97-7.67,12.58-14.95,15.74-5.06,2.2-10.39,2.75-15.99,2.45Z" fill="url(#linear-gradient1)"/>
  <path d="M303,149.25c6.56-15.29,13.11-30.59,19.66-45.88.1-.22.17-.46.26-.73,0-.02.02-.05.02-.07h-1.12c-1.1,0-2.2,0-3.3,0-2.84.01-5.78.02-8.67-.03-.98-.04-1.34.22-1.68,1.12-3.37,8.82-6.84,17.77-10.19,26.42l-2.14,5.53c-.09.24-.21.48-.34.78l-.54,1.19-.48-1.22c-.11-.29-.2-.51-.28-.74l-2.18-6.02c-3.1-8.54-6.3-17.36-9.42-26.06-.3-.83-.63-1.06-1.47-1-.95.06-1.91.05-2.84.03-.4,0-.81-.01-1.21-.01h-9.33l.07.18c.14.36.26.66.38.96l2.94,7.21c5.1,12.51,10.2,25.01,15.28,37.52.13.32.41,1.13.23,1.84-1.35,5.44-4.76,8.7-10.12,9.68-1.16.21-2.32.29-3.55.37-.47.03-.94.06-1.43.1l.08,1.32c.12,2.13.25,4.34.42,6.51.04.05.33.24.47.24,8.29.36,14.98-1.45,20.43-5.55,4.18-3.14,7.37-7.5,10.03-13.7Z" fill="#fff"/>
  <path d="M147.36,120.53c.84-4.03-1.1-7.68-4.89-9.22-3.58-1.45-7.35-1.61-11.15-1.28-4.17.36-8.18,1.39-12.05,2.95-.27.11-.55.21-.82.3-.07.02-.16,0-.42-.03v-6.55c0-2.4-.01-2.43,2.35-3.22,9.03-3,18.21-3.76,27.53-1.56,5.08,1.2,9.31,3.71,11.85,8.41,1.38,2.55,2.03,5.31,2.04,8.16.05,10.49.03,20.98.03,31.47,0,.16-.04.32-.07.57h-13.55c-.21-1.84-.42-3.69-.65-5.66-1.24.85-2.29,1.66-3.42,2.33-6.57,3.93-13.74,4.97-21.21,3.64-5.41-.96-9.58-3.84-10.9-9.31-1.43-5.93-.17-11.35,4.7-15.55,3.72-3.21,8.32-4.5,13.11-5.24,5.13-.8,10.29-.73,15.45-.37.67.05,1.34.1,2.07.16ZM147.55,132.72c0-1.27.05-2.54-.03-3.81-.02-.31-.44-.82-.72-.85-5.02-.56-10.04-.84-15,.42-1.97.5-3.81,1.3-5.23,2.79-1.96,2.06-2.3,4.51-1.55,7.1.7,2.41,2.74,3.33,5.04,3.68,5.81.87,11.16-.23,15.95-3.7,1.15-.83,1.76-1.75,1.57-3.18-.11-.81-.02-1.64-.02-2.45Z" fill="url(#linear-gradient2)"/>
  <path d="M3.93,148.23c9.88,3.2,18.93,3.66,27.69,1.38,4.14-1.08,7.36-2.97,9.82-5.78,2.16-2.47,3.15-6.51,2.46-10.05-.46-2.37-1.86-5.62-5.88-7.64-1.84-.92-3.77-1.73-5.74-2.39-1.52-.51-3.1-.98-4.62-1.43-1.68-.5-3.42-1.01-5.1-1.59-2.28-.79-4.03-1.6-5.5-2.55-1.41-.91-2.2-2.28-2.15-3.75.04-1.49.92-2.82,2.4-3.65,1.35-.76,2.99-1.28,4.62-1.46,5.95-.66,12,.45,17.99,3.3.28.13.56.26.89.41v-5.97q0-3.06-2.94-4.03c-5.65-1.87-11.84-2.45-18.9-1.78-5.18.49-9.1,1.7-12.34,3.8-2.93,1.91-4.89,4.96-5.37,8.38-.48,3.4.54,6.84,2.81,9.46,1.8,2.08,4.03,3.59,6.63,4.49,2.21.77,4.51,1.44,6.72,2.1,1.65.49,3.35.99,5.02,1.53,1.83.59,3.91,1.26,5.74,2.3,1.37.78,2.22,2.01,2.31,3.36.09,1.34-.56,2.66-1.8,3.61-1.14.89-2.69,1.6-4.59,2.12-3.43.94-6.9.42-10.25-.09-3.92-.59-7.64-1.74-11.35-3.49,0,.66,0,1.3.02,1.94.02,1.87.04,3.64-.06,5.42-.06,1.16.31,1.68,1.49,2.06Z" fill="#fff"/>
  <path d="M259.76,105.27c-4.66-1.38-9.27-2.08-13.78-2.08-2.07,0-4.11.15-6.13.44-12.91,1.88-21.25,10.2-22.3,22.27-1.06,12.13,5.18,21.68,16.71,25.56,7.24,2.44,15.03,2.43,24.5-.02q2.17-.56,2.17-2.73v-6.92c-.18.06-.31.1-.44.16-3.53,1.46-7.41,2.24-11.52,2.3-5.33.07-9.3-1.1-12.46-3.71-4.48-3.69-6.18-8.71-5.19-15.34.97-6.53,4.99-10.82,11.62-12.41,4.88-1.17,10.01-.85,15.68.96.59.19,1.17.41,1.8.65.17.06.34.13.51.19,0-.67,0-1.33-.01-1.98-.01-2-.03-3.88.04-5.79.03-.92-.24-1.27-1.2-1.56Z" fill="#fff"/>
  <g>
    <g>
      <path d="M142.58,15.22c7.06,0,12.79,5.6,12.79,12.5,0,0,0,0,0,0,.11-6.81,5.79-12.3,12.78-12.3,0-.07,0-.14,0-.21-7.06,0-12.79-5.6-12.79-12.5,0,6.91-5.73,12.5-12.79,12.5Z" fill="url(#linear-gradient3)"/>
      <path d="M158.72,39.17c5.21,0,9.43,4.13,9.43,9.22,0,0,0,0,0,0,.08-5.02,4.27-9.07,9.43-9.07,0-.05,0-.1,0-.15-5.21,0-9.43-4.13-9.43-9.22,0,5.09-4.22,9.22-9.43,9.22Z" fill="url(#linear-gradient4)"/>
    </g>
    <g>
      <path d="M155.55,48.81l-12.06-18.81-50.4,30.88,12.06,18.81c2.12,3.31,6.62,4.32,10,2.24l38.1-23.35c3.38-2.07,4.41-6.47,2.3-9.78Z" fill="url(#linear-gradient5)"/>
      <path d="M138.53,22.29c-2.17-3.14-6.54-4.08-9.85-2.05l-38.1,23.35c-3.31,2.03-4.35,6.28-2.41,9.56l50.36-30.86Z" fill="url(#linear-gradient6)"/>
    </g>
  </g>
</svg>