<?xml version="1.0" encoding="UTF-8"?>
<svg id="Layer_1" data-name="Layer 1" xmlns="http://www.w3.org/2000/svg" version="1.1" viewBox="0 0 269.3 153.7">
  <defs>
    <style>
      .cls-1 {
        fill: #000;
        stroke: #121930;
        stroke-miterlimit: 10;
        stroke-width: .5px;
      }
    </style>
  </defs>
  <g>
    <path class="cls-1" d="M65.3,91.2c3.1-3.9,7.1-5.2,11.6-5.4,2.5-.1,4.9,0,7.3.8,5.3,1.5,8.9,4.9,10.5,10,1.5,4.6,1.5,9.3,0,13.9-2,6.4-6.6,9.9-13.2,10.9-2,.3-4.1.3-6.1.1-3.4-.3-6.4-1.6-8.7-4.6v18.3h-10.1v-48.9h8.1c.1,1.6.3,3.1.5,4.9ZM85.8,103.9c0-.6,0-1.2,0-1.8-.3-2.8-1.1-5.5-3.4-7.5-3-2.6-6.4-2.9-10-1.4-3.5,1.5-5.2,4.4-5.5,8-.1,1.9,0,3.8,0,5.7,0,1,.2,2,.6,2.9,2.7,6.3,11.5,7.7,15.7,2.5,2-2.4,2.6-5.3,2.5-8.4Z"/>
    <path class="cls-1" d="M139.8,133.5c-.1-2.1-.3-4.1-.4-6.3.8,0,1.5,0,2.3,0,4.3-.2,7.3-2.5,8.4-6.5.1-.5.1-1.2,0-1.7-4.3-10.6-8.6-21.2-12.9-31.8-.1-.3-.2-.5-.3-.9.3,0,.6,0,.8,0,3,0,6,0,9,0,.7,0,.9.2,1.1.8,2.7,7.6,5.5,15.2,8.2,22.8,0,.3.2.5.4,1,.2-.4.3-.6.4-.9,2.9-7.5,5.8-15,8.7-22.5.3-.9.8-1.2,1.7-1.1,2.8,0,5.5,0,8.3,0h1.1c-.1.3-.2.5-.2.7-4.8,11.2-9.6,22.5-14.5,33.7-2.1,4.9-5.4,8.9-10.6,11.2-3.6,1.6-7.4,2-11.4,1.7Z"/>
    <path class="cls-1" d="M209.6,86.9c2.4,0,4.7,0,7,0,1,0,1.9,0,2.9,0,.7,0,1,.2,1.3.9,2.7,7.6,5.5,15.2,8.2,22.8,0,.2.2.5.3.9.2-.4.3-.6.4-.9,2.9-7.6,5.9-15.1,8.8-22.7.3-.7.6-1,1.4-.9,2.8,0,5.7,0,8.5,0,.3,0,.6,0,1.1,0-.1.4-.2.6-.3.9-4.7,10.9-9.3,21.7-14,32.6-1.6,3.8-3.8,7.3-7.2,9.8-4.3,3.3-9.3,4.2-14.7,4-.2,0-.5-.2-.5-.4-.2-1.9-.3-3.9-.4-5.8,1.3-.1,2.5-.1,3.7-.4,3.8-.7,6.1-3.1,7-6.7,0-.4,0-.8-.2-1.2-4.3-10.6-8.6-21.2-12.9-31.8-.1-.3-.3-.6-.4-1.1Z"/>
    <path class="cls-1" d="M124.4,99.8c.6-2.9-.8-5.5-3.5-6.5-2.5-1-5.2-1.1-7.9-.9-3,.3-5.8,1-8.6,2.1-.2,0-.4.2-.6.2,0,0-.1,0-.3,0v-4.7c0-1.7,0-1.7,1.7-2.3,6.4-2.1,12.9-2.7,19.5-1.1,3.6.9,6.6,2.6,8.4,6,1,1.8,1.4,3.8,1.4,5.8,0,7.4,0,14.9,0,22.3,0,.1,0,.2,0,.4h-9.6c-.1-1.3-.3-2.6-.5-4-.9.6-1.6,1.2-2.4,1.7-4.7,2.8-9.8,3.5-15.1,2.6-3.8-.7-6.8-2.7-7.7-6.6-1-4.2-.1-8.1,3.3-11,2.6-2.3,5.9-3.2,9.3-3.7,3.6-.6,7.3-.5,11-.3.5,0,.9,0,1.5.1ZM124.6,108.5c0-.9,0-1.8,0-2.7,0-.2-.3-.6-.5-.6-3.6-.4-7.1-.6-10.7.3-1.4.4-2.7.9-3.7,2-1.4,1.5-1.6,3.2-1.1,5,.5,1.7,1.9,2.4,3.6,2.6,4.1.6,7.9-.2,11.3-2.6.8-.6,1.3-1.2,1.1-2.3,0-.6,0-1.2,0-1.7Z"/>
    <path class="cls-1" d="M21.4,112.5c2.8,1.3,5.5,2.2,8.3,2.6,2.4.4,4.8.7,7.2,0,1.1-.3,2.3-.8,3.2-1.5,1.7-1.3,1.6-3.5-.3-4.6-1.2-.7-2.7-1.2-4-1.6-2.8-.9-5.6-1.6-8.3-2.6-1.9-.6-3.5-1.8-4.8-3.3-3.5-4-2.6-10.1,1.9-13,2.7-1.7,5.7-2.4,8.9-2.7,4.6-.4,9.1-.2,13.5,1.3,2.2.7,2.2.8,2.2,3.1,0,1.5,0,3,0,4.6-.4-.2-.7-.3-1-.4-4-1.9-8.2-2.8-12.7-2.3-1.1.1-2.2.5-3.2,1-2.1,1.2-2.1,3.6-.2,4.9,1.2.8,2.5,1.3,3.9,1.8,2.3.8,4.6,1.4,6.9,2.1,1.4.5,2.8,1,4.1,1.7,5.7,2.8,5.3,9.7,2.5,12.9-1.9,2.2-4.3,3.5-7.1,4.2-6.7,1.7-13.3,1.1-19.8-1-.9-.3-1.3-.7-1.2-1.7,0-1.8,0-3.6,0-5.6Z"/>
    <path class="cls-1" d="M205.3,96c-.7-.3-1.3-.5-1.9-.7-3.6-1.2-7.3-1.6-11-.7-4.6,1.1-7.4,4-8.1,8.6-.6,4.1.2,7.9,3.6,10.7,2.5,2.1,5.5,2.6,8.7,2.6,2.8,0,5.5-.5,8.1-1.6.2,0,.3-.1.6-.2v5.2c0,1.7,0,1.7-1.7,2.2-5.8,1.5-11.7,2-17.5,0-8.2-2.8-12.8-9.5-12-18.4.8-8.8,6.7-14.7,16-16,4.8-.7,9.6-.2,14.2,1.2.7.2,1,.5,1,1.3,0,1.9,0,3.8,0,5.8Z"/>
  </g>
  <g>
    <g>
      <path class="cls-1" d="M121.1,25.1c5,0,9.1,4,9.1,8.9,0,0,0,0,0,0,0-4.8,4.1-8.7,9.1-8.7,0,0,0,0,0-.1-5,0-9.1-4-9.1-8.9,0,4.9-4.1,8.9-9.1,8.9Z"/>
      <path class="cls-1" d="M132.5,42.1c3.7,0,6.7,2.9,6.7,6.5,0,0,0,0,0,0,0-3.6,3-6.4,6.7-6.4,0,0,0,0,0-.1-3.7,0-6.7-2.9-6.7-6.5,0,3.6-3,6.5-6.7,6.5Z"/>
    </g>
    <g>
      <path class="cls-1" d="M130.3,48.9l-8.6-13.4-35.8,21.9,8.6,13.4c1.5,2.3,4.7,3.1,7.1,1.6l27.1-16.6c2.4-1.5,3.1-4.6,1.6-6.9Z"/>
      <path class="cls-1" d="M118.2,30.1c-1.5-2.2-4.6-2.9-7-1.5l-27.1,16.6c-2.3,1.4-3.1,4.5-1.7,6.8l35.8-21.9Z"/>
    </g>
  </g>
</svg>