<svg fill="none" height="37" viewBox="0 0 37 37" width="37" xmlns="http://www.w3.org/2000/svg" xmlns:xlink="http://www.w3.org/1999/xlink"><clipPath id="a"><path d="m0 0h37v37h-37z" transform="matrix(0 -1 1 0 .000002 37)"/></clipPath><g clip-path="url(#a)"><path d="m15.8932 18.8279v-.0168m0-6.0293v-.0168m0 12.1091v-.0168" stroke="#161616" stroke-linecap="round" stroke-linejoin="round" stroke-width="3.6"/><path d="m15.6493 36.403c.7821-.1598-.185-.471-4.4988-1.7828-.74-.2354-1.5557-.5045-2.22843-.7904-.68114-.2859-1.2025-.6055-1.44636-.7989-.25227-.185-.62227-.4877-.91659-.8661-.30273-.3784-.56341-.8325-.69796-1.2025-.26909-.7484-.20182-1.3034-.15977-1.1184.05886.1766.11773-.0505.19341-.5298.07568-.5046.11773-1.7071.11773-3.103-.01682-1.6229.1009-2.3041.25227-2.3125.21023 0 .20182-.1009-.03364-.8241-.10932-.3447-.185-.8745-.25227-2.1947-.02523-.6559-.0925-1.5053-.07568-2.6321.01682-1.1184.04204-2.5143.06727-4.2466.02523-1.9677.10932-3.5318.20182-4.5661.10091-1.06795.26909-1.59773.40363-1.93409.29432-.63069.53819-.93341.84932-1.34546.54659-.63909 1.58091-.925 3.32155-1.00909 1.9257-.0925 2.6153-.15136 3.2628-.42886.7063-.2775 1.152-.37841 3.145-.25227 1.9845.10931 2.2704.1009 2.0434-.11773-.1177-.10932-.0757-.16818.4373-.16818.5045.01682 1.4968.01681 3.1534.24386 2.5311.34477 3.1954 1.60614 3.4309 1.63136.1766.05046.6475.58864.8829 1.32023.2187.73159.328 1.2025.4037 1.03432.0504-.15977.2018.20182.2606.81568.0673.60546.143 1.24453.2019 1.39593.0168.0504.0925.8325.1513 2.1443.0253.6559.0589 1.438.1009 2.3293.0169.4457.0337.9166.0505 1.4127.0252.4878.0336 1.0007.2018 1.438.2943.6895 1.0091 1.3707 1.623 2.1107.3447.3952.6895.7988 1.0511 1.2109.37.4289.7736.8745 1.0932 1.3202.2438.3616.555.6475.6223 1.068.0672.412-.0757.8493-.3616 1.1268-.1346.1429-.3028.2439-.4709.3027-.1598.0673-.3364.0673-.5635.0841-.4204.0336-.8156.0589-1.1856.0841-1.0175.0084-1.7491 0-2.035.0252-.0169.4457-.0337.8746-.0505 1.2866-.0252.4373-.042.8493-.0673 1.2446-.0672.8829-.1513 1.6986-.3531 2.447-.1935.7484-.5382 1.4211-.9671 1.9425-.4204.5214-.8998.925-1.4127 1.2193-1.0343.5803-2.035.74-2.96.8662-.9334.1177-1.8416.1766-2.8507.2522-3.658.2103-4.4568.3616-3.002.5887.4204.0588 1.152.1177 3.6327.0925.6223-.0168 1.3623-.0253 2.2788-.0925.8998-.0925 2.0855-.1766 3.4478-.9166.6727-.3784 1.2697-.8914 1.7995-1.5725.5382-.6812.925-1.5725 1.1268-2.4218.2103-.8578.3028-1.7071.3784-2.5732.0337-.3784.0589-.7821.0925-1.2109.1262 0 .3953.0168.6812.0252h.1598.084.0169l.1177-.0168.2439-.0421c.6559-.1177 1.3454-.2354 2.0854-.37.4121-.1261.7232-.412 1.0259-.8409.2775-.4288.4289-1.0091.37-1.5136-.0757-.4625-.2102-.9082-.5634-1.5473-.1682-.3111-.4541-.6307-.7316-.9586-.2775-.328-.5718-.6727-.8661-1.0259-.4121-.4878-.8493-1.0091-1.3202-1.5725-.3953-.4625-.8578-1.0343-.8494-1.1521-.0504-.0672-.0672-.8997-.0588-1.7407 0-.8577-.0168-1.7743-.0168-2.7413 0-.9671-.0253-1.9593-.0757-3.06093-.0757-1.10159-.1093-2.32091-.6812-3.78409-.2859-.71477-.7484-1.43796-1.2866-2.00977-.5213-.57182-1.2109-1.09318-1.9593-1.44637-1.5136-.69795-2.8759-.79045-4.0784-.90818-1.2193-.10091-2.3377-.15977-3.5066-.20182-1.1604-.04204-2.3041-.10932-3.4225-.10091-.5802 0-1.2782 0-2.0686 0-.7905.00841-1.6482.02523-2.6741.07569-1.02591.08409-2.22.10091-3.75887.69795-1.55568.63909-2.94318 1.84159-3.72522 3.55705-.74841 1.69863-.79887 3.17023-.90818 4.49888-.0925 1.3454-.13455 2.6404-.16819 4.0027-.03363 1.3539-.06727 2.7246-.10091 4.0868-.01681 1.3707.03364 2.733.05046 4.0868.03364 1.3539.02523 2.691.10091 3.986.07568 1.3118.0925 2.632.48773 4.2213.20181.7905.555 1.6566 1.08477 2.405.52977.7568 1.11841 1.3202 1.82477 1.8164.71477.4877 1.49682.8157 2.17796 1.0007.68954.1934 1.295.2775 1.85.3447 2.16117.2019 3.61587.185 4.80997.2019 1.1521 0 1.85 0 1.9593-.0253z" fill="#161616"/></g></svg>