<svg viewBox="0 0 100 100" xmlns="http://www.w3.org/2000/svg"><path d="m50 0c27.61 0 50 22.39 50 50s-22.39 50-50 50-50-22.39-50-50 22.39-50 50-50z" fill="#f6ede2"/><path d="m72.05 61.2c.18-1.61.18-3.62.14-4.67s-.07-3.03-.07-4.58c0-2.83-.16-7.55-.16-5.29 0 .64-.04.95-.08.67-.09-.45-.07-3.2-.37-7.06-.19-1.92-.41-4.2-1.51-6.42-.55-1.1-1.36-2.12-2.37-2.9-1.01-.79-2.2-1.32-3.4-1.66-2.67-.78-6.45-.87-10.32-.88-3.88.01-7.9.01-11.2.15-1.65.08-3.48.19-5.37.53-.94.19-1.89.44-2.81.82s-1.78.93-2.5 1.61c-.73.67-1.32 1.46-1.76 2.3-.43.85-.71 1.72-.92 2.55-.39 1.68-.52 3.23-.61 4.5-.19 3.06-.17 6.1-.19 9.14l.36-4.1c.19-1.96.37-3.97.73-6.18.2-1.1.43-2.25.83-3.39.41-1.14.98-2.28 1.9-3.19.37-.38 1.05-1 2.05-1.49.99-.51 2.34-.84 3.76-1.03 2.86-.36 5.91-.31 7.12-.38.59-.03 4.04-.08 7.68-.09 1.82 0 3.57 0 4.92.04s2.31.11 2.57.12c.36.02 1.21.07 2.39.3 1.18.24 2.73.64 4.09 1.82.68.59 1.3 1.37 1.75 2.34.46.97.76 2.14.96 3.43.39 2.59.43 5.6.46 8.85 0 3.25.05 6.76-.06 10.39-.07 1.81-.17 3.66-.55 5.43-.35 1.78-1.08 3.42-2.36 4.6-1.26 1.22-3.03 1.83-4.93 2.15-1.91.32-3.93.41-5.96.45-4.07.06-8.27.05-12.38-.02-2.68-.07-5.28-.2-7.47-.77-2.19-.54-3.78-1.78-4.66-3.21-.88-1.42-1.17-2.92-1.37-3.99-.18-1.08-.24-1.78-.27-1.93-.1-.61-.3-2.76-.36-4.66-.07-1.91-.17-3.67-.23-3.82-.07-.15-.22-.53-.33-.86-.11-.32-.41-.68-.65-.78-.4-.17-.46.06-.64 2.74-.11 1.59-.19 4.31-.11 5.99.02.46.06 1.63.3 3.35.12.86.32 1.87.69 2.99.37 1.11.99 2.36 1.98 3.44.96 1.09 2.31 2.02 3.79 2.55 1.48.55 3.04.82 4.6.99 3.13.31 6.34.29 9.55.3 3.2 0 6.4.03 9.5-.1 1.55-.07 3.07-.19 4.55-.45s2.94-.7 4.22-1.44c1.28-.73 2.29-1.72 3-2.75.72-1.03 1.12-2.07 1.4-2.96.51-1.78.62-3 .68-3.51z" fill="#0c0c0c"/><path d="m39.91 44.94c-.33.66-.59 1.57-.64 2.05-.08.48-.21 1.39-.26 2.11-.06.65 0 1.53.1 2.09.12.56.2.83.13.33-.04-.29-.02-.43.03-.31.11.19.24 1.45.98 3 .37.77.86 1.62 1.52 2.4s1.45 1.52 2.32 2.12c.96.67 2.49 1.39 4.19 1.62 1.69.26 3.5.06 4.86-.42 1.37-.46 2.89-1.36 4.06-2.52 1.19-1.15 1.96-2.55 2.38-3.55.51-1.22.77-2.54.79-3.86-.14.6-.28 1.17-.5 1.72-.3.79-.69 1.54-1.23 2.28-.52.75-1.22 1.49-2.14 2.16-.36.28-1.25 1-2.27 1.47-1 .51-2.09.74-2.52.87-.21.04-1.46.34-2.81.17-1.34-.14-2.53-.61-2.71-.7-.27-.08-1.23-.48-2.39-1.52-1.14-1.04-2.44-2.87-2.75-5.35-.15-1.22-.09-2.59.36-3.91.44-1.32 1.2-2.61 2.28-3.66 2.13-2.12 5.57-3.12 8.62-2.23.99.27 1.9.69 2.66 1.2.75.52 1.38 1.09 1.85 1.64.95 1.09 1.3 2 1.38 2.09.08.1.21.33.34.64.15.3.28.67.39 1.02.21.71.37 1.39.43 1.44.07.06.23.2.35.33s.42.27.67.32c.4.07.48-.02.57-1.26.02-.74-.13-2.02-.43-2.74-.13-.39-.74-2.08-2.39-3.81-.82-.85-1.9-1.7-3.2-2.33-1.29-.63-2.78-1.04-4.3-1.12-1.51-.09-3.05.14-4.41.63-1.36.48-2.54 1.21-3.46 1.97-1.84 1.57-2.64 3.2-2.83 3.61h-.02z" fill="#0c0c0c"/><path d="m62.21 39.1v-.86c0-.07 0-.11 0-.09v.04-1.41c0-.17 0-.36 0-.28v.17c0 .17 0 .25 0 .16 0-.03 0-.02 0 .02v2.22s0 .09 0 .05z" fill="#fff"/></svg>