<svg viewBox="0 0 44 44" xmlns="http://www.w3.org/2000/svg"><circle cx="22.17" cy="22" fill="#f6ede2" r="22"/><path d="m11.2 15.6c.53 1 .71 1.16 1.96 1.73.54.25 1.48.71 2.73 1.34.63.32 1.34.68 2.12 1.07s1.64.87 2.67 1.17c1.06.33 2.01.11 2.06.02.09-.11.15-.11.23-.02.12.15 1.11-.21 1.59-.7.2-.17 1.17-.78 2.48-1.54 1.2-.7 2.66-1.6 3.26-2.03 1.3-.92 1.96-1.36 2.39-1.6.17-.1.33-.26.35-.35 0-.06-.47.18-1.56.79-1.09.62-2.8 1.6-5.26 3-1.01.58-1.95 1.16-2.86 1.47-.9.33-1.73.28-2.58-.02s-1.64-.75-2.42-1.17c-.77-.41-1.5-.8-2.16-1.15-2.67-1.41-4.44-2.28-4.89-2.4-.25-.07-.28.06-.11.39z"/><path d="m10.84 24.73c-.26 1.42-.4 2.31-.24 3.43.08.55.27 1.2.73 1.87.46.64 1.24 1.34 2.37 1.66.96.29 2.22.36 3.73.38 1.5.04 3.31-.03 5.38-.06 1.03-.03 2.14-.02 3.3-.07 1.16-.06 2.4-.08 3.72-.34.66-.14 1.36-.38 1.96-.84.59-.45 1.08-1.07 1.35-1.78.53-1.44.47-2.93.51-4.43 0-3.05-.13-5.59-.22-5.82-.1-.31-.11-.47-.02-.65.06-.13.07-.93-.13-1.93-.11-.5-.29-1.04-.6-1.51s-.73-.84-1.15-1.08c-.31-.21-1.24-.66-2.73-.75-1.48-.12-3.44-.12-5.67-.1-2.03.02-4.31 0-6.34.12-1.01.06-1.96.17-2.72.42-.76.24-1.28.68-1.6 1.06-.69.82-.82 1.8-.9 2.66-.07.86-.06 1.63-.07 2.3.01 1.34.02 2.28.02 3 0 .58.06 1.21.13 1.38.07.11.02-1.45.13-5.1.05-.89.08-1.95.39-2.9.31-.93 1.07-1.75 2.33-2.02 1.28-.29 2.92-.3 4.68-.34 1.76 0 3.67 0 5.73-.01 1.68.03 3.4 0 4.86.3 1.43.28 2.38 1.3 2.62 2.71.26 1.42.25 3.01.29 4.51 0 1.5.03 2.98-.02 4.42-.05 1.41-.09 2.83-.65 3.82-.58 1.02-1.63 1.51-2.85 1.66-2.45.3-4.92.23-7.1.27-2.2.03-4.23.06-6-.04-.88-.06-1.7-.16-2.35-.43-.66-.26-1.17-.72-1.51-1.22-.66-1.02-.72-2.19-.82-3.03-.07-.86-.13-1.47-.16-1.8-.08-.71-.21-.61-.39.3v-.02z"/></svg>