<svg xmlns="http://www.w3.org/2000/svg" viewBox="0 0 1000 1000">
  <g fill="#111111">
    <path d="M 606.26 508.52 C 627.88 519.26, 738.82 565.91, 735.97 572.99 C 733.11 580.08, 613.79 553.16, 589.13 551.03 C 564.46 548.90, 585.12 551.17, 587.98 560.19 C 590.84 569.21, 611.13 601.15, 606.28 605.14 C 601.43 609.13, 566.42 587.10, 558.90 584.13 C 551.38 581.16, 554.89 558.78, 561.14 587.33 C 567.38 615.87, 604.67 752.97, 596.37 755.42 C 588.08 757.88, 528.11 626.89, 511.36 602.07 C 494.60 577.25, 502.35 600.59, 495.82 606.52 C 489.30 612.44, 477.54 639.35, 472.22 637.62 C 466.90 635.89, 468.84 604.12, 463.90 596.15 C 458.95 588.17, 463.17 578.84, 442.55 589.79 C 421.92 600.74, 344.86 667.42, 340.13 661.86 C 335.41 656.30, 402.94 574.54, 414.19 556.42 C 425.43 538.29, 418.27 553.91, 407.57 553.11 C 396.88 552.32, 351.58 558.07, 350.04 551.63 C 348.50 545.20, 390.87 520.24, 398.33 514.49 C 405.79 508.75, 422.12 523.05, 394.79 517.15 C 367.45 511.26, 233.04 487.34, 234.32 479.13 C 235.60 470.91, 374.34 471.75, 402.46 467.85 C 430.58 463.95, 406.83 464.03, 403.03 455.72 C 399.24 447.40, 375.85 422.49, 379.70 417.98 C 383.55 413.46, 416.89 429.07, 426.16 428.62 C 435.42 428.18, 439.50 439.20, 435.28 415.29 C 431.07 391.38, 393.68 287.79, 400.85 285.17 C 408.03 282.56, 466.44 380.96, 478.35 399.61 C 490.27 418.25, 470.20 403.67, 472.35 397.05 C 474.50 390.43, 484.29 359.67, 491.25 359.87 C 498.20 360.08, 508.97 392.30, 514.09 398.27 C 519.21 404.24, 508.35 417.85, 521.97 395.69 C 535.59 373.53, 590.28 262.35, 595.82 265.31 C 601.36 268.26, 560.61 388.56, 555.21 413.40 C 549.82 438.24, 553.16 416.44, 563.46 414.34 C 573.76 412.24, 612.35 394.33, 617.01 400.80 C 621.67 407.28, 595.99 446.30, 591.42 453.20 C 586.84 460.09, 568.75 448.09, 589.56 442.19 C 610.38 436.29, 714.32 410.77, 716.31 417.79 C 718.29 424.82, 619.82 471.75, 601.50 484.33 C 583.18 496.91, 596.35 488.04, 606.39 493.27 C 616.43 498.50, 662.91 510.24, 661.74 515.71 C 660.56 521.18, 608.58 527.28, 599.33 526.09 C 590.09 524.89, 583.49 500.70, 606.26 508.52 Z" />
    <ellipse cx="715.5" cy="591.1" rx="16.8" ry="12.0" transform="rotate(22.9 715.5 591.1)" /><ellipse cx="629.7" cy="754.9" rx="8.4" ry="6.0" transform="rotate(63.0 629.7 754.9)" /><ellipse cx="452.7" cy="702.6" rx="19.6" ry="14.0" transform="rotate(103.1 452.7 702.6)" /><ellipse cx="250.0" cy="686.7" rx="7.0" ry="5.0" transform="rotate(143.2 250.0 686.7)" /><ellipse cx="253.4" cy="485.6" rx="14.0" ry="10.0" transform="rotate(183.3 253.4 485.6)" /><ellipse cx="301.8" cy="312.2" rx="11.2" ry="8.0" transform="rotate(223.5 301.8 312.2)" /><ellipse cx="475.2" cy="280.4" rx="18.2" ry="13.0" transform="rotate(263.6 475.2 280.4)" /><ellipse cx="665.8" cy="251.2" rx="9.8" ry="7.0" transform="rotate(303.7 665.8 251.2)" /><ellipse cx="681.1" cy="686.5" rx="15.4" ry="11.0" transform="rotate(45.8 681.1 686.5)" /><ellipse cx="515.2" cy="714.0" rx="12.6" ry="9.0" transform="rotate(85.9 515.2 714.0)" /><ellipse cx="320.2" cy="747.0" rx="8.4" ry="6.0" transform="rotate(126.1 320.2 747.0)" /><ellipse cx="279.1" cy="554.4" rx="21.0" ry="15.0" transform="rotate(166.2 279.1 554.4)" /><ellipse cx="249.4" cy="376.3" rx="11.2" ry="8.0" transform="rotate(206.3 249.4 376.3)" /><ellipse cx="419.2" cy="315.4" rx="14.0" ry="10.0" transform="rotate(246.4 419.2 315.4)" /><ellipse cx="583.0" cy="219.5" rx="9.8" ry="7.0" transform="rotate(286.5 583.0 219.5)" /><ellipse cx="700.7" cy="367.6" rx="16.8" ry="12.0" transform="rotate(326.6 700.7 367.6)" />
  </g>
</svg>