<?xml version="1.0" encoding="UTF-8"?>
<svg id="Layer_1" xmlns="http://www.w3.org/2000/svg" version="1.1" viewBox="0 0 295.03 269.13">
  <!-- Generator: Adobe Illustrator 30.4.0, SVG Export Plug-In . SVG Version: 2.1.4 Build 226)  -->
  <g id="INAm18">
    <g>
      <path d="M175.1,205.67c-.27.19-.53.42-.77.71-2.1,2.52-.93,7.8-4.16,8.36-2.16-2.43-4.4-4.91-7.3-6.38s-6.66-1.72-9.25.25c-1.33,1.01-2.21,2.48-3.01,3.94-2.4,4.39-4.28,9.05-5.6,13.87-.45,1.65-.88,3.39-2.02,4.66s-3.28,1.83-4.57.71c-2.22-1.94.36-5.72-.63-8.5-.6-1.68-2.37-2.6-3.52-3.96-2.64-3.11-1.76-8.03-4.01-11.43-2.52-3.81-8.22-4.28-12.32-2.27s-6.97,5.82-9.67,9.5c-3.57,4.85-7.23,9.9-8.51,15.79-.95,4.39-.56,9.16-2.57,13.17s-8.15,6.43-10.93,2.9c-1.61-2.04-1.23-5.09.11-7.31s3.46-3.83,5.42-5.54c5.51-4.82,10.04-10.77,13.2-17.37,2.57-5.35,3.85-12.66-.69-16.49-2.64,1.3-5.28,2.59-7.92,3.89.02-3.26.05-6.53.07-9.79-14.71.93-28.64,9.99-35.46,23.05-1.37,2.62-4.13,5.92-6.53,4.19,5.3-7.92,11.73-15.1,19.03-21.24,2.02-1.7,4.25-3.55,4.73-6.15s-2.18-5.69-4.54-4.49c1.53-2.53,3.06-5.07,4.59-7.6-3.32.18-6.63.35-9.95.53-.38-2.92,2.72-5.09,5.56-5.85s6.07-1,8.13-3.1c2.58-2.62,2.06-7.18-.15-10.13s-5.64-4.67-8.94-6.28c-9.01-4.41-18.02-8.82-27.03-13.23-2.14-1.05-4.34-2.11-6.71-2.34-4.66-.45-9.62,2.33-13.87.35-3.33-1.55-4.83-6.11-3.07-9.34s6.41-4.43,9.51-2.47c3.02,1.91,4.15,5.91,7.09,7.94,3.4,2.35,8,1.34,11.99.24,4.93-1.36,9.87-2.72,14.8-4.08,4.5-1.24,10.07-3.98,9.41-8.61-.42-2.94-3.29-4.79-5.85-6.29-3.45-2.02-9.25-8.58-2.05-10.07,2.84-.58,6.03,1.05,8.62,1.99-2.88-1.45-1.8-3.98.9-4.65,2.14-.53,4.22-2.13,4.49-4.32.4-3.28-3.13-5.63-4.21-8.75,1.43-.13,2.86-.26,4.29-.39-1.25-3.04-1.45-6.55-2.35-9.71-.93-3.25-1.14-6.99-4.31-8.89-1.58-.95-3.39-1.44-5.06-2.23-3.65-1.73-6.55-4.96-7.88-8.77-.19-.56-.36-1.16-.2-1.73.13-.47.47-.85.84-1.16,4.62-4,7.82.32,10.13,4.32,2.9,5.02,5,8.4,10.96,10.11,3.93,1.13,8.09,1.51,11.81,3.2,3.06-2.04,6.11-4.08,9.17-6.12-1.53-.44-3.45-1.83-2.55-3.14,1.61,1.06,3.89-.49,4.28-2.37s-.45-3.78-1.27-5.52c-2.01-4.24-4.08-8.45-6.01-12.73,3.53,3.7,6.44,8.82,9.48,13.07.82,1.15,1.66,2.31,2.78,3.16s2.61,1.34,3.96.96c2.35-.65,3.32-3.51,3.28-5.95s-.72-4.93-.09-7.28c1.76,4.63,6.43,13.71,12.18,8.88,3.97-3.34,3.43-9.33,3.31-14-.03-1.21-.06-2.42-.09-3.63-.04-1.59-.08-3.18-.11-4.77-.09-3.7,3.3-8.82,5.43-3.57,2.08,5.12,1.87,11.17,4.17,16.31.82,1.83,3.17,5.98,5.55,6.1,2.53.13,2.19-3.62,3.32-5.66.67-1.19,1.82-2.2,3.17-2.33,2.17-.21,3.93,1.81,4.68,3.85.46,1.24.71,2.6,1.48,3.68,5.73,8.09,13.49-13.72,13.9-16.6.25-1.77.91-5.04,2.58-6.05,3.62-2.2,4.36,2.85,3.75,5.44-.4,1.7-1.2,3.29-1.93,4.88-1.53,3.31-2.85,6.77-3.29,10.39-.39,3.18,1.03,15.97,7.34,11.05,4.44-3.45,6.88-8.64,9.31-13.55,2.15-4.34,4.96-11.32,9.82-13.24.08,9.7-10.3,16.95-11.47,26.61.19-1.57,11.81-7.33,13.67-8.55,4.59-3,9.06-5.39,14.04-7.69-.68,4.24-2.96,7.53-4.11,11.54-.52,1.81-.61,3.81.14,5.54.15.35.34.71.31,1.09-.02.28-.17.54-.31.79-2.52,4.36-6.97,8.82-7.1,14.14-.14,5.52,5.17,9.58,9.11,12.65.48.37.97.75,1.54.95.62.21,1.29.2,1.94.18,4.46-.18,8.72-1.1,12.97-2.4,3.26-1,7-3.84,10.41-3.54,2.58.23,4.94,3.25,3.52,5.42-.55.85-1.51,1.33-2.43,1.76-6.53,3.02-14.09,5.64-17.37,12.05,3.72,1.15,7.45,2.29,11.17,3.44-3.99,2.06-7.99,4.12-11.98,6.18,9.21,3.95,19.69,4.87,29.45,2.59,4-.94,8.83-2.18,11.73.73-1.45,3.38-6.29,2.82-9.94,2.35-11.75-1.53-24.13,4.83-29.74,15.27,9.07,3.91,18.9,6.04,28.78,6.25-5.32,1.8-10.91,2.81-16.52,3.01,10.26,13.33,28.61,17.41,45.43,17.55,4.07.03,9.76,1.66,8.98,5.65-.45,2.27-3.14,3.48-5.43,3.19s-4.29-1.65-6.26-2.86c-10.57-6.45-23.27-9.34-35.59-8.1-9.11.91-18.75,3.93-27.07.11-4.61,3.87-3.13,11.57.62,16.28s9.18,7.91,12.72,12.78c-7.58-3.25-15.15-6.5-22.73-9.75-1.89-.81-4.19-1.59-5.88-.43-2,1.37-1.68,4.44-.67,6.65s2.52,4.41,2.21,6.81c-2.22-2.4-4.43-4.8-6.65-7.2-4.59-.17-7.75,5.06-7.58,9.65.17,4.59,2.49,8.79,3.91,13.16s1.71,9.74-1.51,13.01c-3.19-5.58-6.63-11.01-10.32-16.27-2.25-3.21-6.75-6.52-9.61-4.56Z"/>
      <path d="M264.43,12.28c-3.55,4.08-6.72,4.91-10.82,2.72-.35-4.77,1.48-8.6,6.75-10.19,1.25.19,3.9,1.31,4.56,2.36s.14,3.72-.5,5.12Z"/>
      <path d="M229.98,3.62c.72,3.7-4.86,7.93-7.81,6.05s-1.89-6.19,0-8.07c2.37-2.36,6.94-2.43,7.8,2.03Z"/>
      <path d="M37.27,244.67c-1.53.17-2.6-4.15-1.62-5.11,2.41-2.37,5.28-4.39,8.16-5.84,1.12.8,2.5,3.4,2.2,4.51-.89,3.33-4.13,5.93-8.74,6.45Z"/>
      <path d="M238.62,27.65c-1.2,3.29-5.17,7.69-8.9,10.2.04-9.72,9.45-11.71,8.9-10.2Z"/>
      <path d="M211.93,268.89c-1.02.82-3.49-.68-3.86-1.91-.6-2.03-.5-3.93,0-6.13,3.43.74,5.49,4.39,3.85,8.04Z"/>
      <circle cx="186.47" cy="225.92" r="2.54"/>
    </g>
  </g>
</svg>