<svg viewBox="0 0 44 44" xmlns="http://www.w3.org/2000/svg"><circle cx="22" cy="22" fill="#f6ede2" r="22"/><path d="m22 29.7h.01" fill="none" stroke="#000" stroke-linecap="round" stroke-linejoin="round" stroke-width="1.56"/><path d="m22.68 10.83c-1.29-.31-2.08-.49-3.01-.56-.47-.04-.98-.05-1.62-.02-.32.02-.68.05-1.1.13-.41.09-.93.23-1.44.6-.43.31-.86.86-1.04 1.51-.19.64-.22 1.31-.24 2.01 0 1.41.05 3.02.08 4.91.03 1.88.07 4.01.11 6.35.03 1.17.02 2.39.08 3.69.04.65.08 1.33.33 2.03.24.71.89 1.33 1.62 1.54.73.22 1.42.22 2.03.23.62 0 1.17-.02 1.65-.03.95-.04 1.58-.08 1.69-.11.29-.1.43-.1.59 0 .12.08.84.1 1.75.07.9-.03 2.02-.09 2.86-.37.16-.06.48-.13.84-.36.37-.22.76-.66.91-1.3.31-1.29.16-3.11.18-5.14-.01-3.71-.08-8.31-.16-10.29-.05-1.05-.09-1.99-.29-2.69s-.61-1.06-1.07-1.23c-.97-.3-1.89-.22-2.53-.25-.53 0-1.11.06-1.27.13-.05.02.28.04 1.04.06.38.01.86.02 1.43.06.56.05 1.21.14 1.59.47.2.18.35.39.45.75.1.35.15.82.18 1.34.04 1.03.02 2.26.03 3.6 0 2.69.01 5.91.02 9.7 0 .77 0 1.54-.04 2.25-.05.72-.17 1.35-.48 1.68-.3.36-.85.51-1.53.58s-1.4.07-2.12.08c-1.45 0-2.86 0-4.25.02-.69 0-1.37 0-2.01-.03-.63-.04-1.23-.13-1.6-.37-.77-.43-.81-1.74-.85-2.95-.01-1.25-.02-2.46-.04-3.63-.02-2.35-.05-4.55-.07-6.57 0-2-.13-3.91.06-5.42.11-.74.43-1.26.97-1.52.53-.26 1.2-.32 1.8-.36 2.45-.11 4.1-.13 4.7-.2.65-.07.56-.2-.27-.41h.04z"/></svg>