<svg viewBox="0 0 223.52 223.52" xmlns="http://www.w3.org/2000/svg"><path d="m111.76 0c61.72 0 111.76 50.04 111.76 111.76 0 61.72-50.04 111.76-111.76 111.76-61.72 0-111.76-50.04-111.76-111.76 0-61.72 50.04-111.76 111.76-111.76z" fill="#f6ede2"/><path d="m133.26 170.08c-.53.19-4.94.31-9.56.19-2.33-.03-9.71-.14-19.74-.28-5.04-.09-10.77-.18-17.1-.77-3.18-.33-6.53-.78-10.06-1.77-3.5-.98-7.27-2.62-10.45-5.27-3.14-2.61-5.54-6.03-7-9.47-1.47-3.44-2.15-6.75-2.6-9.79-.45-3.05-.65-5.87-.76-8.48-.13-2.62-.17-5.02-.18-7.22-.04-4.39.02-7.93.06-10.42.04-2.48.09-3.92.12-4.05.14-.55.52.11.92 1.56.24.86.37 4.97.62 12.85.18 3.95.28 8.83 1.15 14.86.46 3 1.13 6.36 2.69 9.87.2.44.41.87.62 1.32.21.44.49.86.74 1.3.48.89 1.13 1.7 1.75 2.55 1.36 1.6 2.88 3.19 4.77 4.43 2.96 2.09 6.37 3.29 9.64 4.03 3.3.75 6.54 1.1 9.68 1.3 6.3.42 12.25.34 17.67.31 10.81-.11 19.53-.3 23.59-.61 1.98-.15 4.54-.33 7.57-.72 3.02-.4 6.54-.92 10.3-2.16.95-.27 1.88-.71 2.84-1.09.47-.21.94-.47 1.41-.71.48-.23.94-.5 1.4-.81.94-.55 1.8-1.25 2.67-1.95.81-.78 1.64-1.54 2.34-2.45 1.44-1.77 2.63-3.81 3.44-6.01.8-2.2 1.32-4.5 1.67-6.84.64-4.68.69-9.48.64-14.26-.07-4.78-.27-9.56-.46-14.22-.41-9.32-.71-18.19-1.5-25.52-.3-2.54-.67-5.34-1.31-8.13-.63-2.79-1.58-5.54-2.99-7.83-1.39-2.29-3.27-4.13-5.24-5.41-1.97-1.29-4.08-2.03-5.91-2.54-3.64-.97-7.55-1.28-10.65-1.41s-5.41-.09-6.08-.05c-1.35.02-11.26.19-21.79.36-5.28.09-10.49.26-14.55.58-4.06.31-6.94.77-7.8 1.02-2.39.7-7.5 1.56-11.29 4.23-.89.72-1.85 1.47-2.6 2.45-.43.44-.73.99-1.11 1.49-.17.26-.31.56-.47.84s-.33.56-.45.88c-1.13 2.43-1.86 5.54-2.27 8.88-.43 3.32-.63 6.79-.78 10.03-.14 3.28-.26 6.29-.37 8.85-.22 5.17-.5 8.54-.89 8.54-.28 0-.51-1.64-.54-3.72-.02-2.59-.5-6.6-1.01-9.87-.53-3.28-1.06-5.84-1.44-5.54-.36.27-.76-1.57-.85-4.27-.03-1.03-.03-2.57.08-4.53.13-1.95.32-4.33.95-6.97.61-2.63 1.66-5.56 3.61-8.27 1.96-2.68 4.81-5.04 8.17-6.6 3.37-1.53 7.05-2.38 10.7-2.96 3.66-.57 7.32-.89 10.85-1.13 7.07-.44 13.67-.63 19.02-.79 5.71-.15 11.75-.31 16.93-.26 5.17.04 9.53.42 11.67.74 1.91.29 4.42.67 7.41 1.77.75.24 1.51.63 2.31.96.79.35 1.58.85 2.41 1.3 1.59 1.04 3.23 2.26 4.66 3.84 1.49 1.52 2.77 3.41 3.83 5.43 1.09 2.03 1.79 4.21 2.43 6.44 1.14 4.44 1.62 9.02 1.94 13.66.3 4.64.42 9.35.51 14.11.07 4.74.14 9.55.21 14.34.04 4.8.06 9.61-.16 14.43-.22 4.8-.66 9.66-2.05 14.53-.81 2.75-1.99 5.51-3.65 7.97-1.64 2.48-3.7 4.53-5.91 6.15s-4.55 2.8-6.71 3.57c-2.17.83-4.17 1.3-5.98 1.69-3.6.72-6.44.99-8.44 1.19-1.99.2-3.13.27-3.27.32zm12.65-4.38c.09.45 1.19.73 2.5.53 1.26-.13 2.2-.95 1.98-1.49-.22-.59-1.38-.65-2.52-.37-1.18.35-2.05.91-1.96 1.33z"/><path d="m83.9 112.45v-16.26c0-1.53 1.26-2.78 2.84-2.78h10.81c2.4 0 4.86.44 6.66 2.02 1.91 1.69 3.77 4.31 3.66 7.8-.11 4.09-3.11 8.9-7.48 9.22-4.37.33-8.46 0-16.48 0zm0 0v16.26c0 1.53 1.26 2.78 2.84 2.78 6.22.05 9.82.27 13.7 0 4.37-.33 7.37-5.18 7.48-9.22.11-3.49-1.75-6.11-3.66-7.8-1.8-1.58-4.26-2.02-6.66-2.02zm54.8 16.32c-2.4 2.29-14.03 6.88-18.23-5.13-.44-1.2-.76-3.82-.6-5.79m.05-.05c.33-3.44 1.86-8.19 7.42-10.15 8.02-2.78 13.04 4.97 14.35 10.15h-21.78zm6.77-21.62h7.42" fill="none"/><path d="m131.85 90.23c.01-.14.1-.11.19.05.09.17.59.44 1.11.61s.95.42.96.56 0 .52-.03.92c-.03.46-.33.7-.96.8-.5.08-1.04.41-1.21.74-.32.65-1.37 2.85-1.97 4.13-.21.45-.51.96-.68 1.14s-.33.44-.36.56-.23.36-.44.52c-.21.17-.42.54-.46.82-.22 1.55-1.3 1.54-1.3 0 0-.28.03-.52.08-.54.1-.05.33-1.94.31-2.67 0-.34.03-.82.09-1.08.17-.82 1-2.79 1.43-3.39.23-.32.49-.69.57-.84.29-.54 1.25-1.39 1.95-1.72.39-.19.72-.45.73-.59zm-.25 2.88c0-.45-.02-.95-.04-1.14-.02-.18-.04.2-.04.81s.02 1.13.04 1.13.04-.36.04-.8z"/><path d="m136.73 123.75c-.08.14-.71.11-1.4-.05-.69-.17-4.4-.44-8.25-.61s-7.05-.42-7.13-.56.02-.52.23-.92c.26-.46 2.47-.7 7.13-.8 3.73-.08 7.73-.41 8.93-.74.88-.24 2.51-.7 5.45-1.25l1.68-.31-.68-.97c-.74-1.06-1.79-2.4-3.01-3.58-1.21-1.19-2.59-2.17-3.74-2.7-.63-.31-1.4-.59-2.08-.77-.34-.06-.67-.13-.97-.18-.3 0-.56-.02-.76-.05-.21-.02-.42.02-.6.03-.19.01-.36.02-.51.09-.31.1-.51.18-.57.24-.13.13-.99.44-1.91.93-.96.54-1.48 1.39-1.4 1.69.1.9-.24 1.73-.64 2.76-.44 1-.94 2.31-1.71 2.25-.27-.02-.49-.23-.49-.46 0-.28-.4-.78-.87-1.29-.46-.49-1.01-1-1.37-1.06-.34-.06-.72-.43-.86-.88-.19-.66-.25-2.71.89-4.91.55-1.09 1.39-2.17 2.35-3.03.97-.84 1.99-1.51 2.94-1.89 1.96-.93 4.69-1.2 5.56-1.08.39 0 .9.02 1.48.15.59.11 1.27.26 1.97.55 1.44.51 2.98 1.43 4.36 2.61 2.81 2.38 4.89 5.67 5.99 8.93.07.21.14.41.2.58l2.12 6.22-7.35.5c-2.72.18-4.89.42-4.97.56zm1.85-2.88c0 .45.14.95.31 1.14.17.18.31-.2.31-.81s-.14-1.13-.31-1.13-.31.36-.31.8z"/><path d="m116.46 129.13c-.14.02-.39-.42-.45-.92-.02-.26-.23-.99-.51-1.97-.07-.25-.15-.51-.23-.79-.12-.41-.21-.83-.26-1.18-.12-.72-.18-1.37-.23-2.01-.09-1.28-.04-2.4.06-3.28.1-.87.26-1.48.32-1.5.14-.05.52.06.9.23.46.24.52 1.66.99 4.38.1.56.24 1.12.44 1.72.1.28.24.67.37.9s.26.45.38.66c.51.84.92 1.47 1.29 1.7.32.23.84.58 1.44.96.61.38 1.45.7 2.2 1 1.69.48 3.34.55 4.44.17.37-.07.81-.23 1.19-.36.38-.1.73-.25.98-.33.48-.12.92-.4.99-.53.07-.12.6-.36 1.14-.63.55-.25 1.01-.78 1.02-1.05.03-.42.19-.78.43-1.06.2-.31.53-.51.76-.65.3-.14.47-.16.68-.05l.03.07.02.04s0 0 .08.11c.26.32.5.59.7.81.41.43.66.66.66.66-.09-.09-.19-.18-.31-.3-.1-.1-.21-.21-.32-.33.02.02.02.04.02.05.15 0 .59 1.93.98 2.56.19.28.34.76.28 1.08-.06.5-.58 1.58-1.48 2.59-.87 1.04-2.13 1.95-3.09 2.36-1.01.44-2.27.84-2.7.93-.74.22-2.44.47-4.51 0-1.05-.18-2.1-.64-3.15-1.14-.51-.26-.96-.59-1.42-.91s-.91-.64-1.24-1c-1.71-1.56-2.69-3.02-2.87-3zm3.12-.41c-.37.25-.75.6-.84.81-.09.2.27.07.77-.28s.88-.72.83-.81-.4.04-.77.28z"/><path d="m101.25 119.95c-.14.04-.34-.3-.6-.78-.03-.06-.09-.15-.17-.25l-.06-.08s0-.02-.01-.03c0-.02-.01-.04-.03-.07-.06-.11-.2-.27-.61-.44-.4-.18-1.08-.34-1.97-.4-1.24-.05-2.54-.1-3.87-.15-2.7-.08-5.16-.19-6.97-.29s-2.96-.2-3.01-.27c-.12-.14.02-.52.33-.92.36-.46 3.46-.7 9.98-.8 1.28-.03 2.57-.06 3.83-.09 1.07-.02 2.03.08 2.79.27.77.19 1.32.46 1.78.77.55.39.97.75 1.25.95.54.41 1.38 1.11 2.1 2.26.72 1.13 1.26 2.8 1.15 4.73-.1 1.91-.74 4.01-2.02 5.75-.63.87-1.46 1.64-2.41 2.2-.23.16-.48.27-.73.38-.25.12-.5.23-.76.3-.25.08-.53.17-.76.23-.21.05-.41.11-.61.16-2.24.59-5.49 1.04-7.25 1.19-.88.07-1.73.17-2.4.26-.27.05-.81.09-1.12.12-.34.04-.58.07-.69.1s-.41.06-.86.09c-.44.03-1.04.08-1.67 0-.32-.03-.67-.07-1.03-.11-.34-.07-.7-.16-1.06-.3-.72-.27-1.46-.73-2.08-1.33-.62-.59-1.13-1.31-1.47-2.01-.33-.7-.57-1.4-.72-2.11-.15-.7-.21-1.36-.29-1.87s-.15-.88-.22-1.06c-.1-.23-.19-.61-.27-.91-.08-.21-.16-.44-.24-.71-.14-.52-.27-1.15-.36-1.84-.19-1.37-.29-2.99-.29-4.54 0-3.1.39-5.91 1.17-5.91.28 0 .52.34.54.78.05 1.09 1.94 3.38 2.67 3.24.34-.06.82.33 1.08.89.41.86 1.11 3.46 1.78 6.4.08.37.17.74.25 1.12l.12.57.12.42c.16.53.31 1 .45 1.41.17.85 1.04 1.35 1.71 1.35.36.02.73-.09 1.05-.16.31-.08.62-.16.9-.23.07-.02.14-.04.21-.05.06-.02.12-.03.26-.05.24-.03.46-.06.67-.09.4-.06.73-.1.94-.13 1.51-.26 4.79-.46 8.16-.99l.15-.02.04-.03s.06-.03.08-.04c.06-.01.11-.06.17-.1.06-.02.11-.07.17-.12.06-.04.12-.08.18-.15.24-.21.52-.53.78-.93.54-.8.9-1.98.97-2.82.07-.94-.21-1.6-.51-2.05-.31-.46-.66-.74-.72-.72zm3.2-.11c-.42.16-.85.45-.99.63-.13.17.25.16.84 0s1.06-.45 1-.62-.45-.18-.86-.02z"/><path d="m111.02 112.04c.02.21-.76 1.39-2.02 2.4-.31.25-.94.81-1.98 1.48-1.02.66-2.51 1.45-4.46 1.83-.48.11-.99.15-1.51.2-.31.03-.4.02-.58.03-.16 0-.32 0-.48.01-.65.01-1.33.01-2.01 0-1.37-.02-2.77-.07-4.15-.14-2.75-.13-5.16-.29-6.94-.4-1.78-.12-2.9-.21-2.96-.28-.11-.14.02-.52.32-.91.37-.46 3.37-.7 9.93-.67 1.32 0 2.69-.03 4.04-.12.67-.04 1.34-.1 1.99-.18.28-.02.73-.1 1.16-.18.42-.06.81-.21 1.2-.33 1.53-.54 2.65-1.41 3.42-2.18.78-.77 1.23-1.48 1.48-1.93.47-.9 1.11-2.36 1.34-4.18.27-1.79.1-4-.8-5.9-.89-1.91-2.42-3.38-4.03-4.34-1.56-.97-3.17-1.01-4.54-.89-.48.05-1.01.12-1.56.22-.53.11-1.25.22-1.87.32-1.28.21-2.51.38-3.39.47-.87.09-1.72.2-2.39.3-.41.05-.42.1-.54.14-.09.04-.15.08-.18.11-.05.06-.27.15-.54.24-.26.07-.61.22-.78.58-.2.35-.02.81.13 1.08.15.29.31.45.45.49.1.04.19.05.27.12.08.21.16.44.24.71.14.52.27 1.15.36 1.83.19 1.37.29 2.99.29 4.54 0 3.09-.39 5.91-1.17 5.91-.28 0-.52-.34-.54-.78-.05-1.08-1.94-3.37-2.67-3.24-.34.06-.82-.32-1.08-.89-.41-.86-1.11-3.46-1.78-6.39-.08-.37-.17-.74-.25-1.12l-.12-.56-.12-.72c-.15-.98-.35-2.05-.35-3.03-.05-.98.14-1.94.61-2.73.45-.79 1.1-1.39 1.75-1.77.69-.42 1.44-.62 2.27-.8.83-.17 1.71-.21 2.52-.3.2-.02.4-.04.6-.06s.4-.04.49-.05c.24-.04.46-.07.66-.1.4-.06.72-.12.93-.15.75-.13 1.94-.29 3.41-.45.74-.07 1.54-.16 2.4-.24 1.03-.08 2.21-.1 3.51.04 1.3.16 2.76.49 4.24 1.21.74.36 1.46.8 2.15 1.36.57.46 1.07.9 1.57 1.4 1.99 1.97 3.59 4.77 4.08 7.65.3 1.61.3 3.16.14 4.55-.16 1.38-.46 2.56-.8 3.54-.67 1.95-1.38 3.13-1.37 3.24zm-.91-4.53c.42.16.99.09 1.26-.18.27-.26-.01-.63-.6-.79s-1.16-.07-1.25.2c-.08.28.18.62.59.77z"/></svg>