<?xml version="1.0" encoding="UTF-8"?>
<svg id="Layer_1" xmlns="http://www.w3.org/2000/svg" xmlns:xlink="http://www.w3.org/1999/xlink" version="1.1" viewBox="0 0 175.1 22.9">
  <!-- Generator: Adobe Illustrator 30.4.0, SVG Export Plug-In . SVG Version: 2.1.4 Build 226)  -->
  <defs>
    <style>
      .st0 {
        fill: none;
      }

      .st1 {
        fill: #070507;
      }

      .st2 {
        clip-path: url(#clippath);
      }
    </style>
    <clipPath id="clippath">
      <rect class="st0" width="175.1" height="22.9"/>
    </clipPath>
  </defs>
  <g id="Group_35">
    <g class="st2">
      <g id="Group_34">
        <path id="Path_61" class="st1" d="M160.9,7.4l1.2-1.1c1.3-1.1,3.1-1.2,4.5-.4.5.5,1,1,1.4,1.6.2-.2.6-.5.9-.8,1.2-1.2,3-1.6,4.6-1,.9.4,1.5,1.2,1.5,2.2,0,2.9,0,5.8,0,8.7,0,.4-.2.5-.5.5-.5,0-1.1,0-1.6,0-.5,0-.6-.2-.6-.7,0-2.2,0-4.4,0-6.5,0-.5,0-1-.1-1.5,0-.4-.3-.8-.8-.7,0,0-.1,0-.2,0-.5,0-.9.3-1.3.5-.6.5-1.2,1-1.7,1.6-.2.3-.3.6-.3.9,0,1.9,0,3.8,0,5.7,0,.6-.2.7-.7.7-.5,0-1,0-1.4,0-.5,0-.6-.2-.6-.7,0-2.1,0-4.1,0-6.2,0-.5,0-1,0-1.4,0-.7-.5-1.2-1.2-1.2-.2,0-.5,0-.7.2-.3.2-.6.4-.8.6-1.2.7-1.8,2-1.6,3.4.2,1.5,0,3.1,0,4.6,0,.5-.2.7-.7.6-.6,0-1.1,0-1.7,0-.4,0-.6-.1-.6-.5,0-3.5,0-6.9,0-10.4,0-.4.1-.5.5-.5.6,0,1.2,0,1.8,0,.5,0,.6.2.6.6,0,.4,0,.8,0,1.2h.2"/>
        <path id="Path_62" class="st1" d="M.5,18c2.2,1.7,5.1,2.3,7.8,1.6,2-.5,3.7-1.7,4.9-3.4,2.4-3.4,2.1-8-.7-11.1C9.3,1.8,4.1,1.5.5,4.4c0-.9,0-1.8,0-2.6,0-.2.3-.3.4-.4C5.3-1,10.5-.2,13.9,3.2c4.4,4.3,4.5,11.3.2,15.7-.8.9-1.8,1.6-2.9,2.1-3.2,1.7-7,1.7-10.2,0-.4-.1-.6-.5-.6-.9,0-.6,0-1.3,0-1.9,0,0,0-.2,0-.2"/>
        <path id="Path_63" class="st1" d="M139.9,16.3c0-.4,0-.2,0-.9-.7.9-1.6,1.6-2.8,1.9-2.1.4-4.1-.8-4.9-2.8-.7-1.6-.8-3.3-.3-4.9.4-1.2,1-2.3,1.9-3.1,1.5-1.3,3.3-1.5,5.1-.8.3.1.5.2.8.4v-1.4c0-1.3,0-2.5,0-3.8,0-.6.2-.7.7-.7.5,0,1,0,1.5,0,.5,0,.7.1.7.7,0,1.3,0,2.6,0,4,0,3.8,0,7.7,0,11.5,0,.6-.2.7-.8.7,0,0-1.2,0-1.5,0s-.5-.5-.5-.7ZM139.7,10.9c0-.7,0-1.3,0-2,0-.2,0-.5-.3-.7-1-1-2.7-1-3.7,0,0,0-.1.1-.2.2-1.1,1.4-1.3,3.4-.6,5,.3,1.2,1.5,1.9,2.7,1.5,1.1-.3,1.9-1.3,2-2.4v-1.7"/>
        <path id="Path_64" class="st1" d="M77.1,17c-1.1,0-1.9,0-2.8,0-.3,0-.5-.3-.6-.5-1-1.7-2.1-3.3-3.1-5,0,0-.1-.2-.3-.4,0,.4,0,.6,0,.8,0,1.5,0,3,0,4.5,0,.5-.2.7-.7.6-.6,0-1.1,0-1.7,0-.4,0-.6-.1-.6-.5,0-5.3,0-10.5,0-15.8,0-.4.2-.5.6-.5.6,0,1.1,0,1.7,0,.5,0,.7.2.6.6,0,3,0,5.9,0,8.9v.7h.2c.3-.4.6-.8.9-1.2.8-1.1,1.6-2.2,2.4-3.2.2-.2.5-.4.8-.4.8,0,1.6,0,2.6,0l-4.1,5.3,4.2,6.2"/>
        <path id="Path_65" class="st1" d="M156.1,11.2c0,2.7-1.7,5.2-4.3,5.9-2.6.7-5.3-.5-6.6-2.8-1.2-2.1-1-4.7.3-6.6,1.6-2.3,4.9-3.2,7.4-1.8,1.9,1.1,3,3.2,3.1,5.3M153.2,11.3c0,0-.2-1.5-.5-2.1s-.7-1.2-1.3-1.5c-.5-.2-1-.2-1.5-.2-.5,0-1,.2-1.4.6-.5.5-.7,1.3-.8,2-.1,1.1-.2,2.2.2,3.1s1.3,1.8,2.4,1.9c.8,0,1.6-.4,2.1-1.1.6-.8.9-1.8.9-2.8"/>
        <path id="Path_66" class="st1" d="M57.5,7.4c1-.4,1.2-1.2,2.7-1.8.9-.3,2-.3,2.9,0,1.1.6,1.7,1.7,1.7,3,0,2.6,0,5.2,0,7.8,0,.5-.2.7-.7.7s-1,0-1.6,0c-.4,0-.6-.1-.6-.6,0-2.4,0-4.7,0-7.1,0-.6,0-1.3-.6-1.6s-1.2,0-1.7.4c-.3.3-.7.6-1,.8-.9.7-1.3,1.8-1.1,2.9,0,1.5,0,3.1,0,4.6,0,.5-.2.7-.7.6-.5,0-1,0-1.4,0-.6,0-.7-.2-.7-.7,0-3.1,0-6.2,0-9.3,0-.3,0-.6,0-.9,0-.2.2-.4.4-.4.6,0,1.3,0,1.9,0,.4,0,.5.2.5.5,0,.4,0,.8,0,1.3"/>
        <path id="Path_67" class="st1" d="M109.5,11.7c-1.1,0-2.2,0-3.3,0-.5,0-.5.2-.4.5.2,2.4,1.8,3.2,4.1,2.8.7-.2,1.4-.5,2.1-.9.4-.2.6-.2.8.3.1.3.3.6.5.9.2.5.1.8-.4,1-.8.2-1.5.4-2.2.7-1.2.5-2.5.5-3.8.2-1.4-.3-2.6-1.2-3.1-2.5-1.4-3.1-.7-7.4,2.9-9,2.3-1.2,5.2-.2,6.4,2.1.2.4.3.7.4,1.1.1.7.2,1.4.2,2.1,0,.6-.2.7-.8.7-1.1,0-2.1,0-3.2,0h0ZM108.2,9.9h0c.6,0,1.3,0,1.9,0,.2,0,.3-.1.4-.2.2-.9-.3-1.8-1.1-2.2-1.3-.5-2.8,0-3.3,1.3,0,.2-.2.5-.2.7,0,.4,0,.5.4.5h1.9"/>
        <path id="Path_68" class="st1" d="M87,12c0,.8,0,1.5,0,2.3,0,.2,0,.5.2.6.6.2.5.6.4,1.1-.3,1.4-.3,1.5-1.7,1.1-.5-.2-.9-.5-1.3-.8-.3-.3-.5-.4-.9,0-1.1,1-2.6,1.3-4,.8-1.3-.5-2.1-1.7-2-3.1,0-1.3.9-2.4,2.2-2.7,1.1-.4,2.3-.7,3.4-1,.6-.2.9-.4.8-1.1,0-.3,0-.6,0-.9-.2-.9-.6-1.3-1.4-1.2-1,0-1.5.1-1.8,1.1,0,.2-.2.3-.4.4-.6.2-1.2.2-1.7.4-.5.2-.6-.1-.6-.5,0-1,.5-1.9,1.3-2.4,1.7-.9,3.8-1.1,5.7-.5,1,.3,1.7,1.2,1.7,2.3.1,1.4.2,4.2.2,4.2M84.1,11.7c-.3.1-.5.2-.6.3-.6.2-1.3.4-1.9.6-.7.3-1,1.1-.7,1.8,0,.1.1.3.2.4.6.5,1.3.5,1.9.2,1.1-.5,1.2-.6,1.1-1.4,0-.4,0-.9,0-1.3,0-.2,0-.4,0-.5"/>
        <path id="Path_69" class="st1" d="M52.8,15.1c-.1.6-.2,1.2-.4,1.8-.1.2-.3.3-.5.3-1.1,0-2.1-.2-2.5-1.4-.8.8-1.8,1.3-2.8,1.5-.6,0-1.5-.1-1.8-.2-1-.3-1.8-1.2-2-2.3-.4-1.6.7-3.2,2.3-3.6,0,0,.2,0,.3,0,1.1-.3,2.2-.6,3.4-1,.2,0,.3-.2.3-.4,0-.5,0-1,0-1.4,0-.7-.7-1.3-1.4-1.2-.9,0-1.7.2-1.8,1.1,0,.2-.2.3-.3.4-.7.2-1.5.3-2.2.4-.5-1.2,0-2.6,1.3-3.1,1.6-.8,3.5-1,5.2-.5,1.5.4,2.1,1.4,2.1,3.1s0,3.5,0,5.2c0,.6,0,1.2.9,1.3M49,13.2c0-.2,0-.5,0-.8,0-.5-.2-.6-.6-.4-.6.2-1.3.4-2,.7-.6.2-1,.8-.9,1.4,0,.6.5,1.1,1.1,1.2.7,0,1.5-.1,1.9-.7"/>
        <path id="Path_70" class="st1" d="M125.1,5.6c-.2.7-.4,1.3-.7,1.9-1.2,3-2.3,6-3.5,9-.2.4-.4.6-.8.6-.7,0-1.6.2-2.1-.1-.5-.3-.6-1.2-.8-1.9-.5-1.6-1-3.1-1.5-4.7-.5-1.4-1-2.8-1.5-4.2,0-.1,0-.3-.1-.5.9,0,1.8,0,2.6,0,.1,0,.3.3.4.4.6,1.8,1.1,3.6,1.7,5.4.2.7.4,1.3.6,2h.2c.2-.5.4-1.1.6-1.6.6-1.8,1.2-3.7,1.8-5.5.1-.4.5-.7.9-.6.7,0,1.4,0,2.2,0"/>
        <path id="Path_71" class="st1" d="M41.2,6.3l-1.2,1.9c-1.6-1.1-3.6-.9-5,.4-1.2,1.3-1.1,3.9-.2,5.1,1.1,1.5,2.4,1.6,5.5.3l.9,2.1c-1.9,1.5-6.1,1.8-8.3-.3-2.2-2.4-2.4-6.1-.3-8.7,1.8-2.3,5.8-2.7,8.7-.9"/>
        <path id="Path_72" class="st1" d="M9.8,6.6l-1.1,1.8c-.8-.2-1.5-.4-2.3-.6-1.6-.3-3.1.8-3.4,2.4,0,.1,0,.3,0,.4,0,.5,0,.9,0,1.4.4,2.7,3,3.1,4.7,2.4,1.1-.5,1.1-.5,1.7.5.2.3.3.6.5.8-2.6,1.9-6.2,1.6-8.5-.6-1.9-2.4-1.8-5.7.1-8,2.3-2.2,5.7-2.4,8.3-.5"/>
        <path id="Path_73" class="st1" d="M98.4,22.9l-2-1.4c.4-.6.8-1.3,1.1-2,.3-.9.6-1.9.6-2.9,0-3.4,0-6.9,0-10.3,0-.6.2-.8.8-.7.5,0,1,0,1.6,0,.4,0,.5.1.5.5,0,3.9,0,7.8-.1,11.7-.1,1-.4,1.9-.9,2.7-.5.8-1,1.6-1.5,2.4"/>
        <path id="Path_74" class="st1" d="M92.7,7.8c.3-.5.7-1,1-1.5.5-.8,1.5-1.1,2.3-.6.1,0,.2.2.3.2.1.1.2.3.2.5,0,0,0,.2,0,.3-.2.7-.5,1.4-.7,2.1-1.3-.4-2.6.3-3,1.6,0,.2,0,.3-.1.5,0,.5-.1,1-.1,1.5,0,1.3,0,2.6,0,3.9q0,.8-.8.8c-.5,0-1,0-1.4,0-.4,0-.5-.2-.5-.5,0-3.5,0-6.9,0-10.4,0-.4.1-.5.5-.5.5,0,1.1,0,1.6,0,.4,0,.5.1.5.5,0,.6,0,1.1,0,1.7h.3"/>
        <path id="Path_75" class="st1" d="M101.4,1.9c0,.9-.7,1.6-1.6,1.6-.9,0-1.7-.7-1.7-1.6,0-.9.7-1.6,1.5-1.7.9,0,1.7.7,1.8,1.7,0,0,0,0,0,0"/>
      </g>
    </g>
  </g>
</svg>