<svg viewBox="0 0 175.1 22.9" xmlns="http://www.w3.org/2000/svg" xmlns:xlink="http://www.w3.org/1999/xlink"><clipPath id="a"><path d="m0 0h175.1v22.9h-175.1z"/></clipPath><g clip-path="url(#a)" fill="#070507"><path d="m160.9 7.4 1.2-1.1c1.3-1.1 3.1-1.2 4.5-.4.5.5 1 1 1.4 1.6.2-.2.6-.5.9-.8 1.2-1.2 3-1.6 4.6-1 .9.4 1.5 1.2 1.5 2.2v8.7c0 .4-.2.5-.5.5-.5 0-1.1 0-1.6 0s-.6-.2-.6-.7c0-2.2 0-4.4 0-6.5 0-.5 0-1-.1-1.5 0-.4-.3-.8-.8-.7 0 0-.1 0-.2 0-.5 0-.9.3-1.3.5-.6.5-1.2 1-1.7 1.6-.2.3-.3.6-.3.9v5.7c0 .6-.2.7-.7.7s-1 0-1.4 0c-.5 0-.6-.2-.6-.7 0-2.1 0-4.1 0-6.2 0-.5 0-1 0-1.4 0-.7-.5-1.2-1.2-1.2-.2 0-.5 0-.7.2-.3.2-.6.4-.8.6-1.2.7-1.8 2-1.6 3.4.2 1.5 0 3.1 0 4.6 0 .5-.2.7-.7.6-.6 0-1.1 0-1.7 0-.4 0-.6-.1-.6-.5 0-3.5 0-6.9 0-10.4 0-.4.1-.5.5-.5h1.8c.5 0 .6.2.6.6v1.2h.2"/><path d="m.5 18c2.2 1.7 5.1 2.3 7.8 1.6 2-.5 3.7-1.7 4.9-3.4 2.4-3.4 2.1-8-.7-11.1-3.2-3.3-8.4-3.6-12-.7 0-.9 0-1.8 0-2.6 0-.2.3-.3.4-.4 4.4-2.4 9.6-1.6 13 1.8 4.4 4.3 4.5 11.3.2 15.7-.8.9-1.8 1.6-2.9 2.1-3.2 1.7-7 1.7-10.2 0-.4-.1-.6-.5-.6-.9 0-.6 0-1.3 0-1.9v-.2"/><path d="m139.9 16.3c0-.4 0-.2 0-.9-.7.9-1.6 1.6-2.8 1.9-2.1.4-4.1-.8-4.9-2.8-.7-1.6-.8-3.3-.3-4.9.4-1.2 1-2.3 1.9-3.1 1.5-1.3 3.3-1.5 5.1-.8.3.1.5.2.8.4v-1.4c0-1.3 0-2.5 0-3.8 0-.6.2-.7.7-.7h1.5c.5 0 .7.1.7.7v4 11.5c0 .6-.2.7-.8.7 0 0-1.2 0-1.5 0s-.5-.5-.5-.7zm-.2-5.4c0-.7 0-1.3 0-2 0-.2 0-.5-.3-.7-1-1-2.7-1-3.7 0 0 0-.1.1-.2.2-1.1 1.4-1.3 3.4-.6 5 .3 1.2 1.5 1.9 2.7 1.5 1.1-.3 1.9-1.3 2-2.4v-1.7"/><path d="m77.1 17c-1.1 0-1.9 0-2.8 0-.3 0-.5-.3-.6-.5-1-1.7-2.1-3.3-3.1-5 0 0-.1-.2-.3-.4v.8 4.5c0 .5-.2.7-.7.6-.6 0-1.1 0-1.7 0-.4 0-.6-.1-.6-.5 0-5.3 0-10.5 0-15.8 0-.4.2-.5.6-.5h1.7c.5 0 .7.2.6.6v8.9.7h.2c.3-.4.6-.8.9-1.2.8-1.1 1.6-2.2 2.4-3.2.2-.2.5-.4.8-.4h2.6l-4.1 5.3 4.2 6.2"/><path d="m156.1 11.2c0 2.7-1.7 5.2-4.3 5.9s-5.3-.5-6.6-2.8c-1.2-2.1-1-4.7.3-6.6 1.6-2.3 4.9-3.2 7.4-1.8 1.9 1.1 3 3.2 3.1 5.3m-2.8.1s-.2-1.5-.5-2.1-.7-1.2-1.3-1.5c-.5-.2-1-.2-1.5-.2s-1 .2-1.4.6c-.5.5-.7 1.3-.8 2-.1 1.1-.2 2.2.2 3.1s1.3 1.8 2.4 1.9c.8 0 1.6-.4 2.1-1.1.6-.8.9-1.8.9-2.8"/><path d="m57.5 7.4c1-.4 1.2-1.2 2.7-1.8.9-.3 2-.3 2.9 0 1.1.6 1.7 1.7 1.7 3v7.8c0 .5-.2.7-.7.7s-1 0-1.6 0c-.4 0-.6-.1-.6-.6 0-2.4 0-4.7 0-7.1 0-.6 0-1.3-.6-1.6s-1.2 0-1.7.4c-.3.3-.7.6-1 .8-.9.7-1.3 1.8-1.1 2.9v4.6c0 .5-.2.7-.7.6-.5 0-1 0-1.4 0-.6 0-.7-.2-.7-.7 0-3.1 0-6.2 0-9.3 0-.3 0-.6 0-.9 0-.2.2-.4.4-.4h1.9c.4 0 .5.2.5.5v1.3"/><path d="m109.5 11.7c-1.1 0-2.2 0-3.3 0-.5 0-.5.2-.4.5.2 2.4 1.8 3.2 4.1 2.8.7-.2 1.4-.5 2.1-.9.4-.2.6-.2.8.3.1.3.3.6.5.9.2.5.1.8-.4 1-.8.2-1.5.4-2.2.7-1.2.5-2.5.5-3.8.2-1.4-.3-2.6-1.2-3.1-2.5-1.4-3.1-.7-7.4 2.9-9 2.3-1.2 5.2-.2 6.4 2.1.2.4.3.7.4 1.1.1.7.2 1.4.2 2.1 0 .6-.2.7-.8.7-1.1 0-2.1 0-3.2 0zm-1.3-1.8h1.9c.2 0 .3-.1.4-.2.2-.9-.3-1.8-1.1-2.2-1.3-.5-2.8 0-3.3 1.3 0 .2-.2.5-.2.7 0 .4 0 .5.4.5h1.9"/><path d="m87 12v2.3c0 .2 0 .5.2.6.6.2.5.6.4 1.1-.3 1.4-.3 1.5-1.7 1.1-.5-.2-.9-.5-1.3-.8-.3-.3-.5-.4-.9 0-1.1 1-2.6 1.3-4 .8-1.3-.5-2.1-1.7-2-3.1 0-1.3.9-2.4 2.2-2.7 1.1-.4 2.3-.7 3.4-1 .6-.2.9-.4.8-1.1 0-.3 0-.6 0-.9-.2-.9-.6-1.3-1.4-1.2-1 0-1.5.1-1.8 1.1 0 .2-.2.3-.4.4-.6.2-1.2.2-1.7.4s-.6-.1-.6-.5c0-1 .5-1.9 1.3-2.4 1.7-.9 3.8-1.1 5.7-.5 1 .3 1.7 1.2 1.7 2.3.1 1.4.2 4.2.2 4.2m-3-.4c-.3.1-.5.2-.6.3-.6.2-1.3.4-1.9.6-.7.3-1 1.1-.7 1.8 0 .1.1.3.2.4.6.5 1.3.5 1.9.2 1.1-.5 1.2-.6 1.1-1.4 0-.4 0-.9 0-1.3 0-.2 0-.4 0-.5"/><path d="m52.8 15.1c-.1.6-.2 1.2-.4 1.8-.1.2-.3.3-.5.3-1.1 0-2.1-.2-2.5-1.4-.8.8-1.8 1.3-2.8 1.5-.6 0-1.5-.1-1.8-.2-1-.3-1.8-1.2-2-2.3-.4-1.6.7-3.2 2.3-3.6h.3c1.1-.3 2.2-.6 3.4-1 .2 0 .3-.2.3-.4 0-.5 0-1 0-1.4 0-.7-.7-1.3-1.4-1.2-.9 0-1.7.2-1.8 1.1 0 .2-.2.3-.3.4-.7.2-1.5.3-2.2.4-.5-1.2 0-2.6 1.3-3.1 1.6-.8 3.5-1 5.2-.5 1.5.4 2.1 1.4 2.1 3.1s0 3.5 0 5.2c0 .6 0 1.2.9 1.3m-3.9-1.9c0-.2 0-.5 0-.8 0-.5-.2-.6-.6-.4-.6.2-1.3.4-2 .7-.6.2-1 .8-.9 1.4 0 .6.5 1.1 1.1 1.2.7 0 1.5-.1 1.9-.7"/><path d="m125.1 5.6c-.2.7-.4 1.3-.7 1.9-1.2 3-2.3 6-3.5 9-.2.4-.4.6-.8.6-.7 0-1.6.2-2.1-.1s-.6-1.2-.8-1.9c-.5-1.6-1-3.1-1.5-4.7-.5-1.4-1-2.8-1.5-4.2 0-.1 0-.3-.1-.5h2.6c.1 0 .3.3.4.4.6 1.8 1.1 3.6 1.7 5.4.2.7.4 1.3.6 2h.2c.2-.5.4-1.1.6-1.6.6-1.8 1.2-3.7 1.8-5.5.1-.4.5-.7.9-.6h2.2"/><path d="m41.2 6.3-1.2 1.9c-1.6-1.1-3.6-.9-5 .4-1.2 1.3-1.1 3.9-.2 5.1 1.1 1.5 2.4 1.6 5.5.3l.9 2.1c-1.9 1.5-6.1 1.8-8.3-.3-2.2-2.4-2.4-6.1-.3-8.7 1.8-2.3 5.8-2.7 8.7-.9"/><path d="m9.8 6.6-1.1 1.8c-.8-.2-1.5-.4-2.3-.6-1.6-.3-3.1.8-3.4 2.4v.4 1.4c.4 2.7 3 3.1 4.7 2.4 1.1-.5 1.1-.5 1.7.5.2.3.3.6.5.8-2.6 1.9-6.2 1.6-8.5-.6-1.9-2.4-1.8-5.7.1-8 2.3-2.2 5.7-2.4 8.3-.5"/><path d="m98.4 22.9-2-1.4c.4-.6.8-1.3 1.1-2 .3-.9.6-1.9.6-2.9 0-3.4 0-6.9 0-10.3 0-.6.2-.8.8-.7h1.6c.4 0 .5.1.5.5 0 3.9 0 7.8-.1 11.7-.1 1-.4 1.9-.9 2.7s-1 1.6-1.5 2.4"/><path d="m92.7 7.8c.3-.5.7-1 1-1.5.5-.8 1.5-1.1 2.3-.6.1 0 .2.2.3.2.1.1.2.3.2.5v.3c-.2.7-.5 1.4-.7 2.1-1.3-.4-2.6.3-3 1.6 0 .2 0 .3-.1.5 0 .5-.1 1-.1 1.5v3.9q0 .8-.8.8c-.5 0-1 0-1.4 0s-.5-.2-.5-.5c0-3.5 0-6.9 0-10.4 0-.4.1-.5.5-.5h1.6c.4 0 .5.1.5.5v1.7h.3"/><path d="m101.4 1.9c0 .9-.7 1.6-1.6 1.6s-1.7-.7-1.7-1.6.7-1.6 1.5-1.7c.9 0 1.7.7 1.8 1.7z"/></g></svg>