<svg viewBox="0 0 162.9 40.6" xmlns="http://www.w3.org/2000/svg"><g fill="#070507"><path d="m162.9 27.8v5.5c0 .9-.3 1.6-1.3 1.7-1 0-1.4-.7-1.3-1.6 0-3.1 0-6.2 0-9.4 0-.9-.3-1.3-1.1-1.3-.9 0-1.1.5-1.1 1.3v8.8 1c0 .7-.6 1.3-1.3 1.3s-1.3-.5-1.3-1.1c0 0 0-.2 0-.3 0-3.2 0-6.4 0-9.6 0-.4-.2-.9-.6-1.2-.9-.5-1.7 0-1.7 1v9.1c0 .4 0 .8-.2 1.2-.3.4-.8.8-1.2.8-.5-.1-.9-.5-1.2-.9-.1-.4-.2-.8-.1-1.2 0-3.4 0-6.9 0-10.3 0-.7.4-1.4 1.1-1.7 1.4-.7 2.9-.8 4.4-.4h1.9c.8-.1 1.6-.2 2.4-.2 2.3.3 2.8.9 2.8 3.2v4.4"/><path d="m84 24.7c0-2.6 0-5.1 0-7.7 0-.7.3-1.3.9-1.6 2.1-1.3 4.8-1.3 6.9 0 .4.3.7.8.8 1.3v2.8c0 .7-.5 1.3-1.2 1.4 0 0-.1 0-.2 0-.7 0-1.4-.5-1.5-1.2 0-.3 0-.6 0-1 .1-1-.3-1.5-1.3-1.5s-1.4.4-1.4 1.5v12c0 1.1.5 1.4 1.5 1.4s1.4-.5 1.3-1.5c0-.4 0-.7 0-1.1 0-.8.8-1.3 1.5-1.3s1.3.6 1.3 1.3v.1 1.3c0 2.5-.7 3.3-3.2 3.7-.7 0-1.5 0-2.2 0-2.5-.3-3.2-1.2-3.2-3.6v-6.6"/><path d="m107.2 20.2c.6 0 1.2-.1 1.8-.1 2.3.1 3.1 1 3.1 3.2v9.8c0 1-.2 1.8-1.3 1.8s-1.4-.8-1.4-1.8c0-3.1 0-6.2 0-9.2 0-.9-.3-1.3-1.1-1.3s-1.1.5-1.1 1.4v9.2c0 1-.3 1.7-1.4 1.7-1 0-1.3-.7-1.3-1.7 0-5.6 0-11.2 0-16.8 0-1 .2-1.7 1.4-1.7s1.3.8 1.3 1.7z"/><path d="m102.3 27.6v5.2c0 .5-.3 1-.8 1.3-1.9 1.2-4.2 1.2-6.1 0-.4-.3-.7-.8-.7-1.3 0-3.5 0-7 0-10.5 0-.6.3-1.1.8-1.4 1.8-1.1 4.2-1.1 6 0 .5.3.7.9.8 1.4.1 1.7 0 3.5 0 5.2m-2.8 0c0-1.3 0-2.6 0-3.9 0-.8-.5-1.1-1.1-1.1s-1.1.2-1.1 1.1v7.8c0 .8.4 1.1 1.1 1.1s1.2-.3 1.1-1.1c0-1.3 0-2.6 0-3.9"/><path d="m114.3 27.6c0-1.7 0-3.5 0-5.2 0-.6.4-1.1.9-1.5 1.1-.5 2.4-.7 3.6-.7 2.5.1 3.1 1 3.1 3.4s0 6.1 0 9.1c0 .6-.3 1.3-.9 1.5-1.8 1-4.1 1-5.9 0-.6-.2-1-.9-.9-1.5 0-1.7 0-3.4 0-5.1m2.8-.1v3.9c0 .8.4 1.1 1.1 1.1s1.1-.2 1.1-1.1c0-2.6 0-5.2 0-7.8 0-.8-.5-1.1-1.1-1.1s-1.2.2-1.1 1.1z"/><path d="m143.2 29.3v2.4c0 .3.5.8.8.8.8 0 1.6-.2 2.4-.5s1.4-.3 1.8.5c.3.6 0 1.4-.6 1.7-2 1.1-4.5 1-6.4-.2-.3-.3-.5-.7-.5-1.1 0-3.6 0-7.1 0-10.7 0-.5.3-1 .7-1.2 1.8-1.2 4.2-1.2 6.1 0 .5.3.8.9.8 1.4.1 1.4 0 2.9 0 4.4.1.7-.3 1.4-1 1.6-1.3.4-2.6.6-4.1 1m0-4.9c0 .4-.2 1 0 1.3.2.4.7.7 1.1.8.4 0 1.1-.4 1.2-.7.1-.9.1-1.8 0-2.8 0-.2-.4-.5-.6-.6-1.2-.4-1.7.2-1.7 2"/><path d="m134.3 23.1c-1.1-.2-2.3.1-2.4-1.3 0-1.5 1.2-1.3 2.4-1.5 0-.8 0-1.6 0-2.4 0-.9.3-1.7 1.3-1.7 1.1 0 1.4.8 1.4 1.7v2.3c1.1.1 2.5 0 2.4 1.5 0 1.4-1.3 1.2-2.4 1.3v2.5 7.7c0 .9-.4 1.6-1.4 1.6s-1.3-.7-1.3-1.6c0-2.9 0-5.8 0-8.8v-1.4"/><path d="m124 27.8c0-1.8 0-3.6 0-5.4-.1-.7.3-1.4 1-1.6 1-.4 2.2-.6 3.3-.6 2.3.2 2.9 1 2.9 3.3v1.7c0 .7-.6 1.2-1.3 1.2 0 0 0 0-.1 0-.7 0-1.2-.5-1.3-1.2 0 0 0 0 0-.1 0-.4 0-.8 0-1.2 0-.7-.1-1.3-.9-1.2-.8 0-.8.6-.8 1.2v9.1c0 .5 0 1-.3 1.4-.3.3-1 .7-1.3.5-.5-.3-.9-.8-1.1-1.4-.1-1.9 0-3.8 0-5.7"/><path d="m60.2 29c-.9-2.2-2.3-4.2-4.1-5.7-1.3-1.1-1.3-3.6-1.9-5.6l-4.3-.7c.5 6.4-.9 9.7-4.4 9.6.7-.9 1.3-1.8 1.8-2.8 1.7-3.4.8-6.4-1.1-9.4-.3-.5-.6-.9-.8-1.4.2-.2.4-.4.7-.6 5.7 4.2 8.2 4.5 10.5 1.5-2-2.1-4-4.3-6-6.4-1-1.1-2-2.1-3-3.2-.8-.6-1.7-1-2.7-1-4.1-.1-7.5 3.1-7.6 7.1v.6c0 2 .2 3.9.5 5.8.2 1.2-.1 2-.7 2.4-11.4 6.5-24.9 7.3-35.8.9-.4-.2-.8-.5-1.1-.7 5.7 10.6 15.9 18.1 27.7 20.4 12.8 2.6 24.2-.6 34.3-8.8-.7-.7-1.6-1.2-1.9-2m-21.2-11.1c-.6.4-1.3.8-1.9 1.2.6-.4 1.3-.8 1.9-1.2m.1-.1c.7-.4 1.3-.9 2-1.4-.6.5-1.3.9-2 1.4"/><path d="m57.4 16.7c-1.5 1.6-1.4 4.1.2 5.7.4.3 1.3.5 1.6.3 2.5-2.3 4.9-4.6 7-6.6 1.3-1.7 1.3-3.1.1-4.2-.9-1.1-2.5-1.2-3.6-.2 0 0 0 0-.1.1-1.8 1.6-3.6 3.2-5.2 4.9"/><path d="m69.2 19.8c-.9-.7-2.1-.9-3.2-.6-1.5 1-2.8 2.1-4.1 3.3-1.5 2.3-1.4 4-.2 5.5.3.4 1.6.8 1.9.6 2.1-1.7 4.1-3.6 5.9-5.6.5-.6.3-2.6-.4-3.2"/><path d="m58.4 13.2c1.5-1.4 3-2.6 4.4-4 1.1-.9 1.2-2.5.3-3.6 0 0 0 0-.1-.1-.8-1.2-2.4-1.4-3.6-.6 0 0-.2.1-.2.2-1.5 1.2-2.9 2.5-4.5 3.9l3.8 4.2"/><path d="m53.3 7.6c1.2-1 2.2-1.8 3.1-2.7 1.1-.9 1.3-2.6.3-3.7 0 0 0-.1-.1-.1-.3-.4-.7-.7-1.2-.9-.8-.3-1.7 0-2.4.4-1.2.9-2.4 1.9-3.5 3l2.2 2.4 1.6 1.7"/></g></svg>