<?xml version="1.0" encoding="UTF-8"?>
<svg id="Layer_1" xmlns="http://www.w3.org/2000/svg" xmlns:xlink="http://www.w3.org/1999/xlink" version="1.1" viewBox="0 0 99 30.7">
  <!-- Generator: Adobe Illustrator 30.4.0, SVG Export Plug-In . SVG Version: 2.1.4 Build 226)  -->
  <defs>
    <style>
      .st0 {
        fill: none;
      }

      .st1, .st2 {
        fill: #231f20;
      }

      .st3 {
        clip-path: url(#clippath-1);
      }

      .st4 {
        clip-path: url(#clippath-3);
      }

      .st5 {
        clip-path: url(#clippath-2);
      }

      .st2 {
        fill-rule: evenodd;
      }

      .st6 {
        clip-path: url(#clippath);
      }
    </style>
    <clipPath id="clippath">
      <rect class="st0" x="0" width="99" height="30.7"/>
    </clipPath>
    <clipPath id="clippath-1">
      <rect class="st0" x="0" width="99" height="30.7"/>
    </clipPath>
    <clipPath id="clippath-2">
      <rect class="st0" x="0" width="99" height="30.7"/>
    </clipPath>
    <clipPath id="clippath-3">
      <rect class="st0" x="0" width="99" height="30.7"/>
    </clipPath>
  </defs>
  <polygon class="st1" points="7.6 0 7.6 5.8 4.5 5.8 4.5 0 0 0 0 14 4.4 14 4.4 7.7 7.6 7.7 7.6 14.1 12 14.1 12 0 7.6 0"/>
  <g class="st6">
    <path class="st1" d="M24,6.1c-.8-1.3-1.6-1.8-2.8-2.3-.8-.3-1.8-.4-2.3-.4s-.3,0-.3,0c-.2,0-.6,0-1.1.1-.6.1-2.3.4-3.5,2.1-1.4,1.9-.9,4.2-.8,4.9.3,1.1.9,2,2,2.8,1.2.9,2.9,1,3.6,1,1.2,0,2.3-.2,3.1-.6,1.2-.6,2-1.6,2.4-2.8.6-1.6.4-3.6-.3-4.9M20.3,10.8c0,.3-.2,1.5-.8,2-.5.4-1.1.3-1.5-.3-.4-.6-.6-1.1-.5-2.9,0-.4,0-.8,0-1.1,0-1.2,0-2,.3-2.6.3-.6.6-1,.9-1,0,0,.1,0,.2,0,.6,0,1,.6,1.2,1.1.1.3.2.9.2,1.6,0,1.4,0,3,0,3.3"/>
    <path class="st1" d="M36.5,14v-7.8c0-.4-.2-1.8-1.7-2.4-.5-.2-1.1-.3-1.6-.3-.9,0-1.7.3-2.1.5-.4.2-.9.6-1.2,1v-1.2h-4.2v10.3h4.1s0-7.4,0-7.4c0-.1.5-.6,1-.9.2,0,.4-.1.6-.1.3,0,.6.1.7.3.3.4.3.8.3,1v7.1h4.1Z"/>
    <path class="st1" d="M48.4,6.2c-.9-1.8-2.4-2.6-4.9-2.7-2.3-.1-4.5,1-5.4,2.8-.8,1.7-.7,3.6-.4,4.5.2.7.7,1.6,1.7,2.4,1,.8,2.3,1.2,3.8,1.2s.8,0,1.2,0c1.5-.2,2.7-.9,3.4-1.5.7-.7.8-1.7.8-1.8h0c0,0-1.8,0-1.8,0h0c0,0,0,.1,0,.1-.2,1.2-1.2,1.6-2.1,1.7-1.3.2-2.2,0-2.7-.7-.1-.2-.2-.6-.2-.6v-2h7.1s0,0,0,0c0,0,.1-1.9-.6-3.4M44.8,8.1h-3c0-.3,0-1.3,0-1.8.1-.6.5-1.1.7-1.3.4-.3,1.1-.2,1.4.1.4.4.5.7.5.9,0,.2.2.8.2,1.3,0,.5,0,.7,0,.8"/>
    <path class="st1" d="M84.6,6.2c-.9-1.8-2.4-2.6-4.9-2.7-2.3-.1-4.5,1-5.4,2.8-.8,1.7-.7,3.6-.4,4.5.2.7.7,1.6,1.7,2.4,1,.8,2.3,1.2,3.8,1.2s.8,0,1.2,0c1.5-.2,2.7-.9,3.4-1.5.7-.7.8-1.7.8-1.8h0c0,0-1.8,0-1.8,0h0c0,0,0,.1,0,.1-.2,1.2-1.2,1.6-2.1,1.7-.3,0-.5,0-.8,0-.6,0-1.4-.1-1.9-.8-.1-.2-.2-.6-.2-.6v-2h7.1s0,0,0,0c0,0,.2-1.9-.6-3.4M81,8.1h-3c0-.3,0-1.3,0-1.8.1-.6.5-1.1.7-1.3.4-.3,1.1-.2,1.4.1.4.4.5.7.5.9,0,.2.2.8.2,1.3,0,.5,0,.7,0,.8"/>
    <path class="st1" d="M72.2,3.8l-1.5,5.4-1.6-5.4h-3.6l-1.5,5.4-1.7-5.4h-5.6s-1.9,4.6-1.9,4.6l-1.8-4.7h-4.5l4.1,10.4s0,0,0,.4c0,.3-.4,1-.8,1.5-.3.3-.6.4-.8.4,0,0,.2-.2.2-.4.1-.3,0-.9-.1-1.3-.3-.6-1-.9-1.9-.7-1.1.2-1.4,1.2-1.3,2,.1,1,.8,1.6,2,1.8.2,0,.5,0,.7,0,1,0,1.7-.5,2.3-1,.8-.7,1.3-2.3,1.4-2.4l4.1-10.1,2.9,9.6h3.5l1.6-5.7,1.8,5.7h3.4l2.8-10.3h-2Z"/>
  </g>
  <rect class="st1" x="86.3" y="0" width="4" height="14.1"/>
  <rect class="st1" x="91.3" y="0" width="4" height="14.1"/>
  <g class="st3">
    <path class="st1" d="M55.2,24.1v-1.3c0-1.2,0-1.6-.5-1.9-.3-.2-.4-.3-1.9-.3s-1.6,0-2,.4c-.3.4-.4.6-.4,1.9v4.8c0,2,0,2.1.5,2.5.3.3.7.3,2,.3,1.9,0,2.3-.3,2.3-1.9v-2.2h-2.1v1.7c0,.6,0,.8-.3.8s-.3-.1-.3-.5v-5.4c0-.7,0-.8.3-.8s.3.1.3.7v1.1h2.1Z"/>
  </g>
  <rect class="st1" x="74.5" y="20.7" width="2.1" height="9.8"/>
  <g class="st5">
    <path class="st1" d="M82,24.2v-1.5c0-1.8-.2-2.1-2.2-2.1s-2.5.3-2.5,1.8v1.2c0,1.2,0,1.5,1.1,2.1l.9.5q.7.4.7.7v.2s0,1.1,0,1.1v.3c0,.3-.1.4-.3.4s-.3-.2-.3-.6v-1.8h-2v1.6c0,2.1.1,2.3,2.2,2.3s2.5-.2,2.5-2v-1.5c0-1.3-.2-1.6-1.4-2.3l-.8-.4c-.4-.2-.5-.4-.5-.8v-.7c0-.5,0-.7.3-.7s.3.1.3.7v1.3h2Z"/>
    <path class="st2" d="M58.3,30.7c-2,0-2.3-.3-2.3-1.8v-6.1c0-1.9,0-2.1,2.3-2.1s2.3.2,2.3,2.1v6.1c0,1.5-.4,1.8-2.3,1.8M58.3,22.3c-.2,0-.3.1-.3.4v5.8c0,.3,0,.4.3.4s.3-.1.3-.4v-5.8c0-.3-.1-.4-.3-.4"/>
  </g>
  <polygon class="st1" points="87.8 20.7 87.8 30.6 89.9 30.6 89.9 26 91.2 26 91.2 24.4 89.9 24.4 89.9 22.3 91.2 22.3 91.2 20.7 87.8 20.7"/>
  <polygon class="st1" points="92 20.7 92 30.6 95.3 30.6 95.3 29.1 94 29.1 94 26 95.3 26 95.3 24.4 94 24.4 94 22.3 95.3 22.3 95.3 20.7 92 20.7"/>
  <polygon class="st1" points="65.5 20.7 64.7 25.5 64 20.7 61.5 20.7 61.5 30.6 63.4 30.6 63.4 25 64.1 30.6 65.4 30.6 66.1 25 66.1 30.6 68 30.6 68 20.7 65.5 20.7"/>
  <path class="st1" d="M84.8,23.3l.3,3.9h-.6l.3-3.9ZM83.6,20.7l-1.3,9.8h1.9v-1.8h1l.2,1.8h1.9l-1.3-9.8h-2.5Z"/>
  <g class="st4">
    <path class="st2" d="M71,29v-2.8c.1,0,.2,0,.2,0,.3,0,.4.1.4.5v1.8c0,.4,0,.5-.4.5s-.2,0-.2,0M71,24.4v-2.1c0,0,.1,0,.1,0,.4,0,.5,0,.5.8v.7c0,.5,0,.6-.5.6h-.1ZM68.9,20.7v9.8h2c.1,0,.4,0,.8,0,1.7,0,2-.3,2-2.2v-1c0-1.4-.2-1.7-.9-2,.6-.2.9-.7.9-1.6v-1.4c0-1.4-.3-1.7-2.5-1.7h-2.4Z"/>
    <path class="st1" d="M97.2,22v-.5h.3c.2,0,.4,0,.4.2s-.2.3-.4.3h-.3ZM97.2,22.2h.3l.4.7h.3l-.5-.7c.2,0,.4-.2.4-.5s-.2-.5-.6-.5h-.6v1.7h.3v-.7ZM97.6,23.5c.8,0,1.4-.6,1.4-1.4s-.7-1.4-1.4-1.4-1.5.6-1.5,1.4.7,1.4,1.5,1.4M96.4,22.1c0-.7.5-1.2,1.2-1.2s1.2.5,1.2,1.2-.5,1.2-1.2,1.2-1.2-.5-1.2-1.2"/>
  </g>
</svg>