<svg viewBox="0 0 99 30.7" xmlns="http://www.w3.org/2000/svg" xmlns:xlink="http://www.w3.org/1999/xlink"><clipPath id="a"><path d="m0 0h99v30.7h-99z"/></clipPath><clipPath id="b"><path d="m0 0h99v30.7h-99z"/></clipPath><clipPath id="c"><path d="m0 0h99v30.7h-99z"/></clipPath><clipPath id="d"><path d="m0 0h99v30.7h-99z"/></clipPath><path d="m7.6 0v5.8h-3.1v-5.8h-4.5v14h4.4v-6.3h3.2v6.4h4.4v-14.1z" fill="#231f20"/><g clip-path="url(#a)" fill="#231f20"><path d="m24 6.1c-.8-1.3-1.6-1.8-2.8-2.3-.8-.3-1.8-.4-2.3-.4s-.3 0-.3 0c-.2 0-.6 0-1.1.1-.6.1-2.3.4-3.5 2.1-1.4 1.9-.9 4.2-.8 4.9.3 1.1.9 2 2 2.8 1.2.9 2.9 1 3.6 1 1.2 0 2.3-.2 3.1-.6 1.2-.6 2-1.6 2.4-2.8.6-1.6.4-3.6-.3-4.9m-3.7 4.8c0 .3-.2 1.5-.8 2-.5.4-1.1.3-1.5-.3s-.6-1.1-.5-2.9c0-.4 0-.8 0-1.1 0-1.2 0-2 .3-2.6s.6-1 .9-1h.2c.6 0 1 .6 1.2 1.1.1.3.2.9.2 1.6v3.3"/><path d="m36.5 14v-7.8c0-.4-.2-1.8-1.7-2.4-.5-.2-1.1-.3-1.6-.3-.9 0-1.7.3-2.1.5s-.9.6-1.2 1v-1.2h-4.2v10.3h4.1s0-7.4 0-7.4c0-.1.5-.6 1-.9.2 0 .4-.1.6-.1.3 0 .6.1.7.3.3.4.3.8.3 1v7.1h4.1z"/><path d="m48.4 6.2c-.9-1.8-2.4-2.6-4.9-2.7-2.3-.1-4.5 1-5.4 2.8-.8 1.7-.7 3.6-.4 4.5.2.7.7 1.6 1.7 2.4s2.3 1.2 3.8 1.2.8 0 1.2 0c1.5-.2 2.7-.9 3.4-1.5.7-.7.8-1.7.8-1.8h-1.8v.1c-.2 1.2-1.2 1.6-2.1 1.7-1.3.2-2.2 0-2.7-.7-.1-.2-.2-.6-.2-.6v-2h7.1s0 0 0 0 .1-1.9-.6-3.4m-3.5 1.9h-3c0-.3 0-1.3 0-1.8.1-.6.5-1.1.7-1.3.4-.3 1.1-.2 1.4.1.4.4.5.7.5.9s.2.8.2 1.3v.8"/><path d="m84.6 6.2c-.9-1.8-2.4-2.6-4.9-2.7-2.3-.1-4.5 1-5.4 2.8-.8 1.7-.7 3.6-.4 4.5.2.7.7 1.6 1.7 2.4s2.3 1.2 3.8 1.2.8 0 1.2 0c1.5-.2 2.7-.9 3.4-1.5.7-.7.8-1.7.8-1.8h-1.8v.1c-.2 1.2-1.2 1.6-2.1 1.7-.3 0-.5 0-.8 0-.6 0-1.4-.1-1.9-.8-.1-.2-.2-.6-.2-.6v-2h7.1s0 0 0 0 .2-1.9-.6-3.4m-3.5 2h-3c0-.3 0-1.3 0-1.8.1-.6.5-1.1.7-1.3.4-.3 1.1-.2 1.4.1.4.4.5.7.5.9s.2.8.2 1.3v.8"/><path d="m72.2 3.8-1.5 5.4-1.6-5.4h-3.6l-1.5 5.4-1.7-5.4h-5.6s-1.9 4.6-1.9 4.6l-1.8-4.7h-4.5l4.1 10.4s0 0 0 .4c0 .3-.4 1-.8 1.5-.3.3-.6.4-.8.4 0 0 .2-.2.2-.4.1-.3 0-.9-.1-1.3-.3-.6-1-.9-1.9-.7-1.1.2-1.4 1.2-1.3 2 .1 1 .8 1.6 2 1.8h.7c1 0 1.7-.5 2.3-1 .8-.7 1.3-2.3 1.4-2.4l4.1-10.1 2.9 9.6h3.5l1.6-5.7 1.8 5.7h3.4l2.8-10.3h-2z"/></g><path d="m86.3 0h4v14.1h-4z" fill="#231f20"/><path d="m91.3 0h4v14.1h-4z" fill="#231f20"/><g clip-path="url(#b)"><path d="m55.2 24.1v-1.3c0-1.2 0-1.6-.5-1.9-.3-.2-.4-.3-1.9-.3s-1.6 0-2 .4c-.3.4-.4.6-.4 1.9v4.8c0 2 0 2.1.5 2.5.3.3.7.3 2 .3 1.9 0 2.3-.3 2.3-1.9v-2.2h-2.1v1.7c0 .6 0 .8-.3.8s-.3-.1-.3-.5v-5.4c0-.7 0-.8.3-.8s.3.1.3.7v1.1h2.1z" fill="#231f20"/></g><g fill="#231f20"><path d="m74.5 20.7h2.1v9.8h-2.1z"/><g clip-path="url(#c)"><path d="m82 24.2v-1.5c0-1.8-.2-2.1-2.2-2.1s-2.5.3-2.5 1.8v1.2c0 1.2 0 1.5 1.1 2.1l.9.5q.7.4.7.7v.2s0 1.1 0 1.1v.3c0 .3-.1.4-.3.4s-.3-.2-.3-.6v-1.8h-2v1.6c0 2.1.1 2.3 2.2 2.3s2.5-.2 2.5-2v-1.5c0-1.3-.2-1.6-1.4-2.3l-.8-.4c-.4-.2-.5-.4-.5-.8v-.7c0-.5 0-.7.3-.7s.3.1.3.7v1.3h2z"/><path d="m58.3 30.7c-2 0-2.3-.3-2.3-1.8v-6.1c0-1.9 0-2.1 2.3-2.1s2.3.2 2.3 2.1v6.1c0 1.5-.4 1.8-2.3 1.8m0-8.4c-.2 0-.3.1-.3.4v5.8c0 .3 0 .4.3.4s.3-.1.3-.4v-5.8c0-.3-.1-.4-.3-.4" fill-rule="evenodd"/></g><path d="m87.8 20.7v9.9h2.1v-4.6h1.3v-1.6h-1.3v-2.1h1.3v-1.6z"/><path d="m92 20.7v9.9h3.3v-1.5h-1.3v-3.1h1.3v-1.6h-1.3v-2.1h1.3v-1.6z"/><path d="m65.5 20.7-.8 4.8-.7-4.8h-2.5v9.9h1.9v-5.6l.7 5.6h1.3l.7-5.6v5.6h1.9v-9.9z"/><path d="m84.8 23.3.3 3.9h-.6zm-1.2-2.6-1.3 9.8h1.9v-1.8h1l.2 1.8h1.9l-1.3-9.8h-2.5z"/><g clip-path="url(#d)"><path d="m71 29v-2.8h.2c.3 0 .4.1.4.5v1.8c0 .4 0 .5-.4.5s-.2 0-.2 0m0-4.6v-2.1h.1c.4 0 .5 0 .5.8v.7c0 .5 0 .6-.5.6zm-2.1-3.7v9.8h2 .8c1.7 0 2-.3 2-2.2v-1c0-1.4-.2-1.7-.9-2 .6-.2.9-.7.9-1.6v-1.4c0-1.4-.3-1.7-2.5-1.7h-2.4z" fill-rule="evenodd"/><path d="m97.2 22v-.5h.3c.2 0 .4 0 .4.2s-.2.3-.4.3zm0 .2h.3l.4.7h.3l-.5-.7c.2 0 .4-.2.4-.5s-.2-.5-.6-.5h-.6v1.7h.3zm.4 1.3c.8 0 1.4-.6 1.4-1.4s-.7-1.4-1.4-1.4-1.5.6-1.5 1.4.7 1.4 1.5 1.4m-1.2-1.4c0-.7.5-1.2 1.2-1.2s1.2.5 1.2 1.2-.5 1.2-1.2 1.2-1.2-.5-1.2-1.2"/></g></g></svg>