<svg viewBox="0 0 100 100" xmlns="http://www.w3.org/2000/svg"><path d="m10.09 11.58c-16.12 30.08-6.86 66.77 16.93 75.34 13.45 11.04 38.29 12.04 42.13 12.58 26.2-15.7 28.15-45.63 28.83-58.75l-5.74-24.11c-32.55-11.37-70.3-27.09-82.15-5.06z"/><g fill="#fff"><path d="m72.41 57.8c.18-1.64.18-3.68.15-4.74-.04-1.07-.07-3.08-.08-4.66 0-2.87-.16-7.67-.16-5.38 0 .65-.04.97-.08.68-.09-.46-.08-3.25-.38-7.18-.2-1.95-.42-4.27-1.53-6.52-.56-1.12-1.38-2.15-2.41-2.94-1.03-.8-2.24-1.34-3.45-1.69-2.71-.79-6.55-.88-10.49-.89-3.94.01-8.03.01-11.38.15-1.67.08-3.53.19-5.45.54-.96.19-1.92.44-2.86.83-.93.39-1.81.95-2.54 1.63-.74.68-1.34 1.49-1.79 2.34-.44.86-.72 1.75-.94 2.6-.4 1.71-.52 3.28-.62 4.57-.19 3.1-.18 6.2-.2 9.28l.36-4.17c.19-1.99.38-4.04.75-6.28.2-1.11.44-2.28.85-3.45.41-1.16.99-2.32 1.93-3.24.37-.38 1.07-1.01 2.08-1.52 1.01-.52 2.38-.85 3.82-1.04 2.9-.37 6-.31 7.23-.38.6-.03 4.1-.08 7.8-.09 1.85 0 3.62 0 5 .04 1.37.04 2.34.11 2.61.13.37.02 1.23.07 2.43.31 1.19.24 2.77.65 4.15 1.85.69.6 1.32 1.39 1.78 2.38.47.99.78 2.18.98 3.49.4 2.63.44 5.69.46 8.99 0 3.3.05 6.87-.06 10.55-.07 1.83-.17 3.72-.56 5.51-.35 1.81-1.09 3.47-2.4 4.68-1.28 1.23-3.07 1.86-5.01 2.18s-3.99.41-6.06.46c-4.14.06-8.4.05-12.58-.02-2.72-.07-5.37-.2-7.59-.79-2.23-.55-3.84-1.81-4.73-3.26-.9-1.44-1.19-2.97-1.39-4.05-.19-1.1-.24-1.81-.27-1.96-.11-.62-.3-2.8-.37-4.73-.08-1.94-.17-3.73-.24-3.88-.07-.16-.22-.54-.34-.88-.11-.33-.42-.69-.66-.79-.41-.17-.47.06-.65 2.78-.11 1.62-.19 4.38-.11 6.09.02.47.07 1.65.31 3.4.12.87.33 1.9.7 3.04.38 1.13 1.01 2.4 2.01 3.5.98 1.11 2.34 2.05 3.85 2.59 1.5.56 3.09.84 4.68 1.01 3.18.32 6.44.29 9.7.31 3.25 0 6.51.03 9.65-.1 1.57-.07 3.12-.19 4.63-.46 1.5-.26 2.99-.71 4.28-1.46 1.3-.74 2.33-1.74 3.05-2.79.73-1.05 1.14-2.11 1.42-3 .52-1.81.63-3.05.69-3.57z"/><path d="m39.75 41.28c-.33.67-.6 1.59-.65 2.09-.08.49-.21 1.42-.26 2.14-.06.67 0 1.55.1 2.13.12.57.2.85.13.33-.04-.29-.02-.44.03-.32.11.19.24 1.47.99 3.05.38.78.88 1.64 1.54 2.44.67.79 1.47 1.54 2.36 2.15.98.68 2.53 1.41 4.26 1.65 1.72.27 3.55.06 4.93-.43 1.39-.46 2.94-1.38 4.13-2.56 1.21-1.17 1.99-2.59 2.42-3.61.52-1.24.79-2.58.8-3.93-.14.6-.29 1.19-.51 1.75-.3.8-.7 1.56-1.25 2.32-.53.76-1.24 1.51-2.17 2.19-.37.28-1.27 1.02-2.3 1.5-1.02.52-2.12.75-2.56.89-.21.04-1.48.35-2.85.17-1.36-.14-2.57-.62-2.76-.71-.28-.08-1.25-.48-2.43-1.54-1.16-1.05-2.48-2.91-2.8-5.43-.16-1.24-.09-2.63.36-3.97.44-1.34 1.22-2.66 2.31-3.72 2.17-2.16 5.66-3.17 8.75-2.27 1 .28 1.93.7 2.7 1.22.76.53 1.4 1.1 1.88 1.66.97 1.11 1.32 2.04 1.41 2.13.08.1.21.34.35.65.16.3.29.68.4 1.04.22.72.37 1.41.43 1.47.07.06.23.2.35.33s.43.28.68.32c.41.07.48-.02.58-1.28.03-.75-.14-2.05-.44-2.79-.13-.4-.75-2.11-2.43-3.87-.84-.87-1.93-1.73-3.25-2.36-1.31-.64-2.83-1.05-4.37-1.13-1.54-.09-3.1.15-4.48.64s-2.58 1.23-3.52 2c-1.87 1.59-2.68 3.25-2.88 3.67z"/><path d="m62.41 35.35s0-.08 0-.15 0-.12 0-.12 0-.15 0-.16c0 0 0-.04 0-.08 0-.13 0-.26 0-.25 0 0 0-.05 0-.12s0-.11 0-.09v.04s0-.35 0-.35c0-.34 0-.66 0-1.08 0-.17 0-.36 0-.29v.08.1c0 .17 0 .25 0 .16 0-.03 0-.02 0 .02v.16.21.34.66.66.25c0 .05 0 .09 0 .05z"/></g></svg>