<?xml version="1.0" encoding="UTF-8"?>
<svg id="Layer_1" xmlns="http://www.w3.org/2000/svg" version="1.1" viewBox="0 0 100 100">
  <!-- Generator: Adobe Illustrator 30.4.0, SVG Export Plug-In . SVG Version: 2.1.4 Build 226)  -->
  <path d="M10.09,11.58C-6.03,41.66,3.23,78.35,27.02,86.92c13.45,11.04,38.29,12.04,42.13,12.58,26.2-15.7,28.15-45.63,28.83-58.75l-5.74-24.11C59.69,5.27,21.94-10.45,10.09,11.58Z"/>
  <g>
    <path d="M36.72,65.1c-.05.08-.08.14-.28.22-.19.08-.49.15-.7.19-.41.1-1.31.15-2.03.15-.65,0-1.53.04-2.09.06-.55.02-.81.03-.33.07.28.01.42.05.29.08-.1.03-.47.06-.97.03-.52-.04-1.05-.13-1.29-.68-.26-.6-.25-1.67-.27-2.71,0-1.07-.01-2.19-.02-3.29,0-2.45-.05-6.87-.11-9.91-.02-1.52-.05-3.36-.07-5.11,0-.87-.03-1.74.07-2.46.08-.74.44-1.21.9-1.38.56-.21,1.27-.21,1.96-.22h2.1s-1.9-.31-1.9-.31c-.46-.07-.91-.15-1.41-.17-.48-.02-1.07-.02-1.64.37-.58.37-.89,1.11-1.03,1.74-.16.65-.25,1.29-.35,1.98-.16,1.11-.34,5.61-.27,6.75.02.28.05,1.88.07,3.56.02,1.69.06,3.27.09,3.52.04.35.07,1.6.1,3.52.03.97-.01,2.04.09,3.43.04.35.09.74.25,1.19.15.44.49.93.94,1.23.46.32.96.44,1.38.51.43.06.83.08,1.23.09.76,0,1.55,0,2.36,0,.81-.01,1.63.02,2.6-.1.48-.07,1.1-.21,1.63-.66.53-.43.81-1.12.9-1.64.18-1.06.12-1.94.14-2.87.01-3.66.02-7.52.04-11.36,0-2.51.01-4.86.02-6.62,0-.88,0-1.62-.05-2.21-.04-.58-.15-1.01-.2-1.1-.07-.17-.22-.64-.67-1.09-.43-.45-1.14-.69-1.64-.75-1.03-.11-1.82.03-1.9.08-.07.06-.25.2-.4.31-.15.11-.31.38-.36.61-.08.38.04.42,1.24.61.35.06.82.13,1.16.24.35.12.39.22.45.3.02.04.13.14.19.81.05.64.03,1.66.03,2.82,0,2.32-.01,5.28-.02,8.24,0,2.96,0,5.93,0,8.26,0,1.17.02,2.2-.04,2.85-.05.69-.17.79-.18.83Z" fill="#fff"/>
    <path d="M27.93,25.78c-.17.36-.29.85-.29,1.12-.02.3-.06.76-.09,1.12-.09.7.26,1.8.18,1.27-.02-.15,0-.23.05-.17.08.09.18.74.57,1.53.38.79,1.08,1.68,1.98,2.29.49.34,1.27.7,2.13.81.86.12,1.77,0,2.45-.25.68-.24,1.44-.71,2.02-1.29.59-.58.97-1.28,1.19-1.78.26-.61.4-1.27.41-1.93-.12.3-.24.58-.4.84-.44.72-1.04,1.38-1.99,1.83-.19.09-.6.36-1.04.53-.43.19-.88.26-1.06.34-.08.02-.6.17-1.17.11-.56-.05-1.07-.22-1.16-.25-.12-.01-.54-.17-1.06-.61-.5-.44-1.08-1.23-1.22-2.31-.17-1.07.19-2.38,1.14-3.31.93-.93,2.44-1.35,3.76-.96.87.23,1.55.77,1.95,1.24.41.47.57.87.62.9.08.08.28.39.39.7.12.31.23.61.29.63.07.02.21.08.32.14.11.06.39.13.62.15.38.03.44,0,.56-.66.06-.39.02-1.09-.13-1.48-.07-.21-.39-1.12-1.27-2.05-.86-.93-2.37-1.79-4.02-1.86-1.64-.12-3.26.56-4.23,1.4-.99.84-1.42,1.72-1.52,1.94Z" fill="#fff"/>
    <path d="M63.06,62.6c-.04-1.31-.08-3.12-.15-4.02-.06-.92-.11-2.68-.11-4.05,0-.63-.02-1.36-.02-2.08-.01-.38,0-.66-.03-1.1-.03-.42-.12-.81-.25-1.14-.24-.67-.59-1.08-.72-1.22-.14-.13-.02-.04.31.5.35.62.37.98.25.7-.12-.2-.42-1.1-1.53-1.85-.54-.36-1.34-.64-2.19-.58-.79.03-1.72.23-2.54.81-.84.56-1.41,1.49-1.76,2.46-.34.98-.49,2.03-.53,3.09,0,2.06,0,4.22,0,6.36-.02,1.16.05,2.64-.06,4.08-.07.73-.32,1.22-.96,1.4-.66.19-1.54.17-2.39.18-.86,0-1.73,0-2.59.01-.84-.02-1.72-.03-2.16-.43-.46-.38-.51-1.21-.55-1.98-.01-.8-.02-1.56-.04-2.29-.06-5.84-.11-14.17-.07-18.65.02-.66.05-1.34.3-1.84.25-.5.78-.72,1.43-.78,1.28-.11,2.67-.04,4.01-.05-1.22-.1-2.43-.24-3.65-.29-.44,0-.88,0-1.32.15-.44.14-.84.51-1.04.97-.39.93-.39,1.91-.49,2.91-.15,2.01-.33,4.24-.53,6.87-.15,2.15-.35,10.76-.26,13.02.01.15.02.45.07.94.03.24.07.54.19.91.11.36.34.84.72,1.22.38.39.93.67,1.4.78.48.12.9.15,1.32.17.82.03,1.61.01,2.43,0,.81,0,1.6,0,2.44-.06.42-.04.86-.08,1.34-.24.49-.15.99-.49,1.31-.9.33-.41.49-.86.57-1.2.08-.35.11-.62.13-.86.03-.46.02-.75.02-.88-.02-.72-.07-3.1-.09-6.79.02-1.85-.22-4.03.69-5.89.45-.9,1.19-1.53,2.28-1.66.59-.07,1.03-.06,1.46.18.43.22.81.61,1.02,1.09.11.24.18.5.2.77.02.23,0,.68.01,1.04,0,.75,0,1.51,0,2.29,0,1.55,0,3.14,0,4.77,0,.82,0,1.65,0,2.48,0,.42,0,.85.04,1.32.04.46.08.96.33,1.54.24.58.79,1.1,1.38,1.32.58.22,1.08.26,1.55.29.93.05,1.79.03,2.67.03.88,0,1.75.03,2.77-.09.5-.07,1.15-.21,1.7-.69.54-.46.8-1.16.88-1.69.17-1.07.11-1.95.13-2.87,0-.91,0-1.82,0-2.74,0-1.83,0-3.67.01-5.51v-2.77s0-.7,0-.7l-.04-.77c-.03-.51-.14-1.01-.25-1.51-.64-2.62-2.36-4.7-4.23-6.07-.94-.7-1.95-1.21-2.95-1.57-1-.37-1.99-.56-2.93-.61-1.88-.14-3.43.33-4.45.78-1.03.47-1.59.9-1.72.99-.04.04-.1.08-.16.13-.03.02-.07.05-.1.08l-.04.04c-.06.06-.14.13-.18.18-.11.12-.26.3-.41.52-.02-.09-.02-.27-.04-.43,0-.08-.02-.15-.04-.23-.01-.04-.02-.08-.04-.11-.03-.08-.11-.25-.18-.36-.28-.44-.65-.76-1.01-.96-.83-.4-1.3-.26-1.37-.27-.16.06-.51.18-.81.28-.29.1-.61.38-.69.61-.08.19-.06.3.27.38.16.04.41.08.74.12.31.04.79.11.97.25.08.06.22.19.31.32.04.06.1.16.1.2v.04s.05.13.05.2c.02.16.03.33.04.51,0,1.48-.05,3.1-.06,4.49.86-1.05,1.56-1.89,2.15-2.61.3-.34.83-.97,1.48-1.47.38-.29.8-.56,1.39-.84,1.14-.56,2.82-.95,4.74-.56,1.91.37,4.03,1.52,5.52,3.38.74.92,1.32,2.01,1.61,3.18.07.29.11.59.16.89l.05.91c0,.71,0,1.42,0,2.13,0,2.85,0,5.7,0,8.4,0,.67,0,1.33,0,1.99,0,.63-.02,1.26-.11,1.66-.11.4-.12.36-.33.47-.24.1-.79.14-1.31.15-1.11,0-2.15,0-3.09,0-.92,0-1.78-.06-1.98-.19-.1-.05-.14-.1-.18-.17-.04-.09-.09-.25-.12-.43-.06-.37-.06-.73-.07-.93Z" fill="#fff"/>
  </g>
</svg>