<svg viewBox="0 0 100 100" xmlns="http://www.w3.org/2000/svg"><rect fill="#131b34" height="100" rx="50" width="100" x=".42" y=".42"/><g fill="#fff"><path d="m36.27 71.67c-.06.08-.09.15-.3.24s-.52.16-.74.2c-.44.1-1.4.16-2.16.16-.7 0-1.63.04-2.22.07-.59.02-.86.04-.35.07.3.01.45.05.31.09-.11.03-.5.06-1.04.03-.56-.04-1.11-.13-1.38-.73-.27-.64-.27-1.78-.29-2.89 0-1.14-.01-2.33-.02-3.51 0-2.61-.05-7.32-.12-10.56-.02-1.62-.05-3.58-.08-5.45 0-.93-.03-1.85.07-2.62.08-.79.47-1.29.96-1.47.6-.23 1.36-.22 2.09-.23h2.24s-2.02-.33-2.02-.33c-.49-.08-.97-.16-1.5-.18-.51-.02-1.14-.02-1.75.39-.62.4-.95 1.19-1.1 1.85-.17.69-.26 1.38-.37 2.11-.17 1.19-.36 5.98-.28 7.19.02.3.05 2 .07 3.8s.07 3.48.1 3.75c.04.38.08 1.71.11 3.75.03 1.04-.01 2.17.1 3.65.04.38.09.79.27 1.26.16.47.52.99 1 1.31.49.34 1.02.47 1.47.54.46.07.88.09 1.3.1h2.52c.86-.01 1.73.02 2.77-.1.51-.08 1.17-.22 1.74-.71.56-.46.86-1.19.95-1.75.19-1.13.13-2.07.15-3.05.01-3.9.03-8.01.04-12.1 0-2.67.01-5.18.02-7.05 0-.94 0-1.73-.05-2.35s-.16-1.07-.21-1.18c-.08-.18-.24-.69-.71-1.16-.46-.48-1.21-.74-1.75-.79-1.1-.12-1.94.03-2.02.08-.08.07-.27.21-.43.33-.16.11-.34.41-.38.65-.09.41.05.45 1.32.65.37.06.88.14 1.23.26.38.13.41.23.48.32.02.05.14.15.2.86.06.68.03 1.77.03 3 0 2.47-.02 5.62-.02 8.78v8.8c0 1.24.02 2.34-.04 3.04-.06.74-.18.84-.2.88z"/><path d="m26.91 29.79c-.18.38-.3.91-.31 1.19-.02.31-.06.81-.09 1.2-.09.75.27 1.92.19 1.35-.02-.16 0-.24.05-.18.09.1.19.79.61 1.63.41.84 1.15 1.79 2.11 2.43.52.36 1.35.75 2.27.86.92.13 1.89 0 2.61-.26.73-.26 1.53-.75 2.15-1.38.63-.62 1.04-1.36 1.26-1.89.28-.65.42-1.35.44-2.06-.13.32-.26.62-.43.89-.47.77-1.1 1.47-2.12 1.95-.2.1-.64.39-1.11.57-.46.2-.94.28-1.13.36-.09.03-.64.18-1.25.12-.6-.05-1.14-.24-1.24-.26-.13-.01-.58-.18-1.13-.65-.54-.47-1.15-1.31-1.3-2.46-.18-1.14.2-2.54 1.22-3.52.99-.99 2.6-1.44 4-1.02.92.25 1.65.82 2.08 1.32.44.5.61.92.66.96.09.08.3.42.42.75s.25.65.31.68c.07.02.22.09.34.15s.42.13.66.16c.4.04.47 0 .6-.71.06-.42.02-1.16-.14-1.58-.07-.23-.41-1.19-1.35-2.18-.91-.99-2.53-1.9-4.28-1.98-1.75-.13-3.47.59-4.5 1.49-1.05.9-1.51 1.83-1.61 2.07z"/><path d="m64.33 69.01c-.04-1.4-.09-3.32-.16-4.28-.07-.98-.12-2.85-.12-4.32 0-.67-.02-1.45-.02-2.21-.01-.41 0-.7-.03-1.17-.03-.45-.13-.87-.26-1.22-.26-.71-.63-1.15-.76-1.3-.15-.14-.02-.04.33.53.37.67.39 1.05.26.75-.13-.21-.44-1.17-1.63-1.97-.58-.38-1.43-.68-2.33-.61-.84.03-1.83.25-2.71.87-.89.6-1.5 1.59-1.88 2.62-.36 1.05-.52 2.16-.57 3.29v6.77c-.02 1.24.06 2.81-.06 4.35-.08.78-.34 1.3-1.02 1.5-.7.2-1.64.18-2.54.2-.91 0-1.84 0-2.76.01-.89-.02-1.84-.03-2.3-.46-.49-.4-.55-1.29-.59-2.11-.03-.83-.03-1.66-.04-2.44-.07-6.22-.12-15.1-.08-19.86.03-.7.05-1.43.32-1.96.26-.53.84-.76 1.52-.83 1.37-.12 2.84-.04 4.28-.05-1.3-.11-2.59-.26-3.88-.31-.46 0-.94 0-1.41.16-.47.15-.9.54-1.11 1.03-.41.99-.41 2.04-.52 3.1-.16 2.14-.35 4.51-.56 7.32-.16 2.29-.37 11.46-.27 13.87.01.16.02.48.08 1 .03.26.08.58.2.97.11.39.36.89.77 1.3.4.41.99.71 1.49.83.51.13.96.16 1.41.18.88.03 1.72.01 2.59.01.87-.01 1.71 0 2.59-.06.45-.04.91-.09 1.43-.26s1.06-.52 1.4-.95c.35-.44.52-.91.61-1.27.09-.37.11-.66.14-.91.03-.49.03-.8.02-.94-.02-.77-.07-3.3-.1-7.24.02-1.97-.24-4.29.73-6.27.47-.96 1.27-1.63 2.42-1.77.62-.07 1.09-.06 1.56.19.46.23.86.65 1.08 1.16.11.26.19.54.22.82.02.24.01.73.01 1.1v2.44 5.09 2.64c0 .45 0 .91.04 1.4s.09 1.03.35 1.64c.26.62.84 1.17 1.47 1.41.61.24 1.15.28 1.65.31.99.05 1.91.03 2.85.04.94 0 1.86.03 2.95-.09.53-.07 1.23-.23 1.81-.74.58-.49.85-1.24.94-1.8.18-1.14.12-2.08.14-3.05 0-.97 0-1.94 0-2.91 0-1.95 0-3.91.01-5.87v-2.95s0-.74 0-.74l-.05-.82c-.03-.54-.15-1.08-.27-1.61-.69-2.79-2.51-5.01-4.51-6.47-1-.74-2.08-1.29-3.14-1.67-1.06-.39-2.13-.6-3.12-.65-2-.15-3.65.35-4.74.83-1.1.5-1.7.96-1.83 1.06-.05.04-.11.08-.17.14-.03.03-.07.05-.11.09l-.04.04c-.06.06-.14.14-.19.2-.12.13-.28.32-.44.56-.02-.1-.02-.29-.05-.46 0-.08-.02-.16-.05-.25-.01-.04-.03-.08-.04-.12-.03-.08-.12-.27-.19-.38-.3-.47-.7-.81-1.08-1.02-.42-.23-.8-.28-1.04-.3s-.38 0-.42 0c-.17.06-.54.19-.86.3-.31.11-.65.41-.74.65-.08.2-.06.32.28.4.17.04.43.08.79.13.33.04.85.11 1.04.27.09.07.24.2.33.34.04.06.1.17.11.21v.04s.05.14.05.21c.02.17.03.35.04.54 0 1.58-.05 3.31-.06 4.78.92-1.12 1.66-2.02 2.29-2.78.32-.36.89-1.03 1.58-1.57.41-.31.85-.6 1.48-.9 1.21-.59 3-1.01 5.05-.6 2.03.4 4.29 1.62 5.88 3.6.79.98 1.41 2.14 1.72 3.39.07.31.11.63.18.95l.05.97v2.27 8.94 2.12c0 .67-.02 1.34-.11 1.77-.12.42-.13.38-.35.5-.26.11-.84.15-1.39.16-1.18 0-2.29 0-3.29.01-.98 0-1.89-.06-2.11-.2-.1-.05-.14-.1-.19-.18-.05-.09-.1-.27-.13-.46-.06-.39-.07-.78-.08-.99z"/></g></svg>