<?xml version="1.0" encoding="UTF-8"?>
<svg id="Layer_1" xmlns="http://www.w3.org/2000/svg" version="1.1" viewBox="0 0 70 68">
  <!-- Generator: Adobe Illustrator 30.4.0, SVG Export Plug-In . SVG Version: 2.1.4 Build 226)  -->
  <rect width="70" height="68" fill="#333"/>
  <path d="M44.58,33.35h-3.97c-.08-.34-.7-15.19-.99-22.3-.04-.86.37-1.16,1.47-1.23,2.19-.13,4.38-.31,6.75-.49,1.79,5.13,3.58,10.24,5.36,15.35l.57-.04c.18-2.91.64-12.41.82-15.32h4.03c.05.42,0,7.34,0,7.65-.04,5.06.02,16.16.02,16.16,0,0-5.81.18-7.77.31l-5.69-14.79-.59.04v14.65Z" fill="#50e3c2"/>
  <path d="M14.79,54.17l5.98-.15v-7.02l-6.96.74c.32,2.13.64,4.19.98,6.43ZM20.3,43.29l-.79-3.93h-11.47l-1.04-3.76s6.9-.24,11.11-.35c.73-.02,1.45.09,2.14.32,2.41.97,4.76,1.97,7.05,3.01.53.24,1.04.66,1.04,1,.06,6.55.04,13.09.04,19.64l-5.34.06-.81-1.94-9.35,2.18-4.85-9.38,3.65-6.5s6.53-.25,8.61-.36" fill="#b550f8"/>
  <path d="M19.98,14.18l-6.23.36c.28,2.9.55,5.67.83,8.6l6.29-.51c-.3-2.89-.59-5.58-.89-8.45M8.03,10.39c4.3-.37,12.65-1.06,12.65-1.06l6.51,5.09s-.91,9.01-1.46,11.86l-11.38.53c.21,2.45.42,4.81.63,7.24h-6.93V10.39Z" fill="#f8e71c"/>
  <path d="M47.12,46.89c-5.2.33-5.18.33-5.4-3.05-.08-1.25-.27-2.5-.42-3.83l-4.47.65c.41,6.19.82,12.33,1.24,18.61l-5.07-.41c-.31-8.06-.61-16.03-.92-24.13l4.14-.53c.07,1.03.13,1.93.2,3.06,1.16-.65,4.37-2.02,4.37-2.02l5.78,1.39s.54,7.27.54,10.25" fill="#fd725b"/>
  <path d="M62.09,40.79v5.67h-6.71c.2,3.37.39,6.54.59,9.83l3.39.12c.18-1.74.34-3.37.5-4.98l3.13.52-.58,6.84-3.79,1.21s-5.16-1.01-6.72-1.28v-12.92l-2.92-.44c-.19-1.26-.38-2.49-.58-3.8l2.87-.44v-5.86h4.1v5.54h6.72Z" fill="#f8e71c"/>
  <path d="M30.65,17h3.72c.19,2.07.4,4.09.57,6.12.24,2.75.71,9.62.71,9.62,0,0-3.77.26-5.01.41v-16.15Z" fill="#fa4892"/>
  <path d="M29.52,8.38l5.13-.38v5.39l-4.62.54c-.17-1.89-.34-3.68-.51-5.55Z" fill="#4a90e2"/>
</svg>