<svg fill="none" height="68" viewBox="0 0 70 68" width="70" xmlns="http://www.w3.org/2000/svg"><path d="m0 0h70v68h-70z" fill="#000"/><path d="m44.5793 33.3498h-3.9723c-.0779-.3401-.7014-15.1904-.9937-22.3034-.0351-.86.3741-1.16359 1.4653-1.22874 2.1926-.1303 4.3788-.31402 6.7546-.48993 1.7909 5.12517 3.5769 10.24327 5.3583 15.35447l.5741-.0391c.178-2.9056.6404-12.4058.8171-15.31537h4.0268c.0506.42348 0 7.33587 0 7.65247-.0442 5.057.0221 16.165.0221 16.165s-5.8064.1772-7.7666.3062l-5.6921-14.7916-.5936.043z" fill="#50e3c2"/><path d="m14.7926 54.1717 5.983-.146v-7.0231l-6.9612.7427c.3248 2.1317.6378 4.1917.9782 6.4264zm5.5102-10.8839-.7898-3.926h-11.47379l-1.03918-3.7604s6.90277-.245 11.11397-.3479c.7273-.0222 1.4526.0859 2.142.3192 2.4109.9668 4.7616 1.971 7.0521 3.0125.5274.2398 1.0392.662 1.0392.9994.0611 6.545.0442 13.0886.0442 19.6427l-5.3401.0573-.8105-1.9388-9.3526 2.1812-4.85299-9.3816 3.65399-6.5006s6.526-.2476 8.6083-.3636" fill="#b550f8"/><path d="m19.9831 14.1775-6.226.3609c.2806 2.8953.5482 5.6668.8314 8.5998l6.2857-.5082c-.304-2.89-.5872-5.5807-.8898-8.4473m-11.95056-3.7969c4.29826-.3727 12.64806-1.06197 12.64806-1.06197l6.5066 5.09337s-.9093 9.0103-1.464 11.8573l-11.379.5329c.2105 2.4484.4157 4.8094.6261 7.2356h-6.93256z" fill="#f8e71c"/><path d="m47.1207 46.8918c-5.1959.3258-5.1829.3258-5.3985-3.0451-.0792-1.2535-.2689-2.5043-.4157-3.8269l-4.4749.6515c.4117 6.188.8222 12.3329 1.2392 18.612l-5.066-.4065c-.3066-8.0564-.6118-16.0269-.9197-24.1302l4.1372-.5342c.0689 1.028.1299 1.9323.204 3.0568 1.1613-.6515 4.3697-2.0209 4.3697-2.0209l5.7804 1.3889s.5443 7.2747.5443 10.252" fill="#fd725b"/><path d="m62.0907 40.7899v5.6694h-6.7065c.2039 3.3682.3897 6.5423.5936 9.8324l3.3916.1238c.1754-1.7434.339-3.3722.5014-4.984l3.1292.5212-.5845 6.8355-3.7865 1.2118s-5.1582-1.0085-6.7235-1.2848v-12.9218l-2.9227-.4404c-.1922-1.26-.3806-2.4874-.5819-3.8047l2.872-.4378v-5.8635h4.0957v5.5429z" fill="#f8e71c"/><path d="m30.6492 16.9985h3.7228c.1936 2.0665.3988 4.094.5716 6.1241.2364 2.7519.7118 9.6161.7118 9.6161s-3.767.2606-5.0088.4065z" fill="#fa4892"/><path d="m29.5163 8.38047 5.1349-.38047v5.3905l-4.6244.542c-.174-1.8932-.3377-3.6783-.5105-5.55203z" fill="#4a90e2"/></svg>