<?xml version="1.0" encoding="UTF-8"?>
<svg id="Group_18" xmlns="http://www.w3.org/2000/svg" xmlns:xlink="http://www.w3.org/1999/xlink" version="1.1" viewBox="0 0 114.5 35.4">
  <!-- Generator: Adobe Illustrator 30.4.0, SVG Export Plug-In . SVG Version: 2.1.4 Build 226)  -->
  <defs>
    <style>
      .st0 {
        fill: none;
      }

      .st1 {
        fill: #070507;
      }

      .st2 {
        clip-path: url(#clippath);
      }
    </style>
    <clipPath id="clippath">
      <rect class="st0" width="114.5" height="35.4"/>
    </clipPath>
  </defs>
  <g class="st2">
    <g id="Group_17">
      <path id="Path_10" class="st1" d="M46.8,28.4c-.2,0-.5,0-.6-.2-.2-.1-.3-.3-.3-.5v-11.5c0-.2,0-.4.3-.5.2-.1.4-.2.6-.2.2,0,.4,0,.6.2.2.1.3.3.3.5v1.2c.4-.6.9-1.1,1.4-1.4,1.5-.9,3.4-.8,4.8.1.7.5,1.2,1.2,1.6,2,.4-.9,1.1-1.6,1.9-2,.7-.4,1.6-.7,2.4-.7.8,0,1.6.2,2.3.6.7.4,1.4,1,1.8,1.7.5.8.7,1.8.7,2.8v7.2c0,.2-.1.4-.3.5-.2.1-.4.2-.7.2-.2,0-.5,0-.6-.2-.2-.1-.3-.3-.3-.5v-7.2c0-.7-.1-1.3-.5-1.9-.3-.5-.7-.9-1.2-1.2-1-.5-2.1-.5-3.1,0-.5.3-.9.7-1.3,1.2-.3.5-.5,1.1-.5,1.8v7.4c0,.2-.1.4-.3.5-.2.1-.4.2-.6.2-.2,0-.4,0-.6-.2-.2,0-.3-.3-.3-.5v-7.3c0-.6-.1-1.2-.5-1.7-.3-.5-.7-.9-1.2-1.2-.5-.3-1-.4-1.6-.4-1.9,0-3.4,1.5-3.4,3.3,0,0,0,0,0,.1v7.2c0,.2-.1.4-.3.5-.2.1-.4.2-.7.2"/>
      <path id="Path_11" class="st1" d="M70.2,28.4c-.2,0-.5,0-.6-.2-.1-.1-.2-.3-.2-.5V9.3c0-.2,0-.4.3-.5.2-.1.4-.2.6-.2h4.7c1,0,2,.1,2.9.4.8.2,1.6.7,2.1,1.4.6.9.9,1.9.8,2.9,0,1-.2,2-.7,2.9-.4.7-1,1.3-1.8,1.6.6.2,1.1.5,1.5.9.5.4.8.9,1,1.5.3.7.4,1.5.4,2.3v.5c0,1.1-.2,2.3-.7,3.3-.5.8-1.2,1.4-2,1.8-.9.4-1.9.6-2.9.5h-5.4ZM71.3,16.9h3.7c1,0,2.1-.2,2.9-.8.7-.7,1-1.7.9-2.7,0-.7-.1-1.4-.5-2-.4-.5-.8-.8-1.4-.9-.7-.2-1.4-.3-2.1-.3h-3.6v6.7ZM71.3,26.8h4.1c1.1,0,2.1-.3,2.9-1,.8-.8,1.2-1.9,1.1-3v-.5c.1-1.1-.3-2.2-1.1-3-.8-.6-1.9-.9-2.9-.9h-4.1v8.3Z"/>
      <path id="Path_12" class="st1" d="M86.4,11.8c-.3,0-.6-.1-.9-.3-.2-.2-.4-.5-.4-.8,0-.3.1-.6.4-.8.2-.2.6-.3.9-.3.3,0,.7.1.9.3.2.2.4.5.4.8,0,.3-.1.6-.4.8-.2.2-.6.4-.9.3M86.4,28.4c-.2,0-.5,0-.6-.2-.2-.1-.3-.3-.3-.5v-11.5c0-.2,0-.4.3-.5.2-.1.4-.2.6-.2.2,0,.5,0,.7.2.2.1.3.3.3.5v11.5c0,.2-.1.4-.3.5-.2.1-.4.2-.7.2"/>
      <path id="Path_13" class="st1" d="M93.2,28.4c-.2,0-.5,0-.6-.2-.2-.1-.3-.3-.3-.5V8.4c0-.2,0-.4.3-.5.2-.1.4-.2.6-.2.2,0,.5,0,.7.2.2.1.3.3.3.5v19.3c0,.2-.1.4-.3.5-.2.1-.4.2-.7.2"/>
      <path id="Path_14" class="st1" d="M100.3,28.4c-.2,0-.5,0-.6-.2-.2-.1-.3-.3-.3-.5V8.4c0-.2,0-.4.3-.5.2-.1.4-.2.6-.2.2,0,.5,0,.7.2.2.1.3.3.3.5v19.3c0,.2-.1.4-.3.5-.2.1-.4.2-.7.2"/>
      <path id="Path_15" class="st1" d="M109.9,28.6c-.8,0-1.6,0-2.4-.3-.6-.2-1.1-.4-1.6-.8-.3-.2-.5-.5-.6-.9,0-.1,0-.3,0-.4,0-.1.1-.2.2-.3,0,0,.2-.1.3-.1.3,0,.5.1.7.3.3.3.7.5,1.1.6.6.2,1.3.4,2,.3.8,0,1.6-.1,2.3-.6.4-.3.7-.8.7-1.3,0-.5-.2-1-.5-1.4-.4-.4-.8-.6-1.3-.8-.5-.2-1.1-.4-1.7-.5-.6-.2-1.2-.4-1.7-.6-.5-.2-1-.6-1.3-1-.4-.5-.5-1.1-.5-1.8,0-.6.2-1.2.5-1.7.3-.6.8-1.1,1.4-1.4.8-.4,1.7-.6,2.6-.6.6,0,1.2,0,1.8.2.5,0,1,.3,1.4.5.4.2.6.4.6.7,0,.1,0,.2,0,.3,0,.1-.2.3-.3.4-.1.1-.3.2-.4.2-.2,0-.4,0-.6-.2-.3-.2-.7-.3-1-.4-.5-.1-.9-.2-1.4-.2-.6,0-1.1,0-1.7.4-.4.2-.7.5-.9.8-.2.3-.3.6-.3,1,0,.4.2.9.5,1.2.4.3.8.5,1.3.7.5.2,1.1.3,1.7.5.6.2,1.2.4,1.7.6,1.2.6,1.9,1.8,1.8,3.1,0,1-.4,1.9-1.2,2.6-1,.7-2.2,1-3.4.9"/>
      <path id="Path_16" class="st1" d="M9.5,19C4.3,19.1,0,14.8,0,9.6,0,4.3,4.2,0,9.5,0c2.8,0,5.5,1.2,7.3,3.4-2.5,3.7-2.5,8.5,0,12.2-.5.6-1,1.1-1.6,1.5-1.6,1.2-3.6,1.9-5.7,1.9"/>
      <path id="Path_17" class="st1" d="M9.5,35.4C4.3,35.5,0,31.2,0,26c0-2.8,1.2-5.5,3.4-7.3,3.7,2.5,8.5,2.5,12.2,0,.6.5,1.1,1,1.5,1.6,1.2,1.6,1.9,3.6,1.9,5.7,0,5.2-4.2,9.5-9.5,9.5"/>
      <path id="Path_18" class="st1" d="M32,16.8c-3.7-2.5-8.5-2.5-12.2,0-.6-.5-1.1-1-1.5-1.6-1.2-1.6-1.9-3.6-1.9-5.7C16.3,4.3,20.6,0,25.8,0c5.2,0,9.5,4.2,9.5,9.5,0,2.8-1.2,5.5-3.4,7.3"/>
      <path id="Path_19" class="st1" d="M25.9,35.4c-2.8,0-5.4-1.2-7.3-3.4,2.5-3.7,2.5-8.5,0-12.2.5-.6,1-1.1,1.6-1.5,1.6-1.2,3.6-1.9,5.7-1.9,5.2,0,9.5,4.2,9.5,9.5,0,5.2-4.2,9.5-9.5,9.5h0"/>
    </g>
  </g>
</svg>