<svg viewBox="0 0 114.5 35.4" xmlns="http://www.w3.org/2000/svg" xmlns:xlink="http://www.w3.org/1999/xlink"><clipPath id="a"><path d="m0 0h114.5v35.4h-114.5z"/></clipPath><g clip-path="url(#a)" fill="#070507"><path d="m46.8 28.4c-.2 0-.5 0-.6-.2-.2-.1-.3-.3-.3-.5v-11.5c0-.2 0-.4.3-.5.2-.1.4-.2.6-.2s.4 0 .6.2c.2.1.3.3.3.5v1.2c.4-.6.9-1.1 1.4-1.4 1.5-.9 3.4-.8 4.8.1.7.5 1.2 1.2 1.6 2 .4-.9 1.1-1.6 1.9-2 .7-.4 1.6-.7 2.4-.7s1.6.2 2.3.6 1.4 1 1.8 1.7c.5.8.7 1.8.7 2.8v7.2c0 .2-.1.4-.3.5s-.4.2-.7.2c-.2 0-.5 0-.6-.2-.2-.1-.3-.3-.3-.5v-7.2c0-.7-.1-1.3-.5-1.9-.3-.5-.7-.9-1.2-1.2-1-.5-2.1-.5-3.1 0-.5.3-.9.7-1.3 1.2-.3.5-.5 1.1-.5 1.8v7.4c0 .2-.1.4-.3.5s-.4.2-.6.2-.4 0-.6-.2c-.2 0-.3-.3-.3-.5v-7.3c0-.6-.1-1.2-.5-1.7-.3-.5-.7-.9-1.2-1.2s-1-.4-1.6-.4c-1.9 0-3.4 1.5-3.4 3.3v.1 7.2c0 .2-.1.4-.3.5s-.4.2-.7.2"/><path d="m70.2 28.4c-.2 0-.5 0-.6-.2-.1-.1-.2-.3-.2-.5v-18.4c0-.2 0-.4.3-.5.2-.1.4-.2.6-.2h4.7c1 0 2 .1 2.9.4.8.2 1.6.7 2.1 1.4.6.9.9 1.9.8 2.9 0 1-.2 2-.7 2.9-.4.7-1 1.3-1.8 1.6.6.2 1.1.5 1.5.9.5.4.8.9 1 1.5.3.7.4 1.5.4 2.3v.5c0 1.1-.2 2.3-.7 3.3-.5.8-1.2 1.4-2 1.8-.9.4-1.9.6-2.9.5h-5.4zm1.1-11.5h3.7c1 0 2.1-.2 2.9-.8.7-.7 1-1.7.9-2.7 0-.7-.1-1.4-.5-2-.4-.5-.8-.8-1.4-.9-.7-.2-1.4-.3-2.1-.3h-3.6v6.7zm0 9.9h4.1c1.1 0 2.1-.3 2.9-1 .8-.8 1.2-1.9 1.1-3v-.5c.1-1.1-.3-2.2-1.1-3-.8-.6-1.9-.9-2.9-.9h-4.1v8.3z"/><path d="m86.4 11.8c-.3 0-.6-.1-.9-.3-.2-.2-.4-.5-.4-.8s.1-.6.4-.8c.2-.2.6-.3.9-.3s.7.1.9.3.4.5.4.8-.1.6-.4.8c-.2.2-.6.4-.9.3m0 16.6c-.2 0-.5 0-.6-.2-.2-.1-.3-.3-.3-.5v-11.5c0-.2 0-.4.3-.5.2-.1.4-.2.6-.2s.5 0 .7.2c.2.1.3.3.3.5v11.5c0 .2-.1.4-.3.5s-.4.2-.7.2"/><path d="m93.2 28.4c-.2 0-.5 0-.6-.2-.2-.1-.3-.3-.3-.5v-19.3c0-.2 0-.4.3-.5.2-.1.4-.2.6-.2s.5 0 .7.2c.2.1.3.3.3.5v19.3c0 .2-.1.4-.3.5s-.4.2-.7.2"/><path d="m100.3 28.4c-.2 0-.5 0-.6-.2-.2-.1-.3-.3-.3-.5v-19.3c0-.2 0-.4.3-.5.2-.1.4-.2.6-.2s.5 0 .7.2c.2.1.3.3.3.5v19.3c0 .2-.1.4-.3.5s-.4.2-.7.2"/><path d="m109.9 28.6c-.8 0-1.6 0-2.4-.3-.6-.2-1.1-.4-1.6-.8-.3-.2-.5-.5-.6-.9 0-.1 0-.3 0-.4s.1-.2.2-.3c0 0 .2-.1.3-.1.3 0 .5.1.7.3.3.3.7.5 1.1.6.6.2 1.3.4 2 .3.8 0 1.6-.1 2.3-.6.4-.3.7-.8.7-1.3s-.2-1-.5-1.4c-.4-.4-.8-.6-1.3-.8s-1.1-.4-1.7-.5c-.6-.2-1.2-.4-1.7-.6s-1-.6-1.3-1c-.4-.5-.5-1.1-.5-1.8 0-.6.2-1.2.5-1.7.3-.6.8-1.1 1.4-1.4.8-.4 1.7-.6 2.6-.6.6 0 1.2 0 1.8.2.5 0 1 .3 1.4.5s.6.4.6.7v.3c0 .1-.2.3-.3.4s-.3.2-.4.2c-.2 0-.4 0-.6-.2-.3-.2-.7-.3-1-.4-.5-.1-.9-.2-1.4-.2-.6 0-1.1 0-1.7.4-.4.2-.7.5-.9.8s-.3.6-.3 1 .2.9.5 1.2c.4.3.8.5 1.3.7s1.1.3 1.7.5 1.2.4 1.7.6c1.2.6 1.9 1.8 1.8 3.1 0 1-.4 1.9-1.2 2.6-1 .7-2.2 1-3.4.9"/><path d="m9.5 19c-5.2.1-9.5-4.2-9.5-9.4 0-5.3 4.2-9.6 9.5-9.6 2.8 0 5.5 1.2 7.3 3.4-2.5 3.7-2.5 8.5 0 12.2-.5.6-1 1.1-1.6 1.5-1.6 1.2-3.6 1.9-5.7 1.9"/><path d="m9.5 35.4c-5.2.1-9.5-4.2-9.5-9.4 0-2.8 1.2-5.5 3.4-7.3 3.7 2.5 8.5 2.5 12.2 0 .6.5 1.1 1 1.5 1.6 1.2 1.6 1.9 3.6 1.9 5.7 0 5.2-4.2 9.5-9.5 9.5"/><path d="m32 16.8c-3.7-2.5-8.5-2.5-12.2 0-.6-.5-1.1-1-1.5-1.6-1.2-1.6-1.9-3.6-1.9-5.7-.1-5.2 4.2-9.5 9.4-9.5s9.5 4.2 9.5 9.5c0 2.8-1.2 5.5-3.4 7.3"/><path d="m25.9 35.4c-2.8 0-5.4-1.2-7.3-3.4 2.5-3.7 2.5-8.5 0-12.2.5-.6 1-1.1 1.6-1.5 1.6-1.2 3.6-1.9 5.7-1.9 5.2 0 9.5 4.2 9.5 9.5 0 5.2-4.2 9.5-9.5 9.5z"/></g></svg>