<svg viewBox="0 0 143.1 37.7" xmlns="http://www.w3.org/2000/svg" xmlns:xlink="http://www.w3.org/1999/xlink"><clipPath id="a"><path d="m0 0h143.1v37.7h-143.1z"/></clipPath><path d="m69.1 28.5-1.4 7.2h-1.2l1.4-7.2z" fill="#070507"/><g clip-path="url(#a)"><g fill="#070507"><path d="m68.9 34.9 2.1-2.2c.4-.4.8-.8 1.2-1.1s-2.4 0-2.4 0l.2-1h3.9v.8c-.1 0-2.2 2.2-2.2 2.2-.4.4-.8.8-1.2 1.1s2.6 0 2.6 0l-.2 1h-4.1v-.8z"/><path d="m76.5 28.1-.6 3.1c.4-.5 1-.9 1.7-.9 1.1 0 1.6.9 1.6 1.8 0 1.9-1.4 3.5-3.3 3.6-1.1 0-1.7-.5-1.7-1.4 0-.3 0-.6.1-.9l1.1-5.4h1.2zm-1.1 5.4v.6c0 .3.2.6.6.7h.1c1.1 0 1.8-1.4 1.8-2.4s-.2-1-.8-1-1.3.7-1.5 1.7v.5z"/><path d="m83.7 35.3c-.6.3-1.2.4-1.8.4-1.1.1-2-.7-2.1-1.7 0-.1 0-.3 0-.4 0-1.7 1.2-3.1 2.9-3.3.8-.1 1.6.5 1.7 1.3v.2c0 1.3-1.4 1.8-3.4 1.7 0 .3 0 .5.1.7.2.4.6.6 1.1.5.5 0 1-.1 1.4-.3v.9zm-.5-3.5c0-.3-.3-.5-.7-.5-.7 0-1.3.6-1.4 1.3 1.3 0 2.1-.2 2.1-.8z"/><path d="m84.8 35.6.6-3.2c.1-.7.2-1.5.3-2h1.1c0 .4 0 .7-.1 1.1.3-.7.9-1.1 1.6-1.2h.3l-.2 1.2h-.2c-.9 0-1.4.9-1.6 2l-.4 2.1h-1.2z"/><path d="m88.4 35.6 1-5.2h1.2l-1 5.2zm1.8-5.9c-.3 0-.6-.3-.6-.6 0-.4.3-.7.7-.7.3 0 .6.2.7.6 0 .4-.3.7-.7.7z"/><path d="m92.6 37.8 1-5.3c.1-.6.2-1.4.3-2h1.1v.9c-.1 0 0 0 0 0 .4-.6 1-.9 1.7-1 1.1 0 1.6.9 1.6 1.9.1 1.8-1.2 3.4-3 3.5-.4 0-.7 0-1-.2l-.4 2.2h-1.2zm1.8-3.3c.2.2.5.3.8.3 1 0 1.7-1.3 1.7-2.4s-.2-1-.8-1-1.3.7-1.5 1.9l-.2 1.3z"/><path d="m98.8 35.6.6-3.2c.1-.7.2-1.5.3-2h1.1c0 .4 0 .7-.1 1.1.3-.7.9-1.1 1.6-1.2h.3l-.2 1.2h-.2c-.9 0-1.4.9-1.6 2l-.4 2.1h-1.2z"/><path d="m102.5 35.6 1-5.2h1.2l-1 5.2zm1.8-5.9c-.3 0-.6-.3-.6-.6 0-.4.3-.7.7-.7.3 0 .6.2.7.6 0 .4-.3.7-.7.7z"/><path d="m105.2 35.6 1.4-7.5h1.2l-.6 3.1c.4-.6 1-.9 1.7-.9s1.3.5 1.3 1.2v.2.9l-.6 3h-1.2l.6-2.9c0-.2 0-.5 0-.7 0-.3-.2-.6-.5-.7 0 0 0 0-.1 0-.6 0-1.3.7-1.5 1.8l-.5 2.5z"/><path d="m113.2 35.8c-1.1 0-2.1-.8-2.1-1.9v-.2c0-1.7 1.2-3.2 2.9-3.3 1.1 0 2.1.8 2.1 1.9v.2c.1 1.7-1.2 3.2-2.9 3.3zm.2-1c.9 0 1.5-1.3 1.5-2.3s-.2-1.2-1-1.2-1.6 1.3-1.6 2.3.4 1.2 1 1.2z"/><path d="m122.6 28.1-1.1 5.7c-.1.6-.2 1.2-.2 1.8h-1.1v-.9c-.4.6-1 1-1.8 1-.9 0-1.6-.7-1.6-1.9 0-1.9 1.4-3.4 3.2-3.5.3 0 .5 0 .8.1l.5-2.4h1.2zm-1.9 3.4c-.2-.1-.5-.2-.7-.2-1.1 0-1.8 1.2-1.8 2.3s.2 1.1.8 1.1 1.2-.6 1.4-1.7l.3-1.6z"/><path d="m122.6 35.6.7-3.6c.1-.6.2-1.2.3-1.6h1.1v.9c-.1 0 0 0 0 0 .4-.6 1.1-1 1.9-1 .7 0 1.3.5 1.3 1.2v.2.9l-.6 3h-1.2l.6-2.9c0-.2 0-.4 0-.6 0-.4-.2-.7-.6-.7s-1.3.7-1.5 1.9l-.4 2.4h-1.2z"/><path d="m130.7 35.8c-1.1 0-2.1-.8-2.1-1.9v-.2c0-1.7 1.2-3.2 2.9-3.3 1.1 0 2.1.8 2.1 1.9v.2c.1 1.7-1.2 3.2-2.9 3.3zm.1-1c.9 0 1.5-1.3 1.5-2.3s-.2-1.2-1-1.2-1.6 1.3-1.6 2.3.4 1.2 1 1.2z"/><path d="m134.3 34.5c.4.2.8.3 1.2.3.5 0 .8-.3.8-.6s-.2-.5-.7-.8c-.6-.2-1-.7-1-1.3 0-1 .9-1.7 2.1-1.7.4 0 .8 0 1.2.3l-.3.9c-.3-.2-.6-.2-1-.2-.5 0-.8.2-.8.6s.2.5.7.7c.6.2 1 .8 1.1 1.4 0 1.1-1 1.8-2.2 1.8-.5 0-1-.1-1.4-.4l.3-.9z"/><path d="m141 29.1-.2 1.3h1.2l-.2 1h-1.2l-.4 2.1c0 .2 0 .5-.1.7 0 .2.1.4.3.5h.1.4v1c-.4 0-.6.1-.9.1-.9 0-1.2-.5-1.2-1.1 0-.3 0-.6.1-1l.4-2.3h-.7l.2-1h.7l.2-1 1.3-.4z"/></g><path d="m10.7 17.3s0 0 0 0z" fill="#fff"/><path d="m10.7 17.3s-2.9-2.9-2.9-2.9h-.9l3.8 3.8 6.2-6h-.1c0-.1.6-1.5.6-1.5l-6.6 6.6zm3.8-9.5h-6.6v-4.1l-.6-.6v5.4h5.7l1.6-.6zm6.9 9.7h-4.1v-6.8l-.6 1.4v6.1h5.3s-.6-.6-.6-.6z" fill="#507ba8"/><path d="m25.2 0h-20.9c-2.4 0-4.3 1.9-4.3 4.3v16.5c0 2.4 1.9 4.3 4.3 4.3h16.5c2.4 0 4.3-1.9 4.3-4.3v-20.8zm-3.8 17.5h-4.1v-6.8l-6.6 6.6-2.9-2.9 5.2-5.2 1.4-1.4h-6.6v-4.1h13.5v13.8z" fill="#070507"/><path d="m7.2 3.1.6.6h13.5v13.8l.6.6v-15zm-.3 11.3h.9l6.6-6.6-1.6.6-6 6z" fill="#feffff"/><path d="m39.6 25.2.7-4.5c.2-1.4.5-3.1.9-5.2-.7 1.8-1.6 3.6-2.3 5.1l-2.1 4.4h-2.5l-.2-4.4c0-1.4-.1-3.2-.2-5.1-.4 1.9-.8 3.8-1.1 5.2l-1 4.5h-2.9l3.1-12.6h4.3v3.7c.2 1.2.3 2.8.3 4.4.6-1.6 1.3-3.2 1.8-4.4l1.7-3.7h4.3l-1.7 12.6z" fill="#070507"/><path d="m53.9 19.6c.2 3-2.1 5.6-5.1 5.8-.2 0-.4 0-.5 0-2 .2-3.8-1.3-4-3.4 0-.2 0-.3 0-.5-.1-3.1 2.2-5.6 5.3-5.8h.4c2-.2 3.8 1.3 4 3.4v.4m-6.5 2c0 .9.4 1.5 1.2 1.5 1.3 0 1.9-2.1 1.9-3.4s-.3-1.4-1.2-1.4c-1.4 0-1.9 2.2-1.9 3.3" fill="#070507"/><path d="m59.2 16-1.6 8.8c-.1 1.2-.6 2.3-1.3 3.3-.7.7-1.7 1.1-2.7 1-.5 0-.9 0-1.4-.1l.4-2.4h.6c.5 0 1-.2 1.3-1.8l1.6-8.8h3.2zm-1.4-.9c-.8 0-1.4-.6-1.5-1.3 0 0 0 0 0-.1 0-.9.7-1.7 1.7-1.7.8 0 1.5.5 1.5 1.3v.2c0 .9-.7 1.7-1.7 1.7 0 0 0 0-.1 0z" fill="#070507"/><path d="m67.2 24.7c-1.1.5-2.4.7-3.6.7-2.7 0-4.2-1.4-4.2-4 0-3 2.3-5.5 5.3-5.6h.2c1.9 0 3.4 1 3.4 2.9s-2.1 3.2-5.9 3.1c0 .2.2.5.3.6.5.3 1.1.5 1.6.5.9 0 1.8-.2 2.6-.6l.2 2.3zm-1.8-6c0-.3-.3-.6-.8-.6-.9 0-1.6.6-1.8 1.5 1.9 0 2.6-.3 2.6-.8z" fill="#070507"/><path d="m71 12.8c1.2-.2 2.4-.3 3.6-.3 1.6 0 3.2.3 4.6 1.2 1.3 1 2 2.6 1.9 4.2 0 2.2-.9 4.3-2.6 5.7-1.5 1.1-3.3 1.7-6.2 1.7-1.2 0-2.4 0-3.6-.3zm1.3 9.8h1c1.2 0 2.4-.5 3.2-1.4.8-1 1.2-2.2 1.1-3.4.1-1.4-.9-2.7-2.3-2.9-.2 0-.4 0-.6 0-.3 0-.6 0-.9 0l-1.4 7.5z" fill="#070507"/><path d="m89.3 24.7c-1.1.5-2.4.7-3.6.7-2.7 0-4.2-1.4-4.2-4 0-3 2.3-5.5 5.3-5.6h.2c1.9 0 3.4 1 3.4 2.9s-2.1 3.2-5.9 3.1c0 .2.2.5.3.6.5.3 1.1.5 1.6.5.9 0 1.8-.2 2.6-.6l.2 2.3zm-1.8-6c0-.3-.3-.6-.8-.6-.9 0-1.6.6-1.8 1.5 1.9 0 2.6-.3 2.6-.8z" fill="#070507"/><path d="m90.6 25.2 2.5-13.3h3.2l-2.5 13.3z" fill="#070507"/><path d="m105.5 19.6c.2 3-2.1 5.6-5.1 5.8-.2 0-.4 0-.5 0-2 .2-3.8-1.3-4-3.4 0-.2 0-.3 0-.5-.1-3.1 2.2-5.6 5.3-5.8h.4c2-.2 3.8 1.3 4 3.4v.4m-6.5 2c0 .9.4 1.5 1.2 1.5 1.3 0 1.9-2.1 1.9-3.4s-.3-1.4-1.2-1.4c-1.4 0-1.9 2.2-1.9 3.3" fill="#070507"/><path d="m107.5 25.4c-.9 0-1.7-.7-1.7-1.6 0 0 0 0 0-.1 0-1.2.9-2.1 2-2.2.9 0 1.7.7 1.8 1.6v.2c0 1.1-.8 2.1-2 2.1 0 0-.1 0-.2 0z" fill="#070507"/><path d="m117.4 24.9c-.8.3-1.7.5-2.6.5-2 .2-3.8-1.3-4-3.3 0-.2 0-.4 0-.5 0-3.3 2.6-5.7 6.1-5.7.6 0 1.2 0 1.8.3l-.7 2.4c-.4-.1-.7-.2-1.1-.2-1.5 0-2.8 1.2-2.8 2.7v.2c0 .9.6 1.6 1.4 1.7h.2c.6 0 1.1-.1 1.7-.3v2.4z" fill="#070507"/><path d="m128.2 19.6c.2 3-2.1 5.6-5.1 5.8-.2 0-.4 0-.5 0-2 .2-3.8-1.3-4-3.4 0-.2 0-.3 0-.5-.1-3.1 2.2-5.6 5.3-5.8h.4c2-.2 3.8 1.3 4 3.4v.4m-6.5 2c0 .9.4 1.5 1.2 1.5 1.3 0 1.9-2.1 1.9-3.4s-.3-1.4-1.2-1.4c-1.4 0-1.9 2.2-1.9 3.3" fill="#070507"/><path d="m128.3 25.2 1.1-6.1c.2-1.2.4-2.3.5-3.1h2.7v1.4c-.1 0-.1 0-.1 0 .7-1 1.9-1.6 3.1-1.6 1-.1 2 .6 2.2 1.6.7-1 1.9-1.6 3.1-1.6 1.6 0 2.2 1 2.2 2.5 0 .5 0 1.1-.1 1.6l-1 5.3h-3.1l.9-4.9c0-.4.1-.7.1-1.1 0-.5-.2-.9-.7-.9-.8 0-1.5 1.2-1.8 2.9l-.7 3.9h-3.1l.9-4.9c0-.3 0-.7.1-1 0-.6-.2-.9-.7-.9-.8 0-1.6 1.2-1.9 2.9l-.7 3.9h-3.1z" fill="#070507"/></g></svg>