<?xml version="1.0" encoding="UTF-8"?>
<svg id="Layer_1" xmlns="http://www.w3.org/2000/svg" xmlns:xlink="http://www.w3.org/1999/xlink" version="1.1" viewBox="0 0 143.1 37.7">
  <!-- Generator: Adobe Illustrator 30.4.0, SVG Export Plug-In . SVG Version: 2.1.4 Build 226)  -->
  <defs>
    <style>
      .st0 {
        fill: none;
      }

      .st1 {
        fill: #070507;
      }

      .st2 {
        fill: #507ba8;
      }

      .st3 {
        fill: #fff;
      }

      .st4 {
        fill: #feffff;
      }

      .st5 {
        clip-path: url(#clippath);
      }
    </style>
    <clipPath id="clippath">
      <rect class="st0" width="143.1" height="37.7"/>
    </clipPath>
  </defs>
  <g id="Group_38">
    <path id="Path_76" class="st1" d="M69.1,28.5l-1.4,7.2h-1.2l1.4-7.2h1.2Z"/>
    <g id="Group_37">
      <g class="st5">
        <g id="Group_36">
          <path id="Path_77" class="st1" d="M68.9,34.9l2.1-2.2c.4-.4.8-.8,1.2-1.1h0s-2.4,0-2.4,0l.2-1h3.9v.8c-.1,0-2.2,2.2-2.2,2.2-.4.4-.8.8-1.2,1.1h0s2.6,0,2.6,0l-.2,1h-4.1v-.8Z"/>
          <path id="Path_78" class="st1" d="M76.5,28.1l-.6,3.1h0c.4-.5,1-.9,1.7-.9,1.1,0,1.6.9,1.6,1.8,0,1.9-1.4,3.5-3.3,3.6,0,0,0,0,0,0-1.1,0-1.7-.5-1.7-1.4,0-.3,0-.6.1-.9l1.1-5.4h1.2ZM75.4,33.5c0,.2,0,.4,0,.6,0,.3.2.6.6.7,0,0,0,0,.1,0,1.1,0,1.8-1.4,1.8-2.4s-.2-1-.8-1-1.3.7-1.5,1.7v.5Z"/>
          <path id="Path_79" class="st1" d="M83.7,35.3c-.6.3-1.2.4-1.8.4-1.1.1-2-.7-2.1-1.7,0-.1,0-.3,0-.4,0-1.7,1.2-3.1,2.9-3.3.8-.1,1.6.5,1.7,1.3,0,0,0,.1,0,.2,0,1.3-1.4,1.8-3.4,1.7,0,.3,0,.5.1.7.2.4.6.6,1.1.5.5,0,1-.1,1.4-.3v.9ZM83.2,31.8c0-.3-.3-.5-.7-.5-.7,0-1.3.6-1.4,1.3,1.3,0,2.1-.2,2.1-.8h0Z"/>
          <path id="Path_80" class="st1" d="M84.8,35.6l.6-3.2c.1-.7.2-1.5.3-2h1.1c0,.4,0,.7-.1,1.1h0c.3-.7.9-1.1,1.6-1.2,0,0,.2,0,.3,0l-.2,1.2c0,0-.2,0-.2,0-.9,0-1.4.9-1.6,2l-.4,2.1h-1.2Z"/>
          <path id="Path_81" class="st1" d="M88.4,35.6l1-5.2h1.2l-1,5.2h-1.2ZM90.2,29.7c-.3,0-.6-.3-.6-.6,0,0,0,0,0,0,0-.4.3-.7.7-.7,0,0,0,0,0,0,.3,0,.6.2.7.6,0,0,0,0,0,0,0,.4-.3.7-.7.7,0,0,0,0,0,0h0Z"/>
          <path id="Path_82" class="st1" d="M92.6,37.8l1-5.3c.1-.6.2-1.4.3-2h1.1v.9c-.1,0,0,0,0,0,.4-.6,1-.9,1.7-1,1.1,0,1.6.9,1.6,1.9.1,1.8-1.2,3.4-3,3.5-.4,0-.7,0-1-.2h0l-.4,2.2h-1.2ZM94.4,34.5c.2.2.5.3.8.3,1,0,1.7-1.3,1.7-2.4s-.2-1-.8-1-1.3.7-1.5,1.9l-.2,1.3Z"/>
          <path id="Path_83" class="st1" d="M98.8,35.6l.6-3.2c.1-.7.2-1.5.3-2h1.1c0,.4,0,.7-.1,1.1h0c.3-.7.9-1.1,1.6-1.2,0,0,.2,0,.3,0l-.2,1.2c0,0-.2,0-.2,0-.9,0-1.4.9-1.6,2l-.4,2.1h-1.2Z"/>
          <path id="Path_84" class="st1" d="M102.5,35.6l1-5.2h1.2l-1,5.2h-1.2ZM104.3,29.7c-.3,0-.6-.3-.6-.6,0,0,0,0,0,0,0-.4.3-.7.7-.7,0,0,0,0,0,0,.3,0,.6.2.7.6,0,0,0,0,0,0,0,.4-.3.7-.7.7,0,0,0,0,0,0h0Z"/>
          <path id="Path_85" class="st1" d="M105.2,35.6l1.4-7.5h1.2l-.6,3.1h0c.4-.6,1-.9,1.7-.9.7,0,1.3.5,1.3,1.2,0,0,0,.1,0,.2,0,.3,0,.6,0,.9l-.6,3h-1.2l.6-2.9c0-.2,0-.5,0-.7,0-.3-.2-.6-.5-.7,0,0,0,0-.1,0-.6,0-1.3.7-1.5,1.8l-.5,2.5h-1.2Z"/>
          <path id="Path_86" class="st1" d="M113.2,35.8c-1.1,0-2.1-.8-2.1-1.9,0,0,0-.2,0-.2,0-1.7,1.2-3.2,2.9-3.3,0,0,0,0,0,0,1.1,0,2.1.8,2.1,1.9,0,0,0,.1,0,.2.1,1.7-1.2,3.2-2.9,3.3,0,0,0,0,0,0h0ZM113.4,34.8c.9,0,1.5-1.3,1.5-2.3s-.2-1.2-1-1.2-1.6,1.3-1.6,2.3.4,1.2,1,1.2h0Z"/>
          <path id="Path_87" class="st1" d="M122.6,28.1l-1.1,5.7c-.1.6-.2,1.2-.2,1.8h-1.1v-.9c.1,0,0,0,0,0-.4.6-1,1-1.8,1-.9,0-1.6-.7-1.6-1.9,0-1.9,1.4-3.4,3.2-3.5,0,0,0,0,0,0,.3,0,.5,0,.8.1l.5-2.4h1.2ZM120.7,31.5c-.2-.1-.5-.2-.7-.2-1.1,0-1.8,1.2-1.8,2.3s.2,1.1.8,1.1,1.2-.6,1.4-1.7l.3-1.6Z"/>
          <path id="Path_88" class="st1" d="M122.6,35.6l.7-3.6c.1-.6.2-1.2.3-1.6h1.1v.9c-.1,0,0,0,0,0,.4-.6,1.1-1,1.9-1,.7,0,1.3.5,1.3,1.2,0,0,0,.2,0,.2,0,.3,0,.6,0,.9l-.6,3h-1.2l.6-2.9c0-.2,0-.4,0-.6,0-.4-.2-.7-.6-.7s-1.3.7-1.5,1.9l-.4,2.4h-1.2Z"/>
          <path id="Path_89" class="st1" d="M130.7,35.8c-1.1,0-2.1-.8-2.1-1.9,0,0,0-.2,0-.2,0-1.7,1.2-3.2,2.9-3.3,0,0,0,0,0,0,1.1,0,2.1.8,2.1,1.9,0,0,0,.1,0,.2.1,1.7-1.2,3.2-2.9,3.3,0,0,0,0,0,0h0ZM130.8,34.8c.9,0,1.5-1.3,1.5-2.3s-.2-1.2-1-1.2-1.6,1.3-1.6,2.3.4,1.2,1,1.2h0Z"/>
          <path id="Path_90" class="st1" d="M134.3,34.5c.4.2.8.3,1.2.3.5,0,.8-.3.8-.6s-.2-.5-.7-.8c-.6-.2-1-.7-1-1.3,0-1,.9-1.7,2.1-1.7.4,0,.8,0,1.2.3l-.3.9c-.3-.2-.6-.2-1-.2-.5,0-.8.2-.8.6s.2.5.7.7c.6.2,1,.8,1.1,1.4,0,1.1-1,1.8-2.2,1.8-.5,0-1-.1-1.4-.4l.3-.9Z"/>
          <path id="Path_91" class="st1" d="M141,29.1l-.2,1.3h1.2l-.2,1h-1.2l-.4,2.1c0,.2,0,.5-.1.7,0,.2.1.4.3.5,0,0,0,0,.1,0,.1,0,.3,0,.4,0v1c-.4,0-.6.1-.9.1-.9,0-1.2-.5-1.2-1.1,0-.3,0-.6.1-1l.4-2.3h-.7l.2-1h.7l.2-1,1.3-.4Z"/>
          <path id="Path_92" class="st3" d="M21.4,3.7h0Z"/>
          <path id="Path_93" class="st3" d="M7.9,3.7"/>
          <path id="Path_94" class="st3" d="M7.9,7.8h0Z"/>
          <path id="Path_95" class="st3" d="M21.4,17.5h0Z"/>
          <path id="Path_96" class="st3" d="M17.3,17.5h0Z"/>
          <path id="Path_97" class="st3" d="M17.3,10.7h0Z"/>
          <path id="Path_98" class="st3" d="M10.7,17.3h0s0,0,0,0Z"/>
          <path id="Path_99" class="st3" d="M7.8,14.4h0Z"/>
          <path id="Path_100" class="st2" d="M10.7,17.3h0s-2.9-2.9-2.9-2.9h-.9l3.8,3.8,6.2-6h-.1c0-.1.6-1.5.6-1.5l-6.6,6.6ZM14.5,7.8h-6.6V3.7l-.6-.6v5.4h5.7l1.6-.6ZM21.4,17.5h-4.1v-6.8l-.6,1.4v6.1h5.3c0,0-.6-.6-.6-.6Z"/>
          <path id="Path_101" class="st1" d="M25.2,0H4.3C1.9,0,0,1.9,0,4.3v16.5c0,2.4,1.9,4.3,4.3,4.3h16.5c2.4,0,4.3-1.9,4.3-4.3V0ZM21.4,17.5h-4.1v-6.8l-6.6,6.6-2.9-2.9h0l5.2-5.2,1.4-1.4h-6.6V3.7h13.5v13.8Z"/>
          <path id="Path_102" class="st3" d="M14.5,7.8h0Z"/>
          <path id="Path_103" class="st4" d="M7.2,3.1l.6.6h13.5v13.8l.6.6V3.1H7.2ZM6.9,14.4h.9l6.6-6.6-1.6.6-6,6Z"/>
          <path id="Path_104" class="st1" d="M39.6,25.2l.7-4.5c.2-1.4.5-3.1.9-5.2h0c-.7,1.8-1.6,3.6-2.3,5.1l-2.1,4.4h-2.5l-.2-4.4c0-1.4-.1-3.2-.2-5.1h0c-.4,1.9-.8,3.8-1.1,5.2l-1,4.5h-2.9l3.1-12.6h4.3v3.7c.2,1.2.3,2.8.3,4.4h0c.6-1.6,1.3-3.2,1.8-4.4l1.7-3.7h4.3l-1.7,12.6h-3.1Z"/>
          <path id="Path_105" class="st1" d="M53.9,19.6c.2,3-2.1,5.6-5.1,5.8-.2,0-.4,0-.5,0-2,.2-3.8-1.3-4-3.4,0-.2,0-.3,0-.5-.1-3.1,2.2-5.6,5.3-5.8.1,0,.2,0,.4,0,2-.2,3.8,1.3,4,3.4,0,.1,0,.3,0,.4M47.5,21.5c0,.9.4,1.5,1.2,1.5,1.3,0,1.9-2.1,1.9-3.4s-.3-1.4-1.2-1.4c-1.4,0-1.9,2.2-1.9,3.3"/>
          <path id="Path_106" class="st1" d="M59.2,16l-1.6,8.8c-.1,1.2-.6,2.3-1.3,3.3-.7.7-1.7,1.1-2.7,1-.5,0-.9,0-1.4-.1l.4-2.4c.2,0,.4,0,.6,0,.5,0,1-.2,1.3-1.8l1.6-8.8h3.2ZM57.8,15.1c-.8,0-1.4-.6-1.5-1.3,0,0,0,0,0-.1,0-.9.7-1.7,1.7-1.7,0,0,0,0,0,0,.8,0,1.5.5,1.5,1.3,0,0,0,.1,0,.2,0,.9-.7,1.7-1.7,1.7,0,0,0,0-.1,0h0Z"/>
          <path id="Path_107" class="st1" d="M67.2,24.7c-1.1.5-2.4.7-3.6.7-2.7,0-4.2-1.4-4.2-4,0-3,2.3-5.5,5.3-5.6,0,0,.1,0,.2,0,1.9,0,3.4,1,3.4,2.9s-2.1,3.2-5.9,3.1c0,.2.2.5.3.6.5.3,1.1.5,1.6.5.9,0,1.8-.2,2.6-.6l.2,2.3ZM65.4,18.7c0-.3-.3-.6-.8-.6-.9,0-1.6.6-1.8,1.5,1.9,0,2.6-.3,2.6-.8h0Z"/>
          <path id="Path_108" class="st1" d="M71,12.8c1.2-.2,2.4-.3,3.6-.3,1.6,0,3.2.3,4.6,1.2,1.3,1,2,2.6,1.9,4.2,0,2.2-.9,4.3-2.6,5.7-1.5,1.1-3.3,1.7-6.2,1.7-1.2,0-2.4,0-3.6-.3l2.3-12.2ZM72.3,22.6c.3,0,.6,0,1,0,1.2,0,2.4-.5,3.2-1.4.8-1,1.2-2.2,1.1-3.4.1-1.4-.9-2.7-2.3-2.9-.2,0-.4,0-.6,0-.3,0-.6,0-.9,0l-1.4,7.5Z"/>
          <path id="Path_109" class="st1" d="M89.3,24.7c-1.1.5-2.4.7-3.6.7-2.7,0-4.2-1.4-4.2-4,0-3,2.3-5.5,5.3-5.6,0,0,.1,0,.2,0,1.9,0,3.4,1,3.4,2.9s-2.1,3.2-5.9,3.1c0,.2.2.5.3.6.5.3,1.1.5,1.6.5.9,0,1.8-.2,2.6-.6l.2,2.3ZM87.5,18.7c0-.3-.3-.6-.8-.6-.9,0-1.6.6-1.8,1.5,1.9,0,2.6-.3,2.6-.8h0Z"/>
          <path id="Path_110" class="st1" d="M90.6,25.2l2.5-13.3h3.2l-2.5,13.3h-3.2Z"/>
          <path id="Path_111" class="st1" d="M105.5,19.6c.2,3-2.1,5.6-5.1,5.8-.2,0-.4,0-.5,0-2,.2-3.8-1.3-4-3.4,0-.2,0-.3,0-.5-.1-3.1,2.2-5.6,5.3-5.8.1,0,.2,0,.4,0,2-.2,3.8,1.3,4,3.4,0,.1,0,.3,0,.4M99.1,21.5c0,.9.4,1.5,1.2,1.5,1.3,0,1.9-2.1,1.9-3.4s-.3-1.4-1.2-1.4c-1.4,0-1.9,2.2-1.9,3.3"/>
          <path id="Path_112" class="st1" d="M107.5,25.4c-.9,0-1.7-.7-1.7-1.6,0,0,0,0,0-.1,0-1.2.9-2.1,2-2.2,0,0,0,0,0,0,.9,0,1.7.7,1.8,1.6,0,0,0,.1,0,.2,0,1.1-.8,2.1-2,2.1,0,0-.1,0-.2,0h0Z"/>
          <path id="Path_113" class="st1" d="M117.4,24.9c-.8.3-1.7.5-2.6.5-2,.2-3.8-1.3-4-3.3,0-.2,0-.4,0-.5,0-3.3,2.6-5.7,6.1-5.7.6,0,1.2,0,1.8.3l-.7,2.4c-.4-.1-.7-.2-1.1-.2-1.5,0-2.8,1.2-2.8,2.7,0,0,0,.1,0,.2,0,.9.6,1.6,1.4,1.7,0,0,.1,0,.2,0,.6,0,1.1-.1,1.7-.3v2.4Z"/>
          <path id="Path_114" class="st1" d="M128.2,19.6c.2,3-2.1,5.6-5.1,5.8-.2,0-.4,0-.5,0-2,.2-3.8-1.3-4-3.4,0-.2,0-.3,0-.5-.1-3.1,2.2-5.6,5.3-5.8.1,0,.2,0,.4,0,2-.2,3.8,1.3,4,3.4,0,.1,0,.3,0,.4M121.8,21.5c0,.9.4,1.5,1.2,1.5,1.3,0,1.9-2.1,1.9-3.4s-.3-1.4-1.2-1.4c-1.4,0-1.9,2.2-1.9,3.3"/>
          <path id="Path_115" class="st1" d="M128.3,25.2l1.1-6.1c.2-1.2.4-2.3.5-3.1h2.7v1.4c-.1,0-.1,0-.1,0,.7-1,1.9-1.6,3.1-1.6,1-.1,2,.6,2.2,1.6.7-1,1.9-1.6,3.1-1.6,1.6,0,2.2,1,2.2,2.5,0,.5,0,1.1-.1,1.6l-1,5.3h-3.1l.9-4.9c0-.4.1-.7.1-1.1,0-.5-.2-.9-.7-.9-.8,0-1.5,1.2-1.8,2.9l-.7,3.9h-3.1l.9-4.9c0-.3,0-.7.1-1,0-.6-.2-.9-.7-.9-.8,0-1.6,1.2-1.9,2.9l-.7,3.9h-3.1Z"/>
        </g>
      </g>
    </g>
  </g>
</svg>