<?xml version="1.0" encoding="UTF-8"?>
<svg id="Layer_1" xmlns="http://www.w3.org/2000/svg" version="1.1" viewBox="0 0 100 100">
  <!-- Generator: Adobe Illustrator 30.4.0, SVG Export Plug-In . SVG Version: 2.1.4 Build 226)  -->
  <path d="M32.41,24.35c.08.08.44-.14.29-.29-.08-.08-.44.14-.29.29Z" fill-rule="evenodd"/>
  <path d="M26.33,25.51c-.33.03-.45-.42-.58,0,0,.3.51.37.58,0Z" fill-rule="evenodd"/>
  <path d="M33.86,26.96c0-.16-.29-.33-.29,0,0,.16.29.33.29,0Z" fill-rule="evenodd"/>
  <path d="M34.73,26.67c-1.4,1.44.92,1.27,0,0h0Z" fill-rule="evenodd"/>
  <path d="M16.48,41.15c-.16.16,0,.59.29.29.16-.16.01-.59-.29-.29Z" fill-rule="evenodd"/>
  <path d="M79.92,41.73c-1.09.83-.28,2.14.87,2.03,1.66-.16,1.04-3.48-.87-2.03Z" fill-rule="evenodd"/>
  <path d="M66.01,67.51c-.71.74.64,1.17.87.87.35-.46-.26-1.5-.87-.87Z" fill-rule="evenodd"/>
  <path d="M8.8,82.86c-.75.75,1.11.68.87,0-.13-.37-.71-.16-.87,0Z" fill-rule="evenodd"/>
  <path d="M59.64,80.26c.08.08.44-.14.29-.29-.08-.08-.44.14-.29.29Z" fill-rule="evenodd"/>
  <path d="M8.08,80.55c.98-.1,1.63,1.27,2.32.58.56-.56-1.41-1.56-2.32-.58Z" fill-rule="evenodd"/>
  <path d="M71.52,85.77c-.41.49.1,1.28.87.87.55-.29-.06-1.86-.87-.87Z" fill-rule="evenodd"/>
  <path d="M91.34,50.68c-1.18.49-1.72,1.79-1.19,2.9.52,1.12,1.9,1.62,3.07,1.13,1.19-.49,1.72-1.79,1.2-2.9-.52-1.11-1.9-1.61-3.08-1.13Z"/>
  <path d="M.83,68.69c-.71.29-1.03,1.07-.71,1.74.31.66,1.14.96,1.85.67.7-.29,1.03-1.07.71-1.74-.3-.67-1.13-.97-1.85-.68Z"/>
  <path d="M5.04,81.94c.48-.2.69-.72.48-1.16-.21-.44-.75-.65-1.23-.45-.48.2-.69.71-.48,1.16.21.45.76.65,1.23.45Z"/>
  <path d="M98.28,35.79c1.3-.54,2.02-1.7,1.6-2.59-.41-.89-1.81-1.18-3.11-.63-1.3.54-2.01,1.7-1.6,2.59.42.89,1.8,1.18,3.1.64Z"/>
  <path d="M75.8,30.96c-.41.17-.6.62-.42,1.01.19.39.67.57,1.09.4.4-.17.6-.63.41-1.02-.19-.39-.67-.56-1.08-.39Z"/>
  <path d="M47.2,87.32c1.32-.39,2.55-1.21,3.83-1.8,2.67-1.23,5.65-1.41,8.54-1.41,3.29,0,2.91-1.51,4.77-3.78,1.17-1.43,3.14-1.55,4.65-2.44,1.73-1.03,3.16-2.81,4.51-4.28,1.88-2.05,2.32-2.54,3.45-5.13,0-.02,4.07-1.29,4.8-2.2.54-1.3-.96-5.89-.91-7.48.04-1.27.84-2.17,1.24-3.74.65-2.49-.2-3.88,0-6.22.39-4.44,10.13-2.2,8.72-7.46-5.53-1.08-8.23,4.09-9.96,0-.94-2.23,1.92-2.12,3.34-2.29,1.05-.13,2.29-.41,3.17-1.02.55-.39,2.15-2.41.63-2.74-.34-.07-.68.07-1,.22-3.44,1.59-6.55,4.24-8.63-.39-.23-.51-1.38-.6-1.81-.87-.85-.52-1.28-1.19-1.84-2.04-1.2-1.8-2.46-6.17-4.19-6.8-1.01-.37-1.55-.11-2.48-.9-.7-.6-1.17-1.35-2.01-1.8-.8-.43-1.77-.31-2.68-.3s-1.96-.19-2.41-.99c-.34-.61-.22-1.38.04-2.03.21-.53.91-1.52.8-2.11-.02-.13-.32-1.48-.83-.84-1.43,1.79-3.27,4.01-5.67,4.42-1.74.29-3.93-.55-4.79-2.16-1.02-1.92.74-3.89.43-5.93-.21-1.41-1.02-2.91-2.41-3.24-1.29-.3-2.59.53-3.41,1.56-1.36,1.72-1.59,3.79-2.18,5.82-.11.38-2.19,5.05-2.91,4.3-.61-.64-.79-1.66-1.62-2.26-.77-.56-1.89-.7-2.68-.18-.73.48-1.05,1.38-1.56,2.09-.93,1.3-2.14-.1-3.12-.61-.72-.38-1.64-.57-2.34-.14-1.06.66-.94,2.27-1.72,3.25-.29.37-.81.63-1.23.42-.18-.09-.31-.26-.43-.42-1.29-1.7-2.9-4.16-5.43-3.21-6.56,2.12,1.65,10.27,1.24,11.21-1.16,2.64-3.33.3-5.13-.02-.97-.17-2.02.24-2.6,1.03-.07.1-.14.21-.14.34,0,.19.17.33.33.42.8.49,1.94.81,2.07,1.74.11.8-.7,1.45-1.49,1.58s-1.6-.09-2.4-.1c-.84-.02-1.69.2-2.42.61-.29.16-.59.42-.56.74.02.21.17.38.33.52.76.68,1.76,1.03,2.66,1.5s1.81,1.15,2.07,2.14c.3,1.12-.35,2.33-1.28,3.03-2.19,1.65-5.55,2.01-8.12,2.81-1.16.36-2.19.69-2.15,2.15.02.66.2,1.32.57,1.86.72,1.03,2.07,1.28,3.24,1.41,1.07.12,2.94-.13,3.81.65,1.47,1.34,2.28,6.53,2.49,6.23-.72,1.01-2.89.32-3.85.16-.84-.14-1.7-.29-2.56-.28-.57.01-1.12.16-1.69.2s-1.28-.2-1.81.07c-.37.19-.57.6-.71.99-.24.65-.4,1.33-.47,2.02-.02.17-.03.35.04.5.15.32.58.39.94.39,2.13,0,4.15-.67,5.96-1.76,1.54-.93,3.63-2.32,5.38-1.06.75.54,1.23,6.34,1.25,6.22-.36,2.68-3.76,2.7-2.49,4.98.46.82,3.71-1.19,3.73-1.23,0,0,.12.69.11.81-.03.96-.18,1.55.46,2.37,2.75,3.57,6.12,5.25,10.36,6.49,1.19.35,2.38.68,3.58,1.01.41.11,1.36.2,1.68.51.44.46,1.08,4.63,1.24,4.98.46,1.04,1.12,3.06,2.53,2.98.33-.02.64-.16.92-.34,1.37-.87,2.18-2.59,3.72-3.08,1.61-.51,3.3.52,5,.54.51,0,1.01-.08,1.49-.22Z" fill-rule="evenodd"/>
</svg>