<svg viewBox="0 29.8 81.3 24.3" xmlns="http://www.w3.org/2000/svg"><path d="m0 29.8h81.3v24.3h-81.3z"/><path d="m40.9 37.8h7.9c1.6 0 2.2 1 2.2 2.7 0 2.1-1.2 2.3-1.2 2.3.6.2 1.1.8 1.1 1.5v1.8h-2.7s.1-.6.1-1.4c0-.5-.5-.9-1-.8h-3.9v2.2h-2.6zm2.6 2.2v1.8h4.2c.5 0 .9-.3.9-.8v-.1c.1-.5-.2-.9-.7-1h-.2zm15.6-.2h-3c-.7-.1-1.3.3-1.4 1v1.7c-.1.7.4 1.4 1.2 1.4.9 0 2.8-.1 3.5-.1.5.1 1.1-.2 1.2-.8v-1.8c0-.6-.6-1.4-1.5-1.4zm-1.5-2.1c4.3 0 5.8.3 5.8 3.4v1.8c0 2.6-1.4 3.3-3.6 3.3h-4.5c-2.1 0-3.3-1-3.3-2.9v-2.9c0-2.4 1.3-2.7 5.6-2.7m6.7.1h2.7v6h5.5v2.2h-8.2zm-34 0h9.6v2h-3.5v6.2h-2.7v-6.1h-3.5zm-1 0v2.1h-7v1.1h6.5v1.8h-6.5v1.2h7.1v2h-7.4c-2 0-2.2-.7-2.2-1.8v-4.7c0-1 .2-1.7 1.8-1.7zm-17.9 2.2v2h3.6c.5.1.9-.2 1-.7v-.3c0-.4 0-.9-1.1-.9zm-2.6-2.2h7.2c1.6 0 2.6.6 2.6 3s-.8 3.1-2.5 3.1h-4.7v2.1h-2.6z" fill="#fff"/></svg>