<?xml version="1.0" encoding="UTF-8"?>
<svg id="Layer_1" xmlns="http://www.w3.org/2000/svg" version="1.1" viewBox="0 0 181.2 28">
  <!-- Generator: Adobe Illustrator 30.4.0, SVG Export Plug-In . SVG Version: 2.1.4 Build 226)  -->
  <g id="Group_44">
    <g id="Group_43">
      <path id="Path_151" d="M14,25.4c-6.3,0-11.4-5.1-11.4-11.4,0-6.3,5.1-11.4,11.4-11.4,6.3,0,11.4,5.1,11.4,11.4,0,0,0,0,0,0,0,6.3-5.1,11.3-11.4,11.4M14,4.7c-5.1,0-9.3,4.2-9.3,9.3s4.2,9.3,9.3,9.3,9.3-4.2,9.3-9.3h0c0-5.1-4.2-9.3-9.3-9.3"/>
      <path id="Path_152" d="M14,20.8c-3.7,0-6.8-3-6.8-6.8s3-6.8,6.8-6.8c3.7,0,6.8,3,6.8,6.8,0,3.7-3,6.8-6.8,6.8M14,8.5c-3,0-5.5,2.5-5.5,5.5s2.5,5.5,5.5,5.5c3,0,5.5-2.5,5.5-5.5,0-3-2.5-5.5-5.5-5.5"/>
      <path id="Path_153" d="M13.1,10.7V1c0-.5.4-.9.9-1h0c.5,0,.9.5.9,1v9.8h-1.8Z"/>
      <path id="Path_154" d="M13.1,17.3v9.8c0,.5.4.9.9,1h0c.5,0,.9-.5.9-1v-9.8h-1.8Z"/>
      <path id="Path_155" d="M10.7,14.9H1c-.5,0-.9-.4-1-.9h0c0-.5.5-.9,1-.9h9.8v1.8Z"/>
      <path id="Path_156" d="M17.3,14.9h9.8c.5,0,.9-.4,1-.9h0c0-.5-.5-.9-1-.9h-9.8v1.8Z"/>
      <path id="Path_157" d="M45.2,16.5l4,5.3c-1.2,0-2.2,0-3.2,0-.3,0-.5-.3-.7-.5-1.1-1.4-2.1-2.8-3.1-4.2-.3-.6-.9-.9-1.6-.8-.8,0-1.6,0-2.5,0v5.5h-2.7V8h1.1c3.5,0,7,0,10.5,0,1.8,0,2.2.3,2.2,2.2s0,2.9,0,4.4c0,1.2-.5,1.7-1.7,1.7-.7,0-1.3,0-2,0,0,0-.1,0-.3.1M46.4,10.7h-8.2v2.8h8.2v-2.8Z"/>
      <path id="Path_158" d="M130.9,13.5h-1.3v-2.7h1.2v-2.8h2.8v2.6h6.9v2.8h-6.8v5.6h6.8c0-.4.1-.8.2-1.3l2.7-.3c0,1.1,0,2.1,0,3.1,0,.7-.6,1.3-1.3,1.3,0,0,0,0-.1,0-3.1,0-6.3,0-9.4,0-1.1,0-1.5-.5-1.5-1.6,0-1.9,0-3.7,0-5.6v-1.2"/>
      <path id="Path_159" d="M87.7,21.7c-.3,0-.3,0-.4,0-2.1.3-3.2-.5-4.8-2.2,0,0-2-2.6-3-3.9l-2.8,2.4s0,1.8,0,3.6h-2.6v-13.7h2.6v6.8c.4-.3,4.7-4.1,6.6-5.9.6-.7,1.5-1,2.4-.9h2.1s-6.4,5.9-6.4,5.9l6.4,7.9"/>
      <path id="Path_160" d="M92.3,8c4.1,0,8.2,0,12.2,0,.8,0,1.4.5,1.5,1.2,0,0,0,.2,0,.3,0,.9,0,1.9,0,2.9l-2.7-.3c0-.5,0-.9,0-1.4h-8.3v11h-2.7V8Z"/>
      <path id="Path_161" d="M170.1,10.8v11h-2.7v-13.7c.3,0,.6,0,.9,0,3.6,0,7.3,0,10.9,0,1.5,0,1.9.4,1.9,1.9v2.5l-2.7-.3c0-.5,0-.9-.1-1.4h-8.3Z"/>
      <path id="Path_162" d="M124.3,13.7c0-1.9,0-3.8,0-5.7h-2.8v11h-8.3v-11c-.3,0-.5,0-.7,0h-2c0,2,0,3.8,0,5.6,0,2.3,0,4.5,0,6.7,0,.7.5,1.4,1.2,1.5,0,0,.1,0,.2,0,3.6,0,7.3,0,10.9,0,.7,0,1.3-.4,1.4-1.1,0,0,0,0,0-.1,0-2.3,0-4.5,0-6.8"/>
      <path id="Path_163" d="M57.5,19v-2.7h9.1c1.5,0,1.9-.4,1.9-1.9,0-1.6,0-3.2,0-4.8.1-.7-.4-1.4-1.2-1.5-.1,0-.2,0-.3,0-3.6,0-7.2,0-10.8,0-.8,0-1.4.5-1.5,1.2,0,0,0,.2,0,.3,0,3.6,0,7.3,0,10.9,0,.7.5,1.3,1.2,1.4,0,0,.1,0,.2,0,3.7,0,7.3,0,11,0,.7,0,1.3-.4,1.4-1.2,0,0,0,0,0-.1,0-.5,0-1,0-1.5h-11ZM57.5,10.7h8.2v2.8h-8.2v-2.8Z"/>
      <path id="Path_164" d="M150.2,19v-2.7h9.1c1.5,0,1.9-.4,1.9-1.9,0-1.6,0-3.2,0-4.8.1-.7-.4-1.4-1.2-1.5-.1,0-.2,0-.3,0-3.6,0-7.2,0-10.8,0-.8,0-1.4.4-1.5,1.2,0,0,0,.2,0,.3,0,3.6,0,7.3,0,10.9,0,.7.5,1.3,1.2,1.4,0,0,.1,0,.2,0,3.7,0,7.3,0,11,0,.7,0,1.3-.4,1.4-1.2,0,0,0,0,0-.1,0-.5,0-1,0-1.5h-11ZM150.2,10.7h8.2v2.8h-8.2v-2.8Z"/>
    </g>
  </g>
</svg>