<svg viewBox="0 0 181.2 28" xmlns="http://www.w3.org/2000/svg"><path d="m14 25.4c-6.3 0-11.4-5.1-11.4-11.4s5.1-11.4 11.4-11.4 11.4 5.1 11.4 11.4-5.1 11.3-11.4 11.4m0-20.7c-5.1 0-9.3 4.2-9.3 9.3s4.2 9.3 9.3 9.3 9.3-4.2 9.3-9.3-4.2-9.3-9.3-9.3"/><path d="m14 20.8c-3.7 0-6.8-3-6.8-6.8s3-6.8 6.8-6.8c3.7 0 6.8 3 6.8 6.8 0 3.7-3 6.8-6.8 6.8m0-12.3c-3 0-5.5 2.5-5.5 5.5s2.5 5.5 5.5 5.5 5.5-2.5 5.5-5.5-2.5-5.5-5.5-5.5"/><path d="m13.1 10.7v-9.7c0-.5.4-.9.9-1 .5 0 .9.5.9 1v9.8h-1.8z"/><path d="m13.1 17.3v9.8c0 .5.4.9.9 1 .5 0 .9-.5.9-1v-9.8z"/><path d="m10.7 14.9h-9.7c-.5 0-.9-.4-1-.9 0-.5.5-.9 1-.9h9.8v1.8z"/><path d="m17.3 14.9h9.8c.5 0 .9-.4 1-.9 0-.5-.5-.9-1-.9h-9.8z"/><path d="m45.2 16.5 4 5.3c-1.2 0-2.2 0-3.2 0-.3 0-.5-.3-.7-.5-1.1-1.4-2.1-2.8-3.1-4.2-.3-.6-.9-.9-1.6-.8-.8 0-1.6 0-2.5 0v5.5h-2.7v-13.8h1.1 10.5c1.8 0 2.2.3 2.2 2.2s0 2.9 0 4.4c0 1.2-.5 1.7-1.7 1.7-.7 0-1.3 0-2 0 0 0-.1 0-.3.1m1.2-5.7h-8.2v2.8h8.2z"/><path d="m130.9 13.5h-1.3v-2.7h1.2v-2.8h2.8v2.6h6.9v2.8h-6.8v5.6h6.8c0-.4.1-.8.2-1.3l2.7-.3v3.1c0 .7-.6 1.3-1.3 1.3 0 0 0 0-.1 0-3.1 0-6.3 0-9.4 0-1.1 0-1.5-.5-1.5-1.6 0-1.9 0-3.7 0-5.6v-1.2"/><path d="m87.7 21.7c-.3 0-.3 0-.4 0-2.1.3-3.2-.5-4.8-2.2 0 0-2-2.6-3-3.9l-2.8 2.4s0 1.8 0 3.6h-2.6v-13.7h2.6v6.8c.4-.3 4.7-4.1 6.6-5.9.6-.7 1.5-1 2.4-.9h2.1s-6.4 5.9-6.4 5.9l6.4 7.9"/><path d="m92.3 8h12.2c.8 0 1.4.5 1.5 1.2v.3 2.9l-2.7-.3c0-.5 0-.9 0-1.4h-8.3v11h-2.7z"/><path d="m170.1 10.8v11h-2.7v-13.7h.9 10.9c1.5 0 1.9.4 1.9 1.9v2.5l-2.7-.3c0-.5 0-.9-.1-1.4h-8.3z"/><path d="m124.3 13.7c0-1.9 0-3.8 0-5.7h-2.8v11h-8.3v-11c-.3 0-.5 0-.7 0h-2v5.6 6.7c0 .7.5 1.4 1.2 1.5h.2 10.9c.7 0 1.3-.4 1.4-1.1 0 0 0 0 0-.1 0-2.3 0-4.5 0-6.8"/><path d="m57.5 19v-2.7h9.1c1.5 0 1.9-.4 1.9-1.9 0-1.6 0-3.2 0-4.8.1-.7-.4-1.4-1.2-1.5-.1 0-.2 0-.3 0-3.6 0-7.2 0-10.8 0-.8 0-1.4.5-1.5 1.2v.3 10.9c0 .7.5 1.3 1.2 1.4h.2 11c.7 0 1.3-.4 1.4-1.2 0 0 0 0 0-.1 0-.5 0-1 0-1.5h-11zm0-8.3h8.2v2.8h-8.2z"/><path d="m150.2 19v-2.7h9.1c1.5 0 1.9-.4 1.9-1.9 0-1.6 0-3.2 0-4.8.1-.7-.4-1.4-1.2-1.5-.1 0-.2 0-.3 0-3.6 0-7.2 0-10.8 0-.8 0-1.4.4-1.5 1.2v.3 10.9c0 .7.5 1.3 1.2 1.4h.2 11c.7 0 1.3-.4 1.4-1.2 0 0 0 0 0-.1 0-.5 0-1 0-1.5h-11zm0-8.3h8.2v2.8h-8.2z"/></svg>