<svg viewBox="0 0 90.6 30.2" xmlns="http://www.w3.org/2000/svg" xmlns:xlink="http://www.w3.org/1999/xlink"><clipPath id="a"><path d="m0 0h90.6v30.2h-90.6z"/></clipPath><clipPath id="b"><path d="m0 0h90.6v30.2h-90.6z"/></clipPath><clipPath id="c"><path d="m0 0h90.6v30.2h-90.6z"/></clipPath><clipPath id="d"><path d="m0 0h90.6v30.2h-90.6z"/></clipPath><g clip-path="url(#a)"><g fill="#3f343f"><path d="m63.9 8.6c.7-.7 1.2-1.1 2-1.8 0 0 0-.1 0-.2-.3-.1-.6-.2-.9-.2s-.3.2-.3.3 0 .2.1.3c0 .1-.1.2-.3.2s-.3-.1-.3-.3.2-.4.4-.6.5-.3.8-.3h.5c.2 0 .4.1.6.1s.4-.1.5-.3c.1 0 .2 0 .2.2-.4.4-1.6 1.4-2.6 2.4.4 0 .7.1 1 .3.2 0 .3.1.5.2.2 0 .4-.2.4-.4 0-.1 0-.3 0-.4 0-.2 0-.2.2-.2s.4.2.3.4c0 .3-.2.5-.4.7s-.4.3-.6.3-.5 0-.7-.2c-.2-.1-.5-.2-.8-.3-.3 0-.4.1-.5.4-.3 0-.3-.1-.3-.2s0-.2.5-.6"/><path d="m68.1 7.7c.6-.9 1.4-1.7 2-1.7.2 0 .4.1.5.3 0 .2 0 .4-.1.6-.1.4-.7 1.7-.8 1.8v.2c.3-.1.6-.3.8-.5.1 0 .1 0 .1.1-.3.5-.8.8-1.4.9-.1 0-.2 0-.2-.2 0 0 0-.1.2-.5s.5-1.2.7-1.6c0-.2.1-.4.2-.6 0 0 0-.2-.1-.2-.2 0-.7.4-1.1 1-.5.6-.9 1.3-1.2 2 0 0 0 .1-.1.1s-.3 0-.2-.2l.9-2.5c0-.1 0-.2 0-.2-.3 0-.5.2-.7.4h-.1c.3-.4.7-.7 1.2-.8.2 0 .3.1.2.3l-.5 1.4z"/><path d="m74 5.8c.1 0 .3 0 .4.1-.1.3-.8 2.1-1.1 2.8v.2c.1 0 .4-.1.8-.5 0 0 .1 0 .1.1-.3.5-.8.8-1.4.9-.1 0-.2 0-.2-.2 0-.1 0-.2 0-.3l.3-.7c-.4.6-1.1 1.1-1.8 1.3-.2 0-.4-.2-.4-.5.1-.6.3-1.1.7-1.6.3-.4.6-.8 1.1-1 .2-.1.5-.2.7-.2h.2s.1 0 .2.2l.2-.5zm-1.4.9c-.6.6-.9 1.3-1 2.1 0 .1 0 .2.1.2s.3-.1.8-.5c.5-.5.9-1.1 1.1-1.7 0-.2-.2-.3-.4-.3s-.3 0-.6.3"/><path d="m75.8 7.7c.6-.9 1.4-1.7 2-1.7.2 0 .4.1.5.3 0 .2 0 .4-.1.6-.1.4-.7 1.7-.8 1.8v.2c.3-.1.6-.3.8-.5.1 0 .1 0 .1.1-.3.5-.8.8-1.4.9-.1 0-.2 0-.2-.2 0 0 0-.1.2-.5s.5-1.2.7-1.6c0-.2.1-.4.2-.6 0 0 0-.2-.1-.2-.2 0-.7.4-1.1 1-.5.6-.9 1.3-1.2 2 0 0 0 .1-.1.1s-.3 0-.2-.2l.9-2.5c0-.1 0-.2 0-.2-.3 0-.5.2-.7.4h-.1c.3-.4.7-.7 1.2-.8.2 0 .3.1.2.3l-.5 1.4z"/><path d="m77.2 11c0-.1 0-.3.3-.3s0 0 0 0c0 .2.3.3.5.3.1 0 .3 0 .4-.4.3-.7.6-1.9.9-2.6.2-.8.4-1.4.5-1.5v-.1c-.2 0-.6.4-.8.6 0 0-.1 0-.1-.1.3-.5.8-.8 1.4-1 .1 0 .2.1.2.2-.1.5-.2 1-.4 1.6-.2.5-.5 1.7-.7 2.3-.3.7-.7 1.4-1.5 1.4-.3 0-.5-.2-.5-.4m3.3-6.4c0 .3-.2.5-.4.5s-.3-.1-.3-.3.1-.5.4-.5.3.1.3.3"/><path d="m83.5 6.4c0 .6-.8 1-2 1.3 0 .2-.1.5-.1.7s.1.4.4.5c.3 0 .5-.2.8-.5 0 0 .1 0 .1.1-.3.4-.8.7-1.3.7s-.7-.5-.7-.8c0-.9.5-1.7 1.2-2.2.3-.2.6-.4 1-.4.3 0 .5.2.5.5m-1.2.3c-.3.3-.5.6-.6.9.4 0 .8-.3 1.1-.6.2-.1.3-.3.3-.5 0 0 0-.2-.2-.2-.1 0-.3 0-.6.4"/><path d="m64.9 15.8c.6-.9 1.4-1.7 2-1.7.2 0 .4.1.5.3 0 .2 0 .4-.1.6-.1.4-.7 1.7-.8 1.8v.2c.3-.1.6-.3.8-.5.1 0 .1 0 .1.1-.3.5-.8.8-1.4.9-.1 0-.2 0-.2-.2 0 0 0-.1.2-.5s.5-1.2.7-1.6c0-.2.1-.4.2-.6 0-.1 0-.2-.1-.2-.2 0-.7.4-1.1 1-.5.6-.9 1.3-1.2 2 0 0 0 .1-.1.1s-.3 0-.2-.2l.9-2.5c0-.1 0-.2 0-.2-.3 0-.5.2-.7.4h-.1c.3-.4.7-.7 1.2-.8.2 0 .3.1.2.3l-.5 1.4z"/><path d="m70.7 13.8c.1 0 .3 0 .4.1-.1.3-.8 2.1-1.1 2.8v.2c.1 0 .4-.1.8-.5 0 0 .1 0 .1.1-.3.5-.8.8-1.4.9-.1 0-.2 0-.2-.2 0-.1 0-.2 0-.3l.3-.7c-.4.6-1.1 1-1.8 1.3-.2 0-.4-.2-.4-.4.1-.6.3-1.1.7-1.6.3-.4.6-.8 1.1-1 .2-.1.5-.2.7-.2h.2s.1 0 .2.2l.2-.5zm-1.4 1c-.6.6-.9 1.3-1 2.1 0 .1 0 .2.1.2s.3-.1.8-.5c.5-.5.9-1.1 1.1-1.7 0-.2-.2-.3-.4-.3s-.3 0-.6.3"/><path d="m73.4 14.5c0 .1 0 .2-.1.2 0 0-.1 0-.2 0-.1-.2-.3-.3-.5-.3s-.3.1-.3.3c0 .3.1.5.3.7.2.3.3.6.3.9s-.2.6-.4.8-.5.3-.8.3-.5-.2-.5-.4c0-.1 0-.2.1-.3h.2c.1.2.3.3.6.3.2 0 .4-.2.4-.5s-.1-.5-.3-.7-.3-.5-.3-.8.2-.7.5-.8c.2-.2.4-.2.6-.3.3 0 .5.2.5.5"/><path d="m78.9 12.6c.2-.5.2-.6 0-.7h-.2c0-.2 0-.2 0-.2.3 0 .6-.1 1-.2-.1.5-.3.8-.5 1.5-.8 2.2-1.2 3.5-1.3 3.7v.2c.3-.2.6-.4.9-.7h.1c-.2.4-1 1.1-1.4 1.1-.1 0-.3-.1-.3-.2 0-.2 0-.3 0-.5l.3-.8c-.6.7-1.2 1.5-1.9 1.5s-.5-.3-.5-.6c0-.8.5-1.6 1.1-2.1.4-.4.9-.7 1.4-.7.2 0 .3.1.4.2l.6-1.7zm-1.6 2c-.5.5-.8 1-1.2 1.6-.1.2-.2.5-.2.8 0 0 0 .2.2.2.4-.1.8-.4 1.1-.7.5-.4.8-1 1-1.6 0-.3 0-.6-.2-.6s-.5.2-.6.3"/><path d="m82 14.5c0 .6-.8 1-2 1.3 0 .2-.1.5-.1.7s.1.4.4.5c.3 0 .5-.2.8-.5 0 0 .1 0 .1.1-.3.4-.8.7-1.3.7s-.7-.5-.7-.8c0-.9.5-1.7 1.2-2.2.3-.2.6-.4 1-.4.3 0 .5.2.5.5m-1.1.3c-.3.3-.5.6-.6.9.4 0 .8-.3 1.1-.6.2-.1.3-.3.3-.5 0 0 0-.2-.2-.2-.1 0-.3 0-.6.4"/><path d="m82.8 16.8v.3c.2 0 .6-.4.9-.8h.1c-.2.4-.7 1.1-1.4 1.1s-.3-.1-.3-.2c0-.2 0-.5.2-.7l1.3-3.8c.2-.6.1-.6 0-.7h-.1s0-.1 0-.2c.3-.1.7-.2 1-.2 0 .3-.2.6-.5 1.4l-1.3 3.8z"/><path d="m87 13.8c.1 0 .3 0 .4.1-.1.3-.8 2.1-1.1 2.8v.2c.1 0 .4-.1.8-.5 0 0 .1 0 .1.1-.3.5-.8.8-1.4.9-.1 0-.2 0-.2-.2 0-.1 0-.2 0-.3l.3-.7c-.4.6-1.1 1.1-1.8 1.3-.2 0-.4-.2-.4-.4.1-.6.3-1.1.7-1.6.3-.4.6-.8 1.1-1 .2-.1.5-.2.7-.2h.2s.1 0 .2.2l.2-.5zm-1.4 1c-.6.6-.9 1.3-1 2.1 0 .1 0 .2.1.2s.3-.1.8-.5c.5-.5.9-1.1 1.1-1.7 0-.2-.2-.3-.4-.3s-.3 0-.6.3"/><path d="m64.8 22.8c0-.2 0-.2 0-.2-.2 0-.5.3-.8.6 0 0-.1 0-.1-.1.3-.4.8-.9 1.3-.9s.4.2.2.5l-.7 1.8v.4c0 .1 0 .3.2.3.4 0 .7-.3.9-.6.4-.4.6-1 .7-1.5 0-.2 0-.4 0-.6s.1-.3.3-.3c.3 0 .3.3.3.5-.2.9-.6 1.7-1.3 2.3-.3.3-.8.5-1.3.6-.2 0-.4-.2-.4-.5s0-.5.2-.8l.6-1.4z"/><path d="m69.9 22.6c0 .6-.8 1-2 1.3 0 .2-.1.5-.1.7s.1.4.4.5c.3 0 .5-.2.8-.5 0 0 .1 0 .1.1-.3.4-.8.7-1.3.7s-.7-.5-.7-.8c0-.9.5-1.7 1.2-2.2.3-.2.6-.4 1-.4.3 0 .5.2.5.5m-1.2.2c-.3.3-.5.6-.6.9.4 0 .8-.3 1.1-.6.2-.1.3-.3.3-.5 0 0 0-.2-.2-.2-.1 0-.3 0-.6.4"/><path d="m70.6 24.9v.3c.2 0 .6-.4.9-.8h.1c-.2.4-.7 1.1-1.4 1.1s-.3-.1-.3-.2c0-.2 0-.5.2-.7l1.3-3.8c.2-.6.1-.6 0-.7h-.1s0-.1 0-.2c.3-.1.7-.2 1-.2-.1.3-.2.6-.5 1.4l-1.3 3.8z"/><path d="m73 22.8v-.2c-.3 0-.5.2-.7.4 0 0-.1 0-.1-.1.3-.4.8-.7 1.3-.8h.1v.4l-1 2.3v.2c.3-.1.6-.3.8-.6 0 0 .1 0 .1.1-.4.5-.9.8-1.5 1 0 0 0 0-.1 0 0 0 0-.1 0-.2l1-2.4zm1-2.1c0 .3-.2.5-.4.5s-.3-.1-.3-.3.1-.5.4-.5.3.1.3.3"/><path d="m75.6 20.8c.2-.6.2-.7 0-.7h-.1s0-.1 0-.2c.3-.1.6-.2 1-.3 0 .3-.2.5-.4 1.2l-.8 2.4c.2-.3.5-.6.8-.8s.6-.3.9-.3c.5 0 .6.3.6.4 0 .2-.1.4-.3.6-.4.4-.8.6-1.3.7v.2c0 .3.2.5.3.8 0 .2.2.3.3.3s.3-.1.5-.4c0 0 .1 0 .1.1-.3.6-.7.8-.8.8s-.2-.1-.4-.3c-.1-.3-.3-.6-.4-.9 0-.2-.2-.3-.3-.3s-.2 0-.3.3l-.4 1s0 .1-.1.1-.3 0-.3-.2l1.5-4.5zm1.2 1.6c-.3 0-.6.2-.8.4-.3.2-.5.5-.7.9v.1c.4 0 .8-.3 1.2-.5.3-.1.5-.4.5-.7 0-.1 0-.2-.3-.2"/><path d="m80.5 22.6c0 .6-.8 1-2 1.3 0 .2-.1.5-.1.7s.1.4.4.5c.3 0 .5-.2.8-.5 0 0 .1 0 .1.1-.3.4-.8.7-1.3.7s-.7-.5-.7-.8c0-.9.5-1.7 1.2-2.2.3-.2.6-.4 1-.4.3 0 .5.2.5.5m-1.2.2c-.3.3-.5.6-.6.9.4 0 .8-.3 1.1-.6.2-.1.3-.3.3-.5 0 0 0-.2-.2-.2-.1 0-.3 0-.6.4"/></g><path d="m0 0h30.2v30.2h-30.2z" fill="#070507"/><path d="m30.2 0h30.2v30.2h-30.2z" fill="#3f343f"/></g><g clip-path="url(#b)"><path d="m0 10h.2c.3 0 .7 0 1-.2.3-.3.5-.7.5-1.2 0-.8-.6-1.4-1.3-1.5 0 0-.1 0-.2 0h-.2s0-.3 0-.3h.2c.5 0 1.1 0 1.6.3.5.2.8.8.8 1.3 0 .7-.5 1.3-1.2 1.6v.2c.5.9 1.1 1.8 1.9 2.5.2.2.4.2.7.3v.1c-.1 0-.3 0-.4 0-.8 0-1.3-.2-2-1.2-.2-.4-.6-1-.9-1.4-.2-.1-.4-.2-.7-.2zm7.1 3.3c1.8 0 3.3-1.4 3.3-3.2 0 0 0 0 0-.1 0-1.7-1.3-3.2-3-3.3-.1 0-.2 0-.3 0-1.8 0-3.3 1.4-3.4 3.2v.2c0 1.8 1.4 3.2 3.2 3.2zm.2-.3c-1.9 0-2.6-1.8-2.6-3.2 0-2.1 1.3-2.7 2.3-2.7 1.8 0 2.5 1.7 2.5 3.3s-1.1 2.7-2.2 2.7m4.8-1.4c0 1 0 1.1-.5 1.2h-.2v.3h1.1s.7 0 1.2 0v-.2h-.3c-.5 0-.6-.2-.6-1.2v-1.2c0-.3 0-.5.2-.5s.4.2.9.8l.8.9c.4.4.6.7.8.9 0 0 .1.2.1.2s-.1 0-.2 0h-.2v.3h1.2s.8 0 1.1 0v-.2h-.3c-.3 0-.6-.2-.8-.4-.7-.8-1.5-1.6-2.4-2.7-.1-.2-.2-.2-.2-.3s0-.2.2-.3l.9-.8c.4-.4.9-.8 1.3-1.1.3-.1.6-.2.9-.3v-.2c-.3 0-.6 0-.9 0s-.7 0-1 0v.2h.3c.1 0 .2.1.2.2v.2c-.2.3-.5.5-.7.8l-1 1c-.1.1-.4.3-.5.5 0 0-.2 0-.3.1-.1 0-.1-.2-.1-.4v-1.1c0-1 0-1.1.6-1.2h.2s0-.2 0-.3c-.4 0-.7 0-1.1 0s-.7 0-1.2 0v.2h.2c.6 0 .6.2.6 1.2v3.4zm10.9-1.3c0 1.4-.5 2.5-1.9 2.5s-1.9-1-1.9-2.5v-2c0-1 0-1.1.6-1.2h.2v-.2c-.5 0-.8 0-1.2 0s-.7 0-1.2 0v.2h.2c.5 0 .6.2.6 1.2v2.2c-.1.8.2 1.6.7 2.2.5.4 1.1.6 1.8.5.7 0 1.3-.2 1.8-.7.5-.6.7-1.5.7-2.3v-1.1c0-.6 0-1.3.1-1.9.1-.2.3-.2.5-.2h.2v-.2c-.3 0-.6 0-1 0s-.7 0-1.1 0v.2h.2c.2 0 .4 0 .5.2.2.6.2 1.3.2 2zm5.5 1.2c0-.8-.5-1.5-1.2-1.8l-.8-.5c-.4-.2-.8-.7-.8-1.2s.4-1 .9-1.1h.2c.6 0 1.2.4 1.3 1.1h.2c0-.4 0-.8-.2-1.2-.1 0-.2 0-.3 0-.3 0-.6-.1-.9-.1-.9-.1-1.8.5-1.9 1.5v.2c0 .7.4 1.3 1 1.6l.9.6c.5.3.8.8.8 1.3 0 .6-.5 1.1-1.1 1.1 0 0 0 0-.1 0-.8 0-1.5-.6-1.6-1.4h-.2c0 .5.1.9.3 1.3.5.2 1 .4 1.5.4 1 .1 1.9-.6 2-1.5 0 0 0-.1 0-.2" fill="#fff"/></g><g fill="#fff"><g clip-path="url(#c)"><path d="m32.1 12.9h1.6v4.3l3.4-4.3h1.9l-3.8 4.8 4 5.4h-2l-3.5-4.6v4.6h-1.6z"/><path d="m40 12.8 1.4-.3v10.6h-1.4z"/></g><g clip-path="url(#d)"><path d="m50.6 14.1 1.5-.3v1.9h2.8v-1.6l1.4-.2v1.9h1.9v1.2h-1.9v4s0 .6.3.7.7.1 1 0c.4-.1.5-.2.5-.2v1.1c-.3.3-.7.5-1.2.5-.6 0-1.1 0-1.5-.4s-.5-.6-.5-1.8 0-4 0-4h-2.8v4.1s0 .6.4.7h.9c.2 0 .3-.1.5-.1v1.2c-.5.3-1 .4-1.6.4-.5 0-1-.1-1.3-.5-.3-.5-.3-.6-.4-1.3 0-.6 0-4.3 0-4.3h-1.2v-1.2h1.2v-1.6z"/><path d="m44.3 19.7c0 .3 0 .6.2.9.3.7 1.1 1.2 1.8 1.1.7 0 1.3-.2 1.9-.6l.5 1.1c-.6.4-1.2.6-1.9.7-1.8.4-3.6-.7-4-2.5 0-.3 0-.5 0-.8 0-2 .4-2.6 1-3.3.9-.9 2.1-1.2 3.3-.8.9.3 1.6 1.1 1.8 2 .2.7.2 1.4.2 2.1h-4.6zm0-1.2h3.1s0-1.8-1.4-1.8-1.7 1.8-1.7 1.8"/></g></g></svg>