<?xml version="1.0" encoding="UTF-8"?>
<svg id="Group_36242" xmlns="http://www.w3.org/2000/svg" xmlns:xlink="http://www.w3.org/1999/xlink" version="1.1" viewBox="0 0 90.6 30.2">
  <!-- Generator: Adobe Illustrator 30.4.0, SVG Export Plug-In . SVG Version: 2.1.4 Build 226)  -->
  <defs>
    <style>
      .st0 {
        fill: none;
      }

      .st1 {
        fill: #3f343f;
      }

      .st2 {
        fill: #070507;
      }

      .st3 {
        clip-path: url(#clippath-1);
      }

      .st4 {
        clip-path: url(#clippath-3);
      }

      .st5 {
        clip-path: url(#clippath-2);
      }

      .st6 {
        fill: #fff;
      }

      .st7 {
        clip-path: url(#clippath);
      }
    </style>
    <clipPath id="clippath">
      <rect class="st0" width="90.6" height="30.2"/>
    </clipPath>
    <clipPath id="clippath-1">
      <rect class="st0" width="90.6" height="30.2"/>
    </clipPath>
    <clipPath id="clippath-2">
      <rect class="st0" width="90.6" height="30.2"/>
    </clipPath>
    <clipPath id="clippath-3">
      <rect class="st0" width="90.6" height="30.2"/>
    </clipPath>
  </defs>
  <g id="Group_36234">
    <g class="st7">
      <g id="Group_36233">
        <path id="Path_10933" class="st1" d="M63.9,8.6c.7-.7,1.2-1.1,2-1.8,0,0,0-.1,0-.2-.3-.1-.6-.2-.9-.2-.3,0-.3.2-.3.3,0,.1,0,.2.1.3,0,.1-.1.2-.3.2-.2,0-.3-.1-.3-.3,0,0,0,0,0,0,0-.2.2-.4.4-.6.2-.2.5-.3.8-.3.2,0,.3,0,.5,0,.2,0,.4.1.6.1.2,0,.4-.1.5-.3.1,0,.2,0,.2.2-.4.4-1.6,1.4-2.6,2.4h0c.4,0,.7.1,1,.3.2,0,.3.1.5.2.2,0,.4-.2.4-.4,0-.1,0-.3,0-.4,0-.2,0-.2.2-.2.2,0,.4.2.3.4,0,.3-.2.5-.4.7-.2.2-.4.3-.6.3-.2,0-.5,0-.7-.2-.2-.1-.5-.2-.8-.3-.3,0-.4.1-.5.4-.3,0-.3-.1-.3-.2s0-.2.5-.6"/>
        <path id="Path_10934" class="st1" d="M68.1,7.7h0c.6-.9,1.4-1.7,2-1.7.2,0,.4.1.5.3,0,0,0,0,0,0,0,.2,0,.4-.1.6-.1.4-.7,1.7-.8,1.8,0,0,0,.2,0,.2.3-.1.6-.3.8-.5.1,0,.1,0,.1.1-.3.5-.8.8-1.4.9-.1,0-.2,0-.2-.2,0,0,0-.1.2-.5s.5-1.2.7-1.6c0-.2.1-.4.2-.6,0,0,0-.2-.1-.2-.2,0-.7.4-1.1,1-.5.6-.9,1.3-1.2,2,0,0,0,.1-.1.1s-.3,0-.2-.2l.9-2.5c0-.1,0-.2,0-.2-.3,0-.5.2-.7.4,0,0-.1,0-.1,0,0,0,0,0,0,0,.3-.4.7-.7,1.2-.8.2,0,.3.1.2.3l-.5,1.4Z"/>
        <path id="Path_10935" class="st1" d="M74,5.8c.1,0,.3,0,.4.1-.1.3-.8,2.1-1.1,2.8,0,.1,0,.2,0,.2.1,0,.4-.1.8-.5,0,0,.1,0,.1.1,0,0,0,0,0,0-.3.5-.8.8-1.4.9-.1,0-.2,0-.2-.2,0,0,0,0,0,0,0-.1,0-.2,0-.3l.3-.7h0c-.4.6-1.1,1.1-1.8,1.3-.2,0-.4-.2-.4-.5,0,0,0,0,0,0,.1-.6.3-1.1.7-1.6.3-.4.6-.8,1.1-1,.2-.1.5-.2.7-.2,0,0,.1,0,.2,0,0,0,.1,0,.2.2l.2-.5ZM72.6,6.7c-.6.6-.9,1.3-1,2.1,0,.1,0,.2.1.2s.3-.1.8-.5c.5-.5.9-1.1,1.1-1.7,0-.2-.2-.3-.4-.3-.2,0-.3,0-.6.3"/>
        <path id="Path_10936" class="st1" d="M75.8,7.7h0c.6-.9,1.4-1.7,2-1.7.2,0,.4.1.5.3,0,0,0,0,0,0,0,.2,0,.4-.1.6-.1.4-.7,1.7-.8,1.8,0,0,0,.2,0,.2.3-.1.6-.3.8-.5.1,0,.1,0,.1.1-.3.5-.8.8-1.4.9-.1,0-.2,0-.2-.2,0,0,0-.1.2-.5s.5-1.2.7-1.6c0-.2.1-.4.2-.6,0,0,0-.2-.1-.2-.2,0-.7.4-1.1,1-.5.6-.9,1.3-1.2,2,0,0,0,.1-.1.1s-.3,0-.2-.2l.9-2.5c0-.1,0-.2,0-.2-.3,0-.5.2-.7.4,0,0-.1,0-.1,0,0,0,0,0,0,0,.3-.4.7-.7,1.2-.8.2,0,.3.1.2.3l-.5,1.4Z"/>
        <path id="Path_10937" class="st1" d="M77.2,11c0-.1,0-.3.3-.3s0,0,0,0c0,.2.3.3.5.3.1,0,.3,0,.4-.4.3-.7.6-1.9.9-2.6.2-.8.4-1.4.5-1.5,0,0,0-.1,0-.1-.2,0-.6.4-.8.6,0,0-.1,0-.1-.1.3-.5.8-.8,1.4-1,.1,0,.2.1.2.2-.1.5-.2,1-.4,1.6-.2.5-.5,1.7-.7,2.3-.3.7-.7,1.4-1.5,1.4-.3,0-.5-.2-.5-.4,0,0,0,0,0,0M80.7,4.6c0,.3-.2.5-.4.5-.2,0-.3-.1-.3-.3,0,0,0,0,0,0,0-.2.1-.5.4-.5s.3.1.3.3"/>
        <path id="Path_10938" class="st1" d="M83.5,6.4c0,.6-.8,1-2,1.3,0,.2-.1.5-.1.7,0,.2.1.4.4.5,0,0,0,0,0,0,.3,0,.5-.2.8-.5,0,0,.1,0,.1.1,0,0,0,0,0,0-.3.4-.8.7-1.3.7-.5,0-.7-.5-.7-.8,0-.9.5-1.7,1.2-2.2.3-.2.6-.4,1-.4.3,0,.5.2.5.5M82.2,6.6c-.3.3-.5.6-.6.9.4,0,.8-.3,1.1-.6.2-.1.3-.3.3-.5,0,0,0-.2-.2-.2,0,0,0,0,0,0-.1,0-.3,0-.6.4"/>
        <path id="Path_10939" class="st1" d="M64.9,15.8h0c.6-.9,1.4-1.7,2-1.7.2,0,.4.1.5.3,0,0,0,0,0,0,0,.2,0,.4-.1.6-.1.4-.7,1.7-.8,1.8,0,0,0,.2,0,.2.3-.1.6-.3.8-.5.1,0,.1,0,.1.1-.3.5-.8.8-1.4.9-.1,0-.2,0-.2-.2,0,0,0-.1.2-.5s.5-1.2.7-1.6c0-.2.1-.4.2-.6,0-.1,0-.2-.1-.2-.2,0-.7.4-1.1,1-.5.6-.9,1.3-1.2,2,0,0,0,.1-.1.1s-.3,0-.2-.2l.9-2.5c0-.1,0-.2,0-.2-.3,0-.5.2-.7.4,0,0-.1,0-.1,0,0,0,0,0,0,0,.3-.4.7-.7,1.2-.8.2,0,.3.1.2.3l-.5,1.4Z"/>
        <path id="Path_10940" class="st1" d="M70.7,13.8c.1,0,.3,0,.4.1-.1.3-.8,2.1-1.1,2.8,0,.1,0,.2,0,.2.1,0,.4-.1.8-.5,0,0,.1,0,.1.1-.3.5-.8.8-1.4.9-.1,0-.2,0-.2-.2,0,0,0,0,0,0,0-.1,0-.2,0-.3l.3-.7h0c-.4.6-1.1,1-1.8,1.3-.2,0-.4-.2-.4-.4,0,0,0,0,0,0,.1-.6.3-1.1.7-1.6.3-.4.6-.8,1.1-1,.2-.1.5-.2.7-.2,0,0,.1,0,.2,0,0,0,.1,0,.2.2l.2-.5ZM69.3,14.8c-.6.6-.9,1.3-1,2.1,0,.1,0,.2.1.2s.3-.1.8-.5c.5-.5.9-1.1,1.1-1.7,0-.2-.2-.3-.4-.3-.2,0-.3,0-.6.3"/>
        <path id="Path_10941" class="st1" d="M73.4,14.5c0,.1,0,.2-.1.2,0,0-.1,0-.2,0-.1-.2-.3-.3-.5-.3-.2,0-.3.1-.3.3,0,.3.1.5.3.7.2.3.3.6.3.9,0,.3-.2.6-.4.8-.2.2-.5.3-.8.3-.3,0-.5-.2-.5-.4,0-.1,0-.2.1-.3,0,0,.2,0,.2,0,.1.2.3.3.6.3.2,0,.4-.2.4-.5,0-.3-.1-.5-.3-.7-.2-.2-.3-.5-.3-.8,0-.3.2-.7.5-.8.2-.2.4-.2.6-.3.3,0,.5.2.5.5"/>
        <path id="Path_10942" class="st1" d="M78.9,12.6c.2-.5.2-.6,0-.7h-.2c0-.2,0-.2,0-.2.3,0,.6-.1,1-.2h0c-.1.5-.3.8-.5,1.5-.8,2.2-1.2,3.5-1.3,3.7,0,.1,0,.2,0,.2.3-.2.6-.4.9-.7,0,0,.1,0,.1,0,0,0,0,0,0,0-.2.4-1,1.1-1.4,1.1-.1,0-.3-.1-.3-.2,0,0,0,0,0,0,0-.2,0-.3,0-.5l.3-.8h0c-.6.7-1.2,1.5-1.9,1.5s-.5-.3-.5-.6c0-.8.5-1.6,1.1-2.1.4-.4.9-.7,1.4-.7.2,0,.3.1.4.2l.6-1.7ZM77.3,14.6c-.5.5-.8,1-1.2,1.6-.1.2-.2.5-.2.8,0,0,0,.2.2.2.4-.1.8-.4,1.1-.7.5-.4.8-1,1-1.6,0-.3,0-.6-.2-.6-.2,0-.5.2-.6.3"/>
        <path id="Path_10943" class="st1" d="M82,14.5c0,.6-.8,1-2,1.3,0,.2-.1.5-.1.7,0,.2.1.4.4.5,0,0,0,0,0,0,.3,0,.5-.2.8-.5,0,0,.1,0,.1.1,0,0,0,0,0,0-.3.4-.8.7-1.3.7-.5,0-.7-.5-.7-.8,0-.9.5-1.7,1.2-2.2.3-.2.6-.4,1-.4.3,0,.5.2.5.5M80.8,14.7c-.3.3-.5.6-.6.9.4,0,.8-.3,1.1-.6.2-.1.3-.3.3-.5,0,0,0-.2-.2-.2,0,0,0,0,0,0-.1,0-.3,0-.6.4"/>
        <path id="Path_10944" class="st1" d="M82.8,16.8c0,.2,0,.3,0,.3.2,0,.6-.4.9-.8,0,0,.1,0,.1,0,0,0,0,0,0,0-.2.4-.7,1.1-1.4,1.1s-.3-.1-.3-.2c0-.2,0-.5.2-.7l1.3-3.8c.2-.6.1-.6,0-.7h-.1c0,0,0-.1,0-.2,0,0,0,0,0,0,.3-.1.7-.2,1-.2h0c0,.3-.2.6-.5,1.4l-1.3,3.8Z"/>
        <path id="Path_10945" class="st1" d="M87,13.8c.1,0,.3,0,.4.1-.1.3-.8,2.1-1.1,2.8,0,.1,0,.2,0,.2.1,0,.4-.1.8-.5,0,0,.1,0,.1.1-.3.5-.8.8-1.4.9-.1,0-.2,0-.2-.2,0,0,0,0,0,0,0-.1,0-.2,0-.3l.3-.7h0c-.4.6-1.1,1.1-1.8,1.3-.2,0-.4-.2-.4-.4,0,0,0,0,0,0,.1-.6.3-1.1.7-1.6.3-.4.6-.8,1.1-1,.2-.1.5-.2.7-.2,0,0,.1,0,.2,0,0,0,.1,0,.2.2l.2-.5ZM85.6,14.8c-.6.6-.9,1.3-1,2.1,0,.1,0,.2.1.2s.3-.1.8-.5c.5-.5.9-1.1,1.1-1.7,0-.2-.2-.3-.4-.3-.2,0-.3,0-.6.3"/>
        <path id="Path_10946" class="st1" d="M64.8,22.8c0-.2,0-.2,0-.2-.2,0-.5.3-.8.6,0,0-.1,0-.1-.1,0,0,0,0,0,0,.3-.4.8-.9,1.3-.9s.4.2.2.5l-.7,1.8c0,.1,0,.2,0,.4,0,.1,0,.3.2.3.4,0,.7-.3.9-.6.4-.4.6-1,.7-1.5,0-.2,0-.4,0-.6,0-.2.1-.3.3-.3.3,0,.3.3.3.5-.2.9-.6,1.7-1.3,2.3-.3.3-.8.5-1.3.6-.2,0-.4-.2-.4-.5,0-.3,0-.5.2-.8l.6-1.4Z"/>
        <path id="Path_10947" class="st1" d="M69.9,22.6c0,.6-.8,1-2,1.3,0,.2-.1.5-.1.7,0,.2.1.4.4.5,0,0,0,0,0,0,.3,0,.5-.2.8-.5,0,0,.1,0,.1.1,0,0,0,0,0,0-.3.4-.8.7-1.3.7-.5,0-.7-.5-.7-.8,0-.9.5-1.7,1.2-2.2.3-.2.6-.4,1-.4.3,0,.5.2.5.5M68.6,22.7c-.3.3-.5.6-.6.9.4,0,.8-.3,1.1-.6.2-.1.3-.3.3-.5,0,0,0-.2-.2-.2,0,0,0,0,0,0-.1,0-.3,0-.6.4"/>
        <path id="Path_10948" class="st1" d="M70.6,24.9c0,.2,0,.3,0,.3.2,0,.6-.4.9-.8,0,0,.1,0,.1,0,0,0,0,0,0,0-.2.4-.7,1.1-1.4,1.1s-.3-.1-.3-.2c0-.2,0-.5.2-.7l1.3-3.8c.2-.6.1-.6,0-.7h-.1c0,0,0-.1,0-.2,0,0,0,0,0,0,.3-.1.7-.2,1-.2h0c-.1.3-.2.6-.5,1.4l-1.3,3.8Z"/>
        <path id="Path_10949" class="st1" d="M73,22.8c0,0,0-.2,0-.2-.3,0-.5.2-.7.4,0,0-.1,0-.1-.1,0,0,0,0,0,0,.3-.4.8-.7,1.3-.8,0,0,0,0,.1,0,0,0,0,.1,0,.4l-1,2.3c0,0,0,.2,0,.2.3-.1.6-.3.8-.6,0,0,.1,0,.1.1,0,0,0,0,0,0-.4.5-.9.8-1.5,1,0,0,0,0-.1,0,0,0,0-.1,0-.2l1-2.4ZM74,20.7c0,.3-.2.5-.4.5-.2,0-.3-.1-.3-.3,0,0,0,0,0,0,0-.2.1-.5.4-.5s.3.1.3.3"/>
        <path id="Path_10950" class="st1" d="M75.6,20.8c.2-.6.2-.7,0-.7h-.1c0,0,0-.1,0-.2,0,0,0,0,0,0,.3-.1.6-.2,1-.3h0c0,.3-.2.5-.4,1.2l-.8,2.4h0c.2-.3.5-.6.8-.8.3-.2.6-.3.9-.3.5,0,.6.3.6.4,0,.2-.1.4-.3.6-.4.4-.8.6-1.3.7,0,0,0,.1,0,.2,0,.3.2.5.3.8,0,.2.2.3.3.3s.3-.1.5-.4c0,0,.1,0,.1.1-.3.6-.7.8-.8.8s-.2-.1-.4-.3c-.1-.3-.3-.6-.4-.9,0-.2-.2-.3-.3-.3s-.2,0-.3.3l-.4,1c0,0,0,.1-.1.1s-.3,0-.3-.2l1.5-4.5ZM76.8,22.4c-.3,0-.6.2-.8.4-.3.2-.5.5-.7.9,0,0,0,.1,0,.1.4,0,.8-.3,1.2-.5.3-.1.5-.4.5-.7,0-.1,0-.2-.3-.2"/>
        <path id="Path_10951" class="st1" d="M80.5,22.6c0,.6-.8,1-2,1.3,0,.2-.1.5-.1.7,0,.2.1.4.4.5,0,0,0,0,0,0,.3,0,.5-.2.8-.5,0,0,.1,0,.1.1,0,0,0,0,0,0-.3.4-.8.7-1.3.7-.5,0-.7-.5-.7-.8,0-.9.5-1.7,1.2-2.2.3-.2.6-.4,1-.4.3,0,.5.2.5.5M79.2,22.7c-.3.3-.5.6-.6.9.4,0,.8-.3,1.1-.6.2-.1.3-.3.3-.5,0,0,0-.2-.2-.2,0,0,0,0,0,0-.1,0-.3,0-.6.4"/>
        <path id="Path_10957" class="st2" d="M0,0h30.2v30.2H0V0Z"/>
        <path id="Path_10958" class="st1" d="M30.2,0h30.2v30.2h-30.2V0Z"/>
      </g>
    </g>
  </g>
  <g id="Group_36236">
    <g class="st3">
      <g id="Group_36235">
        <path id="Path_10952" class="st6" d="M0,10h.2c.3,0,.7,0,1-.2.3-.3.5-.7.5-1.2,0-.8-.6-1.4-1.3-1.5,0,0-.1,0-.2,0h-.2s0-.3,0-.3h.2c.5,0,1.1,0,1.6.3.5.2.8.8.8,1.3,0,.7-.5,1.3-1.2,1.6,0,0,0,.2,0,.2.5.9,1.1,1.8,1.9,2.5.2.2.4.2.7.3,0,0,0,0,0,.1,0,0,0,0,0,0-.1,0-.3,0-.4,0-.8,0-1.3-.2-2-1.2-.2-.4-.6-1-.9-1.4C.5,10.4.3,10.3,0,10.3v-.3ZM7.1,13.3c1.8,0,3.3-1.4,3.3-3.2,0,0,0,0,0-.1,0-1.7-1.3-3.2-3-3.3-.1,0-.2,0-.3,0-1.8,0-3.3,1.4-3.4,3.2,0,0,0,.1,0,.2,0,1.8,1.4,3.2,3.2,3.2,0,0,.1,0,.2,0M7.3,13c-1.9,0-2.6-1.8-2.6-3.2,0-2.1,1.3-2.7,2.3-2.7,1.8,0,2.5,1.7,2.5,3.3s-1.1,2.7-2.2,2.7M12.1,11.7c0,1,0,1.1-.5,1.2h-.2c0,0,0,.2,0,.3.4,0,.7,0,1.1,0s.7,0,1.2,0c0,0,0-.2,0-.2h-.3c-.5,0-.6-.2-.6-1.2v-1.2c0-.3,0-.5.2-.5.2,0,.4.2.9.8l.8.9c.4.4.6.7.8.9,0,0,.1.2.1.2s-.1,0-.2,0h-.2c0,0,0,.3,0,.3.4,0,.8,0,1.2,0s.8,0,1.1,0c0,0,0-.2,0-.2,0,0,0,0,0,0h-.3c-.3,0-.6-.2-.8-.4-.7-.8-1.5-1.6-2.4-2.7-.1-.2-.2-.2-.2-.3s0-.2.2-.3l.9-.8c.4-.4.9-.8,1.3-1.1.3-.1.6-.2.9-.3,0,0,0-.2,0-.2-.3,0-.6,0-.9,0s-.7,0-1,0c0,0,0,.2,0,.2,0,0,0,0,0,0h.3c.1,0,.2.1.2.2,0,0,0,.1,0,.2-.2.3-.5.5-.7.8l-1,1c-.1.1-.4.3-.5.5,0,0-.2,0-.3.1-.1,0-.1-.2-.1-.4v-1.1c0-1,0-1.1.6-1.2h.2c0,0,0-.2,0-.3-.4,0-.7,0-1.1,0s-.7,0-1.2,0c0,0,0,.2,0,.2h.2c.6,0,.6.2.6,1.2v3.4ZM23,10.4c0,1.4-.5,2.5-1.9,2.5s-1.9-1-1.9-2.5v-2c0-1,0-1.1.6-1.2h.2c0,0,0-.2,0-.2-.5,0-.8,0-1.2,0s-.7,0-1.2,0c0,0,0,.2,0,.2h.2c.5,0,.6.2.6,1.2v2.2c-.1.8.2,1.6.7,2.2.5.4,1.1.6,1.8.5.7,0,1.3-.2,1.8-.7.5-.6.7-1.5.7-2.3v-1.1c0-.6,0-1.3.1-1.9.1-.2.3-.2.5-.2h.2c0,0,0-.2,0-.2-.3,0-.6,0-1,0s-.7,0-1.1,0c0,0,0,.2,0,.2h.2c.2,0,.4,0,.5.2.2.6.2,1.3.2,2v1.1ZM28.5,11.6c0-.8-.5-1.5-1.2-1.8l-.8-.5c-.4-.2-.8-.7-.8-1.2,0-.5.4-1,.9-1.1,0,0,.1,0,.2,0,.6,0,1.2.4,1.3,1.1,0,0,.2,0,.2,0,0-.4,0-.8-.2-1.2-.1,0-.2,0-.3,0-.3,0-.6-.1-.9-.1-.9-.1-1.8.5-1.9,1.5,0,0,0,.1,0,.2,0,.7.4,1.3,1,1.6l.9.6c.5.3.8.8.8,1.3,0,.6-.5,1.1-1.1,1.1,0,0,0,0-.1,0-.8,0-1.5-.6-1.6-1.4,0,0-.2,0-.2,0,0,.5.1.9.3,1.3.5.2,1,.4,1.5.4,1,.1,1.9-.6,2-1.5,0,0,0-.1,0-.2"/>
      </g>
    </g>
  </g>
  <g id="Group_36238">
    <g class="st5">
      <g id="Group_36237">
        <path id="Path_10953" class="st6" d="M32.1,12.9h1.6v4.3l3.4-4.3h1.9l-3.8,4.8,4,5.4h-2l-3.5-4.6v4.6h-1.6v-10.2Z"/>
        <path id="Path_10954" class="st6" d="M40,12.8l1.4-.3v10.6h-1.4v-10.3Z"/>
      </g>
    </g>
  </g>
  <g id="Group_36240">
    <g class="st4">
      <g id="Group_36239">
        <path id="Path_10955" class="st6" d="M50.6,14.1l1.5-.3v1.9h2.8v-1.6l1.4-.2v1.9h1.9v1.2h-1.9v4s0,.6.3.7c.3.1.7.1,1,0,.4-.1.5-.2.5-.2v1.1c-.3.3-.7.5-1.2.5-.6,0-1.1,0-1.5-.4-.4-.4-.5-.6-.5-1.8s0-4,0-4h-2.8v4.1s0,.6.4.7c.3,0,.6,0,.9,0,.2,0,.3-.1.5-.1v1.2c-.5.3-1,.4-1.6.4-.5,0-1-.1-1.3-.5-.3-.5-.3-.6-.4-1.3,0-.6,0-4.3,0-4.3h-1.2v-1.2h1.2v-1.6Z"/>
        <path id="Path_10956" class="st6" d="M44.3,19.7c0,.3,0,.6.2.9.3.7,1.1,1.2,1.8,1.1.7,0,1.3-.2,1.9-.6l.5,1.1c-.6.4-1.2.6-1.9.7-1.8.4-3.6-.7-4-2.5,0-.3,0-.5,0-.8,0-2,.4-2.6,1-3.3.9-.9,2.1-1.2,3.3-.8.9.3,1.6,1.1,1.8,2,.2.7.2,1.4.2,2.1h-4.6ZM44.3,18.5h3.1s0-1.8-1.4-1.8-1.7,1.8-1.7,1.8"/>
      </g>
    </g>
  </g>
</svg>