<?xml version="1.0" encoding="UTF-8"?>
<svg id="Layer_1" xmlns="http://www.w3.org/2000/svg" version="1.1" viewBox="0 0 1746 143.2">
  <!-- Generator: Adobe Illustrator 30.4.0, SVG Export Plug-In . SVG Version: 2.1.4 Build 226)  -->
  <defs>
    <style>
      .st0 {
        fill: #fff;
      }
    </style>
  </defs>
  <g>
    <path d="M152.8,151.5H0s0-145.1,0-145.1L157.6,0l-4.8,151.5ZM17.9,107.3l-7.5-4.8c-.7-.4-1.5-2-1.5-2.8s1.7-2.4,2.5-2.3l6.2.8.7-.9-.5-1.7c-.1-.5-4.6-1.4-9-.2s-3.6,3.3-3.6,5.1,1.3,3.8,3,4.8l6.3,3.8c.8.5,1.6,2.6,1.5,3.5-.4,3.1-5.4,3.3-10.4,1.4v3.1c5.5,1.8,12.2,1.1,13.7-3.3s.1-5.3-1.4-6.3ZM29.3,117.3v-19.7s5.6,0,5.6,0v-2.6c0,0-14.5,0-14.5,0v2.6s5.6,0,5.6,0v19.7s3.3,0,3.3,0ZM49.2,95v15.6c0,2.7-1.6,4.6-4.6,4.5s-4-1.7-4-3.7v-16.5s-3.3,0-3.3,0v16.4c0,2,1.5,4.6,3.4,5.4s5.4,1.1,7.7.3,4.2-3.8,4.2-6.5v-15.6s-3.4-.1-3.4-.1ZM72.3,110.6c.4-3.2.3-6.3.1-9.3-1.2-3.1-3.2-5.2-6.3-6.2h-8.8s0,22.3,0,22.3h7.1c3.8,0,7.4-2.7,7.9-6.8ZM80.1,95h-3.4s0,22.5,0,22.5h3.4s0-22.5,0-22.5ZM101.1,111.3c1.8-7.9,0-15.9-7.1-16.7-3.9-.4-7.5,1.2-8.9,5s-1.5,9,0,13,4.3,5.1,7.4,5.2,7.6-2.1,8.6-6.5ZM49.7,139.4c.9-3.5.9-7.6,0-11s-4.1-6.2-8.1-6.2-6.9,1.8-8,5.5-1,7.4-.4,10.9,4.3,6.8,8.4,6.7,7-1.9,8-6ZM85.6,134.6v-2.6s-8.6,0-8.6,0v-6.8c0,0,9,0,9,0l-.2-2.7h-12.1c0-.1,0,22.4,0,22.4h12.7c0,0,0-2.7,0-2.7h-9.4s0-7.6,0-7.6h8.6ZM25.8,144.9h2.9c0-.1,0-22.3,0-22.3h-4.6c0,0-6.4,18-6.4,18l-6.4-18h-4.7s0,22.3,0,22.3h3s0-17.2,0-17.2l1,1.9,5.3,15.2h3.3c0-.1,6.2-17.3,6.2-17.3l.3,17.4ZM68.9,140.1c.8-4,1-7.5.3-11.6s-3.5-5.7-6.2-5.8l-8.6-.3v22.6s8.7-.3,8.7-.3c2.3,0,4.7-2.7,5.9-4.6ZM101,144.9h3c0,0-1.6-7.8-1.6-7.8-.2-1.1-1.9-2.7-2.9-3.4.7-.3,3.2-2.1,3.5-3.2s0-4.4-.7-5.6-3-2.3-4.3-2.3h-8c0,0,0,22.3,0,22.3h3.4c0,0,0-9.5,0-9.5,3-.5,5,.5,5.6,2.7l1.9,6.8ZM123.6,144.7v-22.1s-2.9,0-2.9,0l-.3,16.7-8.8-16.9-4,.2v22.3s2.9,0,2.9,0l.3-17.3,9,17.4,3.9-.2ZM140.1,138.6l2.2,6.4,3.5-.3-7.7-22.3h-4c0,0-.9,2.5-.9,2.5l-6.7,19.8,3.4.3,2.4-6.6,7.9.2Z"/>
    <polygon class="st0" points="25.8 144.9 25.5 127.5 19.3 144.7 16 144.8 10.7 129.6 9.7 127.7 9.6 144.8 6.6 144.9 6.6 122.6 11.3 122.5 17.7 140.6 24.1 122.5 28.7 122.6 28.7 144.7 25.8 144.9"/>
    <polygon class="st0" points="123.6 144.7 119.7 145 110.7 127.6 110.4 144.8 107.5 144.9 107.5 122.6 111.5 122.4 120.4 139.4 120.7 122.7 123.6 122.6 123.6 144.7"/>
    <path class="st0" d="M101.1,111.3c-1,4.4-4.5,6.7-8.6,6.5s-6.3-1.9-7.4-5.2-1.3-9.1,0-13,5-5.4,8.9-5c7.1.8,8.9,8.7,7.1,16.7ZM97.6,101.7c-.4-2.4-2.6-4.5-4.8-4.4-4.8,0-6.5,8.4-3.9,15.6s3.3,2.6,4.7,2.4c4.2-.6,5.2-7.1,4.1-13.5Z"/>
    <path class="st0" d="M49.7,139.4c-1.1,4-4.3,5.9-8,6s-7.6-2.4-8.4-6.7-.6-7.7.4-10.9,4.4-5.6,8-5.5,7.2,2.3,8.1,6.2.8,7.5,0,11ZM46,128.2c-.4-1.6-2.6-3.4-4-3.5s-4.2,1.3-4.6,2.8c-2.3,7.4-.8,15.6,4.6,15.3,4.4-.3,5.7-7.7,4-14.6Z"/>
    <path class="st0" d="M72.3,110.6c-.5,4.2-4.1,6.8-7.9,6.8h-7.1s0-22.3,0-22.3h8.8c3.1,1.1,5.1,3.2,6.3,6.2.2,3,.3,6.1-.1,9.3ZM65.9,98.2l-5.1-.5v16.7s2.3.5,2.3.5c1.3.3,4.5-1.2,5-2.7,2.4-6.6.2-13.8-2.2-14Z"/>
    <path class="st0" d="M68.9,140.1c-1.2,2-3.6,4.5-5.9,4.6l-8.7.3v-22.6s8.6.3,8.6.3c2.7.1,5.7,3.2,6.2,5.8.7,4,.5,7.6-.3,11.6ZM62.4,125.5l-4.7-.4v17.2c1.8,0,4.4-.3,5.6-.7,3.8-1.2,3.9-15.7-.9-16.1Z"/>
    <path class="st0" d="M140.1,138.6l-7.9-.2-2.4,6.6-3.4-.3,6.7-19.8.9-2.4h4c0,0,7.7,22.2,7.7,22.2l-3.5.3-2.2-6.4ZM139.2,135.8l-3.1-9.8-3.3,9.9h6.4Z"/>
    <path class="st0" d="M49.2,95h3.4c0,.1,0,15.7,0,15.7,0,2.7-1.3,5.6-4.2,6.5s-5.4.7-7.7-.3-3.4-3.5-3.4-5.4v-16.4s3.3,0,3.3,0v16.5c0,1.9,2.1,3.6,4,3.7,3.1.1,4.7-1.8,4.7-4.5v-15.6Z"/>
    <path class="st0" d="M101,144.9l-1.9-6.8c-.6-2.2-2.6-3.2-5.6-2.7v9.6c0,0-3.5,0-3.5,0v-22.4s8,0,8,0c1.3,0,3.6,1.3,4.3,2.3s1.2,3.9.7,5.6-2.8,3-3.5,3.2c1,.6,2.7,2.3,2.9,3.4l1.6,7.8h-3ZM97.1,132.4c1.1,0,2.7-2.1,2.8-3.3s-1.1-3.7-2.3-3.8l-4.3-.2v7.6s3.8-.3,3.8-.3Z"/>
    <polygon class="st0" points="85.6 134.6 77 134.6 77.1 142.3 86.5 142.2 86.4 145 73.7 144.9 73.8 122.4 85.8 122.5 86 125.2 77.1 125.2 77 132 85.6 132 85.6 134.6"/>
    <path class="st0" d="M17.9,107.3c1.5,1,2,4.5,1.4,6.3-1.5,4.4-8.2,5.1-13.8,3.3v-3.1c5.1,1.9,10.1,1.7,10.5-1.4s-.7-3-1.5-3.5l-6.3-3.8c-1.7-1-3-3.1-3-4.8s1.5-4.5,3.6-5.1c4.4-1.2,8.8-.3,9,.2l.5,1.7-.7.9-6.2-.8c-.8,0-2.5,1.6-2.5,2.3s.8,2.4,1.5,2.8l7.5,4.8Z"/>
    <polygon class="st0" points="29.3 117.3 26 117.4 26 97.7 20.4 97.6 20.4 95 34.8 95 34.9 97.6 29.3 97.7 29.3 117.3"/>
    <rect class="st0" x="76.7" y="95" width="3.4" height="22.5"/>
    <path d="M97.6,101.7c1.2,6.4.1,12.9-4.1,13.5-1.4.2-4.1-1-4.7-2.4-2.6-7.2-.9-15.6,3.9-15.6s4.4,2,4.8,4.4Z"/>
    <path d="M46,128.2c1.7,6.9.4,14.3-4,14.6-5.4.4-6.9-7.9-4.6-15.3s3.2-3,4.6-2.8,3.6,1.9,4,3.5Z"/>
    <path d="M65.9,98.2c2.4.2,4.6,7.4,2.2,14s-3.7,2.9-5,2.7l-2.3-.5v-16.7s5.2.5,5.2.5Z"/>
    <path d="M62.4,125.5c4.7.4,4.7,14.9.9,16.1s-3.8.6-5.5.7v-17.2c0,0,4.7.4,4.7.4Z"/>
    <polygon points="139.2 135.8 132.8 135.9 136.1 126 139.2 135.8"/>
    <path d="M97.1,132.4l-3.8.3v-7.6s4.3.2,4.3.2c1.2,0,2.4,2.6,2.3,3.8s-1.7,3.2-2.8,3.3Z"/>
  </g>
  <g>
    <polygon points="1055.6 36.1 1018.3 143.2 1000.6 143.3 963.2 35.6 963 143.3 946.1 143.3 946.1 13.9 972.6 14 1009.5 120.3 1046.5 13.9 1072.7 14 1072.7 143.2 1055.9 143.3 1055.6 36.1"/>
    <path d="M1596.1,143.3l-52.7-104.1v103.9c-.1,0-17,.1-17,.1V16.3c0-1,.2-2.1.5-2.4h22.9s17.9,35.5,17.9,35.5l32,63.4.8,1.7c0,.1.7.6.7.4v-1s0-100.1,0-100.1h16s.8.5.8.5v127.9c-.1.6-.7.9-1.3.9h-20.8Z"/>
    <path d="M784.7,141.5c-10,2.4-19.8,2.3-29.5,0-21.4-5.2-31.1-23.8-34.2-44.6-2-13.8-2-27.5,0-41.3,3.1-20.2,12.5-38.3,33.1-43.8s20.2-2.7,30.2-.4c21.1,4.9,31.2,22.8,34.5,43.3s2.3,28.3.2,42.5c-3.1,20.5-13,39-34.3,44.2ZM798.5,96.5c2-12.9,2-25.8.2-38.7-2.4-16.8-10.2-32.9-28.6-33s-26.1,15.7-28.5,32.5c-1.8,12.6-1.8,25.3,0,38,2.4,17.3,10.5,33.6,29.3,33.1,17.6-.5,25.2-15.6,27.7-31.9Z"/>
    <path d="M1161.2,143.6c-9.7,2.3-19.1,2.3-28.5.2-21.5-4.8-31.6-23.1-34.9-43.9-2.2-14-2.2-28,0-42,3.1-21,13.3-39.5,34.9-44.4,9.5-2.1,19-2.1,28.5.1,21.4,5,31.5,23.4,34.6,44.2,2.1,13.8,2.1,27.6,0,41.4-3.1,20.7-12.9,39.3-34.5,44.5ZM1146.6,130.4c18.6,0,26.3-16.4,28.6-32.9,1.8-12.5,1.8-25.1,0-37.6s-10.1-32.8-28.4-33c-18.9-.2-26.6,16.4-28.9,33.5s-1.6,24.1,0,36.1,9.7,33.9,28.7,33.9Z"/>
    <path d="M1307.4,60.8c2.2,18.4,1.6,41.4-6.4,58.2-5,10.3-13.5,17.8-24.4,21.2-6.9,2-13.7,3-21,3.1h-34.8s0-129.3,0-129.3h36c7.3,0,14.1,1.3,20.9,3.5,19.4,6.8,27.5,23.6,29.8,43.3ZM1287,62.8c-1.6-14.3-6.5-27.7-20.9-32-4.5-1.2-9.2-1.9-13.9-1.9h-12.7s0,99.3,0,99.3h13c4.9,0,9.7-.8,14.3-2.2,7.1-2.5,12.5-7.4,15.6-14.2,6.1-13.5,6.2-34,4.6-49Z"/>
    <path d="M652.9,58.6c2.2,18.1,1.6,40.5-5.9,57.2-4.8,10.7-13.3,18.5-24.4,22.2-6.8,2.1-13.6,3.2-20.9,3.2h-35.4s0-129.3,0-129.3h36.4c7,0,13.6,1.3,20.1,3.4,19.6,6.7,27.8,23.5,30.2,43.3ZM632.4,60.4c-1.6-13.9-6.3-26.7-20.1-31.3-4.9-1.4-9.8-2.1-15-2.1h-12.4s0,99.3,0,99.3h12.9c4.9,0,9.6-.8,14.2-2.1,7.4-2.4,12.9-7.6,16.1-14.7,5.9-13.6,6.1-34,4.3-49Z"/>
    <path d="M1713.5,106.4h-46.4s-12.6,36.9-12.6,36.9h-19.8c0,0,44-129.3,44-129.3h23.1c0,0,44.3,129.2,44.3,129.2h-19.8c0,0-12.7-36.8-12.7-36.8ZM1708.4,91.4l-18-60.6-19,60.6h37Z"/>
    <path d="M519.1,12h18.8c0,0,0,92,0,92-.2,17.5-8.8,31.4-25.6,36.6-11.8,3.6-24.6,3.7-36.4.1-16.9-5.1-25.4-18.9-25.8-36.4V11.9s18.7,0,18.7,0v91.9c.4,11,4.4,20.4,15.3,23.3s13.1,1.6,19.5,0c12-3.2,15.7-13.8,15.6-25.9V12Z"/>
    <g>
      <path d="M1496.2,100.2l9.2,43h-17s-10-36.1-10-36.1l-3.8-10.1c-2.9-5.3-7.8-8.6-13.9-9.1l-16.4-.3v55.6s-18.7,0-18.7,0V14s39,0,39,0c6.2,0,12,1.2,17.7,3.3,8,3.3,14,9.2,16.7,17.5,2.4,7.5,2.7,15.5.7,23.1s-6.2,12.5-12.4,16-7.6,3.2-12.1,4.7c12.4,2.9,18.3,9.1,21,21.6ZM1481.2,42c-1.4-5.3-4.9-9.2-10-11.2-3.3-1-6.7-1.8-10.2-1.8h-16.7s0,43.7,0,43.7h12.8c5.2-.1,10.2-1.4,14.7-3.7,9.9-5.3,12.1-16.5,9.4-27Z"/>
      <polygon points="1400.7 83.5 1350.6 83.5 1350.6 128.3 1405 128.3 1405 143.3 1331.9 143.3 1331.9 14 1403.3 14 1403.4 28.9 1350.6 28.9 1350.6 68.5 1400.7 68.5 1400.7 83.5"/>
    </g>
    <g>
      <path d="M332.2,136.2c-17.8,10.3-43.1,7.9-63.1,2.1v-19.5c11.5,6.3,23.3,9.7,35.9,9.5s22.7-6,23-18.4-1.5-10.5-5.2-14.4-4.7-4.6-7.6-6.3l-30.1-17.8c-11.7-6.9-18.4-16.3-17.9-30.1s7-21.5,17.8-26.4c16.5-7.5,36.7-5.1,54.5-1.2v17.6c-12.7-4.2-29.8-9.2-41.9-4.3-5,2.1-8.4,6.2-9.4,10.8-2.1,9.8,4.6,16.3,13.4,21.5l25.9,15.3c13.5,8,21.8,17.5,21.2,33.9s-6.1,21.9-16.4,27.8Z"/>
      <polygon points="404.3 141.1 385.6 141.2 385.6 26.9 353.3 26.9 353.3 11.9 436.6 11.9 436.6 26.9 404.3 26.9 404.3 141.1"/>
    </g>
    <rect x="677.4" y="11.9" width="18.8" height="129.3"/>
    <path class="st0" d="M798.5,96.5c-2.5,16.2-10.2,31.4-27.7,31.9-18.9.5-27-15.8-29.3-33.1-1.7-12.7-1.7-25.3,0-38,2.4-16.8,10.2-32.5,28.5-32.5s26.2,16.2,28.6,33c1.8,12.9,1.8,25.8-.2,38.7Z"/>
    <path class="st0" d="M1146.6,130.4c-19,0-26.5-17-28.7-33.9s-1.6-24.1,0-36.1c2.3-17.2,10-33.7,28.9-33.5,18.3.2,26,16.3,28.4,33s1.8,25.1,0,37.6c-2.4,16.6-10.1,32.9-28.6,32.9Z"/>
    <path class="st0" d="M1287,62.8c1.7,15.1,1.5,35.5-4.6,49s-8.5,11.7-15.6,14.2c-4.7,1.4-9.4,2.2-14.3,2.2h-13s0-99.3,0-99.3h12.7c4.7,0,9.4.7,13.9,1.9,14.3,4.3,19.3,17.7,20.9,32Z"/>
    <path class="st0" d="M632.4,60.4c1.7,15,1.6,35.4-4.3,49s-8.7,12.3-16.1,14.7c-4.6,1.3-9.3,2.1-14.2,2.1h-12.9s0-99.3,0-99.3h12.4c5.2,0,10.1.8,15,2.2,13.8,4.6,18.5,17.4,20.1,31.3Z"/>
    <path class="st0" d="M1481.2,42c2.7,10.5.4,21.6-9.4,27-4.6,2.2-9.5,3.6-14.7,3.6h-12.8c0,0,0-43.6,0-43.6h16.7c3.5,0,6.9.8,10.2,1.8,5,2,8.6,5.9,10,11.2Z"/>
    <polygon class="st0" points="1708.4 91.4 1671.4 91.4 1690.4 30.8 1708.4 91.4"/>
  </g>
</svg>