<svg width="173" height="177" viewBox="0 0 173 177" fill="none" xmlns="http://www.w3.org/2000/svg">
<g clip-path="url(#clip0_2249_353)">
<rect width="173" height="176.192" rx="86.5" fill="url(#paint0_radial_2249_353)"/>
<ellipse cx="59.6873" cy="55.2195" rx="74.3708" ry="72.4557" fill="url(#paint1_radial_2249_353)"/>
<path d="M79.5 64.0923C79.5872 62.6728 79.8263 61.7689 80.4825 61.1174C81.5149 60.0923 83.1766 60.0923 86.5 60.0923C89.8234 60.0923 91.4851 60.0923 92.5175 61.1174C93.1737 61.7689 93.4128 62.6728 93.5 64.0923M93.5 76.0922C93.4128 77.5117 93.1737 78.4156 92.5175 79.0671C91.4851 80.0923 89.8234 80.0923 86.5 80.0923C83.1766 80.0923 81.5149 80.0923 80.4825 79.0671C79.8263 78.4156 79.5872 77.5117 79.5 76.0923" stroke="#FAFAFA" stroke-width="1.5" stroke-linecap="round"/>
<path d="M85.5 77.0923H87.5" stroke="#FAFAFA" stroke-width="1.5" stroke-linecap="round" stroke-linejoin="round"/>
<path d="M92 67.0923L93.5332 68.678C94.1777 69.3447 94.5 69.678 94.5 70.0923C94.5 70.5065 94.1777 70.8398 93.5332 71.5065L92 73.0923" stroke="#FAFAFA" stroke-width="1.5" stroke-linecap="round" stroke-linejoin="round"/>
<path d="M81 67.0923L79.4668 68.678C78.8223 69.3447 78.5 69.678 78.5 70.0923C78.5 70.5065 78.8223 70.8398 79.4668 71.5065L81 73.0923" stroke="#FAFAFA" stroke-width="1.5" stroke-linecap="round" stroke-linejoin="round"/>
<path d="M19.2499 95.244H24.8932L29.1575 107.782H29.2086L33.2432 95.244H38.8864V113.476H35.1328V100.555H35.0817L30.613 113.476H27.5233L23.0547 100.683H23.0036V113.476H19.2499V95.244ZM45.2504 106.888C45.2504 107.416 45.3015 107.935 45.4036 108.446C45.5058 108.939 45.676 109.39 45.9143 109.799C46.1697 110.191 46.5016 110.505 46.9102 110.744C47.3188 110.982 47.8295 111.101 48.4423 111.101C49.0551 111.101 49.5658 110.982 49.9744 110.744C50.4 110.505 50.7319 110.191 50.9703 109.799C51.2256 109.39 51.4044 108.939 51.5065 108.446C51.6086 107.935 51.6597 107.416 51.6597 106.888C51.6597 106.36 51.6086 105.841 51.5065 105.33C51.4044 104.82 51.2256 104.369 50.9703 103.977C50.7319 103.585 50.4 103.271 49.9744 103.032C49.5658 102.777 49.0551 102.649 48.4423 102.649C47.8295 102.649 47.3188 102.777 46.9102 103.032C46.5016 103.271 46.1697 103.585 45.9143 103.977C45.676 104.369 45.5058 104.82 45.4036 105.33C45.3015 105.841 45.2504 106.36 45.2504 106.888ZM41.6244 106.888C41.6244 105.833 41.7862 104.879 42.1096 104.028C42.433 103.16 42.8927 102.428 43.4885 101.832C44.0843 101.219 44.7993 100.751 45.6334 100.428C46.4676 100.087 47.4039 99.9169 48.4423 99.9169C49.4807 99.9169 50.417 100.087 51.2512 100.428C52.1023 100.751 52.8258 101.219 53.4216 101.832C54.0175 102.428 54.4771 103.16 54.8005 104.028C55.124 104.879 55.2857 105.833 55.2857 106.888C55.2857 107.943 55.124 108.897 54.8005 109.748C54.4771 110.599 54.0175 111.331 53.4216 111.944C52.8258 112.54 52.1023 112.999 51.2512 113.323C50.417 113.646 49.4807 113.808 48.4423 113.808C47.4039 113.808 46.4676 113.646 45.6334 113.323C44.7993 112.999 44.0843 112.54 43.4885 111.944C42.8927 111.331 42.433 110.599 42.1096 109.748C41.7862 108.897 41.6244 107.943 41.6244 106.888ZM67.3211 106.888C67.3211 106.326 67.2615 105.79 67.1423 105.279C67.0232 104.769 66.8359 104.317 66.5806 103.926C66.3252 103.534 66.0018 103.228 65.6102 103.007C65.2357 102.768 64.7761 102.649 64.2313 102.649C63.7036 102.649 63.244 102.768 62.8524 103.007C62.4609 103.228 62.1375 103.534 61.8821 103.926C61.6268 104.317 61.4395 104.769 61.3203 105.279C61.2012 105.79 61.1416 106.326 61.1416 106.888C61.1416 107.433 61.2012 107.96 61.3203 108.471C61.4395 108.982 61.6268 109.433 61.8821 109.825C62.1375 110.216 62.4609 110.531 62.8524 110.769C63.244 110.991 63.7036 111.101 64.2313 111.101C64.7761 111.101 65.2357 110.991 65.6102 110.769C66.0018 110.531 66.3252 110.216 66.5806 109.825C66.8359 109.433 67.0232 108.982 67.1423 108.471C67.2615 107.96 67.3211 107.433 67.3211 106.888ZM57.6433 95.244H61.2693V101.883H61.3203C61.763 101.202 62.3588 100.708 63.1078 100.402C63.8739 100.079 64.6654 99.9169 65.4826 99.9169C66.1465 99.9169 66.8019 100.053 67.4488 100.325C68.0956 100.598 68.6744 101.015 69.1851 101.577C69.7129 102.138 70.1385 102.862 70.4619 103.747C70.7853 104.615 70.9471 105.654 70.9471 106.862C70.9471 108.071 70.7853 109.118 70.4619 110.003C70.1385 110.871 69.7129 111.586 69.1851 112.148C68.6744 112.71 68.0956 113.127 67.4488 113.399C66.8019 113.672 66.1465 113.808 65.4826 113.808C64.5122 113.808 63.644 113.655 62.878 113.348C62.1119 113.042 61.5331 112.523 61.1416 111.791H61.0905V113.476H57.6433V95.244ZM76.9817 98.2316H73.3557V95.244H76.9817V98.2316ZM73.3557 100.274H76.9817V113.476H73.3557V100.274ZM79.939 95.244H83.565V113.476H79.939V95.244ZM95.3063 105.458C95.1361 104.539 94.8297 103.841 94.387 103.364C93.9615 102.887 93.3061 102.649 92.4208 102.649C91.8421 102.649 91.3569 102.751 90.9653 102.956C90.5908 103.143 90.2844 103.381 90.0461 103.671C89.8248 103.96 89.6631 104.266 89.5609 104.59C89.4758 104.913 89.4247 105.203 89.4077 105.458H95.3063ZM89.4077 107.756C89.4588 108.931 89.7567 109.782 90.3014 110.31C90.8462 110.837 91.6293 111.101 92.6507 111.101C93.3827 111.101 94.0125 110.923 94.5403 110.565C95.068 110.191 95.3914 109.799 95.5106 109.39H98.7025C98.1918 110.974 97.4087 112.106 96.3532 112.787C95.2978 113.468 94.021 113.808 92.523 113.808C91.4846 113.808 90.5483 113.646 89.7141 113.323C88.88 112.982 88.1735 112.506 87.5947 111.893C87.0159 111.28 86.5648 110.548 86.2414 109.697C85.9349 108.846 85.7817 107.909 85.7817 106.888C85.7817 105.901 85.9435 104.981 86.2669 104.13C86.5903 103.279 87.05 102.547 87.6458 101.934C88.2416 101.304 88.9481 100.811 89.7652 100.453C90.5993 100.096 91.5186 99.9169 92.523 99.9169C93.6465 99.9169 94.6254 100.138 95.4595 100.581C96.2937 101.006 96.9746 101.585 97.5023 102.317C98.0471 103.049 98.4386 103.883 98.6769 104.82C98.9153 105.756 99.0004 106.735 98.9323 107.756H89.4077ZM113.169 106.428H117.893L115.595 99.7382H115.544L113.169 106.428ZM113.552 95.244H117.663L124.481 113.476H120.319L118.94 109.416H112.122L110.692 113.476H106.658L113.552 95.244ZM132.335 111.101C132.931 111.101 133.424 110.982 133.816 110.744C134.225 110.505 134.548 110.199 134.786 109.825C135.042 109.433 135.22 108.982 135.323 108.471C135.425 107.96 135.476 107.441 135.476 106.914C135.476 106.386 135.416 105.867 135.297 105.356C135.195 104.845 135.016 104.394 134.761 104.003C134.505 103.594 134.173 103.271 133.765 103.032C133.373 102.777 132.888 102.649 132.309 102.649C131.714 102.649 131.211 102.777 130.803 103.032C130.411 103.271 130.088 103.585 129.832 103.977C129.594 104.369 129.424 104.82 129.322 105.33C129.22 105.841 129.169 106.369 129.169 106.914C129.169 107.441 129.22 107.96 129.322 108.471C129.441 108.982 129.62 109.433 129.858 109.825C130.113 110.199 130.445 110.505 130.854 110.744C131.262 110.982 131.756 111.101 132.335 111.101ZM125.67 100.274H129.118V101.96H129.169C129.611 101.245 130.173 100.726 130.854 100.402C131.535 100.079 132.284 99.9169 133.101 99.9169C134.139 99.9169 135.033 100.113 135.782 100.504C136.531 100.896 137.153 101.415 137.646 102.062C138.14 102.709 138.506 103.466 138.744 104.334C138.983 105.186 139.102 106.079 139.102 107.016C139.102 107.901 138.983 108.752 138.744 109.569C138.506 110.386 138.14 111.11 137.646 111.74C137.17 112.369 136.565 112.872 135.833 113.246C135.118 113.621 134.276 113.808 133.305 113.808C132.488 113.808 131.731 113.646 131.033 113.323C130.352 112.982 129.79 112.489 129.347 111.842H129.296V118.098H125.67V100.274ZM147.945 111.101C148.541 111.101 149.035 110.982 149.426 110.744C149.835 110.505 150.158 110.199 150.397 109.825C150.652 109.433 150.831 108.982 150.933 108.471C151.035 107.96 151.086 107.441 151.086 106.914C151.086 106.386 151.026 105.867 150.907 105.356C150.805 104.845 150.626 104.394 150.371 104.003C150.116 103.594 149.784 103.271 149.375 103.032C148.984 102.777 148.498 102.649 147.92 102.649C147.324 102.649 146.822 102.777 146.413 103.032C146.022 103.271 145.698 103.585 145.443 103.977C145.204 104.369 145.034 104.82 144.932 105.33C144.83 105.841 144.779 106.369 144.779 106.914C144.779 107.441 144.83 107.96 144.932 108.471C145.051 108.982 145.23 109.433 145.468 109.825C145.724 110.199 146.056 110.505 146.464 110.744C146.873 110.982 147.366 111.101 147.945 111.101ZM141.281 100.274H144.728V101.96H144.779C145.221 101.245 145.783 100.726 146.464 100.402C147.145 100.079 147.894 99.9169 148.711 99.9169C149.75 99.9169 150.643 100.113 151.392 100.504C152.141 100.896 152.763 101.415 153.257 102.062C153.75 102.709 154.116 103.466 154.355 104.334C154.593 105.186 154.712 106.079 154.712 107.016C154.712 107.901 154.593 108.752 154.355 109.569C154.116 110.386 153.75 111.11 153.257 111.74C152.78 112.369 152.176 112.872 151.444 113.246C150.729 113.621 149.886 113.808 148.916 113.808C148.098 113.808 147.341 113.646 146.643 113.323C145.962 112.982 145.4 112.489 144.958 111.842H144.907V118.098H141.281V100.274Z" fill="white"/>
</g>
<defs>
<radialGradient id="paint0_radial_2249_353" cx="0" cy="0" r="1" gradientUnits="userSpaceOnUse" gradientTransform="translate(86.5 88.0959) rotate(90) scale(88.0959 86.5)">
<stop offset="0.307692" stop-color="#FF2B89"/>
<stop offset="0.788462" stop-color="#E9C2E1"/>
<stop offset="1" stop-color="#E8CCDE" stop-opacity="0"/>
</radialGradient>
<radialGradient id="paint1_radial_2249_353" cx="0" cy="0" r="1" gradientUnits="userSpaceOnUse" gradientTransform="translate(51.7076 48.8357) rotate(84.2205) scale(79.2423 81.3368)">
<stop stop-color="white"/>
<stop offset="0.740385" stop-color="white" stop-opacity="0.0769231"/>
<stop offset="1" stop-color="white" stop-opacity="0"/>
</radialGradient>
<clipPath id="clip0_2249_353">
<rect width="173" height="176.192" rx="86.5" fill="white"/>
</clipPath>
</defs>
</svg>
