<svg width="413" height="411" viewBox="0 0 413 411" fill="none" xmlns="http://www.w3.org/2000/svg">
<g filter="url(#filter0_di_2247_456)">
<g clip-path="url(#clip0_2247_456)">
<rect x="67.9766" y="64.5767" width="277" height="274.451" rx="137.225" fill="url(#paint0_radial_2247_456)" shape-rendering="crispEdges"/>
<path d="M209.696 196.158L201.065 197.761C199.41 198.068 198.582 198.222 198.105 197.745C197.628 197.268 197.782 196.44 198.089 194.785L199.692 186.154C199.949 184.77 200.077 184.078 200.534 183.659C200.99 183.241 201.824 183.16 203.493 182.997C205.101 182.839 206.623 182.288 208.21 180.701L215.149 187.641C213.562 189.228 213.011 190.749 212.853 192.357C212.69 194.026 212.608 194.86 212.19 195.316C211.772 195.773 211.08 195.901 209.696 196.158Z" stroke="#FAFAFA" stroke-width="1.8587" stroke-linejoin="round"/>
<path d="M207.713 190.875C207.02 190.763 206.386 190.461 205.887 189.962M205.887 189.962C205.388 189.463 205.086 188.829 204.974 188.136M205.887 189.962L199.039 196.81" stroke="#FAFAFA" stroke-width="1.8587" stroke-linecap="round"/>
<path d="M208.332 180.701C209.117 179.544 210.799 177.184 212.373 176.996C213.448 176.868 214.338 177.758 216.119 179.539L216.31 179.73C218.09 181.51 218.981 182.401 218.853 183.475C218.665 185.05 216.305 186.732 215.147 187.517" stroke="#FAFAFA" stroke-width="1.8587" stroke-linejoin="round"/>
<path d="M197.799 180.701L197.799 173.267M194.082 176.984H201.517" stroke="#FAFAFA" stroke-width="1.8587" stroke-linecap="round"/>
<path d="M188.174 225.914C188.084 225.303 187.88 224.747 187.563 224.249C187.245 223.728 186.849 223.275 186.373 222.889C185.897 222.504 185.353 222.21 184.742 222.006C184.152 221.779 183.529 221.666 182.872 221.666C181.671 221.666 180.652 221.904 179.813 222.38C178.975 222.833 178.295 223.456 177.774 224.249C177.253 225.019 176.868 225.903 176.618 226.9C176.392 227.897 176.279 228.928 176.279 229.993C176.279 231.013 176.392 232.009 176.618 232.984C176.868 233.935 177.253 234.796 177.774 235.567C178.295 236.337 178.975 236.96 179.813 237.436C180.652 237.889 181.671 238.116 182.872 238.116C184.504 238.116 185.773 237.617 186.679 236.62C187.608 235.624 188.174 234.309 188.378 232.678H193.544C193.408 234.196 193.057 235.567 192.491 236.79C191.924 238.014 191.177 239.056 190.248 239.917C189.319 240.778 188.231 241.435 186.985 241.889C185.739 242.342 184.368 242.568 182.872 242.568C181.014 242.568 179.337 242.251 177.842 241.617C176.369 240.96 175.123 240.065 174.103 238.932C173.084 237.799 172.302 236.473 171.758 234.955C171.214 233.414 170.943 231.76 170.943 229.993C170.943 228.18 171.214 226.503 171.758 224.963C172.302 223.399 173.084 222.04 174.103 220.884C175.123 219.729 176.369 218.822 177.842 218.165C179.337 217.508 181.014 217.18 182.872 217.18C184.209 217.18 185.467 217.372 186.645 217.757C187.846 218.142 188.911 218.709 189.84 219.457C190.791 220.182 191.573 221.088 192.185 222.176C192.797 223.263 193.182 224.51 193.34 225.914H188.174ZM214.726 239.272C213.774 240.495 212.721 241.356 211.565 241.855C210.409 242.33 209.243 242.568 208.064 242.568C206.206 242.568 204.53 242.251 203.034 241.617C201.561 240.96 200.315 240.065 199.295 238.932C198.276 237.799 197.494 236.473 196.95 234.955C196.407 233.414 196.135 231.76 196.135 229.993C196.135 228.18 196.407 226.503 196.95 224.963C197.494 223.399 198.276 222.04 199.295 220.884C200.315 219.729 201.561 218.822 203.034 218.165C204.53 217.508 206.206 217.18 208.064 217.18C209.311 217.18 210.511 217.372 211.667 217.757C212.845 218.12 213.899 218.664 214.828 219.389C215.78 220.114 216.561 221.009 217.173 222.074C217.785 223.139 218.159 224.362 218.295 225.744H213.196C212.879 224.385 212.267 223.365 211.361 222.686C210.455 222.006 209.356 221.666 208.064 221.666C206.863 221.666 205.844 221.904 205.005 222.38C204.167 222.833 203.487 223.456 202.966 224.249C202.445 225.019 202.06 225.903 201.811 226.9C201.584 227.897 201.471 228.928 201.471 229.993C201.471 231.013 201.584 232.009 201.811 232.984C202.06 233.935 202.445 234.796 202.966 235.567C203.487 236.337 204.167 236.96 205.005 237.436C205.844 237.889 206.863 238.116 208.064 238.116C209.832 238.116 211.191 237.674 212.143 236.79C213.117 235.884 213.684 234.581 213.842 232.882H208.472V228.905H218.668V242.025H215.27L214.726 239.272ZM228.314 229.177H232.46C233.072 229.177 233.661 229.132 234.228 229.041C234.794 228.951 235.293 228.781 235.723 228.531C236.154 228.26 236.494 227.886 236.743 227.41C237.015 226.934 237.151 226.311 237.151 225.54C237.151 224.77 237.015 224.147 236.743 223.671C236.494 223.195 236.154 222.833 235.723 222.584C235.293 222.312 234.794 222.13 234.228 222.04C233.661 221.949 233.072 221.904 232.46 221.904H228.314V229.177ZM222.978 217.757H233.922C235.44 217.757 236.731 217.984 237.796 218.437C238.861 218.868 239.722 219.445 240.379 220.17C241.059 220.896 241.546 221.723 241.841 222.652C242.158 223.581 242.317 224.544 242.317 225.54C242.317 226.515 242.158 227.478 241.841 228.429C241.546 229.358 241.059 230.185 240.379 230.911C239.722 231.636 238.861 232.225 237.796 232.678C236.731 233.108 235.44 233.324 233.922 233.324H228.314V242.025H222.978V217.757Z" fill="white"/>
<ellipse cx="147.423" cy="138.075" rx="98.9893" ry="96.4402" fill="url(#paint1_radial_2247_456)"/>
</g>
</g>
<defs>
<filter id="filter0_di_2247_456" x="0.00110626" y="-2.38419e-07" width="412.951" height="410.402" filterUnits="userSpaceOnUse" color-interpolation-filters="sRGB">
<feFlood flood-opacity="0" result="BackgroundImageFix"/>
<feColorMatrix in="SourceAlpha" type="matrix" values="0 0 0 0 0 0 0 0 0 0 0 0 0 0 0 0 0 0 127 0" result="hardAlpha"/>
<feOffset dy="3.39877"/>
<feGaussianBlur stdDeviation="33.9877"/>
<feComposite in2="hardAlpha" operator="out"/>
<feColorMatrix type="matrix" values="0 0 0 0 0.781907 0 0 0 0 0.781907 0 0 0 0 0.781907 0 0 0 0.15 0"/>
<feBlend mode="normal" in2="BackgroundImageFix" result="effect1_dropShadow_2247_456"/>
<feBlend mode="normal" in="SourceGraphic" in2="effect1_dropShadow_2247_456" result="shape"/>
<feColorMatrix in="SourceAlpha" type="matrix" values="0 0 0 0 0 0 0 0 0 0 0 0 0 0 0 0 0 0 127 0" result="hardAlpha"/>
<feOffset dy="-3.39877"/>
<feGaussianBlur stdDeviation="7.64724"/>
<feComposite in2="hardAlpha" operator="arithmetic" k2="-1" k3="1"/>
<feColorMatrix type="matrix" values="0 0 0 0 1 0 0 0 0 1 0 0 0 0 1 0 0 0 0.34 0"/>
<feBlend mode="normal" in2="shape" result="effect2_innerShadow_2247_456"/>
</filter>
<radialGradient id="paint0_radial_2247_456" cx="0" cy="0" r="1" gradientUnits="userSpaceOnUse" gradientTransform="translate(206.477 201.802) rotate(90) scale(137.225 138.5)">
<stop stop-color="#A319FF"/>
<stop offset="0.288462" stop-color="#B550F8"/>
<stop offset="0.673077" stop-color="#D8A6FC"/>
<stop offset="1" stop-color="#D8B1FF" stop-opacity="0"/>
</radialGradient>
<radialGradient id="paint1_radial_2247_456" cx="0" cy="0" r="1" gradientUnits="userSpaceOnUse" gradientTransform="translate(136.802 129.578) rotate(84.2205) scale(105.473 108.261)">
<stop stop-color="white"/>
<stop offset="0.740385" stop-color="white" stop-opacity="0.0769231"/>
<stop offset="1" stop-color="white" stop-opacity="0"/>
</radialGradient>
<clipPath id="clip0_2247_456">
<rect x="67.9766" y="64.5767" width="277" height="274.451" rx="137.225" fill="white"/>
</clipPath>
</defs>
</svg>
