<svg width="271" height="276" viewBox="0 0 271 276" fill="none" xmlns="http://www.w3.org/2000/svg">
<g clip-path="url(#clip0_2249_331)">
<rect width="271" height="276" rx="135.5" fill="url(#paint0_radial_2249_331)"/>
<path d="M132.585 119.438C127.085 119.438 124.335 119.438 122.627 117.729C120.918 116.02 120.918 113.271 120.918 107.771V106.313C120.918 100.813 120.918 98.0629 122.627 96.3544C124.335 94.6458 127.085 94.6458 132.585 94.6458H137.689C142.483 94.6458 144.88 94.6458 146.494 95.9699C146.789 96.2123 147.06 96.4832 147.302 96.7785C148.626 98.392 148.626 100.789 148.626 105.583" stroke="#FAFAFA" stroke-width="2.1875" stroke-linecap="round" stroke-linejoin="round"/>
<path d="M120.918 103.396H148.626" stroke="#FAFAFA" stroke-width="2.1875" stroke-linecap="round" stroke-linejoin="round"/>
<path d="M126.023 99.0208H126.038M131.842 99.0208H131.857" stroke="#FAFAFA" stroke-width="2.91667" stroke-linecap="round" stroke-linejoin="round"/>
<path d="M139.399 122.354H136.961V119.916C136.961 119.143 137.268 118.401 137.815 117.854L145.801 109.87C146.655 109.016 148.04 109.016 148.894 109.87L149.447 110.422C150.301 111.276 150.301 112.661 149.447 113.516L141.461 121.5C140.914 122.047 140.172 122.354 139.399 122.354Z" stroke="#FAFAFA" stroke-width="2.1875" stroke-linejoin="round"/>
<path d="M42.1633 157.04C42.0566 156.32 41.8166 155.667 41.4433 155.08C41.0699 154.467 40.6033 153.933 40.0433 153.48C39.4833 153.027 38.8433 152.68 38.1233 152.44C37.4299 152.173 36.6966 152.04 35.9233 152.04C34.5099 152.04 33.3099 152.32 32.3233 152.88C31.3366 153.413 30.5366 154.147 29.9233 155.08C29.3099 155.987 28.8566 157.027 28.5633 158.2C28.2966 159.373 28.1633 160.587 28.1633 161.84C28.1633 163.04 28.2966 164.213 28.5633 165.36C28.8566 166.48 29.3099 167.493 29.9233 168.4C30.5366 169.307 31.3366 170.04 32.3233 170.6C33.3099 171.133 34.5099 171.4 35.9233 171.4C37.8433 171.4 39.3366 170.813 40.4033 169.64C41.4966 168.467 42.1633 166.92 42.4033 165H48.4833C48.3233 166.787 47.9099 168.4 47.2433 169.84C46.5766 171.28 45.6966 172.507 44.6033 173.52C43.5099 174.533 42.2299 175.307 40.7633 175.84C39.2966 176.373 37.6833 176.64 35.9233 176.64C33.7366 176.64 31.7633 176.267 30.0033 175.52C28.2699 174.747 26.8033 173.693 25.6033 172.36C24.4033 171.027 23.4833 169.467 22.8433 167.68C22.2033 165.867 21.8833 163.92 21.8833 161.84C21.8833 159.707 22.2033 157.733 22.8433 155.92C23.4833 154.08 24.4033 152.48 25.6033 151.12C26.8033 149.76 28.2699 148.693 30.0033 147.92C31.7633 147.147 33.7366 146.76 35.9233 146.76C37.4966 146.76 38.9766 146.987 40.3633 147.44C41.7766 147.893 43.0299 148.56 44.1233 149.44C45.2433 150.293 46.1633 151.36 46.8833 152.64C47.6033 153.92 48.0566 155.387 48.2433 157.04H42.1633ZM57.2117 165.68C57.2117 166.507 57.2917 167.32 57.4517 168.12C57.6117 168.893 57.8784 169.6 58.2517 170.24C58.6517 170.853 59.1717 171.347 59.8117 171.72C60.4517 172.093 61.2517 172.28 62.2117 172.28C63.1717 172.28 63.9717 172.093 64.6117 171.72C65.2784 171.347 65.7984 170.853 66.1717 170.24C66.5717 169.6 66.8517 168.893 67.0117 168.12C67.1717 167.32 67.2517 166.507 67.2517 165.68C67.2517 164.853 67.1717 164.04 67.0117 163.24C66.8517 162.44 66.5717 161.733 66.1717 161.12C65.7984 160.507 65.2784 160.013 64.6117 159.64C63.9717 159.24 63.1717 159.04 62.2117 159.04C61.2517 159.04 60.4517 159.24 59.8117 159.64C59.1717 160.013 58.6517 160.507 58.2517 161.12C57.8784 161.733 57.6117 162.44 57.4517 163.24C57.2917 164.04 57.2117 164.853 57.2117 165.68ZM51.5317 165.68C51.5317 164.027 51.7851 162.533 52.2917 161.2C52.7984 159.84 53.5184 158.693 54.4517 157.76C55.3851 156.8 56.5051 156.067 57.8117 155.56C59.1184 155.027 60.5851 154.76 62.2117 154.76C63.8384 154.76 65.3051 155.027 66.6117 155.56C67.9451 156.067 69.0784 156.8 70.0117 157.76C70.9451 158.693 71.6651 159.84 72.1717 161.2C72.6784 162.533 72.9317 164.027 72.9317 165.68C72.9317 167.333 72.6784 168.827 72.1717 170.16C71.6651 171.493 70.9451 172.64 70.0117 173.6C69.0784 174.533 67.9451 175.253 66.6117 175.76C65.3051 176.267 63.8384 176.52 62.2117 176.52C60.5851 176.52 59.1184 176.267 57.8117 175.76C56.5051 175.253 55.3851 174.533 54.4517 173.6C53.5184 172.64 52.7984 171.493 52.2917 170.16C51.7851 168.827 51.5317 167.333 51.5317 165.68ZM87.0648 172.28C87.9982 172.28 88.7715 172.093 89.3848 171.72C90.0248 171.347 90.5315 170.867 90.9048 170.28C91.3048 169.667 91.5848 168.96 91.7448 168.16C91.9048 167.36 91.9848 166.547 91.9848 165.72C91.9848 164.893 91.8915 164.08 91.7048 163.28C91.5448 162.48 91.2648 161.773 90.8648 161.16C90.4648 160.52 89.9448 160.013 89.3048 159.64C88.6915 159.24 87.9315 159.04 87.0248 159.04C86.0915 159.04 85.3048 159.24 84.6648 159.64C84.0515 160.013 83.5448 160.507 83.1448 161.12C82.7715 161.733 82.5048 162.44 82.3448 163.24C82.1848 164.04 82.1048 164.867 82.1048 165.72C82.1048 166.547 82.1848 167.36 82.3448 168.16C82.5315 168.96 82.8115 169.667 83.1848 170.28C83.5848 170.867 84.1048 171.347 84.7448 171.72C85.3848 172.093 86.1582 172.28 87.0648 172.28ZM76.6248 155.32H82.0248V157.96H82.1048C82.7982 156.84 83.6782 156.027 84.7448 155.52C85.8115 155.013 86.9848 154.76 88.2648 154.76C89.8915 154.76 91.2915 155.067 92.4648 155.68C93.6382 156.293 94.6115 157.107 95.3848 158.12C96.1582 159.133 96.7315 160.32 97.1048 161.68C97.4782 163.013 97.6648 164.413 97.6648 165.88C97.6648 167.267 97.4782 168.6 97.1048 169.88C96.7315 171.16 96.1582 172.293 95.3848 173.28C94.6382 174.267 93.6915 175.053 92.5448 175.64C91.4248 176.227 90.1048 176.52 88.5848 176.52C87.3048 176.52 86.1182 176.267 85.0248 175.76C83.9582 175.227 83.0782 174.453 82.3848 173.44H82.3048V183.24H76.6248V155.32ZM111.278 178.56C110.665 180.24 109.811 181.44 108.718 182.16C107.625 182.88 106.105 183.24 104.158 183.24C103.571 183.24 102.985 183.213 102.398 183.16C101.838 183.133 101.265 183.093 100.678 183.04V178.36C101.211 178.413 101.758 178.467 102.318 178.52C102.878 178.573 103.438 178.587 103.998 178.56C104.745 178.48 105.291 178.187 105.638 177.68C106.011 177.173 106.198 176.613 106.198 176C106.198 175.547 106.118 175.12 105.958 174.72L98.718 155.32H104.758L109.438 169.48H109.518L114.038 155.32H119.918L111.278 178.56ZM145.46 176H139.62L135.94 162.12H135.86L132.34 176H126.46L119.9 155.32H125.9L129.7 169.36H129.78L133.22 155.32H138.74L142.26 169.32H142.34L146.14 155.32H151.98L145.46 176ZM154.398 155.32H159.798V159.16H159.878C160.145 158.52 160.505 157.933 160.958 157.4C161.412 156.84 161.932 156.373 162.518 156C163.105 155.6 163.732 155.293 164.398 155.08C165.065 154.867 165.758 154.76 166.478 154.76C166.852 154.76 167.265 154.827 167.718 154.96V160.24C167.452 160.187 167.132 160.147 166.758 160.12C166.385 160.067 166.025 160.04 165.678 160.04C164.638 160.04 163.758 160.213 163.038 160.56C162.318 160.907 161.732 161.387 161.278 162C160.852 162.587 160.545 163.28 160.358 164.08C160.172 164.88 160.078 165.747 160.078 166.68V176H154.398V155.32ZM175.785 152.12H170.105V147.44H175.785V152.12ZM170.105 155.32H175.785V176H170.105V155.32ZM187.458 155.32H191.618V159.12H187.458V169.36C187.458 170.32 187.618 170.96 187.938 171.28C188.258 171.6 188.898 171.76 189.858 171.76C190.178 171.76 190.484 171.747 190.778 171.72C191.071 171.693 191.351 171.653 191.618 171.6V176C191.138 176.08 190.604 176.133 190.018 176.16C189.431 176.187 188.858 176.2 188.298 176.2C187.418 176.2 186.578 176.133 185.778 176C185.004 175.893 184.311 175.667 183.698 175.32C183.111 174.973 182.644 174.48 182.298 173.84C181.951 173.2 181.778 172.36 181.778 171.32V159.12H178.338V155.32H181.778V149.12H187.458V155.32ZM200.16 152.12H194.48V147.44H200.16V152.12ZM194.48 155.32H200.16V176H194.48V155.32ZM204.633 155.32H210.033V158.2H210.153C210.873 157 211.806 156.133 212.953 155.6C214.099 155.04 215.273 154.76 216.473 154.76C217.993 154.76 219.233 154.973 220.193 155.4C221.179 155.8 221.953 156.373 222.513 157.12C223.073 157.84 223.459 158.733 223.673 159.8C223.913 160.84 224.033 162 224.033 163.28V176H218.353V164.32C218.353 162.613 218.086 161.347 217.553 160.52C217.019 159.667 216.073 159.24 214.713 159.24C213.166 159.24 212.046 159.707 211.353 160.64C210.659 161.547 210.313 163.053 210.313 165.16V176H204.633V155.32ZM237.984 171.12C238.784 171.12 239.49 170.96 240.104 170.64C240.717 170.32 241.224 169.893 241.624 169.36C242.024 168.827 242.317 168.227 242.504 167.56C242.717 166.867 242.824 166.147 242.824 165.4C242.824 164.547 242.744 163.747 242.584 163C242.424 162.227 242.157 161.547 241.784 160.96C241.41 160.373 240.917 159.907 240.304 159.56C239.69 159.213 238.917 159.04 237.984 159.04C237.184 159.04 236.49 159.2 235.904 159.52C235.344 159.84 234.864 160.28 234.464 160.84C234.09 161.373 233.81 162 233.624 162.72C233.464 163.413 233.384 164.147 233.384 164.92C233.384 165.667 233.45 166.413 233.584 167.16C233.744 167.88 233.997 168.533 234.344 169.12C234.717 169.707 235.197 170.187 235.784 170.56C236.37 170.933 237.104 171.12 237.984 171.12ZM248.224 174.68C248.224 175.507 248.104 176.453 247.864 177.52C247.65 178.587 247.17 179.573 246.424 180.48C245.677 181.413 244.597 182.2 243.184 182.84C241.77 183.48 239.877 183.8 237.504 183.8C236.49 183.8 235.45 183.667 234.384 183.4C233.344 183.16 232.384 182.773 231.504 182.24C230.65 181.707 229.93 181.013 229.344 180.16C228.784 179.333 228.464 178.333 228.384 177.16H234.024C234.29 178.227 234.81 178.96 235.584 179.36C236.357 179.787 237.25 180 238.264 180C239.864 180 241.024 179.52 241.744 178.56C242.49 177.6 242.85 176.387 242.824 174.92V172.2H242.744C242.13 173.293 241.25 174.107 240.104 174.64C238.984 175.147 237.797 175.4 236.544 175.4C234.997 175.4 233.664 175.133 232.544 174.6C231.424 174.04 230.504 173.293 229.784 172.36C229.064 171.4 228.53 170.293 228.184 169.04C227.864 167.76 227.704 166.413 227.704 165C227.704 163.667 227.89 162.387 228.264 161.16C228.664 159.907 229.237 158.813 229.984 157.88C230.73 156.92 231.65 156.16 232.744 155.6C233.864 155.04 235.144 154.76 236.584 154.76C237.944 154.76 239.13 155.013 240.144 155.52C241.184 156.027 242.05 156.88 242.744 158.08H242.824V155.32H248.224V174.68Z" fill="white"/>
<ellipse cx="93.5" cy="86.5" rx="116.5" ry="113.5" fill="url(#paint1_radial_2249_331)"/>
</g>
<defs>
<radialGradient id="paint0_radial_2249_331" cx="0" cy="0" r="1" gradientUnits="userSpaceOnUse" gradientTransform="translate(135.5 138) rotate(90) scale(138 135.5)">
<stop offset="0.307692" stop-color="#F97F4B"/>
<stop offset="0.788462" stop-color="#F6C999"/>
<stop offset="1" stop-color="#E8DCCC" stop-opacity="0"/>
</radialGradient>
<radialGradient id="paint1_radial_2249_331" cx="0" cy="0" r="1" gradientUnits="userSpaceOnUse" gradientTransform="translate(81 76.5) rotate(84.2205) scale(124.131 127.412)">
<stop stop-color="white"/>
<stop offset="0.740385" stop-color="white" stop-opacity="0.0769231"/>
<stop offset="1" stop-color="white" stop-opacity="0"/>
</radialGradient>
<clipPath id="clip0_2249_331">
<rect width="271" height="276" rx="135.5" fill="white"/>
</clipPath>
</defs>
</svg>
