<svg width="182" height="186" viewBox="0 0 182 186" fill="none" xmlns="http://www.w3.org/2000/svg">
<g clip-path="url(#clip0_2248_733)">
<rect width="182" height="185.358" rx="91" fill="url(#paint0_radial_2248_733)"/>
<ellipse cx="62.7945" cy="58.0923" rx="78.2399" ry="76.2251" fill="url(#paint1_radial_2248_733)"/>
<path d="M91.6972 64.6144H90.3028C89.5882 64.6144 89.2309 64.6144 88.9105 64.7264C88.7148 64.7948 88.5309 64.8932 88.3655 65.018C88.0946 65.2225 87.8964 65.5198 87.5 66.1144L87.5 66.1144C87.297 66.4189 86.9978 66.8677 86.8785 66.9931C86.583 67.3037 86.1954 67.511 85.7731 67.5847C85.6027 67.6144 85.4197 67.6144 85.0537 67.6144C84.0736 67.6144 83.5836 67.6144 83.1829 67.7278C82.1806 68.0115 81.3972 68.7949 81.1134 69.7973C81 70.198 81 70.688 81 71.6681V75.6144C81 78.4428 81 79.857 81.8787 80.7357C82.7574 81.6144 84.1716 81.6144 87 81.6144H95C97.8284 81.6144 99.2426 81.6144 100.121 80.7357C101 79.857 101 78.4428 101 75.6144V71.6681C101 70.688 101 70.198 100.887 69.7973C100.603 68.7949 99.8194 68.0115 98.8171 67.7278C98.4164 67.6144 97.9264 67.6144 96.9463 67.6144C96.5803 67.6144 96.3973 67.6144 96.2269 67.5847C95.8046 67.511 95.417 67.3037 95.1215 66.9931C95.0022 66.8677 94.703 66.4189 94.5 66.1144C94.1036 65.5198 93.9054 65.2225 93.6345 65.018C93.4691 64.8932 93.2852 64.7948 93.0895 64.7264C92.7691 64.6144 92.4118 64.6144 91.6972 64.6144Z" stroke="#FAFAFA" stroke-width="1.5" stroke-linecap="round" stroke-linejoin="round"/>
<path d="M95 74.1144C95 76.3235 93.2091 78.1144 91 78.1144C88.7909 78.1144 87 76.3235 87 74.1144C87 71.9052 88.7909 70.1144 91 70.1144C93.2091 70.1144 95 71.9052 95 74.1144Z" stroke="#FAFAFA" stroke-width="1.5" stroke-linecap="round" stroke-linejoin="round"/>
<path d="M98 70.6144V70.6244" stroke="#FAFAFA" stroke-width="2" stroke-linecap="round" stroke-linejoin="round"/>
<path d="M22.9404 99.6497H36.4258V103.196H27.1579V107.628H35.1901V110.906H27.1579V118.83H22.9404V99.6497ZM41.8462 111.899C41.8462 112.455 41.8999 113.001 42.0073 113.538C42.1148 114.058 42.2939 114.532 42.5446 114.962C42.8132 115.374 43.1625 115.705 43.5923 115.956C44.0221 116.207 44.5594 116.332 45.2041 116.332C45.8488 116.332 46.3861 116.207 46.8159 115.956C47.2636 115.705 47.6128 115.374 47.8636 114.962C48.1322 114.532 48.3202 114.058 48.4277 113.538C48.5352 113.001 48.5889 112.455 48.5889 111.899C48.5889 111.344 48.5352 110.798 48.4277 110.261C48.3202 109.724 48.1322 109.249 47.8636 108.837C47.6128 108.425 47.2636 108.094 46.8159 107.843C46.3861 107.574 45.8488 107.44 45.2041 107.44C44.5594 107.44 44.0221 107.574 43.5923 107.843C43.1625 108.094 42.8132 108.425 42.5446 108.837C42.2939 109.249 42.1148 109.724 42.0073 110.261C41.8999 110.798 41.8462 111.344 41.8462 111.899ZM38.0315 111.899C38.0315 110.789 38.2017 109.786 38.5419 108.891C38.8822 107.977 39.3658 107.207 39.9926 106.581C40.6194 105.936 41.3716 105.443 42.2491 105.103C43.1266 104.745 44.1116 104.566 45.2041 104.566C46.2965 104.566 47.2815 104.745 48.1591 105.103C49.0545 105.443 49.8156 105.936 50.4425 106.581C51.0693 107.207 51.5528 107.977 51.8931 108.891C52.2334 109.786 52.4035 110.789 52.4035 111.899C52.4035 113.01 52.2334 114.013 51.8931 114.908C51.5528 115.804 51.0693 116.574 50.4425 117.218C49.8156 117.845 49.0545 118.329 48.1591 118.669C47.2815 119.009 46.2965 119.179 45.2041 119.179C44.1116 119.179 43.1266 119.009 42.2491 118.669C41.3716 118.329 40.6194 117.845 39.9926 117.218C39.3658 116.574 38.8822 115.804 38.5419 114.908C38.2017 114.013 38.0315 113.01 38.0315 111.899ZM59.7192 104.942H62.513V107.494H59.7192V114.371C59.7192 115.016 59.8266 115.445 60.0415 115.66C60.2564 115.875 60.6863 115.983 61.331 115.983C61.5459 115.983 61.7518 115.974 61.9488 115.956C62.1458 115.938 62.3339 115.911 62.513 115.875V118.83C62.1906 118.884 61.8324 118.92 61.4384 118.938C61.0444 118.956 60.6594 118.965 60.2833 118.965C59.6923 118.965 59.1282 118.92 58.5909 118.83C58.0715 118.759 57.6059 118.606 57.194 118.374C56.8 118.141 56.4866 117.809 56.2538 117.38C56.021 116.95 55.9046 116.386 55.9046 115.687V107.494H53.5943V104.942H55.9046V100.778H59.7192V104.942ZM67.7127 111.899C67.7127 112.455 67.7665 113.001 67.8739 113.538C67.9814 114.058 68.1605 114.532 68.4112 114.962C68.6798 115.374 69.029 115.705 69.4589 115.956C69.8887 116.207 70.4259 116.332 71.0707 116.332C71.7154 116.332 72.2527 116.207 72.6825 115.956C73.1302 115.705 73.4794 115.374 73.7301 114.962C73.9988 114.532 74.1868 114.058 74.2943 113.538C74.4017 113.001 74.4555 112.455 74.4555 111.899C74.4555 111.344 74.4017 110.798 74.2943 110.261C74.1868 109.724 73.9988 109.249 73.7301 108.837C73.4794 108.425 73.1302 108.094 72.6825 107.843C72.2527 107.574 71.7154 107.44 71.0707 107.44C70.4259 107.44 69.8887 107.574 69.4589 107.843C69.029 108.094 68.6798 108.425 68.4112 108.837C68.1605 109.249 67.9814 109.724 67.8739 110.261C67.7665 110.798 67.7127 111.344 67.7127 111.899ZM63.8981 111.899C63.8981 110.789 64.0683 109.786 64.4085 108.891C64.7488 107.977 65.2323 107.207 65.8592 106.581C66.486 105.936 67.2381 105.443 68.1157 105.103C68.9932 104.745 69.9782 104.566 71.0707 104.566C72.1631 104.566 73.1481 104.745 74.0256 105.103C74.9211 105.443 75.6822 105.936 76.309 106.581C76.9359 107.207 77.4194 107.977 77.7597 108.891C78.0999 109.786 78.2701 110.789 78.2701 111.899C78.2701 113.01 78.0999 114.013 77.7597 114.908C77.4194 115.804 76.9359 116.574 76.309 117.218C75.6822 117.845 74.9211 118.329 74.0256 118.669C73.1481 119.009 72.1631 119.179 71.0707 119.179C69.9782 119.179 68.9932 119.009 68.1157 118.669C67.2381 118.329 66.486 117.845 65.8592 117.218C65.2323 116.574 64.7488 115.804 64.4085 114.908C64.0683 114.013 63.8981 113.01 63.8981 111.899ZM87.2244 115.553C87.7617 115.553 88.2363 115.445 88.6482 115.231C89.0601 115.016 89.4004 114.729 89.669 114.371C89.9376 114.013 90.1346 113.61 90.26 113.162C90.4033 112.696 90.4749 112.213 90.4749 111.711C90.4749 111.138 90.4212 110.601 90.3137 110.1C90.2063 109.58 90.0272 109.124 89.7765 108.73C89.5257 108.336 89.1944 108.022 88.7825 107.789C88.3706 107.557 87.8512 107.44 87.2244 107.44C86.6872 107.44 86.2215 107.548 85.8275 107.763C85.4514 107.977 85.1291 108.273 84.8604 108.649C84.6097 109.007 84.4217 109.428 84.2963 109.912C84.1888 110.377 84.1351 110.87 84.1351 111.389C84.1351 111.891 84.1799 112.392 84.2694 112.893C84.3769 113.377 84.547 113.816 84.7798 114.21C85.0306 114.604 85.3529 114.926 85.7469 115.177C86.1409 115.428 86.6334 115.553 87.2244 115.553ZM94.1015 117.944C94.1015 118.499 94.0209 119.135 93.8597 119.851C93.7164 120.567 93.3941 121.23 92.8926 121.839C92.3912 122.466 91.6658 122.994 90.7167 123.424C89.7675 123.854 88.496 124.069 86.9021 124.069C86.2215 124.069 85.5231 123.979 84.8067 123.8C84.1083 123.639 83.4635 123.379 82.8725 123.021C82.2995 122.663 81.8159 122.197 81.4219 121.624C81.0458 121.069 80.8309 120.397 80.7772 119.609H84.5649C84.744 120.326 85.0933 120.818 85.6126 121.087C86.132 121.373 86.7319 121.517 87.4125 121.517C88.487 121.517 89.266 121.194 89.7496 120.55C90.251 119.905 90.4928 119.09 90.4749 118.105V116.278H90.4212C90.0093 117.012 89.4183 117.559 88.6482 117.917C87.896 118.257 87.0991 118.427 86.2573 118.427C85.2186 118.427 84.3232 118.248 83.571 117.89C82.8188 117.514 82.201 117.012 81.7174 116.386C81.2339 115.741 80.8757 114.998 80.6429 114.156C80.428 113.296 80.3205 112.392 80.3205 111.443C80.3205 110.547 80.4459 109.688 80.6966 108.864C80.9652 108.022 81.3503 107.288 81.8517 106.661C82.3532 106.016 82.971 105.506 83.7053 105.13C84.4575 104.754 85.3171 104.566 86.2842 104.566C87.1976 104.566 87.9945 104.736 88.675 105.076C89.3735 105.416 89.9555 105.99 90.4212 106.795H90.4749V104.942H94.1015V117.944ZM97.1727 104.942H100.799V107.521H100.853C101.032 107.091 101.274 106.697 101.578 106.339C101.883 105.963 102.232 105.649 102.626 105.399C103.02 105.13 103.441 104.924 103.889 104.781C104.336 104.637 104.802 104.566 105.285 104.566C105.536 104.566 105.814 104.611 106.118 104.7V108.246C105.939 108.21 105.724 108.183 105.474 108.165C105.223 108.13 104.981 108.112 104.748 108.112C104.05 108.112 103.459 108.228 102.975 108.461C102.492 108.694 102.098 109.016 101.793 109.428C101.507 109.822 101.301 110.288 101.175 110.825C101.05 111.362 100.987 111.944 100.987 112.571V118.83H97.1727V104.942ZM107.453 109.213C107.506 108.318 107.73 107.574 108.124 106.983C108.518 106.392 109.02 105.918 109.629 105.56C110.237 105.202 110.918 104.951 111.67 104.808C112.44 104.646 113.21 104.566 113.98 104.566C114.679 104.566 115.386 104.619 116.103 104.727C116.819 104.816 117.473 105.005 118.064 105.291C118.655 105.578 119.138 105.981 119.514 106.5C119.89 107.001 120.078 107.673 120.078 108.515V115.741C120.078 116.368 120.114 116.968 120.186 117.541C120.258 118.114 120.383 118.544 120.562 118.83H116.694C116.622 118.615 116.559 118.4 116.506 118.186C116.47 117.953 116.443 117.72 116.425 117.487C115.816 118.114 115.1 118.553 114.276 118.803C113.452 119.054 112.61 119.179 111.751 119.179C111.088 119.179 110.47 119.099 109.897 118.938C109.324 118.777 108.823 118.526 108.393 118.186C107.963 117.845 107.623 117.415 107.372 116.896C107.139 116.377 107.023 115.759 107.023 115.043C107.023 114.255 107.157 113.61 107.426 113.108C107.712 112.589 108.07 112.177 108.5 111.873C108.948 111.568 109.449 111.344 110.005 111.201C110.578 111.04 111.151 110.914 111.724 110.825C112.297 110.735 112.861 110.664 113.416 110.61C113.971 110.556 114.464 110.476 114.894 110.368C115.324 110.261 115.664 110.109 115.915 109.912C116.165 109.697 116.282 109.392 116.264 108.998C116.264 108.586 116.192 108.264 116.049 108.031C115.924 107.78 115.744 107.592 115.512 107.467C115.297 107.324 115.037 107.234 114.733 107.198C114.446 107.145 114.133 107.118 113.792 107.118C113.04 107.118 112.449 107.279 112.019 107.601C111.59 107.924 111.339 108.461 111.267 109.213H107.453ZM116.264 112.034C116.103 112.177 115.897 112.293 115.646 112.383C115.413 112.455 115.153 112.517 114.867 112.571C114.598 112.625 114.312 112.67 114.007 112.705C113.703 112.741 113.398 112.786 113.094 112.84C112.807 112.893 112.521 112.965 112.234 113.055C111.966 113.144 111.724 113.27 111.509 113.431C111.312 113.574 111.151 113.762 111.025 113.995C110.9 114.228 110.837 114.523 110.837 114.881C110.837 115.222 110.9 115.508 111.025 115.741C111.151 115.974 111.321 116.162 111.536 116.305C111.751 116.43 112.001 116.52 112.288 116.574C112.575 116.627 112.87 116.654 113.175 116.654C113.927 116.654 114.509 116.529 114.921 116.278C115.333 116.028 115.637 115.732 115.834 115.392C116.031 115.034 116.147 114.675 116.183 114.317C116.237 113.959 116.264 113.672 116.264 113.458V112.034ZM123.872 107.494H121.589V104.942H123.872V103.867C123.872 102.632 124.257 101.62 125.027 100.832C125.797 100.044 126.961 99.6497 128.519 99.6497C128.86 99.6497 129.2 99.6677 129.54 99.7035C129.881 99.7214 130.212 99.7393 130.534 99.7572V102.605C130.086 102.551 129.621 102.524 129.137 102.524C128.618 102.524 128.242 102.649 128.009 102.9C127.794 103.133 127.687 103.536 127.687 104.109V104.942H130.319V107.494H127.687V118.83H123.872V107.494ZM132.63 104.942H136.444V118.83H132.63V104.942ZM136.444 102.793H132.63V99.6497H136.444V102.793ZM143.626 102.793H139.811V99.6497H143.626V102.793ZM137.528 120.442C137.725 120.514 137.993 120.55 138.333 120.55C138.727 120.55 139.068 120.469 139.354 120.308C139.659 120.164 139.811 119.833 139.811 119.314V104.942H143.626V119.502C143.626 120.218 143.545 120.836 143.384 121.355C143.24 121.875 142.981 122.305 142.605 122.645C142.247 123.003 141.754 123.263 141.127 123.424C140.5 123.603 139.703 123.693 138.736 123.693C138.289 123.693 137.886 123.657 137.528 123.585V120.442ZM146.777 109.213C146.831 108.318 147.055 107.574 147.449 106.983C147.843 106.392 148.344 105.918 148.953 105.56C149.562 105.202 150.243 104.951 150.995 104.808C151.765 104.646 152.535 104.566 153.305 104.566C154.003 104.566 154.711 104.619 155.427 104.727C156.144 104.816 156.797 105.005 157.388 105.291C157.979 105.578 158.463 105.981 158.839 106.5C159.215 107.001 159.403 107.673 159.403 108.515V115.741C159.403 116.368 159.439 116.968 159.51 117.541C159.582 118.114 159.707 118.544 159.887 118.83H156.018C155.947 118.615 155.884 118.4 155.83 118.186C155.794 117.953 155.767 117.72 155.75 117.487C155.141 118.114 154.424 118.553 153.6 118.803C152.777 119.054 151.935 119.179 151.075 119.179C150.413 119.179 149.795 119.099 149.222 118.938C148.649 118.777 148.147 118.526 147.717 118.186C147.288 117.845 146.947 117.415 146.697 116.896C146.464 116.377 146.347 115.759 146.347 115.043C146.347 114.255 146.482 113.61 146.75 113.108C147.037 112.589 147.395 112.177 147.825 111.873C148.273 111.568 148.774 111.344 149.329 111.201C149.902 111.04 150.475 110.914 151.048 110.825C151.622 110.735 152.186 110.664 152.741 110.61C153.296 110.556 153.789 110.476 154.218 110.368C154.648 110.261 154.988 110.109 155.239 109.912C155.49 109.697 155.606 109.392 155.588 108.998C155.588 108.586 155.517 108.264 155.373 108.031C155.248 107.78 155.069 107.592 154.836 107.467C154.621 107.324 154.362 107.234 154.057 107.198C153.771 107.145 153.457 107.118 153.117 107.118C152.365 107.118 151.774 107.279 151.344 107.601C150.914 107.924 150.663 108.461 150.592 109.213H146.777ZM155.588 112.034C155.427 112.177 155.221 112.293 154.971 112.383C154.738 112.455 154.478 112.517 154.191 112.571C153.923 112.625 153.636 112.67 153.332 112.705C153.027 112.741 152.723 112.786 152.419 112.84C152.132 112.893 151.845 112.965 151.559 113.055C151.29 113.144 151.048 113.27 150.834 113.431C150.637 113.574 150.475 113.762 150.35 113.995C150.225 114.228 150.162 114.523 150.162 114.881C150.162 115.222 150.225 115.508 150.35 115.741C150.475 115.974 150.646 116.162 150.86 116.305C151.075 116.43 151.326 116.52 151.613 116.574C151.899 116.627 152.195 116.654 152.499 116.654C153.251 116.654 153.833 116.529 154.245 116.278C154.657 116.028 154.962 115.732 155.159 115.392C155.356 115.034 155.472 114.675 155.508 114.317C155.562 113.959 155.588 113.672 155.588 113.458V112.034Z" fill="white"/>
</g>
<defs>
<radialGradient id="paint0_radial_2248_733" cx="0" cy="0" r="1" gradientUnits="userSpaceOnUse" gradientTransform="translate(91 92.679) rotate(90) scale(92.679 91)">
<stop offset="0.307692" stop-color="#1880F7"/>
<stop offset="0.788462" stop-color="#C2CFE9"/>
<stop offset="1" stop-color="#D2CCE8" stop-opacity="0"/>
</radialGradient>
<radialGradient id="paint1_radial_2248_733" cx="0" cy="0" r="1" gradientUnits="userSpaceOnUse" gradientTransform="translate(54.3997 51.3764) rotate(84.2205) scale(83.3647 85.5682)">
<stop stop-color="white"/>
<stop offset="0.740385" stop-color="white" stop-opacity="0.0769231"/>
<stop offset="1" stop-color="white" stop-opacity="0"/>
</radialGradient>
<clipPath id="clip0_2248_733">
<rect width="182" height="185.358" rx="91" fill="white"/>
</clipPath>
</defs>
</svg>
