<svg width="184" height="188" viewBox="0 0 184 188" fill="none" xmlns="http://www.w3.org/2000/svg">
<g clip-path="url(#clip0_2249_343)">
<rect width="184" height="187.395" rx="92" fill="url(#paint0_radial_2249_343)"/>
<ellipse cx="63.4824" cy="58.7305" rx="79.0996" ry="77.0627" fill="url(#paint1_radial_2249_343)"/>
<path d="M96.9459 64.959C97.5332 64.3718 97.8268 64.0781 98.1521 63.9377C98.6208 63.7354 99.1521 63.7354 99.6208 63.9377C99.946 64.0781 100.24 64.3718 100.827 64.959C101.414 65.5463 101.708 65.8399 101.848 66.1652C102.051 66.6339 102.051 67.1652 101.848 67.6339C101.708 67.9592 101.414 68.2528 100.827 68.8401L95.8054 73.8617C94.5682 75.0988 93.9496 75.7174 93.1748 76.084C92.4 76.4505 91.5294 76.5364 89.7882 76.7082L89 76.786L89.0778 75.9977C89.2496 74.2566 89.3355 73.386 89.702 72.6112C90.0685 71.8364 90.6871 71.2178 91.9243 69.9806L96.9459 64.959Z" stroke="#FAFAFA" stroke-width="1.5" stroke-linejoin="round"/>
<path d="M86 76.786H83.75C82.7835 76.786 82 77.5695 82 78.536C82 79.5025 82.7835 80.286 83.75 80.286H93.25C94.2165 80.286 95 81.0695 95 82.036C95 83.0025 94.2165 83.786 93.25 83.786H91" stroke="#FAFAFA" stroke-width="1.5" stroke-linecap="round" stroke-linejoin="round"/>
<path d="M30.3004 100.184H34.5643V119.576H30.3004V100.184ZM38.0113 100.184H41.8678V119.576H38.0113V100.184ZM58.0765 119.576H54.4101V117.62H54.3286C53.8397 118.435 53.206 119.023 52.4275 119.386C51.6489 119.748 50.8523 119.929 50.0375 119.929C49.0055 119.929 48.1545 119.793 47.4846 119.521C46.8328 119.25 46.3168 118.87 45.9366 118.381C45.5563 117.874 45.2847 117.267 45.1218 116.561C44.9769 115.837 44.9045 115.04 44.9045 114.171V105.535H48.7611V113.465C48.7611 114.624 48.9421 115.493 49.3042 116.072C49.6663 116.633 50.3091 116.914 51.2325 116.914C52.2826 116.914 53.0431 116.606 53.5138 115.991C53.9846 115.357 54.22 114.325 54.22 112.895V105.535H58.0765V119.576ZM63.9909 115.013C63.9909 115.429 64.0724 115.792 64.2353 116.099C64.4164 116.389 64.6427 116.633 64.9143 116.833C65.1859 117.014 65.4937 117.149 65.8377 117.24C66.1998 117.331 66.571 117.376 66.9512 117.376C67.2228 117.376 67.5034 117.349 67.7931 117.294C68.1009 117.222 68.3725 117.122 68.6079 116.996C68.8614 116.851 69.0696 116.67 69.2325 116.452C69.3955 116.217 69.477 115.927 69.477 115.583C69.477 115.004 69.0877 114.569 68.3091 114.28C67.5487 113.99 66.4805 113.7 65.1044 113.411C64.5431 113.284 63.9909 113.139 63.4477 112.976C62.9227 112.795 62.4519 112.569 62.0355 112.297C61.6191 112.007 61.2841 111.654 61.0306 111.238C60.7771 110.803 60.6504 110.278 60.6504 109.663C60.6504 108.757 60.8224 108.015 61.1664 107.436C61.5285 106.856 61.9993 106.404 62.5787 106.078C63.1581 105.734 63.8099 105.498 64.5341 105.372C65.2583 105.227 66.0007 105.154 66.7611 105.154C67.5215 105.154 68.2548 105.227 68.961 105.372C69.6852 105.517 70.3279 105.761 70.8892 106.105C71.4505 106.449 71.9122 106.911 72.2743 107.49C72.6545 108.051 72.8809 108.767 72.9533 109.636H69.2869C69.2325 108.893 68.9519 108.395 68.4449 108.142C67.938 107.87 67.3405 107.734 66.6525 107.734C66.4352 107.734 66.1998 107.753 65.9463 107.789C65.6929 107.807 65.4575 107.861 65.2402 107.952C65.0411 108.042 64.869 108.178 64.7242 108.359C64.5794 108.522 64.5069 108.748 64.5069 109.038C64.5069 109.382 64.6337 109.663 64.8872 109.88C65.1406 110.097 65.4665 110.278 65.8649 110.423C66.2813 110.55 66.7521 110.668 67.2771 110.776C67.8022 110.885 68.3363 111.003 68.8795 111.129C69.4408 111.256 69.9839 111.41 70.509 111.591C71.0522 111.772 71.532 112.016 71.9484 112.324C72.3648 112.614 72.6998 112.985 72.9533 113.438C73.2068 113.872 73.3335 114.416 73.3335 115.067C73.3335 115.991 73.1434 116.769 72.7632 117.403C72.4011 118.019 71.9213 118.516 71.3238 118.897C70.7263 119.277 70.0382 119.539 69.2597 119.684C68.4993 119.847 67.7207 119.929 66.9241 119.929C66.1093 119.929 65.3126 119.847 64.5341 119.684C63.7555 119.521 63.0585 119.25 62.4429 118.87C61.8454 118.489 61.3475 117.991 60.9491 117.376C60.5689 116.742 60.3607 115.954 60.3245 115.013H63.9909ZM80.4792 105.535H83.3037V108.115H80.4792V115.067C80.4792 115.719 80.5878 116.154 80.8051 116.371C81.0224 116.588 81.4569 116.697 82.1087 116.697C82.326 116.697 82.5342 116.688 82.7334 116.67C82.9325 116.652 83.1226 116.624 83.3037 116.588V119.576C82.9778 119.63 82.6157 119.666 82.2174 119.684C81.819 119.702 81.4298 119.711 81.0495 119.711C80.452 119.711 79.8817 119.666 79.3385 119.576C78.8135 119.503 78.3427 119.349 77.9263 119.114C77.528 118.879 77.2111 118.544 76.9757 118.109C76.7404 117.675 76.6227 117.104 76.6227 116.398V108.115H74.287V105.535H76.6227V101.325H80.4792V105.535ZM85.1386 105.535H88.805V108.142H88.8593C89.0404 107.707 89.2848 107.309 89.5926 106.947C89.9004 106.567 90.2535 106.25 90.6518 105.996C91.0501 105.725 91.4756 105.517 91.9283 105.372C92.3809 105.227 92.8517 105.154 93.3405 105.154C93.594 105.154 93.8747 105.2 94.1824 105.29V108.875C94.0014 108.839 93.7841 108.812 93.5306 108.794C93.2772 108.757 93.0327 108.739 92.7974 108.739C92.0912 108.739 91.4937 108.857 91.0049 109.092C90.516 109.328 90.1177 109.654 89.8099 110.07C89.5202 110.468 89.312 110.939 89.1853 111.482C89.0585 112.026 88.9951 112.614 88.9951 113.248V119.576H85.1386V105.535ZM95.5315 109.853C95.5858 108.948 95.8121 108.196 96.2104 107.599C96.6088 107.001 97.1157 106.521 97.7313 106.159C98.3469 105.797 99.0349 105.544 99.7954 105.399C100.574 105.236 101.352 105.154 102.131 105.154C102.837 105.154 103.552 105.209 104.277 105.317C105.001 105.408 105.662 105.598 106.259 105.888C106.857 106.177 107.345 106.585 107.726 107.11C108.106 107.617 108.296 108.296 108.296 109.147V116.452C108.296 117.086 108.332 117.693 108.405 118.272C108.477 118.851 108.604 119.286 108.785 119.576H104.874C104.802 119.358 104.738 119.141 104.684 118.924C104.648 118.688 104.621 118.453 104.602 118.218C103.987 118.851 103.263 119.295 102.43 119.548C101.597 119.802 100.746 119.929 99.8769 119.929C99.2069 119.929 98.5823 119.847 98.0029 119.684C97.4235 119.521 96.9166 119.268 96.482 118.924C96.0475 118.58 95.7035 118.145 95.45 117.62C95.2146 117.095 95.0969 116.471 95.0969 115.746C95.0969 114.95 95.2327 114.298 95.5043 113.791C95.794 113.266 96.1561 112.849 96.5907 112.542C97.0433 112.234 97.5503 112.007 98.1115 111.863C98.6909 111.7 99.2703 111.573 99.8497 111.482C100.429 111.392 100.999 111.319 101.561 111.265C102.122 111.211 102.62 111.129 103.054 111.021C103.489 110.912 103.833 110.758 104.086 110.559C104.34 110.342 104.458 110.034 104.44 109.636C104.44 109.219 104.367 108.893 104.222 108.658C104.096 108.404 103.914 108.214 103.679 108.088C103.462 107.943 103.199 107.852 102.891 107.816C102.602 107.762 102.285 107.734 101.941 107.734C101.18 107.734 100.583 107.897 100.148 108.223C99.7139 108.549 99.4604 109.092 99.388 109.853H95.5315ZM104.44 112.705C104.277 112.849 104.068 112.967 103.815 113.058C103.579 113.13 103.317 113.193 103.027 113.248C102.756 113.302 102.466 113.347 102.158 113.383C101.85 113.42 101.543 113.465 101.235 113.519C100.945 113.574 100.655 113.646 100.366 113.737C100.094 113.827 99.8497 113.954 99.6324 114.117C99.4333 114.262 99.2703 114.452 99.1436 114.687C99.0168 114.922 98.9535 115.221 98.9535 115.583C98.9535 115.927 99.0168 116.217 99.1436 116.452C99.2703 116.688 99.4423 116.878 99.6596 117.023C99.8769 117.149 100.13 117.24 100.42 117.294C100.71 117.349 101.008 117.376 101.316 117.376C102.077 117.376 102.665 117.249 103.082 116.996C103.498 116.742 103.806 116.443 104.005 116.099C104.204 115.737 104.322 115.375 104.358 115.013C104.412 114.651 104.44 114.361 104.44 114.144V112.705ZM120.849 110.477C120.596 108.866 119.645 108.06 117.998 108.06C117.382 108.06 116.866 108.205 116.45 108.495C116.033 108.767 115.689 109.129 115.418 109.581C115.164 110.016 114.983 110.505 114.874 111.048C114.766 111.573 114.711 112.098 114.711 112.623C114.711 113.13 114.766 113.646 114.874 114.171C114.983 114.696 115.155 115.176 115.39 115.61C115.644 116.027 115.979 116.371 116.395 116.643C116.812 116.914 117.319 117.05 117.916 117.05C118.84 117.05 119.546 116.796 120.035 116.289C120.541 115.764 120.858 115.067 120.985 114.198H124.706C124.452 116.063 123.728 117.484 122.533 118.462C121.338 119.44 119.808 119.929 117.943 119.929C116.893 119.929 115.925 119.757 115.037 119.413C114.168 119.051 113.426 118.553 112.81 117.919C112.195 117.285 111.715 116.534 111.371 115.665C111.027 114.778 110.855 113.809 110.855 112.759C110.855 111.672 111.009 110.668 111.317 109.744C111.643 108.803 112.113 107.997 112.729 107.327C113.344 106.639 114.096 106.105 114.983 105.725C115.87 105.345 116.884 105.154 118.025 105.154C118.858 105.154 119.654 105.263 120.415 105.48C121.193 105.698 121.881 106.033 122.479 106.485C123.094 106.92 123.592 107.472 123.973 108.142C124.353 108.794 124.57 109.572 124.624 110.477H120.849ZM130.85 103.362H126.993V100.184H130.85V103.362ZM126.993 105.535H130.85V119.576H126.993V105.535ZM138.096 103.362H134.239V100.184H138.096V103.362ZM131.931 121.205C132.13 121.278 132.402 121.314 132.746 121.314C133.144 121.314 133.488 121.232 133.778 121.069C134.085 120.925 134.239 120.59 134.239 120.065V105.535H138.096V120.255C138.096 120.979 138.014 121.604 137.851 122.129C137.707 122.654 137.444 123.088 137.064 123.432C136.702 123.794 136.204 124.057 135.57 124.22C134.936 124.401 134.131 124.491 133.153 124.491C132.7 124.491 132.293 124.455 131.931 124.383V121.205ZM141.282 109.853C141.336 108.948 141.563 108.196 141.961 107.599C142.359 107.001 142.866 106.521 143.482 106.159C144.098 105.797 144.786 105.544 145.546 105.399C146.325 105.236 147.103 105.154 147.882 105.154C148.588 105.154 149.303 105.209 150.027 105.317C150.751 105.408 151.412 105.598 152.01 105.888C152.607 106.177 153.096 106.585 153.476 107.11C153.857 107.617 154.047 108.296 154.047 109.147V116.452C154.047 117.086 154.083 117.693 154.155 118.272C154.228 118.851 154.355 119.286 154.536 119.576H150.625C150.552 119.358 150.489 119.141 150.435 118.924C150.398 118.688 150.371 118.453 150.353 118.218C149.738 118.851 149.013 119.295 148.18 119.548C147.348 119.802 146.497 119.929 145.628 119.929C144.958 119.929 144.333 119.847 143.754 119.684C143.174 119.521 142.667 119.268 142.233 118.924C141.798 118.58 141.454 118.145 141.201 117.62C140.965 117.095 140.848 116.471 140.848 115.746C140.848 114.95 140.983 114.298 141.255 113.791C141.545 113.266 141.907 112.849 142.341 112.542C142.794 112.234 143.301 112.007 143.862 111.863C144.442 111.7 145.021 111.573 145.6 111.482C146.18 111.392 146.75 111.319 147.311 111.265C147.873 111.211 148.371 111.129 148.805 111.021C149.24 110.912 149.584 110.758 149.837 110.559C150.091 110.342 150.208 110.034 150.19 109.636C150.19 109.219 150.118 108.893 149.973 108.658C149.846 108.404 149.665 108.214 149.43 108.088C149.212 107.943 148.95 107.852 148.642 107.816C148.352 107.762 148.036 107.734 147.692 107.734C146.931 107.734 146.334 107.897 145.899 108.223C145.465 108.549 145.211 109.092 145.139 109.853H141.282ZM150.19 112.705C150.027 112.849 149.819 112.967 149.566 113.058C149.33 113.13 149.068 113.193 148.778 113.248C148.506 113.302 148.217 113.347 147.909 113.383C147.601 113.42 147.293 113.465 146.985 113.519C146.696 113.574 146.406 113.646 146.116 113.737C145.845 113.827 145.6 113.954 145.383 114.117C145.184 114.262 145.021 114.452 144.894 114.687C144.768 114.922 144.704 115.221 144.704 115.583C144.704 115.927 144.768 116.217 144.894 116.452C145.021 116.688 145.193 116.878 145.41 117.023C145.628 117.149 145.881 117.24 146.171 117.294C146.46 117.349 146.759 117.376 147.067 117.376C147.827 117.376 148.416 117.249 148.832 116.996C149.249 116.742 149.557 116.443 149.756 116.099C149.955 115.737 150.073 115.375 150.109 115.013C150.163 114.651 150.19 114.361 150.19 114.144V112.705Z" fill="white"/>
</g>
<defs>
<radialGradient id="paint0_radial_2249_343" cx="0" cy="0" r="1" gradientUnits="userSpaceOnUse" gradientTransform="translate(92.3395 93.6974) rotate(90.2076) scale(93.698 92.0006)">
<stop stop-color="#86C124"/>
<stop offset="0.649038" stop-color="#BEF464"/>
<stop offset="1" stop-color="#E8DCCC" stop-opacity="0"/>
</radialGradient>
<radialGradient id="paint1_radial_2249_343" cx="0" cy="0" r="1" gradientUnits="userSpaceOnUse" gradientTransform="translate(54.9954 51.9409) rotate(84.2205) scale(84.2808 86.5085)">
<stop stop-color="white"/>
<stop offset="0.740385" stop-color="white" stop-opacity="0.0769231"/>
<stop offset="1" stop-color="white" stop-opacity="0"/>
</radialGradient>
<clipPath id="clip0_2249_343">
<rect width="184" height="187.395" rx="92" fill="white"/>
</clipPath>
</defs>
</svg>
