<svg width="335" height="333" viewBox="0 0 335 333" fill="none" xmlns="http://www.w3.org/2000/svg">
<g filter="url(#filter0_d_2247_483)">
<g clip-path="url(#clip0_2247_483)">
<rect x="59.7812" y="56.2741" width="214.753" height="213" rx="106.5" fill="url(#paint0_radial_2247_483)" shape-rendering="crispEdges"/>
<path d="M156.641 136.04H158.201C159.969 136.04 160.852 136.04 161.298 136.251C162.373 136.761 162.845 138.036 162.36 139.123C162.16 139.573 161.489 140.149 160.147 141.299C158.805 142.449 158.134 143.024 157.933 143.475C157.449 144.562 157.92 145.836 158.995 146.346C159.441 146.558 160.325 146.558 162.092 146.558H163.653" stroke="white" stroke-width="1.31481" stroke-linejoin="round"/>
<path d="M151.381 136.04C151.381 137.492 152.559 138.669 154.011 138.669C155.463 138.669 156.641 137.492 156.641 136.04C156.641 134.587 155.463 133.41 154.011 133.41C152.559 133.41 151.381 134.587 151.381 136.04Z" stroke="white" stroke-width="1.31481"/>
<path d="M163.651 146.558C163.651 148.01 164.828 149.188 166.281 149.188C167.733 149.188 168.91 148.01 168.91 146.558C168.91 145.106 167.733 143.928 166.281 143.928C164.828 143.928 163.651 145.106 163.651 146.558Z" stroke="white" stroke-width="1.31481"/>
<path d="M175.297 138.989L168.755 140.204C167.501 140.437 166.873 140.553 166.512 140.192C166.15 139.83 166.267 139.203 166.5 137.948L167.715 131.406C167.909 130.357 168.007 129.833 168.353 129.516C168.698 129.199 169.331 129.137 170.595 129.014C171.814 128.894 172.968 128.476 174.17 127.274L179.429 132.534C178.227 133.736 177.809 134.889 177.69 136.108C177.566 137.373 177.504 138.005 177.187 138.351C176.87 138.697 176.346 138.794 175.297 138.989Z" stroke="white" stroke-width="1.31481" stroke-linejoin="round"/>
<path d="M173.292 135.347C172.802 135.268 172.353 135.055 172 134.702M172 134.702C171.647 134.349 171.434 133.9 171.354 133.41M172 134.702L167.156 139.546" stroke="white" stroke-width="1.31481" stroke-linecap="round"/>
<path d="M174.172 127.274C174.796 126.353 175.642 124.803 176.895 124.654C177.75 124.552 178.459 125.261 179.876 126.678L180.027 126.829C181.444 128.247 182.153 128.955 182.051 129.81C181.902 131.063 180.352 131.909 179.431 132.533" stroke="white" stroke-width="1.31481" stroke-linejoin="round"/>
<path d="M107.155 161.401H112.523V181.303H124.424V185.817H107.155V161.401ZM131.221 176.995C131.221 177.701 131.289 178.397 131.426 179.081C131.563 179.742 131.791 180.346 132.11 180.893C132.452 181.417 132.897 181.839 133.444 182.158C133.991 182.477 134.675 182.637 135.495 182.637C136.316 182.637 137 182.477 137.547 182.158C138.117 181.839 138.562 181.417 138.881 180.893C139.223 180.346 139.462 179.742 139.599 179.081C139.736 178.397 139.804 177.701 139.804 176.995C139.804 176.288 139.736 175.593 139.599 174.909C139.462 174.225 139.223 173.621 138.881 173.096C138.562 172.572 138.117 172.15 137.547 171.831C137 171.489 136.316 171.318 135.495 171.318C134.675 171.318 133.991 171.489 133.444 171.831C132.897 172.15 132.452 172.572 132.11 173.096C131.791 173.621 131.563 174.225 131.426 174.909C131.289 175.593 131.221 176.288 131.221 176.995ZM126.365 176.995C126.365 175.581 126.582 174.305 127.015 173.165C127.448 172.002 128.063 171.022 128.861 170.224C129.659 169.403 130.617 168.776 131.734 168.343C132.851 167.887 134.105 167.659 135.495 167.659C136.886 167.659 138.14 167.887 139.257 168.343C140.397 168.776 141.366 169.403 142.164 170.224C142.962 171.022 143.577 172.002 144.01 173.165C144.443 174.305 144.66 175.581 144.66 176.995C144.66 178.408 144.443 179.685 144.01 180.825C143.577 181.965 142.962 182.945 142.164 183.766C141.366 184.563 140.397 185.179 139.257 185.612C138.14 186.045 136.886 186.262 135.495 186.262C134.105 186.262 132.851 186.045 131.734 185.612C130.617 185.179 129.659 184.563 128.861 183.766C128.063 182.945 127.448 181.965 127.015 180.825C126.582 179.685 126.365 178.408 126.365 176.995ZM156.058 181.645C156.742 181.645 157.346 181.509 157.871 181.235C158.395 180.961 158.828 180.597 159.17 180.141C159.512 179.685 159.763 179.172 159.923 178.602C160.105 178.009 160.196 177.394 160.196 176.755C160.196 176.026 160.128 175.342 159.991 174.704C159.854 174.042 159.626 173.461 159.307 172.96C158.988 172.458 158.566 172.059 158.042 171.763C157.517 171.466 156.856 171.318 156.058 171.318C155.375 171.318 154.782 171.455 154.28 171.729C153.801 172.002 153.391 172.378 153.049 172.857C152.73 173.313 152.491 173.849 152.331 174.464C152.194 175.057 152.126 175.684 152.126 176.345C152.126 176.983 152.183 177.622 152.297 178.26C152.434 178.875 152.65 179.434 152.947 179.936C153.266 180.437 153.676 180.847 154.178 181.167C154.679 181.486 155.306 181.645 156.058 181.645ZM164.813 184.689C164.813 185.396 164.71 186.205 164.505 187.117C164.322 188.029 163.912 188.872 163.274 189.647C162.635 190.445 161.712 191.118 160.504 191.665C159.296 192.212 157.677 192.486 155.648 192.486C154.782 192.486 153.893 192.372 152.981 192.144C152.092 191.938 151.271 191.608 150.519 191.152C149.789 190.696 149.174 190.103 148.672 189.374C148.193 188.667 147.92 187.812 147.851 186.809H152.673C152.901 187.721 153.346 188.348 154.007 188.69C154.668 189.055 155.431 189.237 156.298 189.237C157.666 189.237 158.657 188.827 159.273 188.006C159.911 187.185 160.219 186.148 160.196 184.894V182.569H160.128C159.603 183.503 158.851 184.199 157.871 184.655C156.913 185.088 155.899 185.304 154.827 185.304C153.505 185.304 152.365 185.076 151.408 184.62C150.45 184.142 149.664 183.503 149.048 182.705C148.433 181.885 147.977 180.939 147.68 179.867C147.407 178.773 147.27 177.622 147.27 176.413C147.27 175.274 147.43 174.179 147.749 173.131C148.091 172.059 148.581 171.124 149.219 170.326C149.858 169.506 150.644 168.856 151.579 168.377C152.536 167.899 153.631 167.659 154.862 167.659C156.024 167.659 157.039 167.876 157.905 168.309C158.794 168.742 159.535 169.472 160.128 170.497H160.196V168.138H164.813V184.689ZM173.031 176.995C173.031 177.701 173.099 178.397 173.236 179.081C173.373 179.742 173.601 180.346 173.92 180.893C174.262 181.417 174.706 181.839 175.254 182.158C175.801 182.477 176.485 182.637 177.305 182.637C178.126 182.637 178.81 182.477 179.357 182.158C179.927 181.839 180.372 181.417 180.691 180.893C181.033 180.346 181.272 179.742 181.409 179.081C181.546 178.397 181.614 177.701 181.614 176.995C181.614 176.288 181.546 175.593 181.409 174.909C181.272 174.225 181.033 173.621 180.691 173.096C180.372 172.572 179.927 172.15 179.357 171.831C178.81 171.489 178.126 171.318 177.305 171.318C176.485 171.318 175.801 171.489 175.254 171.831C174.706 172.15 174.262 172.572 173.92 173.096C173.601 173.621 173.373 174.225 173.236 174.909C173.099 175.593 173.031 176.288 173.031 176.995ZM168.175 176.995C168.175 175.581 168.392 174.305 168.825 173.165C169.258 172.002 169.873 171.022 170.671 170.224C171.469 169.403 172.427 168.776 173.544 168.343C174.661 167.887 175.915 167.659 177.305 167.659C178.696 167.659 179.95 167.887 181.067 168.343C182.207 168.776 183.176 169.403 183.974 170.224C184.771 171.022 185.387 172.002 185.82 173.165C186.253 174.305 186.47 175.581 186.47 176.995C186.47 178.408 186.253 179.685 185.82 180.825C185.387 181.965 184.771 182.945 183.974 183.766C183.176 184.563 182.207 185.179 181.067 185.612C179.95 186.045 178.696 186.262 177.305 186.262C175.915 186.262 174.661 186.045 173.544 185.612C172.427 185.179 171.469 184.563 170.671 183.766C169.873 182.945 169.258 181.965 168.825 180.825C168.392 179.685 168.175 178.408 168.175 176.995ZM195.782 168.138H199.339V171.387H195.782V180.141C195.782 180.961 195.919 181.509 196.193 181.782C196.466 182.056 197.013 182.193 197.834 182.193C198.108 182.193 198.37 182.181 198.621 182.158C198.871 182.136 199.111 182.101 199.339 182.056V185.817C198.928 185.886 198.473 185.931 197.971 185.954C197.469 185.977 196.979 185.988 196.501 185.988C195.748 185.988 195.03 185.931 194.346 185.817C193.685 185.726 193.092 185.532 192.568 185.236C192.066 184.94 191.668 184.518 191.371 183.971C191.075 183.424 190.927 182.705 190.927 181.816V171.387H187.986V168.138H190.927V162.838H195.782V168.138ZM206.642 165.402H201.786V161.401H206.642V165.402ZM201.786 168.138H206.642V185.817H201.786V168.138ZM219.391 182.637C220.188 182.637 220.85 182.477 221.374 182.158C221.921 181.839 222.354 181.429 222.673 180.927C223.015 180.403 223.255 179.799 223.391 179.115C223.528 178.431 223.597 177.736 223.597 177.029C223.597 176.322 223.517 175.627 223.357 174.943C223.22 174.259 222.981 173.655 222.639 173.131C222.297 172.583 221.853 172.15 221.305 171.831C220.781 171.489 220.131 171.318 219.356 171.318C218.558 171.318 217.886 171.489 217.339 171.831C216.814 172.15 216.381 172.572 216.039 173.096C215.72 173.621 215.492 174.225 215.355 174.909C215.219 175.593 215.15 176.299 215.15 177.029C215.15 177.736 215.219 178.431 215.355 179.115C215.515 179.799 215.754 180.403 216.073 180.927C216.415 181.429 216.86 181.839 217.407 182.158C217.954 182.477 218.615 182.637 219.391 182.637ZM210.465 168.138H215.082V170.395H215.15C215.743 169.437 216.495 168.742 217.407 168.309C218.319 167.876 219.322 167.659 220.416 167.659C221.807 167.659 223.004 167.921 224.007 168.446C225.01 168.97 225.842 169.665 226.503 170.532C227.164 171.398 227.655 172.412 227.974 173.575C228.293 174.715 228.452 175.912 228.452 177.166C228.452 178.351 228.293 179.491 227.974 180.585C227.655 181.68 227.164 182.648 226.503 183.492C225.865 184.335 225.056 185.008 224.075 185.51C223.118 186.011 221.989 186.262 220.69 186.262C219.596 186.262 218.581 186.045 217.647 185.612C216.735 185.156 215.982 184.495 215.39 183.629H215.321V192.007H210.465V168.138Z" fill="white"/>
<ellipse cx="125.082" cy="115.441" rx="102.117" ry="99.4877" fill="url(#paint1_radial_2247_483)"/>
</g>
</g>
<defs>
<filter id="filter0_d_2247_483" x="0.00100327" y="7.15256e-07" width="334.314" height="332.56" filterUnits="userSpaceOnUse" color-interpolation-filters="sRGB">
<feFlood flood-opacity="0" result="BackgroundImageFix"/>
<feColorMatrix in="SourceAlpha" type="matrix" values="0 0 0 0 0 0 0 0 0 0 0 0 0 0 0 0 0 0 127 0" result="hardAlpha"/>
<feOffset dy="3.50617"/>
<feGaussianBlur stdDeviation="29.8901"/>
<feComposite in2="hardAlpha" operator="out"/>
<feColorMatrix type="matrix" values="0 0 0 0 0.645658 0 0 0 0 0.626318 0 0 0 0 0.626318 0 0 0 0.1 0"/>
<feBlend mode="normal" in2="BackgroundImageFix" result="effect1_dropShadow_2247_483"/>
<feBlend mode="normal" in="SourceGraphic" in2="effect1_dropShadow_2247_483" result="shape"/>
</filter>
<radialGradient id="paint0_radial_2247_483" cx="0" cy="0" r="1" gradientUnits="userSpaceOnUse" gradientTransform="translate(167.158 162.774) rotate(90) scale(106.5 107.377)">
<stop stop-color="#B29A00"/>
<stop offset="0.764423" stop-color="#ECDD8B"/>
<stop offset="1" stop-color="#FFFBB1" stop-opacity="0"/>
</radialGradient>
<radialGradient id="paint1_radial_2247_483" cx="0" cy="0" r="1" gradientUnits="userSpaceOnUse" gradientTransform="translate(114.125 106.675) rotate(84.2205) scale(108.806 111.682)">
<stop stop-color="white"/>
<stop offset="0.740385" stop-color="white" stop-opacity="0.0769231"/>
<stop offset="1" stop-color="white" stop-opacity="0"/>
</radialGradient>
<clipPath id="clip0_2247_483">
<rect x="59.7812" y="56.2741" width="214.753" height="213" rx="106.5" fill="white"/>
</clipPath>
</defs>
</svg>
