<svg width="225" height="207" viewBox="0 0 225 207" fill="none" xmlns="http://www.w3.org/2000/svg">
<g clip-path="url(#clip0_2248_722)">
<rect width="225" height="229.151" rx="112.5" fill="url(#paint0_radial_2248_722)"/>
<ellipse cx="77.6313" cy="71.8174" rx="96.7251" ry="94.2343" fill="url(#paint1_radial_2248_722)"/>
<path d="M103.141 90.5535C102.64 90.4805 102.242 90.359 101.892 90.1568C101.316 89.8247 100.839 89.3472 100.507 88.7721C100 87.8942 100 86.7157 100 84.3586C100 82.0014 100 80.8229 100.507 79.945C100.839 79.3699 101.316 78.8924 101.892 78.5604C102.769 78.0535 103.948 78.0535 106.305 78.0535C108.662 78.0535 109.841 78.0535 110.719 78.5604C111.294 78.8924 111.771 79.3699 112.103 79.945C112.305 80.2952 112.427 80.6933 112.5 81.1949" stroke="#FAFAFA" stroke-width="1.875" stroke-linecap="round"/>
<path d="M109.402 96.8035C108.895 96.7307 108.494 96.6089 108.141 96.4052C107.566 96.0732 107.089 95.5957 106.757 95.0207C106.25 94.143 106.25 92.9646 106.25 90.6077C106.25 88.2509 106.25 87.0725 106.757 86.1948C107.089 85.6198 107.566 85.1423 108.141 84.8103C109.019 84.3035 110.197 84.3035 112.554 84.3035C114.911 84.3035 116.089 84.3035 116.967 84.8103C117.542 85.1423 118.02 85.6198 118.352 86.1948C118.555 86.5475 118.677 86.9488 118.75 87.4556" stroke="#FAFAFA" stroke-width="1.875" stroke-linecap="round"/>
<path d="M112.5 96.8035C112.5 94.467 112.5 93.2987 113.002 92.4285C113.332 91.8585 113.805 91.3851 114.375 91.0559C115.245 90.5535 116.413 90.5535 118.75 90.5535C121.087 90.5535 122.255 90.5535 123.125 91.0559C123.695 91.3851 124.168 91.8585 124.498 92.4285C125 93.2987 125 94.467 125 96.8035C125 99.1401 125 100.308 124.498 101.179C124.168 101.749 123.695 102.222 123.125 102.551C122.255 103.054 121.087 103.054 118.75 103.054C116.413 103.054 115.245 103.054 114.375 102.551C113.805 102.222 113.332 101.749 113.002 101.179C112.5 100.308 112.5 99.1401 112.5 96.8035Z" stroke="#FAFAFA" stroke-width="1.875"/>
<path d="M42.7219 137.69H48.8658L45.8768 128.989H45.8104L42.7219 137.69ZM43.22 123.144H48.5669L57.434 146.856H52.0208L50.2274 141.576H41.3602L39.5005 146.856H34.2532L43.22 123.144ZM58.9806 129.686H63.464V132.077H63.5637C64.1615 131.081 64.9364 130.362 65.8884 129.919C66.8404 129.454 67.8146 129.221 68.8109 129.221C70.0729 129.221 71.1024 129.399 71.8995 129.753C72.7187 130.085 73.3607 130.561 73.8257 131.181C74.2906 131.779 74.6116 132.52 74.7888 133.406C74.988 134.269 75.0877 135.232 75.0877 136.295V146.856H70.3718V137.159C70.3718 135.742 70.1504 134.69 69.7076 134.004C69.2648 133.295 68.4788 132.941 67.3497 132.941C66.0655 132.941 65.1356 133.328 64.56 134.103C63.9843 134.856 63.6965 136.107 63.6965 137.856V146.856H58.9806V129.686ZM83.5156 127.03H78.7997V123.144H83.5156V127.03ZM78.7997 129.686H83.5156V146.856H78.7997V129.686ZM87.3617 129.686H91.8119V132.011H91.8783C92.4983 131.125 93.24 130.439 94.1034 129.952C94.989 129.465 95.9964 129.221 97.1256 129.221C98.2104 129.221 99.1957 129.432 100.081 129.852C100.989 130.273 101.675 131.015 102.14 132.077C102.65 131.325 103.336 130.661 104.199 130.085C105.085 129.509 106.126 129.221 107.321 129.221C108.229 129.221 109.07 129.332 109.845 129.553C110.62 129.775 111.284 130.129 111.838 130.616C112.391 131.103 112.823 131.745 113.133 132.542C113.443 133.317 113.598 134.258 113.598 135.365V146.856H108.882V137.125C108.882 136.55 108.86 136.007 108.816 135.498C108.771 134.989 108.65 134.546 108.45 134.17C108.251 133.793 107.952 133.494 107.554 133.273C107.177 133.052 106.657 132.941 105.993 132.941C105.329 132.941 104.786 133.074 104.365 133.339C103.967 133.583 103.646 133.915 103.402 134.336C103.181 134.734 103.026 135.199 102.937 135.731C102.871 136.24 102.838 136.76 102.838 137.292V146.856H98.1219V137.225C98.1219 136.716 98.1108 136.218 98.0887 135.731C98.0665 135.221 97.9669 134.756 97.7898 134.336C97.6348 133.915 97.358 133.583 96.9595 133.339C96.5831 133.074 96.0186 132.941 95.2658 132.941C95.0444 132.941 94.7455 132.996 94.3691 133.107C94.0149 133.196 93.6606 133.384 93.3064 133.672C92.9743 133.937 92.6865 134.336 92.4429 134.867C92.1994 135.376 92.0776 136.052 92.0776 136.893V146.856H87.3617V129.686ZM117.126 134.967C117.193 133.86 117.47 132.941 117.957 132.21C118.444 131.48 119.064 130.893 119.817 130.45C120.569 130.007 121.411 129.697 122.341 129.52C123.293 129.321 124.245 129.221 125.197 129.221C126.06 129.221 126.935 129.288 127.82 129.421C128.706 129.531 129.514 129.764 130.245 130.118C130.975 130.472 131.573 130.97 132.038 131.613C132.503 132.232 132.735 133.063 132.735 134.103V143.037C132.735 143.812 132.78 144.553 132.868 145.262C132.957 145.97 133.112 146.502 133.333 146.856H128.551C128.462 146.59 128.385 146.325 128.318 146.059C128.274 145.771 128.241 145.483 128.219 145.196C127.466 145.97 126.58 146.513 125.562 146.823C124.543 147.133 123.503 147.288 122.44 147.288C121.621 147.288 120.857 147.188 120.149 146.989C119.44 146.79 118.82 146.48 118.289 146.059C117.757 145.638 117.337 145.107 117.027 144.465C116.739 143.823 116.595 143.059 116.595 142.173C116.595 141.199 116.761 140.402 117.093 139.782C117.448 139.14 117.89 138.631 118.422 138.255C118.975 137.878 119.595 137.601 120.281 137.424C120.99 137.225 121.698 137.07 122.407 136.959C123.115 136.849 123.813 136.76 124.499 136.694C125.186 136.627 125.794 136.528 126.326 136.395C126.857 136.262 127.278 136.074 127.588 135.83C127.898 135.565 128.042 135.188 128.019 134.701C128.019 134.192 127.931 133.793 127.754 133.506C127.599 133.196 127.377 132.963 127.09 132.808C126.824 132.631 126.503 132.52 126.126 132.476C125.772 132.41 125.385 132.376 124.964 132.376C124.034 132.376 123.304 132.576 122.772 132.974C122.241 133.373 121.931 134.037 121.842 134.967H117.126ZM128.019 138.454C127.82 138.631 127.566 138.775 127.256 138.886C126.968 138.974 126.647 139.052 126.293 139.118C125.96 139.184 125.606 139.24 125.23 139.284C124.853 139.328 124.477 139.384 124.101 139.45C123.746 139.517 123.392 139.605 123.038 139.716C122.706 139.827 122.407 139.982 122.141 140.181C121.898 140.358 121.698 140.59 121.543 140.878C121.388 141.166 121.311 141.531 121.311 141.974C121.311 142.395 121.388 142.749 121.543 143.037C121.698 143.325 121.909 143.557 122.174 143.734C122.44 143.889 122.75 144 123.104 144.066C123.459 144.133 123.824 144.166 124.2 144.166C125.13 144.166 125.85 144.011 126.359 143.701C126.868 143.391 127.245 143.026 127.488 142.605C127.732 142.162 127.876 141.72 127.92 141.277C127.986 140.834 128.019 140.48 128.019 140.214V138.454ZM148.086 135.731C147.776 133.76 146.613 132.775 144.599 132.775C143.846 132.775 143.215 132.952 142.706 133.306C142.196 133.638 141.776 134.081 141.444 134.635C141.134 135.166 140.912 135.764 140.78 136.428C140.647 137.07 140.58 137.712 140.58 138.354C140.58 138.974 140.647 139.605 140.78 140.247C140.912 140.889 141.123 141.476 141.411 142.007C141.72 142.517 142.13 142.937 142.639 143.269C143.149 143.601 143.768 143.768 144.499 143.768C145.628 143.768 146.492 143.458 147.089 142.838C147.709 142.196 148.097 141.343 148.252 140.28H152.802C152.492 142.561 151.606 144.299 150.145 145.494C148.684 146.69 146.813 147.288 144.532 147.288C143.248 147.288 142.064 147.077 140.979 146.657C139.916 146.214 139.008 145.605 138.256 144.83C137.503 144.055 136.916 143.137 136.495 142.074C136.075 140.989 135.864 139.804 135.864 138.52C135.864 137.192 136.053 135.963 136.429 134.834C136.827 133.683 137.403 132.697 138.156 131.878C138.909 131.037 139.827 130.384 140.912 129.919C141.997 129.454 143.237 129.221 144.632 129.221C145.65 129.221 146.625 129.354 147.554 129.62C148.506 129.886 149.348 130.295 150.078 130.849C150.831 131.38 151.44 132.055 151.905 132.875C152.37 133.672 152.636 134.624 152.702 135.731H148.086ZM160.314 127.03H155.599V123.144H160.314V127.03ZM155.599 129.686H160.314V146.856H155.599V129.686ZM169.175 127.03H164.46V123.144H169.175V127.03ZM161.637 148.849C161.88 148.937 162.212 148.982 162.633 148.982C163.12 148.982 163.541 148.882 163.895 148.683C164.271 148.506 164.46 148.096 164.46 147.454V129.686H169.175V147.686C169.175 148.572 169.076 149.336 168.876 149.978C168.699 150.62 168.378 151.151 167.913 151.572C167.471 152.015 166.862 152.336 166.087 152.535C165.312 152.756 164.327 152.867 163.131 152.867C162.578 152.867 162.079 152.823 161.637 152.734V148.849ZM173.072 134.967C173.138 133.86 173.415 132.941 173.902 132.21C174.389 131.48 175.009 130.893 175.762 130.45C176.514 130.007 177.356 129.697 178.286 129.52C179.238 129.321 180.19 129.221 181.142 129.221C182.005 129.221 182.88 129.288 183.765 129.421C184.651 129.531 185.459 129.764 186.19 130.118C186.92 130.472 187.518 130.97 187.983 131.613C188.448 132.232 188.68 133.063 188.68 134.103V143.037C188.68 143.812 188.725 144.553 188.813 145.262C188.902 145.97 189.057 146.502 189.278 146.856H184.496C184.407 146.59 184.33 146.325 184.264 146.059C184.219 145.771 184.186 145.483 184.164 145.196C183.411 145.97 182.525 146.513 181.507 146.823C180.489 147.133 179.448 147.288 178.385 147.288C177.566 147.288 176.802 147.188 176.094 146.989C175.385 146.79 174.765 146.48 174.234 146.059C173.703 145.638 173.282 145.107 172.972 144.465C172.684 143.823 172.54 143.059 172.54 142.173C172.54 141.199 172.706 140.402 173.038 139.782C173.393 139.14 173.835 138.631 174.367 138.255C174.92 137.878 175.54 137.601 176.227 137.424C176.935 137.225 177.644 137.07 178.352 136.959C179.061 136.849 179.758 136.76 180.444 136.694C181.131 136.627 181.74 136.528 182.271 136.395C182.802 136.262 183.223 136.074 183.533 135.83C183.843 135.565 183.987 135.188 183.965 134.701C183.965 134.192 183.876 133.793 183.699 133.506C183.544 133.196 183.323 132.963 183.035 132.808C182.769 132.631 182.448 132.52 182.072 132.476C181.717 132.41 181.33 132.376 180.909 132.376C179.979 132.376 179.249 132.576 178.717 132.974C178.186 133.373 177.876 134.037 177.787 134.967H173.072ZM183.965 138.454C183.765 138.631 183.511 138.775 183.201 138.886C182.913 138.974 182.592 139.052 182.238 139.118C181.906 139.184 181.551 139.24 181.175 139.284C180.799 139.328 180.422 139.384 180.046 139.45C179.692 139.517 179.337 139.605 178.983 139.716C178.651 139.827 178.352 139.982 178.086 140.181C177.843 140.358 177.644 140.59 177.489 140.878C177.334 141.166 177.256 141.531 177.256 141.974C177.256 142.395 177.334 142.749 177.489 143.037C177.644 143.325 177.854 143.557 178.12 143.734C178.385 143.889 178.695 144 179.049 144.066C179.404 144.133 179.769 144.166 180.145 144.166C181.075 144.166 181.795 144.011 182.304 143.701C182.813 143.391 183.19 143.026 183.433 142.605C183.677 142.162 183.821 141.72 183.865 141.277C183.931 140.834 183.965 140.48 183.965 140.214V138.454Z" fill="white"/>
</g>
<defs>
<radialGradient id="paint0_radial_2248_722" cx="0" cy="0" r="1" gradientUnits="userSpaceOnUse" gradientTransform="translate(112.5 114.576) rotate(90) scale(114.576 112.5)">
<stop stop-color="#489763"/>
<stop offset="0.615385" stop-color="#69A98F"/>
<stop offset="1" stop-color="#37B0C0" stop-opacity="0"/>
</radialGradient>
<radialGradient id="paint1_radial_2248_722" cx="0" cy="0" r="1" gradientUnits="userSpaceOnUse" gradientTransform="translate(67.2531 63.5148) rotate(84.2205) scale(103.061 105.785)">
<stop stop-color="white"/>
<stop offset="0.740385" stop-color="white" stop-opacity="0.0769231"/>
<stop offset="1" stop-color="white" stop-opacity="0"/>
</radialGradient>
<clipPath id="clip0_2248_722">
<rect width="225" height="229.151" rx="112.5" fill="white"/>
</clipPath>
</defs>
</svg>
