<svg width="326" height="323" viewBox="0 0 326 323" fill="none" xmlns="http://www.w3.org/2000/svg">
<g clip-path="url(#clip0_2247_571)">
<rect width="326" height="323" rx="161.5" fill="url(#paint0_radial_2247_571)"/>
<path d="M149.145 132C149.145 125.469 149.145 122.204 151.173 120.175C153.202 118.146 156.468 118.146 162.999 118.146C169.53 118.146 172.795 118.146 174.824 120.175C176.853 122.204 176.853 125.469 176.853 132C176.853 138.531 176.853 141.796 174.824 143.825C172.795 145.854 169.53 145.854 162.999 145.854C156.468 145.854 153.202 145.854 151.173 143.825C149.145 141.796 149.145 138.531 149.145 132Z" stroke="#FAFAFA" stroke-width="2.1875"/>
<path d="M149.145 127.625H176.853" stroke="#FAFAFA" stroke-width="2.1875" stroke-linejoin="round"/>
<path d="M164.457 133.458H170.29" stroke="#FAFAFA" stroke-width="2.1875" stroke-linecap="round" stroke-linejoin="round"/>
<path d="M164.457 139.292H167.374" stroke="#FAFAFA" stroke-width="2.1875" stroke-linecap="round" stroke-linejoin="round"/>
<path d="M155.707 123.25H155.72" stroke="#FAFAFA" stroke-width="2.91667" stroke-linecap="round" stroke-linejoin="round"/>
<path d="M161.539 123.25H161.552" stroke="#FAFAFA" stroke-width="2.91667" stroke-linecap="round" stroke-linejoin="round"/>
<path d="M158.625 127.625V145.854" stroke="#FAFAFA" stroke-width="2.1875" stroke-linecap="round" stroke-linejoin="round"/>
<path d="M43.3603 190.02C43.3603 190.98 43.5336 191.793 43.8803 192.46C44.227 193.127 44.6803 193.673 45.2403 194.1C45.827 194.5 46.507 194.807 47.2803 195.02C48.0536 195.207 48.8536 195.3 49.6803 195.3C50.2403 195.3 50.8403 195.26 51.4803 195.18C52.1203 195.073 52.7203 194.887 53.2803 194.62C53.8403 194.353 54.307 193.993 54.6803 193.54C55.0536 193.06 55.2403 192.46 55.2403 191.74C55.2403 190.967 54.987 190.34 54.4803 189.86C54.0003 189.38 53.3603 188.98 52.5603 188.66C51.7603 188.34 50.8536 188.06 49.8403 187.82C48.827 187.58 47.8003 187.313 46.7603 187.02C45.6936 186.753 44.6536 186.433 43.6403 186.06C42.627 185.66 41.7203 185.153 40.9203 184.54C40.1203 183.927 39.467 183.167 38.9603 182.26C38.4803 181.327 38.2403 180.207 38.2403 178.9C38.2403 177.433 38.547 176.167 39.1603 175.1C39.8003 174.007 40.627 173.1 41.6403 172.38C42.6536 171.66 43.8003 171.127 45.0803 170.78C46.3603 170.433 47.6403 170.26 48.9203 170.26C50.4136 170.26 51.8403 170.433 53.2003 170.78C54.587 171.1 55.8136 171.633 56.8803 172.38C57.947 173.127 58.787 174.087 59.4003 175.26C60.0403 176.407 60.3603 177.807 60.3603 179.46H54.2803C54.227 178.607 54.0403 177.9 53.7203 177.34C53.427 176.78 53.027 176.34 52.5203 176.02C52.0136 175.7 51.427 175.473 50.7603 175.34C50.1203 175.207 49.4136 175.14 48.6403 175.14C48.1336 175.14 47.627 175.193 47.1203 175.3C46.6136 175.407 46.147 175.593 45.7203 175.86C45.3203 176.127 44.987 176.46 44.7203 176.86C44.4536 177.26 44.3203 177.767 44.3203 178.38C44.3203 178.94 44.427 179.393 44.6403 179.74C44.8536 180.087 45.267 180.407 45.8803 180.7C46.5203 180.993 47.387 181.287 48.4803 181.58C49.6003 181.873 51.0536 182.247 52.8403 182.7C53.3736 182.807 54.107 183.007 55.0403 183.3C56.0003 183.567 56.947 184.007 57.8803 184.62C58.8136 185.233 59.6136 186.06 60.2803 187.1C60.9736 188.113 61.3203 189.42 61.3203 191.02C61.3203 192.327 61.067 193.54 60.5603 194.66C60.0536 195.78 59.2936 196.753 58.2803 197.58C57.2936 198.38 56.0536 199.007 54.5603 199.46C53.0936 199.913 51.387 200.14 49.4403 200.14C47.867 200.14 46.3336 199.94 44.8403 199.54C43.3736 199.167 42.067 198.567 40.9203 197.74C39.8003 196.913 38.907 195.86 38.2403 194.58C37.5736 193.3 37.2536 191.78 37.2803 190.02H43.3603ZM74.8969 195.78C75.8302 195.78 76.6035 195.593 77.2169 195.22C77.8569 194.847 78.3635 194.367 78.7369 193.78C79.1369 193.167 79.4169 192.46 79.5769 191.66C79.7369 190.86 79.8169 190.047 79.8169 189.22C79.8169 188.393 79.7235 187.58 79.5369 186.78C79.3769 185.98 79.0969 185.273 78.6969 184.66C78.2969 184.02 77.7769 183.513 77.1369 183.14C76.5235 182.74 75.7635 182.54 74.8569 182.54C73.9235 182.54 73.1369 182.74 72.4969 183.14C71.8835 183.513 71.3769 184.007 70.9769 184.62C70.6035 185.233 70.3369 185.94 70.1769 186.74C70.0169 187.54 69.9369 188.367 69.9369 189.22C69.9369 190.047 70.0169 190.86 70.1769 191.66C70.3635 192.46 70.6435 193.167 71.0169 193.78C71.4169 194.367 71.9369 194.847 72.5769 195.22C73.2169 195.593 73.9902 195.78 74.8969 195.78ZM64.4569 178.82H69.8569V181.46H69.9369C70.6302 180.34 71.5102 179.527 72.5769 179.02C73.6435 178.513 74.8169 178.26 76.0969 178.26C77.7235 178.26 79.1235 178.567 80.2969 179.18C81.4702 179.793 82.4435 180.607 83.2169 181.62C83.9902 182.633 84.5635 183.82 84.9369 185.18C85.3102 186.513 85.4969 187.913 85.4969 189.38C85.4969 190.767 85.3102 192.1 84.9369 193.38C84.5635 194.66 83.9902 195.793 83.2169 196.78C82.4702 197.767 81.5235 198.553 80.3769 199.14C79.2569 199.727 77.9369 200.02 76.4169 200.02C75.1369 200.02 73.9502 199.767 72.8569 199.26C71.7902 198.727 70.9102 197.953 70.2169 196.94H70.1369V206.74H64.4569V178.82ZM89.07 170.94H94.75V199.5H89.07V170.94ZM113.143 186.94C112.876 185.5 112.396 184.407 111.703 183.66C111.036 182.913 110.009 182.54 108.623 182.54C107.716 182.54 106.956 182.7 106.343 183.02C105.756 183.313 105.276 183.687 104.903 184.14C104.556 184.593 104.303 185.073 104.143 185.58C104.009 186.087 103.929 186.54 103.903 186.94H113.143ZM103.903 190.54C103.983 192.38 104.449 193.713 105.303 194.54C106.156 195.367 107.383 195.78 108.983 195.78C110.129 195.78 111.116 195.5 111.943 194.94C112.769 194.353 113.276 193.74 113.463 193.1H118.463C117.663 195.58 116.436 197.353 114.783 198.42C113.129 199.487 111.129 200.02 108.783 200.02C107.156 200.02 105.689 199.767 104.383 199.26C103.076 198.727 101.969 197.98 101.063 197.02C100.156 196.06 99.4492 194.913 98.9425 193.58C98.4625 192.247 98.2225 190.78 98.2225 189.18C98.2225 187.633 98.4758 186.193 98.9825 184.86C99.4892 183.527 100.209 182.38 101.143 181.42C102.076 180.433 103.183 179.66 104.463 179.1C105.769 178.54 107.209 178.26 108.783 178.26C110.543 178.26 112.076 178.607 113.383 179.3C114.689 179.967 115.756 180.873 116.583 182.02C117.436 183.167 118.049 184.473 118.423 185.94C118.796 187.407 118.929 188.94 118.823 190.54H103.903ZM129.391 178.82H133.551V182.62H129.391V192.86C129.391 193.82 129.551 194.46 129.871 194.78C130.191 195.1 130.831 195.26 131.791 195.26C132.111 195.26 132.418 195.247 132.711 195.22C133.005 195.193 133.285 195.153 133.551 195.1V199.5C133.071 199.58 132.538 199.633 131.951 199.66C131.365 199.687 130.791 199.7 130.231 199.7C129.351 199.7 128.511 199.633 127.711 199.5C126.938 199.393 126.245 199.167 125.631 198.82C125.045 198.473 124.578 197.98 124.231 197.34C123.885 196.7 123.711 195.86 123.711 194.82V182.62H120.271V178.82H123.711V172.62H129.391V178.82ZM136.254 178.82H141.654V181.7H141.774C142.494 180.5 143.427 179.633 144.574 179.1C145.72 178.54 146.894 178.26 148.094 178.26C149.614 178.26 150.854 178.473 151.814 178.9C152.8 179.3 153.574 179.873 154.134 180.62C154.694 181.34 155.08 182.233 155.294 183.3C155.534 184.34 155.654 185.5 155.654 186.78V199.5H149.974V187.82C149.974 186.113 149.707 184.847 149.174 184.02C148.64 183.167 147.694 182.74 146.334 182.74C144.787 182.74 143.667 183.207 142.974 184.14C142.28 185.047 141.934 186.553 141.934 188.66V199.5H136.254V178.82ZM159.725 185.18C159.805 183.847 160.138 182.74 160.725 181.86C161.311 180.98 162.058 180.273 162.965 179.74C163.871 179.207 164.885 178.833 166.005 178.62C167.151 178.38 168.298 178.26 169.445 178.26C170.485 178.26 171.538 178.34 172.605 178.5C173.671 178.633 174.645 178.913 175.525 179.34C176.405 179.767 177.125 180.367 177.685 181.14C178.245 181.887 178.525 182.887 178.525 184.14V194.9C178.525 195.833 178.578 196.727 178.685 197.58C178.791 198.433 178.978 199.073 179.245 199.5H173.485C173.378 199.18 173.285 198.86 173.205 198.54C173.151 198.193 173.111 197.847 173.085 197.5C172.178 198.433 171.111 199.087 169.885 199.46C168.658 199.833 167.405 200.02 166.125 200.02C165.138 200.02 164.218 199.9 163.365 199.66C162.511 199.42 161.765 199.047 161.125 198.54C160.485 198.033 159.978 197.393 159.605 196.62C159.258 195.847 159.085 194.927 159.085 193.86C159.085 192.687 159.285 191.727 159.685 190.98C160.111 190.207 160.645 189.593 161.285 189.14C161.951 188.687 162.698 188.353 163.525 188.14C164.378 187.9 165.231 187.713 166.085 187.58C166.938 187.447 167.778 187.34 168.605 187.26C169.431 187.18 170.165 187.06 170.805 186.9C171.445 186.74 171.951 186.513 172.325 186.22C172.698 185.9 172.871 185.447 172.845 184.86C172.845 184.247 172.738 183.767 172.525 183.42C172.338 183.047 172.071 182.767 171.725 182.58C171.405 182.367 171.018 182.233 170.565 182.18C170.138 182.1 169.671 182.06 169.165 182.06C168.045 182.06 167.165 182.3 166.525 182.78C165.885 183.26 165.511 184.06 165.405 185.18H159.725ZM172.845 189.38C172.605 189.593 172.298 189.767 171.925 189.9C171.578 190.007 171.191 190.1 170.765 190.18C170.365 190.26 169.938 190.327 169.485 190.38C169.031 190.433 168.578 190.5 168.125 190.58C167.698 190.66 167.271 190.767 166.845 190.9C166.445 191.033 166.085 191.22 165.765 191.46C165.471 191.673 165.231 191.953 165.045 192.3C164.858 192.647 164.765 193.087 164.765 193.62C164.765 194.127 164.858 194.553 165.045 194.9C165.231 195.247 165.485 195.527 165.805 195.74C166.125 195.927 166.498 196.06 166.925 196.14C167.351 196.22 167.791 196.26 168.245 196.26C169.365 196.26 170.231 196.073 170.845 195.7C171.458 195.327 171.911 194.887 172.205 194.38C172.498 193.847 172.671 193.313 172.725 192.78C172.805 192.247 172.845 191.82 172.845 191.5V189.38ZM198.466 192.78C198.466 193.393 198.586 193.927 198.826 194.38C199.093 194.807 199.426 195.167 199.826 195.46C200.226 195.727 200.68 195.927 201.186 196.06C201.72 196.193 202.266 196.26 202.826 196.26C203.226 196.26 203.64 196.22 204.066 196.14C204.52 196.033 204.92 195.887 205.266 195.7C205.64 195.487 205.946 195.22 206.186 194.9C206.426 194.553 206.546 194.127 206.546 193.62C206.546 192.767 205.973 192.127 204.826 191.7C203.706 191.273 202.133 190.847 200.106 190.42C199.28 190.233 198.466 190.02 197.666 189.78C196.893 189.513 196.2 189.18 195.586 188.78C194.973 188.353 194.48 187.833 194.106 187.22C193.733 186.58 193.546 185.807 193.546 184.9C193.546 183.567 193.8 182.473 194.306 181.62C194.84 180.767 195.533 180.1 196.386 179.62C197.24 179.113 198.2 178.767 199.266 178.58C200.333 178.367 201.426 178.26 202.546 178.26C203.666 178.26 204.746 178.367 205.786 178.58C206.853 178.793 207.8 179.153 208.626 179.66C209.453 180.167 210.133 180.847 210.666 181.7C211.226 182.527 211.56 183.58 211.666 184.86H206.266C206.186 183.767 205.773 183.033 205.026 182.66C204.28 182.26 203.4 182.06 202.386 182.06C202.066 182.06 201.72 182.087 201.346 182.14C200.973 182.167 200.626 182.247 200.306 182.38C200.013 182.513 199.76 182.713 199.546 182.98C199.333 183.22 199.226 183.553 199.226 183.98C199.226 184.487 199.413 184.9 199.786 185.22C200.16 185.54 200.64 185.807 201.226 186.02C201.84 186.207 202.533 186.38 203.306 186.54C204.08 186.7 204.866 186.873 205.666 187.06C206.493 187.247 207.293 187.473 208.066 187.74C208.866 188.007 209.573 188.367 210.186 188.82C210.8 189.247 211.293 189.793 211.666 190.46C212.04 191.1 212.226 191.9 212.226 192.86C212.226 194.22 211.946 195.367 211.386 196.3C210.853 197.207 210.146 197.94 209.266 198.5C208.386 199.06 207.373 199.447 206.226 199.66C205.106 199.9 203.96 200.02 202.786 200.02C201.586 200.02 200.413 199.9 199.266 199.66C198.12 199.42 197.093 199.02 196.186 198.46C195.306 197.9 194.573 197.167 193.986 196.26C193.426 195.327 193.12 194.167 193.066 192.78H198.466ZM222.751 178.82H226.911V182.62H222.751V192.86C222.751 193.82 222.911 194.46 223.231 194.78C223.551 195.1 224.191 195.26 225.151 195.26C225.471 195.26 225.777 195.247 226.071 195.22C226.364 195.193 226.644 195.153 226.911 195.1V199.5C226.431 199.58 225.897 199.633 225.311 199.66C224.724 199.687 224.151 199.7 223.591 199.7C222.711 199.7 221.871 199.633 221.071 199.5C220.297 199.393 219.604 199.167 218.991 198.82C218.404 198.473 217.937 197.98 217.591 197.34C217.244 196.7 217.071 195.86 217.071 194.82V182.62H213.631V178.82H217.071V172.62H222.751V178.82ZM229.613 178.82H235.013V182.66H235.093C235.36 182.02 235.72 181.433 236.173 180.9C236.626 180.34 237.146 179.873 237.733 179.5C238.32 179.1 238.946 178.793 239.613 178.58C240.28 178.367 240.973 178.26 241.693 178.26C242.066 178.26 242.48 178.327 242.933 178.46V183.74C242.666 183.687 242.346 183.647 241.973 183.62C241.6 183.567 241.24 183.54 240.893 183.54C239.853 183.54 238.973 183.713 238.253 184.06C237.533 184.407 236.946 184.887 236.493 185.5C236.066 186.087 235.76 186.78 235.573 187.58C235.386 188.38 235.293 189.247 235.293 190.18V199.5H229.613V178.82ZM244.92 185.18C245 183.847 245.333 182.74 245.92 181.86C246.507 180.98 247.253 180.273 248.16 179.74C249.067 179.207 250.08 178.833 251.2 178.62C252.347 178.38 253.493 178.26 254.64 178.26C255.68 178.26 256.733 178.34 257.8 178.5C258.867 178.633 259.84 178.913 260.72 179.34C261.6 179.767 262.32 180.367 262.88 181.14C263.44 181.887 263.72 182.887 263.72 184.14V194.9C263.72 195.833 263.773 196.727 263.88 197.58C263.987 198.433 264.173 199.073 264.44 199.5H258.68C258.573 199.18 258.48 198.86 258.4 198.54C258.347 198.193 258.307 197.847 258.28 197.5C257.373 198.433 256.307 199.087 255.08 199.46C253.853 199.833 252.6 200.02 251.32 200.02C250.333 200.02 249.413 199.9 248.56 199.66C247.707 199.42 246.96 199.047 246.32 198.54C245.68 198.033 245.173 197.393 244.8 196.62C244.453 195.847 244.28 194.927 244.28 193.86C244.28 192.687 244.48 191.727 244.88 190.98C245.307 190.207 245.84 189.593 246.48 189.14C247.147 188.687 247.893 188.353 248.72 188.14C249.573 187.9 250.427 187.713 251.28 187.58C252.133 187.447 252.973 187.34 253.8 187.26C254.627 187.18 255.36 187.06 256 186.9C256.64 186.74 257.147 186.513 257.52 186.22C257.893 185.9 258.067 185.447 258.04 184.86C258.04 184.247 257.933 183.767 257.72 183.42C257.533 183.047 257.267 182.767 256.92 182.58C256.6 182.367 256.213 182.233 255.76 182.18C255.333 182.1 254.867 182.06 254.36 182.06C253.24 182.06 252.36 182.3 251.72 182.78C251.08 183.26 250.707 184.06 250.6 185.18H244.92ZM258.04 189.38C257.8 189.593 257.493 189.767 257.12 189.9C256.773 190.007 256.387 190.1 255.96 190.18C255.56 190.26 255.133 190.327 254.68 190.38C254.227 190.433 253.773 190.5 253.32 190.58C252.893 190.66 252.467 190.767 252.04 190.9C251.64 191.033 251.28 191.22 250.96 191.46C250.667 191.673 250.427 191.953 250.24 192.3C250.053 192.647 249.96 193.087 249.96 193.62C249.96 194.127 250.053 194.553 250.24 194.9C250.427 195.247 250.68 195.527 251 195.74C251.32 195.927 251.693 196.06 252.12 196.14C252.547 196.22 252.987 196.26 253.44 196.26C254.56 196.26 255.427 196.073 256.04 195.7C256.653 195.327 257.107 194.887 257.4 194.38C257.693 193.847 257.867 193.313 257.92 192.78C258 192.247 258.04 191.82 258.04 191.5V189.38ZM268.129 178.82H273.529V181.7H273.649C274.369 180.5 275.302 179.633 276.449 179.1C277.595 178.54 278.769 178.26 279.969 178.26C281.489 178.26 282.729 178.473 283.689 178.9C284.675 179.3 285.449 179.873 286.009 180.62C286.569 181.34 286.955 182.233 287.169 183.3C287.409 184.34 287.529 185.5 287.529 186.78V199.5H281.849V187.82C281.849 186.113 281.582 184.847 281.049 184.02C280.515 183.167 279.569 182.74 278.209 182.74C276.662 182.74 275.542 183.207 274.849 184.14C274.155 185.047 273.809 186.553 273.809 188.66V199.5H268.129V178.82Z" fill="white"/>
<ellipse cx="93.5" cy="86.5" rx="116.5" ry="113.5" fill="url(#paint1_radial_2247_571)"/>
</g>
<defs>
<radialGradient id="paint0_radial_2247_571" cx="0" cy="0" r="1" gradientUnits="userSpaceOnUse" gradientTransform="translate(163 161.5) rotate(90) scale(161.5 163)">
<stop stop-color="#28C1A3"/>
<stop offset="0.456731" stop-color="#5DE2C8"/>
<stop offset="0.788462" stop-color="#C2E2E9"/>
<stop offset="1" stop-color="#CCE6E8" stop-opacity="0"/>
</radialGradient>
<radialGradient id="paint1_radial_2247_571" cx="0" cy="0" r="1" gradientUnits="userSpaceOnUse" gradientTransform="translate(81 76.5) rotate(84.2205) scale(124.131 127.412)">
<stop stop-color="white"/>
<stop offset="0.740385" stop-color="white" stop-opacity="0.0769231"/>
<stop offset="1" stop-color="white" stop-opacity="0"/>
</radialGradient>
<clipPath id="clip0_2247_571">
<rect width="326" height="323" rx="161.5" fill="white"/>
</clipPath>
</defs>
</svg>
