<svg viewBox="0 0 2800 1812" xmlns="http://www.w3.org/2000/svg"><path d="m0 0h2800v1812h-2800z" fill="#fff"/><g fill="#cf202e"><path d="m882.59 980.03c-42.36 0-76.7-34.33-76.71-76.69 0-42.36 34.33-76.7 76.69-76.71 42.36 0 76.7 34.33 76.71 76.69v.04c-.06 42.33-34.37 76.62-76.69 76.67m0-139.3c-34.58 0-62.61 28.03-62.61 62.61s28.03 62.61 62.61 62.61 62.61-28.03 62.61-62.61c-.04-34.57-28.05-62.58-62.61-62.61"/><path d="m882.59 949.08c-25.26 0-45.74-20.49-45.74-45.75s20.49-45.74 45.75-45.74 45.73 20.48 45.74 45.74c-.03 25.26-20.49 45.72-45.75 45.75m0-82.94c-20.54 0-37.19 16.65-37.19 37.19s16.65 37.19 37.19 37.19 37.19-16.65 37.19-37.19c-.03-20.53-16.66-37.17-37.19-37.19"/><path d="m876.55 881.2v-66c-.14-3.43 2.52-6.32 5.94-6.48h.19c3.42.16 6.08 3.05 5.94 6.48v66z"/><path d="m876.55 925.28v66c-.14 3.43 2.52 6.32 5.94 6.48h.19c3.43-.15 6.08-3.05 5.94-6.48v-66h-12.08z"/><path d="m860.55 909.39h-66c-3.43.14-6.33-2.52-6.48-5.95v-.19c.15-3.43 3.05-6.08 6.48-5.94h66z"/><path d="m904.63 909.39h66c3.43.14 6.32-2.52 6.48-5.94v-.19c-.15-3.43-3.05-6.08-6.48-5.94h-66v12.08z"/></g><g fill="#7c868c"><path d="m1093.24 919.83 27.01 36.11c-7.96 0-14.66.23-21.32-.16-1.94-.5-3.62-1.71-4.73-3.38-7.18-9.35-14.32-18.73-21.15-28.37-2.08-3.75-6.21-5.88-10.47-5.4-5.34.45-10.76.1-16.88.1v36.81h-18.39v-93.01h7.62 70.8c12.4 0 14.62 2.28 14.62 14.94 0 9.91.05 19.82 0 29.72-.06 8.23-3.27 11.35-11.66 11.52-4.48.09-8.96.07-13.45.15-.39 0-.78.36-1.97.95m8.35-38.56h-55.53v18.72h55.47l.07-18.72z"/><path d="m1672.23 899.72-8.66-.58v-17.41l8.31-1.01v-17.67h18.96v17.8h46.38v18.61h-45.7v37.71h45.7c.32-2.76.68-5.69 1.07-9.1l18.12-2.13c0 7.57.42 14.4-.13 21.15-.04 4.98-4.11 8.99-9.09 8.95-.28 0-.56-.02-.84-.05-21.25 0-42.51.08-63.76-.04-7.17-.04-10.18-3.09-10.3-10.54-.21-12.51-.07-25.03-.07-37.55v-8.1"/><path d="m1380.66 955.44c-1.8.32-2.26.41-2.7.49-13.98 2.3-21.5-3.08-32.3-14.54 0 0-13.76-17.82-20.46-26.25l-19.13 16.32s.05 12.16.05 24h-17.89v-92.37h17.73v45.66c2.47-1.77 31.99-27.69 44.91-40.14 4.17-4.46 10.17-6.73 16.25-6.16l13.97.08-43.34 39.73 42.93 53.2"/><path d="m1411.66 862.56c27.86 0 55.24-.09 82.62.07 5.08-.51 9.62 3.2 10.13 8.28.06.61.06 1.23 0 1.85.16 6.33.03 12.66.03 19.82l-18.23-1.92c-.18-3.23-.34-6-.53-9.3h-55.81v74.23h-18.23l.03-93.02z"/><path d="m1937.18 881.41v74.13h-18.27v-92.57c2.13-.15 4.17-.41 6.21-.41 24.57-.03 49.13-.03 73.7 0 10.13 0 13.08 2.94 13.12 12.97v17.06l-18.19-1.88c-.22-3.17-.42-5.94-.68-9.29h-55.89z"/><path d="m1627.74 901.47c.15-12.76 0-25.54 0-38.46h-18.65v74.06h-56.25v-74.29c-2.09-.11-3.46-.25-4.84-.26h-13.57c0 13.18-.08 25.7 0 38.12 0 15.63-.13 30.39.07 45.09-.46 5.01 3.22 9.44 8.22 9.91.49.05.99.05 1.49.02 24.55.16 49.1.16 73.65 0 4.72.62 9.05-2.7 9.68-7.42.04-.27.06-.55.07-.82.39-15.26.16-30.54.14-45.99"/><path d="m1176.26 937.12v-18.37h61.59c10.02 0 12.87-2.96 12.88-13.14 0-10.87.09-21.73-.03-32.6.69-5.01-2.82-9.63-7.83-10.32-.68-.09-1.37-.11-2.05-.05-24.31-.18-48.67-.11-73 0-5.11-.61-9.76 3.04-10.36 8.16-.07.61-.09 1.23-.04 1.85-.16 24.57-.16 49.14 0 73.71-.46 4.8 3.05 9.07 7.86 9.54.46.04.92.05 1.37.02 24.8.14 49.61.16 74.42.03 4.75.46 8.96-3.02 9.42-7.77.02-.25.04-.5.04-.76.22-3.38.24-6.79.22-10.26h-74.48v-.05zm.17-55.98h55.18v18.91h-55.2z"/><path d="m1802.46 936.91v-18.37h61.59c10.02 0 12.87-2.96 12.88-13.14 0-10.87.09-21.74-.03-32.6.69-5.01-2.81-9.63-7.81-10.32-.69-.09-1.38-.11-2.07-.05-24.31-.18-48.67-.11-73 0-5.11-.61-9.75 3.03-10.36 8.14-.07.62-.09 1.24-.04 1.87-.16 24.57-.16 49.14 0 73.71-.46 4.8 3.05 9.07 7.86 9.54.46.04.92.05 1.37.02 24.8.14 49.61.16 74.42.03 4.75.46 8.96-3.02 9.42-7.77.02-.25.04-.5.04-.76.22-3.38.24-6.79.22-10.27h-74.49v-.05zm.16-55.97h55.18v18.91h-55.18z"/></g></svg>